<svg id="Capa_1" enable-background="new 0 0 512 512" height="512" viewBox="0 0 512 512" width="512" xmlns="http://www.w3.org/2000/svg"><g><path d="m364.603 395.635c0 39.512-21.09 74.088-52.638 93.087h-111.93c-31.548-18.999-52.638-53.575-52.638-93.087 0-23.079 7.202-44.478 19.483-62.065h178.24c12.281 17.587 19.483 38.986 19.483 62.065z" fill="#e4996d"/><path d="m235.137 488.722h-35.102c-31.548-18.999-52.638-53.575-52.638-93.087 0-23.079 7.202-44.478 19.483-62.065h71.338c-24.893 26.664-55.235 80.198-3.081 155.152z" fill="#d97c41"/><path d="m495.224 304.423c-9.128 3.359-20.74 6.728-33.917 8.551h-.011l-31.001-14.908-34.144 7.975c-20.534-7.933-41.418-22.409-60.623-46.889-7.181-9.149-21.502-7.562-26.262 3.05-2.947 6.553-5.997 14.754-8.727 24.83-5.11 18.844-9.049 38.658-9.049 71.999l-70.992-.747c0-33.34-3.928-52.408-9.038-71.251-2.73-10.076-5.78-18.277-8.727-24.83-4.76-10.612-19.081-12.199-26.262-3.05-19.205 24.48-40.089 38.955-60.623 46.889l-26.293-2.277-38.852 9.211h-.011c-13.177-1.824-24.789-5.193-33.917-8.551-12.322-4.513-19.184-17.68-16-30.404v-.01c1.545-6.161 5.285-11.55 10.561-15.094 4.141-2.782 9.602-6.821 15.671-12.26l40.717-19.174 5.316-35.174c16.371-13.219 39.862-22.172 61.879-22.553 18.061-.33 35.154 5.11 46.528 18.669 6.676 7.954 13.847 15.475 21.708 22.265 6.707 5.801 15.022 14.96 22.852 29.065 3.864 6.965 14.475 4.214 14.475-3.75v-41.129c0-51.164-9.376-83.577-17.814-102.401-4.76-10.612-19.081-12.199-26.262-3.05-19.194 24.469-40.089 38.945-60.623 46.889l-27.56-4.842-37.583 11.772h-.01c-13.177-1.824-24.789-5.193-33.917-8.541-12.322-4.523-19.184-17.69-16.001-30.414.773-3.081 2.092-5.965 3.874-8.531 1.792-2.565 4.049-4.801 6.686-6.573 4.152-2.782 9.613-6.821 15.671-12.26l43.396-27.272 2.638-27.076c17.154-13.847 42.077-22.996 64.97-22.553 16.907.319 32.701 5.893 43.427 18.669 6.676 7.954 13.847 15.475 21.719 22.265 5.677 4.894 12.487 12.209 19.184 22.862 5.945 9.448 19.679 9.561 25.881.289 7.192-10.756 14.64-17.865 20.75-23.151 7.872-6.79 15.042-14.311 21.719-22.265 25.242-30.085 78.58-20.183 108.397 3.884l9.705 32.423 36.328 21.925c6.058 5.44 11.518 9.479 15.671 12.26 2.638 1.772 4.894 4.008 6.686 6.573 1.782 2.565 3.101 5.45 3.874 8.531 3.183 12.724-3.678 25.891-16.001 30.414-9.128 3.348-20.74 6.718-33.917 8.541h-.01l-42.283-14.939-22.862 8.005c-20.534-7.944-41.429-22.419-60.623-46.889-7.181-9.149-21.502-7.562-26.262 3.05-8.438 18.823-17.814 42.541-17.814 93.715h-.082c.052 2.844.082 5.739.082 8.685v41.129c0 7.964 10.612 10.715 14.475 3.75 7.83-14.105 16.145-23.264 22.852-29.065 7.861-6.79 15.032-14.311 21.708-22.265 25.253-30.085 78.601-20.183 108.408 3.884l10.622 36.318 35.411 18.03c6.069 5.44 11.529 9.479 15.671 12.26 5.275 3.544 9.015 8.933 10.561 15.094v.01c3.184 12.727-3.678 25.894-16 30.407z" fill="#29ce69"/><g fill="#00c140"><path d="m300.54 287.031c-5.11 18.844-9.087 44.23-9.087 77.571h-70.905c0-33.34-3.977-58.727-9.087-77.571z" display="none"/><path d="m135.785 136.31-27.56-4.842-37.585 11.776h-.01c-13.177-1.824-24.789-5.193-33.917-8.541-12.322-4.523-19.184-17.69-16.001-30.414.773-3.081 2.092-5.965 3.874-8.531 1.792-2.565 4.049-4.801 6.686-6.573 4.152-2.782 9.613-6.821 15.671-12.26l43.396-27.272 2.638-27.076c17.154-13.847 42.077-22.996 64.97-22.553-24.974 17.37-73.594 63.609-22.162 136.286z"/><path d="m115.849 306.04-26.293-2.277-38.852 9.211h-.011c-13.177-1.824-24.789-5.193-33.917-8.551-12.322-4.513-19.184-17.68-16-30.404v-.01c1.545-6.161 5.285-11.55 10.561-15.094 4.141-2.782 9.602-6.821 15.671-12.26l40.717-19.174 5.316-35.174c16.371-13.219 39.862-22.172 61.879-22.553-22.213 19.06-62.425 66.628-19.071 136.286z"/></g><path d="m418.931 109.419c4.574 9.994 11.653 22.069 22.44 33.825-19.328 2.679-42.015 2.019-65.155-6.934-20.709-28.457-26.025-60.087-27.159-79.147-.536-8.861 6.439-16.32 15.321-16.423 24.243-.268 42.757-9.623 54.647-18.164 6.377 5.151 11.683 10.952 15.403 17.154 9.798 16.34 20.977 28.549 30.631 37.194-6.975 4.399-18.246 9.716-33.072 10.746-10.738.752-17.538 11.972-13.056 21.749z" fill="#ffb3c2"/><path d="m162.944 57.163c-1.133 19.06-6.45 50.69-27.159 79.147l-27.56-4.842-1.649.515-7.026-1.041v-93.757h23.491c7.366 2.102 15.578 3.451 24.583 3.555 8.881.103 15.856 7.562 15.32 16.423z" fill="#ffb3c2"/><path d="m135.785 136.31c-23.14 8.953-45.827 9.613-65.155 6.934 10.787-11.756 17.865-23.831 22.44-33.825 4.482-9.777-2.318-20.997-13.054-21.749-14.826-1.03-26.097-6.347-33.072-10.746 9.654-8.644 20.833-20.853 30.631-37.194 3.72-6.202 9.026-12.003 15.403-17.154 7.48 5.368 17.566 11.065 30.064 14.61-13.282 23.882-17.011 57.078 12.743 99.124z" fill="#ff899f"/><path d="m143.018 226.893c-1.143 19.06-6.449 50.69-27.169 79.147l-35.236-8.067 4.409-90.46h20.318c6.789 1.762 14.249 2.864 22.347 2.957 8.882.093 15.857 7.563 15.331 16.423z" fill="#ffb3c2"/><path d="m115.849 306.04c-23.14 8.953-45.827 9.602-65.155 6.934 10.787-11.756 17.865-23.831 22.44-33.825 4.482-9.788-2.318-20.997-13.054-21.749-14.815-1.03-26.097-6.347-33.072-10.746 9.653-8.654 20.832-20.863 30.64-37.204 3.719-6.192 9.015-11.993 15.393-17.144 7.923 5.687 18.772 11.735 32.3 15.207-11.591 24.367-14.94 57.635 10.508 98.527z" fill="#ff899f"/><path d="m438.867 279.15c4.574 9.994 11.652 22.069 22.44 33.825-19.329 2.668-42.015 2.019-65.155-6.934-20.72-28.457-26.025-60.087-27.169-79.147-.526-8.861 6.449-16.33 15.331-16.423 24.232-.268 42.747-9.623 54.647-18.164 6.377 5.151 11.673 10.952 15.393 17.144 9.808 16.34 20.987 28.549 30.641 37.204-6.975 4.399-18.257 9.716-33.072 10.746-10.738.751-17.538 11.961-13.056 21.749z" fill="#ffb3c2"/><path d="m372.361 341.328c0 6.429-2.606 12.25-6.821 16.464-4.203 4.204-10.025 6.81-16.454 6.81h-186.173c-12.858 0-23.274-10.416-23.274-23.274 0-6.429 2.606-12.24 6.821-16.454 4.203-4.204 10.025-6.81 16.453-6.81h54.709l15.166 6.223 22.502-6.223h93.798c12.857 0 23.273 10.416 23.273 23.264z" fill="#d97c41"/><path d="m216.756 364.602h-53.843c-12.858 0-23.274-10.416-23.274-23.274 0-6.429 2.606-12.24 6.821-16.454 4.203-4.204 10.025-6.81 16.453-6.81h92.376c-8.891 6.759-27.056 22.594-38.533 46.538z" fill="#af602d"/><path d="m333.571 496.48c0 4.286-1.741 8.17-4.544 10.973-2.802 2.802-6.676 4.544-10.962 4.544h-124.13c-8.561 0-15.506-6.944-15.506-15.516 0-4.286 1.741-8.17 4.544-10.973 2.802-2.802 6.676-4.544 10.962-4.544h124.13c8.561-.001 15.506 6.944 15.506 15.516z" fill="#d97c41"/><path d="m229.985 480.963c6.295 9.953 14.053 20.297 23.49 31.032h-59.541c-8.561 0-15.506-6.944-15.506-15.516 0-4.286 1.741-8.17 4.544-10.973 2.802-2.802 6.676-4.544 10.962-4.544z" fill="#af602d"/><g><g><path d="m206.795 425.301c-4.268 0-7.727-3.46-7.727-7.727 0-3.559-2.896-6.455-6.454-6.455-3.559 0-6.454 2.895-6.454 6.455 0 4.268-3.459 7.727-7.727 7.727s-7.727-3.46-7.727-7.727c0-12.081 9.828-21.909 21.909-21.909s21.909 9.828 21.909 21.909c-.001 4.267-3.46 7.727-7.729 7.727z" fill="#495560"/></g><g><path d="m333.568 425.301c-4.268 0-7.727-3.46-7.727-7.727 0-3.559-2.896-6.455-6.454-6.455-3.559 0-6.454 2.895-6.454 6.455 0 4.268-3.459 7.727-7.727 7.727s-7.727-3.46-7.727-7.727c0-12.081 9.828-21.909 21.909-21.909s21.909 9.828 21.909 21.909c-.002 4.267-3.461 7.727-7.729 7.727z" fill="#495560"/></g><g><path d="m256 448.73c-7.998 0-15.604-3.464-20.868-9.503-2.804-3.217-2.47-8.098.748-10.902 3.217-2.804 8.098-2.469 10.902.748 2.329 2.671 5.689 4.203 9.219 4.203 3.531 0 6.89-1.532 9.219-4.203 2.802-3.217 7.685-3.552 10.902-.748 3.218 2.804 3.552 7.685.748 10.902-5.266 6.039-12.872 9.503-20.87 9.503z" fill="#495560"/></g></g></g></svg>