<svg id="Capa_1" enable-background="new 0 0 512 512" height="512" viewBox="0 0 512 512" width="512" xmlns="http://www.w3.org/2000/svg"><g><path d="m395.637 341.33v139.761c0 17.072-13.837 30.909-30.909 30.909h-217.456c-17.072 0-30.909-13.837-30.909-30.909v-139.761z" fill="#e4996d"/><path d="m225.256 512h-77.984c-17.072 0-30.909-13.837-30.909-30.909v-139.761h88.112c-23.255 33.392-42.233 92.418 20.781 170.67z" fill="#d97c41"/><path d="m208.868 302.61c40.534-233.511 156.773-262.982 179.676-266.544 2.414-.375 4.88-.067 7.121.907 8.395 3.646 10.384 14.636 3.819 21.012-12.713 12.346-30.385 31.471-37.896 48.764-12.741 29.338-2.724 142.596-117.142 211.311z" fill="#80e0b7"/><path d="m256 318.066h-38.791c-77.572-108.615-23.275-208.503-23.275-240.494 0-18.855-8.583-43.428-15.331-59.82-.67-1.628-.979-3.297-.979-4.915 0-6.79 5.461-12.838 12.848-12.838 2.452 0 4.832.701 6.893 2.009 9.757 6.161 38.152 27.427 57.336 75.624 19.371 48.642 29.354 124.73 1.299 240.434z" fill="#29ce69"/><path d="m240.205 318.066h-22.996c-77.572-108.615-23.275-208.503-23.275-240.494 0-18.855-8.583-43.428-15.331-59.82-.67-1.628-.979-3.297-.979-4.915 0-6.79 5.461-12.838 12.848-12.838 2.452 0 4.832.701 6.893 2.009 9.757 6.161 38.152 27.427 57.336 75.624-35.009 39.143-99.558 134.889-14.496 240.434z" fill="#00c140"/><path d="m204.852 271.515c92.627-35.914 81.443-41.659 125.227-106.166 32.385-47.713 81.585-57.153 107.239-58.633 8.334-.481 14.568 7.522 12.062 15.486-1.253 3.982-4.49 7.039-8.551 8.005-15.344 3.652-53.163 17.775-56.208 68.57-3.828 63.856-46.985 123.469-113.17 127.041z" fill="#00c140"/><path d="m253.424 333.242c-1.504 2.782-3.235 5.492-5.182 8.088-66.197-3.349-132.075-100.249-136.114-164.086-3.214-50.794-41.078-64.786-56.43-68.392-2.03-.474-3.864-1.473-5.347-2.854-1.473-1.37-2.596-3.132-3.235-5.121-2.535-7.954 3.678-15.98 12.013-15.527 25.655 1.401 74.893 10.674 107.43 58.284 4.029 5.893 7.593 11.581 10.818 17.062l6.697 29.869 14.301 10.406c9.911 19.813 19.596 36.782 39.028 52.288 24.336 19.422 30.415 53.339 16.021 79.983z" fill="#80e0b7"/><path d="m253.424 333.242c-1.504 2.782-3.235 5.492-5.182 8.088-66.197-3.349-132.075-100.249-136.114-164.086-3.214-50.794-41.078-64.786-56.43-68.392-2.03-.474-3.864-1.473-5.347-2.854-1.473-1.37-2.596-3.132-3.235-5.121-2.535-7.954 3.678-15.98 12.013-15.527 25.655 1.401 74.893 10.674 107.43 58.284 14.837 21.709 23.419 40.543 31.816 57.337-2.164 39.945 11.076 85.371 55.049 132.271z" fill="#36d49b"/><path d="m495.774 204.525c3.459 27.578-.479 87.162-93.508 104.108-60.287 10.979-72.648 35.318-69.667 57.188l-26.444 6.543 4.101-51.717c2.132-26.818 14.347-52.044 34.731-69.612 14.469-12.474 34.429-22.656 61.239-23.303 49.16-1.168 60.99-15.77 63.589-24.787 1.318-4.54 4.805-8.12 9.396-9.256l.64-.158c7.531-1.863 14.962 3.293 15.923 10.994z" fill="#29ce69"/><path d="m16.226 204.525c-3.459 27.578.479 87.162 93.508 104.108 60.287 10.979 72.648 35.318 69.667 57.188l26.444 6.543-4.101-51.717c-2.132-26.818-14.347-52.044-34.731-69.612-14.469-12.474-34.429-22.656-61.239-23.303-49.16-1.168-60.99-15.77-63.589-24.787-1.318-4.54-4.805-8.12-9.396-9.256l-.64-.158c-7.531-1.863-14.962 3.293-15.923 10.994z" fill="#00c140"/><path d="m418.912 325.762v31.146c0 8.541-6.924 15.455-15.455 15.455h-294.914c-8.531 0-15.455-6.913-15.455-15.455v-31.146c0-8.541 6.924-15.455 15.455-15.455h9.551l55.719 7.758 60.397-7.758h169.248c8.53 0 15.454 6.914 15.454 15.455z" fill="#d97c41"/><path d="m234.209 310.307s-31.939 22.069-45.601 62.055h-80.065c-8.531 0-15.455-6.913-15.455-15.455v-31.146c0-8.541 6.924-15.455 15.455-15.455h125.666z" fill="#af602d"/><g><g><ellipse cx="172.744" cy="457.537" fill="#fff" rx="30.72" ry="24.464"/><ellipse cx="339.256" cy="457.537" fill="#fff" rx="30.72" ry="24.464"/><path d="m285.787 428.085c-4.268 0-7.727 3.46-7.727 7.727 0 3.952-3.215 7.166-7.167 7.166-3.951 0-7.166-3.215-7.166-7.166 0-4.268-3.459-7.727-7.727-7.727s-7.727 3.46-7.727 7.727c0 3.952-3.215 7.166-7.166 7.166-3.952 0-7.166-3.215-7.166-7.166 0-4.268-3.46-7.727-7.727-7.727-4.268 0-7.727 3.46-7.727 7.727 0 12.473 10.148 22.621 22.621 22.621 5.7 0 10.911-2.124 14.894-5.616 3.982 3.492 9.193 5.616 14.893 5.616 12.473 0 22.621-10.148 22.621-22.621-.001-4.268-3.461-7.727-7.729-7.727z" fill="#495560"/></g><g><path d="m206.795 431.366c-4.268 0-7.727-3.46-7.727-7.727 0-3.559-2.896-6.455-6.455-6.455s-6.455 2.896-6.455 6.455c0 4.268-3.46 7.727-7.727 7.727-4.268 0-7.727-3.46-7.727-7.727 0-12.081 9.829-21.91 21.91-21.91s21.91 9.829 21.91 21.91c-.001 4.268-3.461 7.727-7.729 7.727z" fill="#495560"/></g><g><path d="m333.569 431.366c-4.268 0-7.727-3.46-7.727-7.727 0-3.559-2.896-6.455-6.454-6.455s-6.454 2.896-6.454 6.455c0 4.268-3.459 7.727-7.727 7.727s-7.727-3.46-7.727-7.727c0-12.081 9.828-21.91 21.909-21.91s21.909 9.829 21.909 21.91c-.002 4.268-3.461 7.727-7.729 7.727z" fill="#495560"/></g></g></g></svg>