<svg id="Capa_1" enable-background="new 0 0 512 512" height="512" viewBox="0 0 512 512" width="512" xmlns="http://www.w3.org/2000/svg"><g><path d="m411.151 356.845-25.767 128.827c-3.029 15.135-20.358 26.324-40.758 26.324h-177.251c-20.4 0-37.729-11.189-40.758-26.324l-25.767-128.827z" fill="#fcf5af"/><path d="m224.731 511.996h-57.356c-20.4 0-37.729-11.189-40.758-26.324l-25.767-128.827h98.599c-14.899 38.245-18.227 91.768 25.282 155.151z" fill="#f8ea69"/><path d="m459.905 297.62c4.987 7.156 6.717 16.106 4.757 24.605-23.146 100.373-118.727 95.188-127.205 51.337-5.89-30.466 15.487-42.5 15.487-42.5s-24.322-3.199-30.212-33.664c-8.478-43.852 78.282-84.291 137.173.222z" fill="#80e0b7"/><path d="m52.095 297.62c-4.987 7.156-6.717 16.106-4.757 24.605 23.146 100.373 118.727 95.188 127.205 51.337 5.89-30.466-15.487-42.5-15.487-42.5s24.322-3.199 30.212-33.664c8.478-43.852-78.282-84.291-137.173.222z" fill="#00c780"/><path d="m225.525 346.03c-.234 0-.47-.011-.709-.032-4.25-.386-7.382-4.145-6.996-8.395 7.71-84.808-8.348-130.971-23.177-154.763-15.689-25.172-33.297-31.036-33.473-31.092-4.087-1.226-6.374-5.524-5.148-9.612 1.226-4.087 5.567-6.396 9.654-5.171.904.271 22.345 6.975 41.127 36.192 24.117 37.514 33.001 93.313 26.407 165.846-.364 4.011-3.734 7.027-7.685 7.027z" fill="#29ce69"/><path d="m287.02 325.788c-3.904 0-7.257-2.95-7.675-6.919-6.622-62.913.951-111.893 22.509-145.578 16.795-26.242 36.216-32.952 37.035-33.225 4.048-1.348 8.424.838 9.774 4.887 1.343 4.029-.818 8.383-4.829 9.755-.395.144-16.006 5.992-29.736 28.143-13.076 21.095-27.053 61.536-19.383 134.401.447 4.244-2.632 8.047-6.876 8.494-.275.028-.548.042-.819.042z" fill="#29ce69"/><path d="m496.448 194.07c-.031.062-.051.134-.082.196-2.225 5.337-4.657 10.303-7.253 14.898-.01.031-.031.072-.052.103-5.017 8.871-10.684 16.423-16.783 22.769h-.01c-.752.793-1.525 1.566-2.298 2.318-.124.123-.258.247-.381.371-5.801 5.594-11.972 10.169-18.349 13.816-.309.175-.628.35-.937.525-26.375 14.702-56.13 13.909-78.353 5.11l-3.689-3.771-5.234-.412c-10.56-5.79-18.566-13.548-22.357-22.151-11.704-26.499-4.801-49.145 4.183-64.506 5.296-9.056.175-20.668-10.087-22.852-17.401-3.719-38.79-13.878-50.484-40.387-12.034-27.251 10.622-80.033 59.211-95.631 6.996-2.256 14.537-3.74 22.594-4.245 1.144-.072 2.308-.134 3.472-.175 8.902-.258 18.391.639 28.457 2.936 5.069 1.164 10.282 2.679 15.629 4.574.124.041.258.093.381.134 17.443 6.244 36.359 16.587 56.604 32.104 10.303 7.882 20.956 17.113 31.929 27.818.927.907 1.793 1.865 2.586 2.875 3.266 4.101 5.419 8.974 6.243 14.136.216 1.267.34 2.545.381 3.843 1.525 45.312-4.595 79.827-15.321 105.604z" fill="#ffb3c2"/><g fill="#ff899f"><path d="m371.949 254.177c-14.949-5.914-26.478-15.454-31.28-26.334-11.704-26.499-4.801-49.145 4.183-64.506 5.296-9.056.175-20.668-10.087-22.852-17.401-3.719-38.79-13.878-50.484-40.387-12.034-27.251 10.622-80.033 59.211-95.631 6.996-2.256 14.537-3.74 22.594-4.245 1.144-.072 2.308-.134 3.472-.175 8.902-.258 18.391.639 28.457 2.936 5.069 1.164 10.282 2.679 15.629 4.574.124.041.258.093.381.134 17.443 6.244 36.359 16.587 56.604 32.104-47.084 14.733-149.628 64.877-98.68 214.382z"/><path d="m511.388 84.623-65.722 29.003-9.417 4.162c-1.02.453-2.081.659-3.122.659-1.38 0-2.74-.371-3.915-1.061-1.35-.793-2.473-1.999-3.153-3.544s-.824-3.184-.495-4.719c.495-2.349 2.081-4.43 4.44-5.471l9.427-4.162 65.712-29.002c3.267 4.1 5.42 8.973 6.245 14.135z"/><path d="m472.267 232.036c-.752.793-1.525 1.566-2.298 2.318-.124.123-.258.247-.381.371-5.801 5.594-11.972 10.169-18.349 13.816-.309.175-.628.35-.937.525-12.899-.268-27.189-3.359-38.574-8.18-16.237-6.872-28.158-17.381-33.546-29.6-13.239-30.002-4.812-55.46 4.585-71.533 1.257-2.153 1.401-4.698.402-6.985-1.01-2.277-2.988-3.884-5.419-4.399-3.132-.67-6.439-1.545-9.849-2.699-16.443-5.512-35.133-17.268-46.095-42.118-5.399-12.219-5.131-28.117.732-44.746 4.399-12.477 11.673-24.325 20.956-34.34 6.996-2.256 14.537-3.74 22.594-4.245 1.144-.072 2.308-.134 3.472-.175-29.425 20.472-41.078 60.333-33.618 77.261 7.645 17.319 20.637 28.838 38.667 34.298 2.05.628 4.173 1.174 6.357 1.638 7.346 1.566 13.301 6.408 16.34 13.291 3.039 6.882 2.596 14.548-1.206 21.028-11.024 18.844-12.291 38.193-3.781 57.48 7.313 16.578 44.28 33.351 79.948 26.994z"/></g><path d="m374.607 111.606c-2.462 4.44-4.719 9.118-6.707 14.063-16.443-5.512-35.133-17.268-46.095-42.118-5.399-12.219-5.131-28.117.732-44.746 4.399-12.477 11.673-24.325 20.956-34.34 6.996-2.256 14.537-3.74 22.594-4.245 1.144-.072 2.308-.134 3.472-.175-29.425 20.472-41.078 60.333-33.618 77.261 7.644 17.321 20.636 28.84 38.666 34.3z" fill="#ff5f7f"/><path d="m496.448 194.07c-.031.062-.051.134-.082.196-2.225 5.337-4.657 10.303-7.253 14.898-26.715-.721-55.399-13.404-63.455-31.661-11.076-25.108-4.286-46.466 3.555-60.117.103-.196.206-.381.319-.567.845-1.442.938-3.122.278-4.636-.67-1.504-1.978-2.565-3.596-2.916-.216-.041-.433-.093-.649-.144-10.931-2.421-24.377-7.861-35.205-19.812-4.42-4.863-8.397-10.808-11.601-18.071-8.51-19.297-.247-47.919 19.256-68.257 5.069 1.164 10.282 2.679 15.629 4.574-18.37 17.546-26.149 45.199-20.75 57.439 2.215 5.028 4.997 9.458 8.314 13.27 7.016 8.047 16.454 13.373 28.23 15.887 3.802.804 7.253 2.679 9.994 5.337 1.885 1.814 3.431 4.008 4.513 6.46s1.659 5.059 1.721 7.676c.124 3.812-.824 7.634-2.792 10.993-8.943 15.3-9.984 31.001-3.081 46.641 5.378 12.188 31.393 24.438 56.655 22.81z" fill="#ff899f"/><path d="m392.894 64.996c2.215 5.028 4.997 9.458 8.314 13.27-3.75 3.421-7.387 7.099-10.849 11.045-4.42-4.863-8.397-10.808-11.601-18.071-8.51-19.297-.247-47.919 19.256-68.257 5.069 1.164 10.282 2.679 15.629 4.574-18.369 17.546-26.147 45.199-20.749 57.439z" fill="#ff5f7f"/><path d="m451.085 102.529c-9.324 19.235-33.299 50.742-91.943 58.098l-18.288-4.08-3.678-23.851 31.094-7.923c20.966-2.988 46.054-11.632 66.701-33.453 1.721-1.823 4.07-2.916 6.573-3.081.216-.01.422-.021.639-.021 7.253 0 12.127 7.645 8.902 14.311z" fill="#fcf5af"/><path d="m368.27 124.773c-4.41 10.684-7.593 22.594-9.128 35.854-4.368.556-8.933.969-13.703 1.236-9.85.556-18.329-6.903-18.937-16.752-.021-.381-.031-.752-.031-1.123 0-10.014 8.283-18.123 18.442-17.876 6.677.165 14.662-.092 23.357-1.339z" fill="#f8ea69"/><path d="m227.719 100.098c-11.694 26.509-33.083 36.668-50.484 40.387-10.262 2.184-15.382 13.796-10.087 22.852 8.984 15.361 15.887 38.007 4.183 64.506-4.595 10.416-15.362 19.606-29.384 25.551l-49.66 6.079c-10.282-1.545-20.678-4.884-30.589-10.406-.309-.175-.628-.35-.937-.525-6.377-3.647-12.549-8.222-18.349-13.816-.124-.124-.258-.248-.381-.371-.773-.752-1.545-1.525-2.298-2.318h-.01c-6.099-6.346-11.766-13.899-16.783-22.769-.021-.031-.041-.072-.052-.103-2.596-4.595-5.028-9.561-7.253-14.898-.031-.062-.051-.134-.082-.196-10.727-25.778-16.847-60.293-15.322-105.605.041-1.298.165-2.576.381-3.843.824-5.162 2.978-10.035 6.243-14.136.793-1.01 1.659-1.968 2.586-2.875 32.527-31.732 62.21-50.493 88.534-59.921.124-.041.258-.093.381-.134 5.347-1.896 10.56-3.41 15.629-4.574 10.066-2.298 19.555-3.194 28.457-2.936 1.164.041 2.328.103 3.472.175 8.057.505 15.599 1.988 22.594 4.245 14.888 4.781 27.333 13.044 37.09 22.996 22.121 22.542 30.466 53.729 22.121 72.635z" fill="#ffb3c2"/><path d="m141.947 253.394c-4.811 2.05-10.004 3.709-15.465 4.914-19.967 4.399-43.478 2.638-64.785-9.242-.309-.175-.628-.35-.937-.525-6.377-3.647-12.549-8.222-18.349-13.816-.124-.124-.258-.248-.381-.371-.773-.752-1.545-1.525-2.298-2.318h-.01c-6.099-6.346-11.766-13.899-16.783-22.769-.021-.031-.041-.072-.052-.103-2.596-4.595-5.028-9.561-7.253-14.898-.031-.062-.051-.134-.082-.196-10.726-25.777-16.846-60.292-15.321-105.604.041-1.298.165-2.576.381-3.843.824-5.162 2.978-10.035 6.243-14.136.793-1.01 1.659-1.968 2.586-2.875 32.527-31.732 62.21-50.493 88.534-59.921.124-.041.258-.093.381-.134 5.347-1.896 10.56-3.41 15.629-4.574 10.066-2.298 19.555-3.194 28.457-2.936 1.164.041 2.328.103 3.472.175 8.057.505 15.599 1.988 22.594 4.245 14.888 4.781 27.333 13.044 37.09 22.996-43.498 21.697-156.14 93.91-63.651 225.931z" fill="#ff899f"/><path d="m190.196 83.551c-13.239 30.002-37.729 40.923-55.945 44.817-2.432.515-4.41 2.122-5.419 4.399-.999 2.287-.855 4.832.402 6.985 9.396 16.073 17.824 41.531 4.585 71.533-2.122 4.811-5.265 9.365-9.283 13.528-3.606 3.74-7.923 7.181-12.848 10.22-3.503 2.164-7.325 4.121-11.416 5.852-11.385 4.822-25.675 7.913-38.574 8.18-.309-.175-.628-.35-.937-.525-6.377-3.647-12.549-8.222-18.349-13.816-.124-.124-.258-.248-.381-.371-.773-.752-1.545-1.525-2.298-2.318 23.923 4.265 48.434-1.875 64.187-11.385 5.801-3.513 10.416-7.47 13.383-11.539.979-1.35 1.782-2.71 2.38-4.07 8.51-19.287 7.243-38.636-3.781-57.48-3.802-6.481-4.245-14.146-1.205-21.028 3.039-6.882 8.995-11.725 16.34-13.291 21.358-4.554 36.513-16.649 45.023-35.936 3.256-7.398 2.875-19.174-1.061-31.805-4.863-15.629-15.145-32.557-30.651-44.086-.628-.464-1.257-.917-1.906-1.37 1.164.041 2.328.103 3.472.175 8.057.505 15.599 1.988 22.594 4.245 8.757 9.448 15.732 20.534 20.183 32.238.268.701.525 1.401.773 2.102 5.862 16.63 6.13 32.527.732 44.746z" fill="#ff899f"/><path d="m.612 84.623 65.722 29.003 9.417 4.162c1.02.453 2.081.659 3.122.659 1.38 0 2.74-.371 3.915-1.061 1.35-.793 2.473-1.999 3.153-3.544s.824-3.184.495-4.719c-.495-2.349-2.081-4.43-4.44-5.471l-9.427-4.162-65.713-29.003c-3.266 4.101-5.419 8.974-6.244 14.136z" fill="#ff5f7f"/><path d="m133.241 71.239c-11.076 25.098-31.424 34.473-46.806 37.884-.216.052-.433.103-.649.144-1.618.35-2.926 1.411-3.596 2.916-.66 1.514-.567 3.194.278 4.636.113.185.216.371.319.567 7.707 13.425 14.403 34.309 4.08 58.881-.165.412-.34.824-.525 1.237-8.057 18.257-36.74 30.939-63.455 31.661-2.596-4.595-5.028-9.561-7.253-14.898-.031-.062-.051-.134-.082-.196 25.263 1.628 51.277-10.622 56.655-22.811 6.903-15.64 5.862-31.341-3.081-46.641-1.968-3.359-2.916-7.181-2.792-10.993.062-2.617.639-5.224 1.721-7.676s2.627-4.646 4.513-6.46c2.741-2.658 6.192-4.533 9.994-5.337.938-.196 1.855-.412 2.761-.649 15.897-4.131 27.251-13.713 33.783-28.508 3.245-7.346 1.731-20.266-3.977-33.206-3.791-8.603-9.437-17.226-16.773-24.232 5.347-1.896 10.56-3.41 15.629-4.574 4.667 4.863 8.686 10.2 11.982 15.774 10.509 17.719 13.744 37.8 7.274 52.481z" fill="#ff5f7f"/><path d="m185.528 143.988c0 .371-.01.742-.031 1.123-.608 9.849-9.087 17.309-18.937 16.752-25.026-1.391-44.508-6.903-59.654-14.352l-17.525-14.64 2.277-23.501 22.45 7.408c19.689 8.16 39.151 9.685 52.977 9.334 10.16-.247 18.443 7.862 18.443 17.876z" fill="#fcf5af"/><path d="m114.109 116.778c-3.699 9.51-6.244 19.74-7.202 30.733-10.725-5.275-19.277-11.508-26.077-17.948-9.942-9.407-16.134-19.236-19.915-27.035-3.225-6.666 1.648-14.311 8.902-14.311.216 0 .422.01.639.021 2.504.165 4.853 1.257 6.573 3.081 2.349 2.483 4.76 4.801 7.212 6.954 9.53 8.367 19.73 14.312 29.868 18.505z" fill="#f8ea69"/><path d="m190.154 424.587-27.364-16.742-23.254-58.489 62.075-66.721 34.618 17.546c7.284 19.895-3.431 33.855-3.431 33.855s23.624-6.604 40.995 19.102c20.719 30.639-19.565 84.781-83.639 71.449z" fill="#80e0b7"/><path d="m190.154 424.587c-13.291-2.761-27.601-8.428-42.602-17.803-7.397-4.626-12.508-12.178-14.033-20.76-18.123-101.401 71.821-134.164 96.837-97.156 2.658 3.936 4.554 7.717 5.873 11.313-16.196 16.504-52.555 61.198-46.075 124.406z" fill="#36d49b"/><path d="m237.125 340.433-38.564 26.066c-.896.608-1.875.999-2.875 1.185-.474.103-.958.144-1.442.144-2.483 0-4.914-1.195-6.408-3.4-2.39-3.534-1.463-8.345 2.071-10.736l15.65-10.571 22.914-15.496c3.534-2.39 8.335-1.453 10.725 2.081 2.39 3.535 1.463 8.336-2.071 10.727z" fill="#36d49b"/><path d="m205.557 343.122c-3.75 7.449-7.16 15.66-9.87 24.562-.474.103-.958.144-1.442.144-2.483 0-4.914-1.195-6.408-3.4-2.39-3.534-1.463-8.345 2.071-10.736z" fill="#00c780"/><path d="m378.485 386.019c-1.534 8.586-6.639 16.138-14.035 20.762-87.341 54.608-151.261-16.645-126.248-53.647 17.378-25.707 41.002-19.101 41.002-19.101s-14.936-19.46 2.441-45.167c25.013-37.003 114.957-4.249 96.84 97.153z" fill="#36d49b"/><path d="m317.758 367.827c-1.489 0-2.994-.43-4.32-1.327l-38.561-26.067c-3.536-2.39-4.464-7.193-2.074-10.729 2.389-3.536 7.193-4.465 10.729-2.074l38.561 26.067c3.536 2.39 4.464 7.193 2.074 10.729-1.493 2.209-3.929 3.401-6.409 3.401z" fill="#00c780"/><path d="m117.303 209.112c2.081 5.12 4.482 10.354 7.233 15.702-3.606 3.74-7.923 7.181-12.848 10.22-3.503 2.164-7.325 4.121-11.416 5.852-11.385 4.822-25.675 7.913-38.574 8.18-.309-.175-.628-.35-.937-.525-6.377-3.647-12.549-8.222-18.349-13.816-.124-.124-.258-.248-.381-.371-.773-.752-1.545-1.525-2.298-2.318 23.923 4.265 48.434-1.875 64.187-11.385 5.8-3.513 10.416-7.469 13.383-11.539z" fill="#ff5f7f"/><path d="m188.691 36.704c-4.368 2.617-8.984 5.543-13.692 8.799-4.863-15.629-15.145-32.557-30.651-44.086-.628-.464-1.257-.917-1.906-1.37 1.164.041 2.328.103 3.472.175 8.057.505 15.599 1.988 22.594 4.245 8.758 9.447 15.732 20.533 20.183 32.237z" fill="#ff5f7f"/><g><g><path d="m191.66 479.182c-4.268 0-7.727-3.46-7.727-7.727v-12.363c0-4.268 3.46-7.727 7.727-7.727 4.268 0 7.727 3.46 7.727 7.727v12.363c0 4.267-3.46 7.727-7.727 7.727z" fill="#495560"/></g><g><path d="m320.34 479.182c-4.268 0-7.727-3.46-7.727-7.727v-12.363c0-4.268 3.46-7.727 7.727-7.727s7.727 3.46 7.727 7.727v12.363c0 4.267-3.459 7.727-7.727 7.727z" fill="#495560"/></g><g><path d="m256 486.541c-8.734 0-17.04-3.783-22.789-10.378-2.804-3.218-2.469-8.098.749-10.903 3.218-2.803 8.099-2.469 10.903.749 2.812 3.227 6.871 5.077 11.137 5.077s8.326-1.851 11.137-5.077c2.804-3.217 7.685-3.552 10.903-.749 3.217 2.804 3.552 7.685.749 10.903-5.749 6.596-14.055 10.378-22.789 10.378z" fill="#495560"/></g></g></g></svg>