<svg id="Capa_1" enable-background="new 0 0 512 512" height="512" viewBox="0 0 512 512" width="512" xmlns="http://www.w3.org/2000/svg"><g><path d="m61.529 120.217c10.468 18.69 37.896 32.123 56.587 21.655s21.564-40.874 11.096-59.564c-11.868-21.19-37.005-34.949-54.141-42.274-9.281-3.967-19.84 1.947-21.305 11.933-2.705 18.439-4.105 47.06 7.763 68.25z" fill="#00c140"/><path d="m44.093 182.054c18.69-10.468 49.096-7.594 59.564 11.096s-2.965 46.118-21.655 56.587c-21.19 11.868-49.812 10.469-68.25 7.763-9.986-1.465-15.9-12.024-11.933-21.305 7.325-17.136 21.084-42.273 42.274-54.141z" fill="#00c140"/><path d="m450.471 81.429c-10.468 18.69-37.896 32.123-56.587 21.655s-21.564-40.874-11.096-59.564c11.868-21.19 37.005-34.949 54.141-42.274 9.281-3.967 19.84 1.947 21.305 11.933 2.705 18.439 4.105 47.06-7.763 68.25z" fill="#29ce69"/><path d="m467.907 143.266c-18.69-10.468-49.096-7.594-59.564 11.096s2.965 46.118 21.655 56.587c21.19 11.868 49.812 10.469 68.25 7.763 9.986-1.465 15.9-12.024 11.933-21.305-7.326-17.136-21.084-42.273-42.274-54.141z" fill="#29ce69"/><path d="m181.917 184.529c-.001-.012-.002-.025-.003-.037-.085-.739-.276-1.451-.56-2.12-.004-.009-.007-.019-.011-.028-.088-.206-.186-.406-.291-.603-.013-.025-.025-.051-.039-.076-.098-.178-.204-.351-.316-.521-.027-.042-.053-.085-.081-.126-.104-.152-.216-.298-.331-.442-.043-.054-.083-.109-.127-.161-.11-.132-.228-.257-.347-.381-.055-.058-.108-.117-.165-.173-.121-.119-.249-.23-.378-.341-.061-.053-.12-.108-.183-.159-.138-.112-.283-.215-.429-.317-.061-.042-.118-.087-.18-.128-.16-.105-.326-.2-.495-.294-.056-.031-.109-.065-.165-.094-.171-.09-.349-.169-.529-.246-.054-.023-.105-.052-.16-.074-.638-.258-64.007-26.49-78.03-85.5-.987-4.153-5.153-6.719-9.304-5.732-4.152.987-6.718 5.153-5.732 9.304 9.33 39.259 36.761 65.181 58.43 80.142-26.293 1.437-63.225 9.21-91.69 37.811-3.01 3.025-2.999 7.917.026 10.928 1.508 1.501 3.479 2.25 5.451 2.25 1.984 0 3.967-.759 5.477-2.276 42.687-42.892 110.209-32.305 111.197-32.142.058.01.115.012.172.02.177.026.353.049.53.062.092.007.184.009.276.013.102.004.204.014.306.014.035 0 .069-.007.104-.008.342-.004.68-.027 1.012-.075.026-.004.051-.01.076-.014.329-.051.65-.126.966-.218.045-.013.091-.025.136-.039.34-.106.671-.231.991-.381.009-.004.018-.01.027-.014.309-.147.605-.316.892-.502.038-.025.077-.048.115-.074.292-.197.571-.411.834-.646.021-.019.041-.039.062-.059.254-.232.491-.481.713-.745.018-.022.037-.042.055-.064.236-.287.45-.593.643-.915.009-.015.017-.03.026-.046.443-.749.766-1.582.938-2.483.005-.024.012-.048.016-.073.005-.028.013-.054.018-.082.03-.178.045-.355.063-.532.005-.052.014-.104.018-.155.017-.215.021-.429.021-.642 0-.036.003-.073.002-.109-.005-.232-.022-.465-.047-.697z" fill="#00a62c"/><path d="m461.198 175.447c-28.464-28.602-65.396-36.375-91.69-37.812 21.669-14.961 49.1-40.883 58.43-80.142.987-4.152-1.579-8.317-5.732-9.304-4.15-.987-8.318 1.58-9.304 5.732-14.013 58.966-77.299 85.203-78.029 85.499-.059.024-.113.054-.171.079-.171.074-.342.149-.506.234-.086.045-.167.095-.25.143-.134.076-.269.152-.398.235-.11.072-.214.15-.32.227-.094.068-.189.133-.279.205-.124.099-.24.204-.357.31-.065.059-.132.115-.195.176-.125.12-.241.247-.357.375-.049.054-.1.107-.148.162-.115.135-.222.275-.327.417-.042.057-.087.112-.127.17-.1.143-.191.29-.281.439-.039.064-.079.126-.116.191-.083.147-.158.298-.231.451-.035.072-.072.142-.104.215-.068.153-.127.309-.185.466-.028.075-.058.15-.084.226-.056.166-.101.334-.146.504-.018.069-.039.138-.055.208-.044.191-.078.384-.107.578-.007.05-.018.098-.024.148-.031.231-.049.464-.059.698-.001.014-.002.027-.003.041-.036 1 .124 2.021.501 3.013.007.018.012.038.019.056.01.027.017.054.028.081.024.059.058.11.083.169.107.248.225.488.356.721.055.098.108.197.166.292.16.258.333.506.52.742.083.104.171.2.259.299.134.151.272.296.417.436.097.094.191.191.293.279.214.187.44.36.674.522.109.076.221.145.333.214.187.116.379.224.575.324.092.047.181.099.275.142.278.128.566.236.86.331.097.031.195.058.293.085.254.071.511.129.773.174.071.012.14.029.212.039.315.045.636.066.959.071.042.001.083.009.125.009.113 0 .226-.011.34-.016.077-.003.153-.005.23-.011.179-.013.358-.036.537-.062.058-.008.115-.01.173-.02.681-.113 68.417-10.85 111.202 32.141 1.51 1.517 3.493 2.276 5.477 2.276 1.972 0 3.943-.75 5.451-2.25 3.023-3.011 3.034-7.903.024-10.928z" fill="#00c140"/><path d="m380.121 442.187v38.904c0 17.072-13.837 30.909-30.909 30.909h-186.424c-17.072 0-30.909-13.837-30.909-30.909v-38.904z" fill="#c7c4ea"/><path d="m254.496 512h-91.707c-17.072 0-30.909-13.837-30.909-30.909v-38.904h80.518c10.117 22.419 23.882 45.745 42.098 69.813z" fill="#b2aee4"/><path d="m380.121 263.697v178.49s-7.614 7.614-33.011 14.125l-42.727-4.966-29.075 13.806c-6.089.196-12.528.299-19.308.299-5.419 0-10.602-.072-15.578-.196l-20.699-7.923-23.893-9.149-30.456 8.253c-25.778-6.543-33.495-14.249-33.495-14.249v-178.49c0-8.531 6.924-15.455 15.455-15.455h217.332c8.531 0 15.455 6.924 15.455 15.455z" fill="#deddf5"/><path d="m219.723 457.332-23.893-9.149-30.456 8.253c-25.778-6.543-33.495-14.249-33.495-14.249v-178.49c0-8.531 6.924-15.455 15.455-15.455h57.336c-19.916 51.629-28.756 124.337 15.053 209.09z" fill="#c7c4ea"/><path d="m239.278 244.142c.361 1.35.546 2.72.546 4.101l-37.833 10.303-.948-.258-37.472-10.045c0-1.381.175-2.751.546-4.101 2.184-7.995 6.553-26.912 6.553-50.207 0-.422 0-.835-.01-1.257l.01.01 3.101-8.789-4.07-9.231c-1.154-11.612-3.122-21.132-4.647-27.303-.34-1.381-.659-2.596-.938-3.627-.732-2.689-.732-5.512 0-8.201.278-1.03.598-2.246.938-3.627 2.298-9.324 5.615-26.293 5.615-46.58 0-14.084-1.597-26.582-3.348-36.019-1.762-9.51 5.522-18.278 15.197-18.278h38.358c9.675 0 16.959 8.768 15.197 18.278-1.751 9.438-3.348 21.935-3.348 36.019 0 20.287 3.318 37.256 5.615 46.58.34 1.38.659 2.596.938 3.627.731 2.689.731 5.512 0 8.201-.278 1.03-.598 2.246-.938 3.627-2.298 9.324-5.615 26.293-5.615 46.57v.793c.103 22.935 4.39 41.511 6.553 49.414z" fill="#29ce69"/><path d="m235.55 140.74 2.79 6.62c-2.3 9.33-5.61 26.3-5.61 46.57v.8c-10.62 15.65-22.77 37.18-31.69 63.56l-37.47-10.05c0-1.38.18-2.75.55-4.1 2.18-7.99 6.55-26.91 6.55-50.21 0-20.27-3.32-37.24-5.61-46.57l3.51-7.13-3.51-8.32c2.29-9.32 5.61-26.29 5.61-46.58 0-14.08-1.6-26.58-3.35-36.02-1.76-9.51 5.52-18.28 15.2-18.28h38.36c9.67 0 16.96 8.77 15.19 18.28-1.75 9.44-3.34 21.94-3.34 36.02 0 20.29 3.31 37.26 5.61 46.58z" fill="#00c140"/><path d="m240.422 465.255c-5.914-.144-11.529-.381-16.845-.69l-34.763-12.343-23.439 4.214c2.267-9.551 5.296-25.902 5.296-45.282 0-20.287-3.318-37.256-5.615-46.58l4.812-7.727-4.812-7.727c2.298-9.324 5.615-26.293 5.615-46.57 0-23.295-4.368-42.212-6.553-50.207-.371-1.35-.546-2.72-.546-4.101h76.253c0 1.381-.185 2.751-.546 4.101-2.184 7.995-6.553 26.912-6.553 50.207 0 20.276 3.318 37.246 5.615 46.57l-2.535 7.573 2.535 7.882c-2.298 9.324-5.615 26.293-5.615 46.58-.001 29.404 6.964 51.833 7.696 54.1z" fill="#00c140"/><path d="m165.374 456.436c2.267-9.551 5.296-25.902 5.296-45.282 0-20.287-3.318-37.256-5.615-46.58l4.812-7.727-4.812-7.727c2.298-9.324 5.615-26.293 5.615-46.57 0-23.295-4.368-42.212-6.553-50.207-.371-1.35-.546-2.72-.546-4.101h41.099c-20.472 53.092-29.25 128.469 18.906 216.323-25.582-1.484-44.457-4.637-58.202-8.129z" fill="#00a62c"/><path d="m346.94 116.33c-2.29 9.33-5.61 26.3-5.61 46.58s3.32 37.25 5.61 46.57l-2.62 8.33 2.62 7.13c-1.34 5.45-3.03 13.49-4.21 23.3l-32.43 12.37-32.44-12.37c-1.16-9.81-2.85-17.85-4.2-23.3l1.91-7.73-1.91-7.73c2.3-9.32 5.61-26.29 5.61-46.57s-3.31-37.25-5.61-46.58l2.43-8.05-2.43-7.4c2.3-9.33 5.61-26.3 5.61-46.57 0-14.1-1.59-26.59-3.34-36.03-1.77-9.51 5.52-18.28 15.19-18.28h38.36c9.68 0 16.96 8.77 15.2 18.28-1.75 9.44-3.35 21.93-3.35 36.03 0 20.27 3.32 37.24 5.61 46.57l-2.3 8.42z" fill="#29ce69"/><path d="m347.11 456.312c-16.011 4.111-39.1 7.779-71.802 8.84-1.463-2.669-2.153-5.811-1.793-9.098 2.298-20.678 5.759-55.214 5.759-75.933 0-20.287-3.318-37.256-5.615-46.58l3.534-6.357-3.534-9.098c2.298-9.324 5.615-26.283 5.615-46.57 0-8.438-.577-16.299-1.412-23.275h64.868c-.824 6.975-1.401 14.836-1.401 23.275 0 20.287 3.318 37.245 5.615 46.57l-4.162 8.562 4.162 6.893c-2.298 9.324-5.615 26.293-5.615 46.58 0 20.719 3.462 55.255 5.759 75.933.011.083.022.176.022.258z" fill="#00c140"/><path d="m239.278 143.738c-.278 1.03-.598 2.246-.938 3.627h-73.286c-.34-1.381-.659-2.596-.938-3.627-.732-2.689-.732-5.512 0-8.201.278-1.03.598-2.246.938-3.627h73.286c.34 1.38.659 2.596.938 3.627.732 2.689.732 5.512 0 8.201z" fill="#29ce69"/><path d="m239.278 360.947c-.278 1.03-.598 2.246-.938 3.627h-73.286c-.34-1.381-.659-2.596-.938-3.627-.732-2.689-.732-5.512 0-8.201.278-1.03.598-2.246.938-3.627h73.286c.34 1.381.659 2.596.938 3.627.732 2.689.732 5.512 0 8.201z" fill="#29ce69"/><g fill="#00c140"><path d="m188.659 349.119c.299 5.069.762 10.221 1.422 15.455h-25.026c-.34-1.381-.659-2.596-.938-3.627-.732-2.689-.732-5.512 0-8.201.278-1.03.598-2.246.938-3.627z"/><path d="m347.883 112.706c-.278 1.03-.598 2.246-.938 3.627h-73.286c-.34-1.381-.659-2.596-.938-3.627-.731-2.689-.731-5.512 0-8.201.278-1.03.598-2.246.938-3.627h73.286c.34 1.381.659 2.596.938 3.627.731 2.689.731 5.512 0 8.201z"/><path d="m347.883 221.31c-.288 1.03-.598 2.246-.938 3.627h-73.286c-.34-1.381-.659-2.596-.938-3.627-.731-2.689-.731-5.512 0-8.201.278-1.03.598-2.246.938-3.627h73.286c.34 1.381.659 2.596.938 3.627.731 2.689.731 5.512 0 8.201z"/></g><path d="m347.883 329.914c-.278 1.03-.598 2.246-.938 3.627h-73.286c-.34-1.381-.659-2.596-.938-3.627-.731-2.689-.731-5.512 0-8.201.278-1.03.598-2.246.938-3.627h73.286c.34 1.381.659 2.596.938 3.627.731 2.689.731 5.512 0 8.201z" fill="#00a62c"/></g></svg>