<svg id="Capa_1" enable-background="new 0 0 512 512" height="512" viewBox="0 0 512 512" width="512" xmlns="http://www.w3.org/2000/svg"><g><path d="m348.573 481.255h-185.146c-80.188-61.684-65.445-141.45-51.845-179.654 4.77-13.383 17.412-22.327 31.61-22.327h225.616c14.198 0 26.839 8.943 31.61 22.327 13.6 38.204 28.343 117.97-51.845 179.654z" fill="#fcf5af"/><path d="m207.277 481.255h-43.85c-80.188-61.684-65.445-141.45-51.845-179.654 4.77-13.383 17.412-22.327 31.61-22.327h74.233l23.058 32.125c.001.001-85.473 71.154-33.206 169.856z" fill="#f8ea69"/><path d="m408.062 489.477-12.261 15.64c-3.369 4.296-9.046 6.882-15.125 6.882h-249.353c-6.079 0-11.756-2.586-15.125-6.882l-12.261-15.64c-8.057-10.262.598-24.026 15.125-24.026h273.875c14.528 0 23.182 13.764 15.125 24.026z" fill="#f8ea69"/><path d="m227.584 512h-96.261c-6.079 0-11.756-2.586-15.125-6.882l-12.261-15.64c-8.057-10.262.598-24.026 15.125-24.026h80.889c5.904 14.846 14.837 30.413 27.633 46.548z" fill="#eedb00"/><path d="m447.492 296.45c-29.734 10.788-61.911 18.474-88.194 6.604-7.542-3.4-15.743-5.09-24.006-4.657-.484.021-.958.041-1.432.062-16.269.701-31.27 8.984-40.46 22.419-6.573 9.603-14.074 18.391-20.627 25.397l-21.09-1.474-60.118-59.448-82.187 22.831c-14.867-1.824-30.157-6.388-44.869-11.735-8.078-2.926-12.22-11.848-9.242-19.915 4.935-13.384 13.61-33.65 25.634-49.62-7.202-8.232-11.076-17.989-11.076-27.963 0-5.12 1.02-10.303 3.142-15.372 2.091-4.997 3.142-10.19 3.142-15.383 0-5.192-1.051-10.385-3.142-15.382-2.122-5.069-3.142-10.252-3.142-15.383 0-15.63 9.51-30.723 26.448-40.264 5.471-3.091 10.251-6.821 14.187-11.014 3.936-4.204 7.016-8.881 9.108-13.878 4.296-10.262 12.601-18.855 23.305-24.892 10.715-6.027 23.821-9.5 37.709-9.5 6.779 0 13.456-.834 19.823-2.431 6.367-1.607 12.405-3.987 17.886-7.078 11.241-6.336 24.48-9.51 37.709-9.51 2.545 0 5.1.114 7.634.351 10.622.989 20.998 4.049 30.075 9.159 10.962 6.182 24.161 9.51 37.709 9.51 13.888 0 26.994 3.472 37.709 9.5 10.705 6.037 19.009 14.63 23.305 24.892 2.092 4.997 5.172 9.674 9.108 13.878 3.936 4.193 8.716 7.923 14.187 11.014 16.938 9.541 26.448 24.635 26.448 40.264 0 5.131-1.02 10.314-3.142 15.383-2.091 4.997-3.142 10.19-3.142 15.382 0 5.193 1.051 10.386 3.142 15.383 2.122 5.069 3.142 10.252 3.142 15.372 0 9.974-3.874 19.73-11.076 27.963 12.024 15.97 20.699 36.236 25.634 49.62 2.978 8.066-1.163 16.989-9.241 19.915z" fill="#29ce69"/><path d="m272.773 346.276c-2.05 2.184-3.998 4.193-5.801 6.007-6.058 6.089-15.887 6.089-21.945 0-7.748-7.789-18.267-19.308-27.004-32.259-8.758-12.982-23.295-20.977-38.956-21.554-.762-.031-1.535-.061-2.318-.103-8.284-.413-16.485 1.277-24.037 4.688-26.252 11.859-58.408 4.214-88.204-6.604-8.078-2.926-12.22-11.848-9.242-19.915 4.935-13.384 13.61-33.65 25.634-49.62-7.202-8.232-11.076-17.989-11.076-27.963 0-5.12 1.02-10.303 3.142-15.372 2.091-4.997 3.142-10.19 3.142-15.383 0-5.192-1.051-10.385-3.142-15.382-2.122-5.069-3.142-10.252-3.142-15.383 0-15.63 9.51-30.723 26.448-40.264 5.471-3.091 10.251-6.821 14.187-11.014 3.936-4.204 7.016-8.881 9.108-13.878 4.296-10.262 12.601-18.855 23.305-24.892 10.715-6.027 23.821-9.5 37.709-9.5 6.779 0 13.456-.834 19.823-2.431 6.367-1.607 12.405-3.987 17.886-7.078 11.241-6.336 24.48-9.51 37.709-9.51 2.545 0 5.1.114 7.634.351-36.389 49.268-114.609 186.113 9.14 327.059z" fill="#00c140"/><g fill="#ffb3c2"><path d="m316.61 54.574c13.412 8.846 36.648 7.839 41.955-.208s-2.917-29.802-16.329-38.648-22.077 1.771-27.384 9.818-11.654 20.192 1.758 29.038z"/><path d="m379.851 8c-8.846 13.412-7.839 36.648.208 41.955s29.802-2.917 38.647-16.329-1.771-22.077-9.818-27.384-20.192-11.654-29.037 1.758z"/><path d="m426.424 71.241c-13.412-8.846-36.648-7.839-41.955.208s2.917 29.802 16.329 38.647c13.412 8.846 22.077-1.771 27.384-9.818 5.308-8.047 11.655-20.192-1.758-29.037z"/><path d="m363.184 117.814c8.846-13.412 7.839-36.648-.208-41.955s-29.802 2.917-38.648 16.329 1.771 22.077 9.818 27.384c8.047 5.308 20.192 11.655 29.038-1.758z"/></g><circle cx="371.517" cy="62.907" fill="#fcf5af" r="23.273"/><path d="m195.39 54.574c-13.412 8.846-36.648 7.839-41.955-.208s2.917-29.802 16.329-38.648 22.077 1.771 27.384 9.818 11.654 20.192-1.758 29.038z" fill="#ff899f"/><path d="m132.149 8c8.846 13.412 7.839 36.648-.208 41.955s-29.802-2.917-38.648-16.329 1.771-22.077 9.818-27.384 20.193-11.654 29.038 1.758z" fill="#ff899f"/><path d="m85.576 71.241c13.412-8.846 36.648-7.839 41.955.208s-2.917 29.802-16.329 38.647-22.077-1.771-27.384-9.818c-5.308-8.047-11.655-20.192 1.758-29.037z" fill="#ff899f"/><path d="m148.816 117.814c-8.846-13.412-7.839-36.648.208-41.955s29.802 2.917 38.647 16.329c8.846 13.412-1.771 22.077-9.818 27.384-8.046 5.308-20.191 11.655-29.037-1.758z" fill="#ff899f"/><circle cx="140.483" cy="62.907" fill="#f8ea69" r="23.273"/><path d="m489.855 239.084c-15.82-2.802-31.997-19.511-30.316-29.004 1.681-9.492 22.612-19.63 38.432-16.829 15.82 2.802 14.81 16.468 13.129 25.96-1.681 9.493-5.425 22.675-21.245 19.873z" fill="#ffb3c2"/><path d="m475.97 161.782c-2.802 15.82-19.511 31.997-29.004 30.316-9.492-1.681-19.63-22.612-16.829-38.432 2.802-15.82 16.468-14.81 25.96-13.129s22.675 5.425 19.873 21.245z" fill="#ffb3c2"/><path d="m398.668 175.666c15.82 2.802 31.997 19.511 30.316 29.004-1.681 9.492-22.612 19.63-38.432 16.829s-14.81-16.468-13.129-25.96 5.425-22.674 21.245-19.873z" fill="#ffb3c2"/><path d="m412.552 252.969c2.802-15.82 19.511-31.997 29.004-30.316s19.63 22.612 16.829 38.432-16.468 14.81-25.96 13.129-22.674-5.425-19.873-21.245z" fill="#ffb3c2"/><circle cx="444.261" cy="207.375" fill="#fcf5af" r="23.273"/><path d="m22.145 239.084c15.82-2.802 31.997-19.511 30.316-29.004s-22.612-19.63-38.433-16.829-14.809 16.469-13.128 25.961 5.425 22.674 21.245 19.872z" fill="#ff899f"/><path d="m36.03 161.782c2.802 15.82 19.511 31.997 29.004 30.316 9.492-1.681 19.63-22.612 16.829-38.432-2.802-15.82-16.468-14.81-25.96-13.129s-22.675 5.425-19.873 21.245z" fill="#ff899f"/><path d="m113.332 175.666c-15.82 2.802-31.997 19.511-30.316 29.004 1.681 9.492 22.612 19.63 38.433 16.829s14.81-16.468 13.129-25.96-5.426-22.674-21.246-19.873z" fill="#ff899f"/><path d="m99.448 252.969c-2.802-15.82-19.511-31.997-29.004-30.316s-19.63 22.612-16.829 38.432c2.802 15.82 16.468 14.81 25.96 13.129s22.674-5.425 19.873-21.245z" fill="#ff899f"/><circle cx="67.739" cy="207.375" fill="#f8ea69" r="23.273"/><path d="m306.424 207.516c-16.066 0-34.909-13.633-34.909-23.273s18.843-23.273 34.909-23.273 17.455 13.633 17.455 23.273-1.388 23.273-17.455 23.273z" fill="#ffb3c2"/><path d="m279.273 133.819c0 16.066-13.633 34.909-23.273 34.909s-23.273-18.843-23.273-34.909 13.633-17.455 23.273-17.455 23.273 1.388 23.273 17.455z" fill="#ffb3c2"/><path d="m240.484 184.24c0 9.355-17.721 22.45-33.444 23.233l-14.156-8.84 1.587-29.909 12.147-7.727c15.825.556 33.866 13.816 33.866 23.243z" fill="#ffb3c2"/><path d="m207.04 207.473c-.495.031-.979.041-1.463.041-16.073 0-17.453-13.631-17.453-23.274 0-9.633 1.38-23.275 17.453-23.275.34 0 .69.011 1.041.031-1.402 14.878-1.422 30.425.422 46.477z" fill="#ff899f"/><path d="m232.727 234.667c0-16.066 13.633-34.909 23.273-34.909s23.273 18.843 23.273 34.909-13.633 17.455-23.273 17.455-23.273-1.388-23.273-17.455z" fill="#ffb3c2"/><circle cx="256" cy="184.243" fill="#fcf5af" r="23.273"/><g><g fill="#ffa1ac"><path d="m203.97 417.66c-.029 13.381-13.674 24.198-30.476 24.161s-30.4-10.914-30.371-24.294 13.674-24.198 30.477-24.161c16.802.037 30.4 10.914 30.37 24.294z"/><ellipse cx="338.453" cy="417.954" rx="24.228" ry="30.424" transform="matrix(.002 -1 1 .002 -80.241 755.492)"/></g><g><path d="m191.57 407.275c-4.268 0-7.727-3.459-7.727-7.727v-12.364c0-4.268 3.46-7.727 7.727-7.727s7.727 3.459 7.727 7.727v12.364c0 4.268-3.46 7.727-7.727 7.727z" fill="#495560"/></g><g><path d="m320.252 407.275c-4.268 0-7.727-3.459-7.727-7.727v-12.364c0-4.268 3.459-7.727 7.727-7.727s7.727 3.459 7.727 7.727v12.364c0 4.268-3.459 7.727-7.727 7.727z" fill="#495560"/></g><path d="m285.886 399.192c-4.268 0-7.727 3.459-7.727 7.727 0 3.951-3.215 7.166-7.166 7.166-3.952 0-7.167-3.215-7.167-7.166 0-4.268-3.459-7.727-7.727-7.727s-7.727 3.459-7.727 7.727c0 3.951-3.215 7.166-7.166 7.166s-7.166-3.215-7.166-7.166c0-4.268-3.46-7.727-7.727-7.727s-7.727 3.459-7.727 7.727c0 12.473 10.148 22.62 22.621 22.62 5.701 0 10.911-2.124 14.894-5.616 3.983 3.492 9.193 5.616 14.894 5.616 12.473 0 22.62-10.147 22.62-22.62-.002-4.267-3.461-7.727-7.729-7.727z" fill="#495560"/></g></g></svg>