<svg id="Capa_1" enable-background="new 0 0 512 512" height="512" viewBox="0 0 512 512" width="512" xmlns="http://www.w3.org/2000/svg"><g><path d="m418.913 177.789s-14.909 4.307-31.847 38.822c-1.267 2.586-2.545 5.337-3.833 8.273-12.024 27.447-54.235 74.542-124.553 24.83l4.162-33.289c23.748 12.467 54.967 23.471 73.45 8.49 4.461-3.606 8.181-8.737 10.87-15.722 16.742-43.427 39.419-62.148 39.419-62.148z" fill="#d97c41"/><path d="m418.913 177.789s-14.909 4.307-31.847 38.822c-7.511-2.421-15.805-1.803-23.099 1.721-7.975 3.853-17.453 6.223-27.674 6.584 4.461-3.606 8.181-8.737 10.87-15.722 16.742-43.427 39.419-62.148 39.419-62.148z" fill="#af602d"/><path d="m511.999 154.806c0 25.706-31.259 46.539-69.813 46.539-18.706 0-35.695-4.901-48.227-12.883-9.014-5.741-20.372-6.161-29.995-1.512-8.674 4.19-19.135 6.637-30.392 6.637-29.982 0-54.297-17.361-54.297-38.781s24.315-38.791 54.297-38.791c.952 0 1.898.017 2.838.052 10.967.402 21.119-5.215 26.995-14.485 9.197-14.507 27.132-24.358 47.749-24.358 20.377 0 38.126 9.621 47.412 23.847 3.776 5.785 9.393 10.183 15.917 12.456 22.297 7.769 37.516 23.34 37.516 41.279z" fill="#00c140"/><path d="m248.243 193.934-23.275 37.575c-93.088 46.539-126.48-15.022-131.879-46.549-.021-.124-.041-.247-.062-.361-7.779-45.014-23.213-53.947-23.213-53.947l38.791-22.048s17.505 23.635 23.275 69.824c1.154 9.221 4.533 16.052 9.458 20.987 28.19 28.262 106.905-5.481 106.905-5.481z" fill="#d97c41"/><path d="m141.338 199.415c-.618-.124-1.216-.258-1.824-.402-9.355-2.215-17.793-5.729-24.83-10.21-6.512-4.142-14.239-5.512-21.657-4.204-7.779-45.014-23.213-53.947-23.213-53.947l38.791-22.048s17.505 23.635 23.275 69.824c1.154 9.221 4.533 16.052 9.458 20.987z" fill="#af602d"/><path d="m318.066 333.571h-124.131c23.275-15.506 23.275-46.539 23.275-69.813s7.758-46.549 31.033-85.33c1.37-2.287 2.607-4.564 3.709-6.841 17.793-36.38 4.049-70.741 4.049-70.741h46.549s17.35 31.445 7.758 69.824c0 .01-.01.021-.01.031-7.758 31.012-20.142 55.07-26.489 68.721-6.429 13.847-8.222 29.508-4.327 44.262 4.007 15.166 14.341 39.502 38.584 49.887z" fill="#e4996d"/><path d="m310.308 170.67c0 .01-.01.021-.01.031-.35.165-.701.34-1.051.525-4.853 2.565-10.241 4.533-16.011 5.749-4.461.948-9.139 1.453-13.961 1.453-10.53 0-19.689-2.545-27.324-6.841 17.793-36.38 4.049-70.741 4.049-70.741h46.549c.001 0 17.351 31.445 7.759 69.824z" fill="#d97c41"/><path d="m387.88 356.846c0 8.572-3.472 16.33-9.087 21.946s-13.373 9.087-21.946 9.087h-201.692c-17.144 0-31.033-13.888-31.033-31.033 0-8.572 3.472-16.32 9.087-21.945 5.615-5.615 13.373-9.087 21.946-9.087h47.6l5.388 1.865 8.552-1.865h140.152c17.144-.001 31.033 13.898 31.033 31.032z" fill="#80e0b7"/><path d="m216.695 325.813c-12.116 9.891-32.99 31.146-36.257 62.066h-25.283c-17.144 0-31.033-13.888-31.033-31.033 0-8.572 3.472-16.32 9.087-21.945 5.615-5.615 13.373-9.087 21.946-9.087h61.54z" fill="#36d49b"/><path d="m342.019 512h-1.369c-12.475 0-22.588-10.113-22.588-22.588v-23.957h46.546v23.957c-.001 12.475-10.114 22.588-22.589 22.588z" fill="#e4996d"/><path d="m171.352 512h-1.369c-12.475 0-22.588-10.113-22.588-22.588v-23.957h46.546v23.957c-.001 12.475-10.114 22.588-22.589 22.588z" fill="#d97c41"/><path d="m442.187 418.912c0 17.134-6.944 32.65-18.174 43.88-11.241 11.23-26.757 18.175-43.891 18.175h-186.187l-23.522-6.697-23.017 6.697h-15.516c-34.278 0-62.066-27.788-62.066-62.055 0-17.144 6.944-32.661 18.174-43.891 9.52-9.51 22.1-15.949 36.143-17.701l-.01.011 27.509 7.027 38.75-7.511h189.741c34.279-.001 62.066 27.786 62.066 62.065z" fill="#fcf5af"/><path d="m220.991 480.967h-89.111c-34.278 0-62.066-27.788-62.066-62.055 0-17.144 6.944-32.661 18.174-43.891 11.241-11.23 26.757-18.175 43.891-18.175h58.501c-15.299 27.725-19.884 70.04 30.611 124.121z" fill="#f8ea69"/><path d="m465.452 86.7c0 19.153-20.833 34.68-46.539 34.68-1.113 0-2.226-.031-3.318-.082-7.15-.381-13.919 3.091-18.669 9.067-8.109 10.2-23.017 17.031-40.079 17.031-10.303 0-19.833-2.504-27.55-6.728-6.316-3.462-13.693-3.833-20.05-.474-4.853 2.565-10.241 4.533-16.011 5.749l-16.959-4.966-16.052 3.307c-7.748-2.71-14.321-7.037-19.586-12.415-5.852-5.986-14.136-7.902-21.781-5.512-6.491 2.04-14.311 3.699-24.923 3.699-34.268 0-62.055-19.421-62.055-43.355 0-23.944 27.787-43.345 62.055-43.345h.175c8.428.011 16.341-4.883 20.349-13.177 8.624-17.826 27.458-30.179 49.3-30.179 13.507 0 25.86 4.719 35.35 12.528.124.103.247.196.371.299 6.779 5.358 15.64 6.46 23.141 2.431 7.83-4.193 16.856-6.584 26.469-6.584 21.791 0 40.584 12.281 49.238 30.013 4.07 8.335 11.92 13.363 20.42 13.332h.165c25.706.001 46.539 15.528 46.539 34.681z" fill="#29ce69"/><path d="m293.236 145.943c-4.461.948-9.139 1.453-13.961 1.453-16.392 0-29.487-6.171-38.636-15.527-5.852-5.986-14.136-7.902-21.781-5.512-6.491 2.04-14.311 3.699-24.923 3.699-34.268 0-62.055-19.421-62.055-43.355 0-23.944 27.787-43.345 62.055-43.345h.175c8.428.011 16.341-4.883 20.349-13.177 8.624-17.826 27.458-30.179 49.3-30.179 13.507 0 25.86 4.719 35.35 12.528.124.103.247.196.371.299-21.77 18.649-56.275 63.158-6.244 133.116z" fill="#00c140"/><path d="m232.726 131.889c0 25.706-31.259 46.539-69.813 46.539-8.201 0-16.073-.948-23.398-2.679-2.864-.68-5.646-1.473-8.325-2.39l-.01-.01-27.334-24.521-15.918 13.847c-1.092.392-2.174.835-3.235 1.35-8.675 4.193-19.133 6.645-30.394 6.645-29.982 0-54.297-17.36-54.297-38.781s24.315-38.791 54.297-38.791c.958 0 1.896.01 2.844.051 10.962.402 21.111-5.223 26.994-14.486 9.19-14.507 27.128-24.356 47.744-24.356 1.072 0 2.133.031 3.184.083 19.03.937 35.432 10.272 44.231 23.759 3.771 5.79 9.396 10.19 15.918 12.456 22.295 7.768 37.512 23.336 37.512 41.284z" fill="#29ce69"/><path d="m139.515 175.749c-9.355-2.215-17.793-5.728-24.83-10.21-9.015-5.739-20.369-6.161-29.992-1.515-8.675 4.193-19.133 6.645-30.394 6.645-29.982 0-54.297-17.36-54.297-38.781s24.315-38.791 54.297-38.791c.958 0 1.896.01 2.844.051 10.962.402 21.111-5.223 26.994-14.486 9.19-14.507 27.128-24.356 47.744-24.356 1.072 0 2.133.031 3.184.083-18.907 19.989-47.663 65.157 4.45 121.36z" fill="#00c140"/><g><g><ellipse cx="170.416" cy="425.822" fill="#ffa1ac" rx="31.579" ry="25.148"/><ellipse cx="341.586" cy="425.66" fill="#ffa1ac" rx="31.579" ry="25.148"/><ellipse cx="255.99" cy="414.061" fill="#495560" rx="14.127" ry="16.202"/></g><g><path d="m188.782 406.914c-6.441 0-12.565-2.786-16.807-7.644-2.807-3.215-2.476-8.096.74-10.903 3.214-2.806 8.096-2.476 10.903.74 1.305 1.496 3.188 2.353 5.165 2.353h.006c1.979-.002 3.862-.863 5.166-2.363 2.801-3.221 7.682-3.56 10.902-.76 3.22 2.801 3.56 7.681.76 10.902-4.237 4.872-10.365 7.669-16.813 7.675-.008 0-.015 0-.022 0z" fill="#495560"/></g><g><path d="m323.144 406.787c-6.442 0-12.567-2.786-16.808-7.645-2.806-3.215-2.475-8.097.741-10.903 3.216-2.805 8.097-2.475 10.903.741 1.305 1.495 3.188 2.352 5.165 2.352h.006c1.978-.002 3.862-.863 5.166-2.363 2.802-3.221 7.685-3.559 10.902-.76 3.22 2.801 3.56 7.681.76 10.902-4.237 4.872-10.365 7.669-16.813 7.675-.009.001-.016.001-.022.001z" fill="#495560"/></g></g></g></svg>