<svg id="Capa_1" enable-background="new 0 0 512 512" height="512" viewBox="0 0 512 512" width="512" xmlns="http://www.w3.org/2000/svg"><g><path d="m446.673 140.943-47.933-22.03 14.868-59.352c5.829-23.268 31.363-35.517 53.158-25.5 21.795 10.017 29.128 37.371 15.267 56.947z" fill="#29ce69"/><path d="m343.826 194.263-7.583-60.666 67.537-21.612c26.476-8.472 54.138 9.194 57.586 36.778 3.448 27.584-19.014 51.516-46.761 49.822z" fill="#00c140"/><path d="m67.944 204.476 56.744-22.759-13.816-69.552c-5.416-27.266-34.272-42.904-60.073-32.556-25.801 10.348-35.854 41.592-20.928 65.044z" fill="#00c140"/><path d="m174.37 268.456 14.31-67.496-73.886-30.74c-28.965-12.051-61.754 5.178-68.261 35.868-6.507 30.69 16.47 59.742 47.833 60.482z" fill="#00a62c"/><path d="m365.892 128.743c0 5.014-.355 10.089-1.086 15.204l-28.561 199.921h-152.847l-10.779-75.454 8.383-39.209-19.64-39.605-.01-.01-6.516-45.644c-9.125-63.893 40.447-121.047 104.979-121.047 4.182 0 8.313.244 12.352.71 53.379 6.153 93.725 51.706 93.725 105.134z" fill="#29ce69"/><path d="m267.489 343.868h-84.091l-28.561-199.921c-9.125-63.893 40.447-121.047 104.979-121.047 4.182 0 8.313.244 12.352.71-25.415 31.232-108.521 154.065-4.679 320.258z" fill="#00c140"/><path d="m374.458 343.808v152.907h-229.274v-152.907c0-8.404 6.821-15.225 15.225-15.225h20.807l35.027 8.861 42.152-8.861h100.839c8.404 0 15.224 6.82 15.224 15.225z" fill="#ffb3c2"/><path d="m242.49 496.714h-97.306v-152.906c0-8.404 6.821-15.225 15.225-15.225h97.986s-85.674 63.558-15.905 168.131z" fill="#ff899f"/><path d="m397.377 489.072c0 6.333-2.568 12.068-6.709 16.219-4.151 4.141-9.886 6.709-16.209 6.709h-229.275c-12.657 0-22.918-10.261-22.918-22.928 0-6.333 2.568-12.058 6.709-16.209 4.151-4.151 9.876-6.719 16.209-6.719h229.274c12.657-.001 22.919 10.271 22.919 22.928z" fill="#ff899f"/><path d="m253.605 512h-108.42c-12.657 0-22.918-10.261-22.918-22.928 0-6.333 2.568-12.058 6.709-16.209 4.151-4.151 9.876-6.719 16.209-6.719h80.61c6.069 14.341 15.072 29.657 27.81 45.856z" fill="#ff5f7f"/><path d="m213.97 53.44c-3.021 0-5.88-1.811-7.07-4.787l-15.285-38.211c-1.562-3.903.337-8.334 4.24-9.895 3.905-1.562 8.334.338 9.895 4.241l15.285 38.211c1.562 3.903-.337 8.334-4.24 9.895-.927.37-1.884.546-2.825.546z" fill="#00a62c"/><path d="m305.672 53.44c-.942 0-1.898-.175-2.825-.546-3.903-1.561-5.802-5.992-4.241-9.895l15.284-38.212c1.561-3.904 5.995-5.802 9.895-4.241 3.903 1.561 5.802 5.992 4.241 9.895l-15.284 38.211c-1.19 2.977-4.049 4.788-7.07 4.788z" fill="#00c140"/><path d="m336.249 91.65c-2.314 0-4.6-1.051-6.096-3.045-2.523-3.363-1.841-8.135 1.522-10.657l30.569-22.927c3.363-2.522 8.135-1.84 10.657 1.522 2.523 3.363 1.841 8.135-1.522 10.657l-30.569 22.927c-1.369 1.027-2.972 1.523-4.561 1.523z" fill="#00c140"/><path d="m183.393 91.65c-1.589 0-3.192-.496-4.561-1.523l-30.569-22.927c-3.363-2.523-4.045-7.294-1.522-10.657 2.522-3.363 7.295-4.045 10.657-1.522l30.569 22.927c3.363 2.523 4.045 7.294 1.522 10.657-1.495 1.993-3.782 3.045-6.096 3.045z" fill="#00a62c"/><g fill="#00c140"><path d="m275.106 114.578c-.798 0-1.61-.126-2.409-.393-3.988-1.329-6.143-5.641-4.814-9.629l7.642-22.927c1.329-3.989 5.638-6.144 9.629-4.815 3.988 1.329 6.143 5.641 4.814 9.629l-7.642 22.927c-1.063 3.191-4.033 5.208-7.22 5.208z"/><path d="m275.106 290.349c-.798 0-1.61-.126-2.409-.393-3.988-1.33-6.143-5.641-4.814-9.629l7.642-22.927c1.329-3.989 5.638-6.144 9.629-4.815 3.988 1.33 6.143 5.641 4.814 9.629l-7.642 22.927c-1.063 3.19-4.032 5.208-7.22 5.208z"/><path d="m336.25 259.779c-2.586 0-5.107-1.318-6.535-3.697-2.163-3.605-.993-8.281 2.612-10.444l38.211-22.927c3.605-2.163 8.279-.995 10.444 2.611 2.163 3.605.993 8.281-2.612 10.444l-38.211 22.927c-1.226.736-2.576 1.086-3.909 1.086z"/><path d="m221.617 305.632c-2.46 0-4.874-1.19-6.341-3.39l-15.285-22.927c-2.332-3.498-1.387-8.224 2.111-10.556 3.497-2.332 8.224-1.387 10.556 2.111l15.285 22.927c2.332 3.498 1.387 8.224-2.111 10.556-1.297.865-2.764 1.279-4.215 1.279z"/><path d="m224.018 144.749c-.802.274-1.614.396-2.405.396-.782 0-1.543-.122-2.274-.355-2.253-.7-4.151-2.446-4.953-4.852l-7.643-22.928c-1.33-3.989.832-8.292 4.821-9.622s8.293.822 9.622 4.811l2.913 8.739 4.73 14.189c1.329 3.989-.822 8.293-4.811 9.622z"/></g><path d="m206.743 117.01c-1.33-3.989.832-8.292 4.821-9.622s8.293.822 9.622 4.811l2.913 8.739c-1.908 7.602-3.522 15.56-4.76 23.852-2.253-.7-4.151-2.446-4.953-4.852z" fill="#00a62c"/><path d="m298.033 191c-.798 0-1.61-.126-2.409-.393-3.988-1.33-6.143-5.641-4.814-9.629l7.642-22.927c1.329-3.989 5.639-6.144 9.629-4.815 3.988 1.33 6.143 5.641 4.814 9.629l-7.642 22.927c-1.062 3.19-4.032 5.208-7.22 5.208z" fill="#00c140"/><path d="m233.477 227.927c-1.299.873-2.771 1.279-4.222 1.279-2.456 0-4.872-1.188-6.333-3.39l-3.289-4.933-11.997-17.996c-2.335-3.492-1.391-8.221 2.111-10.556 2.172-1.441 4.811-1.624 7.054-.721 1.38.548 2.609 1.512 3.502 2.832l15.286 22.928c2.334 3.503 1.38 8.233-2.112 10.557z" fill="#00c140"/><path d="m216.801 191.611c.376 9.449 1.289 19.214 2.832 29.272l-11.997-17.996c-2.335-3.492-1.391-8.221 2.111-10.556 2.172-1.441 4.811-1.623 7.054-.72z" fill="#00a62c"/><path d="m473.809 68.723c-2.46 0-4.874-1.19-6.341-3.391-2.332-3.498-1.387-8.224 2.111-10.556l22.927-15.284c3.498-2.332 8.225-1.387 10.556 2.111 2.332 3.498 1.387 8.224-2.111 10.556l-22.927 15.284c-1.297.866-2.763 1.28-4.215 1.28z" fill="#00c140"/><path d="m450.876 45.796c-4.205 0-7.612-3.408-7.612-7.612v-30.569c0-4.204 3.408-7.612 7.612-7.612s7.612 3.408 7.612 7.612v30.569c.001 4.204-3.407 7.612-7.612 7.612z" fill="#00c140"/><path d="m38.19 114.577c-1.451 0-2.918-.414-4.216-1.279l-22.926-15.285c-3.498-2.332-4.444-7.058-2.111-10.556 2.331-3.498 7.058-4.443 10.556-2.111l22.926 15.284c3.498 2.332 4.444 7.058 2.111 10.556-1.466 2.2-3.881 3.391-6.34 3.391z" fill="#00a62c"/><path d="m61.123 91.649c-4.204 0-7.612-3.408-7.612-7.612v-30.569c0-4.204 3.408-7.612 7.612-7.612s7.612 3.408 7.612 7.612v30.569c.001 4.204-3.407 7.612-7.612 7.612z" fill="#00a62c"/><path d="m30.549 244.495c-3.411 0-6.514-2.309-7.379-5.768-1.02-4.079 1.46-8.212 5.539-9.231l30.569-7.642c4.075-1.019 8.211 1.46 9.231 5.539s-1.46 8.212-5.539 9.231l-30.569 7.642c-.62.155-1.241.229-1.852.229z" fill="#00c140"/><path d="m114.619 290.347c-4.204 0-7.612-3.408-7.612-7.612v-38.211c0-4.204 3.408-7.612 7.612-7.612s7.612 3.408 7.612 7.612v38.211c0 4.203-3.408 7.612-7.612 7.612z" fill="#00c140"/><path d="m449.046 157.008c-3.751 0-7.018-2.773-7.534-6.594-.563-4.166 2.358-8 6.525-8.563l31.227-4.22c4.151-.562 8 2.357 8.563 6.524.563 4.166-2.358 8-6.525 8.563l-31.227 4.22c-.345.047-.689.07-1.029.07z" fill="#29ce69"/><path d="m419.173 226.51c-3.024 0-5.885-1.815-7.073-4.796l-14.148-35.495c-1.557-3.906.347-8.333 4.252-9.89 3.905-1.556 8.333.347 9.89 4.253l14.148 35.495c1.557 3.906-.347 8.333-4.252 9.89-.925.368-1.878.543-2.817.543z" fill="#29ce69"/><g><g><path d="m283.869 394.699c0-14.862-10.767-16.259-24.048-16.259-13.282 0-24.048 1.396-24.048 16.259 0 14.862 10.767 26.91 24.048 26.91s24.048-12.048 24.048-26.91z" fill="#495560"/></g><g><path d="m183.969 392.203c-4.204 0-7.612-3.408-7.612-7.612v-12.18c0-4.204 3.408-7.612 7.612-7.612s7.612 3.408 7.612 7.612v12.18c.001 4.204-3.407 7.612-7.612 7.612z" fill="#495560"/></g><g><path d="m335.673 392.203c-4.205 0-7.612-3.408-7.612-7.612v-12.18c0-4.204 3.408-7.612 7.612-7.612 4.205 0 7.612 3.408 7.612 7.612v12.18c0 4.204-3.407 7.612-7.612 7.612z" fill="#495560"/></g></g></g></svg>