<svg id="Capa_1" enable-background="new 0 0 512 512" height="512" viewBox="0 0 512 512" width="512" xmlns="http://www.w3.org/2000/svg"><g><path d="m418.912 387.879-18.546 98.909c-2.74 14.621-15.506 25.212-30.383 25.212h-227.965c-14.878 0-27.643-10.591-30.384-25.211l-18.545-98.909h325.823z" fill="#fcf5af"/><path d="m253.187 512h-111.17c-14.878 0-27.643-10.591-30.384-25.211l-18.545-98.909h144.655c-16.918 28.209-28.612 73.131 15.444 124.12z" fill="#f8ea69"/><path d="m366.689 116.618c-29.545 24.782-62.413 34.232-73.436 21.109-16.88 2.968-35.983-25.398-42.687-63.374-6.694-37.972 1.563-71.17 18.443-74.138 7.802-1.379 16.085 3.949 23.396 13.828 5.559 7.512 16.383 8.46 23.162 2.027 8.918-8.462 17.998-12.27 25.444-9.56s11.954 11.464 13.346 23.678c1.058 9.285 9.96 15.517 19.047 13.335 11.951-2.869 21.72-1.626 26.811 4.446 11.024 13.125-3.991 43.864-33.526 68.649z" fill="#ffb3c2"/><path d="m322.395 391.087-76.706-11.585-5.182-221.868c-1.135-48.575 41.83-86.42 89.873-79.164 48.044 7.256 77.916 56.101 62.487 102.174z" fill="#36d49b"/><path d="m189.605 391.087 76.706-11.585 5.182-221.868c1.135-48.575-41.83-86.42-89.873-79.164-48.044 7.256-77.916 56.101-62.487 102.174z" fill="#00c780"/><path d="m334.241 140.111c0 4.492-.391 9.056-1.195 13.652l-38.255 218.601h-77.582l-9.747-55.699-20.4-175.028 20.472-62.776c11.529-9.129 25.737-15.104 41.418-16.485l12.024 3.502 11.488-2.091c35.741 7.624 61.777 39.543 61.777 76.324z" fill="#80e0b7"/><path d="m272.918 372.364h-55.708l-38.255-218.601c-8.376-47.868 28.457-91.707 77.046-91.707 5.667 0 11.179.598 16.464 1.732-24.378 29.115-103 143.499.453 308.576z" fill="#36d49b"/><path d="m387.879 380.121c-11.333 0-21.245-6.068-26.664-15.146-6.069 13.508-19.627 22.904-35.401 22.904-15.352 0-28.612-8.913-34.896-21.863-2.926 6.027-7.367 11.178-12.838 14.96-6.264 4.359-13.878 6.903-22.079 6.903-15.351 0-28.622-8.913-34.907-21.863-6.295 12.95-19.555 21.863-34.907 21.863-15.774 0-29.333-9.396-35.401-22.904-5.419 9.078-15.331 15.146-26.664 15.146-17.783 0-32.073-14.96-30.971-32.99.968-15.867 14.177-28.601 30.075-29.055 6.491-.175 12.539 1.628 17.598 4.863 5.904 3.771 13.631 2.772 18.731-2.05 1.597-1.515 3.328-2.886 5.172-4.101l57.759 15.475 19.7-19.421c4.286-1.638 8.953-2.535 13.816-2.535 9.479 0 18.154 3.39 24.892 9.036 5.821 4.873 14.229 4.863 20.039-.011 6.738-5.635 15.414-9.025 24.882-9.025 10.324 0 19.689 4.019 26.633 10.582 5.1 4.822 12.828 5.821 18.731 2.05 5.059-3.235 11.107-5.038 17.598-4.863 15.898.454 29.106 13.188 30.075 29.055 1.1 18.03-13.19 32.99-30.973 32.99z" fill="#e4996d"/><path d="m278.079 380.976c-6.264 4.359-13.878 6.903-22.079 6.903-15.351 0-28.622-8.913-34.907-21.863-6.295 12.95-19.555 21.863-34.907 21.863-15.774 0-29.333-9.396-35.401-22.904-5.419 9.078-15.331 15.146-26.664 15.146-17.783 0-32.073-14.96-30.971-32.99.968-15.867 14.177-28.601 30.075-29.055 6.491-.175 12.539 1.628 17.598 4.863 5.904 3.771 13.631 2.772 18.731-2.05 6.944-6.563 16.31-10.582 26.633-10.582 9.468 0 18.154 3.39 24.882 9.036 5.821 4.873 14.228 4.873 20.039 0 3.276-2.741 7.006-4.956 11.076-6.502 7.696 18.999 17.793 38.863 30.734 59.521 1.854 2.958 3.564 5.822 5.161 8.614z" fill="#d97c41"/><path d="m434.428 372.301v15.64c0 8.531-6.924 15.455-15.455 15.455h-325.947c-8.531 0-15.455-6.923-15.455-15.455v-15.64c0-8.531 6.924-15.455 15.455-15.455h1.041l70.019 12.426 99.558-12.426h155.329c8.531.001 15.455 6.924 15.455 15.455z" fill="#f8ea69"/><path d="m263.645 356.847s-21.915 17.763-33.722 46.549h-136.897c-8.531 0-15.455-6.923-15.455-15.455v-15.64c0-8.531 6.924-15.455 15.455-15.455h170.619z" fill="#eedb00"/><g><g><ellipse cx="256" cy="459.976" fill="#495560" rx="16.92" ry="18.934"/></g><g><path d="m174.941 456.576c-4.268 0-7.727-3.459-7.727-7.727v-12.364c0-4.268 3.46-7.727 7.727-7.727 4.268 0 7.727 3.459 7.727 7.727v12.364c0 4.268-3.459 7.727-7.727 7.727z" fill="#495560"/></g><g><path d="m337.059 456.576c-4.268 0-7.727-3.459-7.727-7.727v-12.364c0-4.268 3.459-7.727 7.727-7.727s7.727 3.459 7.727 7.727v12.364c0 4.268-3.459 7.727-7.727 7.727z" fill="#495560"/></g></g></g></svg>