<svg id="Capa_1" enable-background="new 0 0 512 512" height="512" viewBox="0 0 512 512" width="512" xmlns="http://www.w3.org/2000/svg"><g><path d="m400.785 133.016c-7.438 7.438-16.332 13.234-25.883 17.204-26.386 11.008-57.82 8.238-77.691-11.634-27.063-27.063-22.416-75.588 5.571-103.575 22.796-22.785 69.556-40.441 100.743-31.587 7.099 2.021 13.398 5.417 18.415 10.433 27.062 27.064 6.821 91.172-21.155 119.159z" fill="#80e0b7"/><path d="m374.902 150.22c-26.386 11.008-57.82 8.238-77.691-11.634-27.063-27.063-22.416-75.588 5.571-103.575 22.796-22.785 69.556-40.441 100.743-31.587-23.36 12.896-80.144 55.542-28.623 146.796z" fill="#36d49b"/><path d="m418.81 335.466c-3.642.882-7.222 1.549-10.69 1.99-45.345 5.807-92.967-24.242-98.568-68.089-5.612-43.857 32.921-84.914 78.266-90.71 11.921-1.528 25.75-.79 39.764 1.919 39.271 7.571 79.948 30.633 84.072 62.949 5.181 40.493-48.833 81.364-92.844 91.941z" fill="#80e0b7"/><path d="m411.475 320.375c3.108 5.458 5.529 10.474 7.335 15.091-3.642.882-7.222 1.549-10.69 1.99-45.345 5.807-92.967-24.242-98.568-68.089-5.612-43.857 32.921-84.914 78.266-90.71 11.921-1.528 25.75-.79 39.764 1.919-25.771 18.887-60.662 61.565-16.107 139.799z" fill="#36d49b"/><path d="m214.79 138.586c-13.922 13.922-33.506 19.451-53.07 17.728-18.476-1.611-36.912-9.705-50.505-23.298-27.976-27.987-48.217-92.095-21.154-119.159 21.595-21.595 66.755-13.07 98.353 5.458 8.012 4.699 15.142 10.044 20.805 15.696 27.987 27.987 32.634 76.512 5.571 103.575z" fill="#80e0b7"/><path d="m161.72 156.314c-18.476-1.611-36.912-9.705-50.505-23.298-27.976-27.987-48.217-92.095-21.154-119.159 21.595-21.595 66.755-13.07 98.353 5.458-24.796 15.594-68.602 56.62-26.694 136.999z" fill="#36d49b"/><path d="m202.448 269.367c-4.688 36.686-38.8 63.719-76.368 68.161-7.335.872-14.794.872-22.2-.072-45.345-5.796-109.145-50.084-103.534-93.931 5.601-43.847 78.491-70.664 123.836-64.868 5.591.718 11.08 1.97 16.394 3.703 37.784 12.261 66.796 48.557 61.872 87.007z" fill="#80e0b7"/><path d="m119.679 325.474c2.503 4.401 4.627 8.413 6.402 12.054-7.335.872-14.794.872-22.2-.072-45.346-5.796-109.146-50.084-103.535-93.931 5.601-43.847 78.491-70.664 123.836-64.868 5.591.718 11.08 1.97 16.394 3.703-25.801 16.918-68.284 59.903-20.897 143.114z" fill="#36d49b"/><path d="m464.442 249.445c-.646 4.206-4.575 7.079-8.782 6.432-.421-.062-12.68-1.836-30.797-2.021 8.299 8.094 16.302 19.297 16.496 32.562.051 4.073-2.842 7.725-6.884 8.136-4.627.472-8.505-3.139-8.505-7.653 0-15.235-18.835-28.397-25.011-32.306-3.498.256-7.089.595-10.751 1.016-6.986.8-14.219 1.929-21.523 3.488 12.423 9.705 23.39 25.042 18.374 45.119-.872 3.488-4.011 5.827-7.458 5.827-.626 0-1.252-.072-1.877-.236-4.124-1.026-6.627-5.202-5.601-9.326 5.058-20.23-16.291-32.346-23.78-35.906-16.199 5.376-31.926 13.255-45.293 24.734-21.349 18.343-34.091 43.734-38.03 75.671-.872 7.069-1.313 14.445-1.323 22.149 0 3.878-2.821 7.315-6.668 7.807-4.699.615-8.72-3.037-8.72-7.623 0-42.595-13.244-75.578-39.353-98.004-13.367-11.48-29.094-19.358-45.293-24.734-7.469 3.55-28.848 15.665-23.78 35.906 1.026 4.124-1.477 8.3-5.601 9.326-.626.164-1.252.236-1.877.236-3.447 0-6.586-2.339-7.458-5.827-5.017-20.077 5.95-35.414 18.374-45.119-11.141-2.37-22.108-3.755-32.326-4.504-3.365 2.083-8.002 5.406-12.362 9.531-6.617 6.248-12.598 14.353-12.598 22.775 0 4.514-3.878 8.125-8.505 7.653-4.042-.41-6.935-4.062-6.884-8.136.195-13.265 8.197-24.468 16.496-32.562-18.179.184-30.459 1.97-30.808 2.021-4.196.646-8.125-2.236-8.771-6.432-.636-4.206 2.236-8.125 6.432-8.771.739-.113 13.306-2.001 32.039-2.267-9.756-12.003-9.603-24.653-7.212-31.341 0 0 2.821-7.807 10.177-4.647 6.904 2.965 4.319 9.818 4.319 9.818-.482 1.652-2.513 10.813 8.279 20.303 2.513 2.206 5.725 4.432 9.808 6.586.544.031 1.087.072 1.641.113 8.443.646 16.599 1.662 24.468 3.026-6.945-12.752-6.812-26.52-4.842-34.46 1.016-4.124 5.191-6.638 9.315-5.622 4.114 1.015 6.627 5.171 5.632 9.284-.256 1.108-5.622 25.463 18.969 37.887 20.508 6.607 38.184 16.096 52.341 28.243 11.972 10.27 21.554 22.395 28.746 36.307-4.832-101.143-36.214-164.78-62.898-201.179-.769-1.056-1.539-2.082-2.308-3.098-7.376.462-24.304 2.38-34.758 10.854-.749.606-1.457 1.241-2.134 1.919-1.498 1.508-3.468 2.257-5.437 2.257-1.97 0-3.94-.748-5.437-2.257-3.006-3.006-3.006-7.869 0-10.875s6.443-5.499 10.105-7.55c8.535-4.801 18.21-7.274 26.068-8.546-6.043-6.853-11.921-12.742-17.399-17.717-2.298.185-4.976.523-7.766 1.026-8.884 1.61-18.959 4.965-21.862 10.772-1.354 2.688-4.063 4.247-6.894 4.247-1.149 0-2.329-.256-3.426-.811-3.806-1.898-5.345-6.525-3.447-10.321 5.14-10.28 17.05-15.388 27.515-17.943-9.726-7.13-16.055-10.218-16.199-10.29-3.827-1.816-5.468-6.401-3.652-10.238s6.381-5.478 10.218-3.673c.605.288 7.14 3.426 17.04 10.505.174-11.295 3.047-20.662 3.242-21.287 1.272-4.063 5.591-6.31 9.643-5.047 4.052 1.272 6.309 5.581 5.047 9.633-.636 2.062-1.498 5.704-2.042 9.982-.831 6.556-.903 14.63 1.713 20.887 4.658 4.186 9.592 8.977 14.691 14.424 2.873-13.388 10.967-21.626 11.48-22.138 3.016-2.996 7.889-2.986 10.885.02 2.985 3.006 2.985 7.849.01 10.854-.564.575-11.747 12.403-6.586 29.864 1.149 1.487 2.298 3.006 3.447 4.555 19.564 26.468 35.127 57.501 46.278 92.259 4.34 13.512 7.992 27.618 10.977 42.257.79 3.837 1.529 7.715 2.216 11.624 3.334-18.825 7.715-36.819 13.193-53.88 11.152-34.757 26.714-65.791 46.278-92.259 1.149-1.549 2.298-3.068 3.447-4.555 5.263-17.789-6.432-29.71-6.556-29.833-3.006-2.996-3.016-7.869-.021-10.885 2.996-3.006 7.869-3.016 10.885-.02.513.513 8.607 8.751 11.48 22.138 5.099-5.448 10.033-10.238 14.691-14.424 4.329-10.341 1.293-25.647-.328-30.869-1.252-4.063 1.016-8.371 5.068-9.633 4.042-1.262 8.351.995 9.623 5.047.113.369 1.169 3.806 2.042 8.884.605 3.509 1.128 7.797 1.2 12.403 9.9-7.079 16.435-10.218 17.04-10.505 3.837-1.805 8.423-.164 10.238 3.683 1.806 3.837.164 8.423-3.673 10.228-.143.072-6.473 3.16-16.199 10.29 10.464 2.555 22.375 7.664 27.515 17.943 1.898 3.796.359 8.423-3.447 10.321-1.098.554-2.278.811-3.426.811-2.831 0-5.54-1.559-6.894-4.247-3.816-7.633-19.995-11.018-29.628-11.798-1.498 1.365-3.026 2.791-4.586 4.298-4.124 3.97-8.423 8.443-12.813 13.419 4.381.708 9.315 1.785 14.311 3.437 7.817 2.575 15.758 6.545 21.862 12.659 3.006 3.006 3.006 7.869 0 10.875-1.498 1.508-3.468 2.257-5.437 2.257-1.97 0-3.939-.748-5.437-2.257-1.836-1.836-3.95-3.406-6.248-4.76-10.341-6.083-24.16-7.622-30.633-8.022-.769 1.026-1.549 2.052-2.319 3.108-21.882 29.854-46.935 78.04-57.891 150.212-2.411 15.82-4.134 32.788-5.006 50.967 3.416-6.627 7.397-12.844 11.921-18.661 4.945-6.381 10.557-12.27 16.825-17.646 14.157-12.146 31.834-21.636 52.341-28.243 24.622-12.444 19.215-36.861 18.969-37.897-.964-4.114 1.57-8.269 5.683-9.264 4.114-.995 8.248 1.508 9.264 5.612 1.97 7.94 2.103 21.708-4.842 34.46 5.304-.923 10.731-1.683 16.302-2.267 2.688-.298 5.417-.544 8.166-.759.554-.041 1.098-.082 1.641-.113 22.108-11.654 18.538-25.452 18.046-27.012 0 0-2.195-5.201 3.488-8.781 3.888-2.452 6.843-1.077 8.71.656 1.539 1.416 2.524 3.324 3.006 5.355 1.652 7.038.862 18.312-7.879 29.064 18.733.266 31.3 2.154 32.039 2.267 4.19.643 7.072 4.572 6.426 8.768z" fill="#29ce69"/><g fill="#00c140"><path d="m144.803 103.972c.513 5.242 1.457 10.741 2.903 16.507-.749.606-1.457 1.241-2.134 1.919-1.498 1.508-3.468 2.257-5.437 2.257-1.97 0-3.94-.748-5.437-2.257-3.006-3.006-3.006-7.869 0-10.875s6.443-5.499 10.105-7.551z"/><path d="m162.931 34.283c-.636 2.062-1.498 5.704-2.042 9.982-6.915 9.223-12.649 20.621-15.183 34.47-8.884 1.61-18.959 4.965-21.862 10.772-1.354 2.688-4.063 4.247-6.894 4.247-1.149 0-2.329-.256-3.426-.811-3.806-1.898-5.345-6.525-3.447-10.321 5.14-10.28 17.05-15.388 27.515-17.943-9.726-7.13-16.055-10.218-16.199-10.29-3.827-1.816-5.468-6.401-3.652-10.238s6.381-5.478 10.218-3.673c.605.288 7.14 3.426 17.04 10.505.174-11.295 3.047-20.662 3.242-21.287 1.272-4.063 5.591-6.31 9.643-5.047 4.052 1.273 6.308 5.582 5.047 9.634z"/><path d="m98.627 264.125c-6.617 6.248-12.598 14.353-12.598 22.775 0 4.514-3.878 8.125-8.505 7.653-4.042-.41-6.935-4.062-6.884-8.136.195-13.265 8.197-24.468 16.496-32.562-18.179.184-30.459 1.97-30.808 2.021-4.196.646-8.125-2.236-8.771-6.432-.636-4.206 2.236-8.125 6.432-8.771.739-.113 13.306-2.001 32.039-2.267-9.756-12.003-9.603-24.653-7.212-31.341 0 0 2.821-7.807 10.177-4.647 6.904 2.965 4.319 9.818 4.319 9.818-.482 1.652-2.513 10.813 8.279 20.303-2.697 9.252-3.938 19.747-2.964 31.586z"/><path d="m390.208 255.611c-6.986.8-14.219 1.929-21.523 3.488 12.423 9.705 23.39 25.042 18.374 45.119-.872 3.488-4.011 5.827-7.458 5.827-.626 0-1.252-.072-1.877-.236-4.124-1.026-6.627-5.202-5.601-9.326 5.058-20.23-16.291-32.346-23.78-35.906-16.199 5.376-31.926 13.255-45.293 24.734-21.349 18.343-34.091 43.734-38.03 75.671-10.228-2.883-16.548-4.924-16.548-4.924l27.781-64.816c4.945-6.381 10.557-12.27 16.825-17.646 14.157-12.146 31.834-21.636 52.341-28.243 24.622-12.444 19.215-36.861 18.969-37.897-.964-4.114 1.57-8.269 5.683-9.264 4.114-.995 8.248 1.508 9.264 5.612 1.97 7.94 2.103 21.708-4.842 34.46 5.304-.923 10.731-1.683 16.302-2.267-.638 4.913-.854 10.104-.587 15.614z"/><path d="m355.44 98.864c1.016 5.95 2.565 12.198 4.74 18.774-10.341-6.083-24.16-7.622-30.633-8.022-.769 1.026-1.549 2.052-2.319 3.108-21.882 29.854-46.935 78.04-57.891 150.212l-16.065 16.968.513-42.657c.79 3.837 1.529 7.715 2.216 11.624 3.334-18.825 7.715-36.819 13.193-53.88 11.152-34.757 26.714-65.791 46.278-92.259 1.149-1.549 2.298-3.068 3.447-4.555 5.263-17.789-6.432-29.71-6.556-29.833-3.006-2.996-3.016-7.869-.021-10.885 2.996-3.006 7.869-3.016 10.885-.02.513.513 8.607 8.751 11.48 22.138 5.099-5.448 10.033-10.238 14.691-14.424 4.329-10.341 1.293-25.647-.328-30.869-1.252-4.063 1.016-8.371 5.068-9.633 4.042-1.262 8.351.995 9.623 5.047.113.369 1.169 3.806 2.042 8.884-6.997 11.521-11.911 25.873-11.859 43.426-4.124 3.97-8.423 8.443-12.813 13.419 4.379.707 9.313 1.784 14.309 3.437z"/></g><path d="m256.39 425.937h-.78c-8.317 0-15.059-6.742-15.059-15.059v-170.717c0-8.317 6.742-15.059 15.059-15.059h.78c8.317 0 15.059 6.742 15.059 15.059v170.717c0 8.317-6.742 15.059-15.059 15.059z" fill="#e4996d"/><path d="m377.692 464.555c-6.761 26.642-30.9 46.35-59.656 46.35h-124.072c-28.756 0-52.895-19.707-59.656-46.35l77.989-5.263 43.703-2.944z" fill="#c7c4ea"/><path d="m241.33 510.905h-47.366c-28.756 0-52.895-19.707-59.656-46.35l77.989-5.263c5.078 15.953 14.209 33.249 29.033 51.613z" fill="#b2aee4"/><path d="m379.59 387.192v62.159c0 5.243-.656 10.341-1.898 15.204h-163.59l-45.611-11.079-34.183 11.079c-1.241-4.863-1.898-9.961-1.898-15.204v-62.159c0-16.999 13.778-30.777 30.777-30.777h185.626c16.999 0 30.777 13.778 30.777 30.777z" fill="#deddf5"/><path d="m214.102 464.555h-79.794c-1.241-4.863-1.898-9.961-1.898-15.204v-62.159c0-16.999 13.778-30.777 30.777-30.777h70.459c-12.342 14.239-39.559 53.819-19.544 108.14z" fill="#c7c4ea"/><g><g><ellipse cx="256" cy="414.809" fill="#495560" rx="16.848" ry="18.853"/></g><g><path d="m206.397 411.223c-4.249 0-7.694-3.444-7.694-7.694 0-3.545-2.883-6.428-6.427-6.428s-6.427 2.883-6.427 6.428c0 4.25-3.445 7.694-7.694 7.694s-7.694-3.444-7.694-7.694c0-12.029 9.786-21.816 21.815-21.816s21.816 9.787 21.816 21.816c0 4.25-3.445 7.694-7.695 7.694z" fill="#495560"/></g><g><path d="m332.629 411.223c-4.249 0-7.694-3.444-7.694-7.694 0-3.545-2.883-6.428-6.427-6.428s-6.427 2.883-6.427 6.428c0 4.25-3.445 7.694-7.694 7.694s-7.694-3.444-7.694-7.694c0-12.029 9.786-21.816 21.815-21.816s21.816 9.787 21.816 21.816c-.001 4.25-3.446 7.694-7.695 7.694z" fill="#495560"/></g></g></g></svg>