<svg id="Capa_1" enable-background="new 0 0 512 512" height="512" viewBox="0 0 512 512" width="512" xmlns="http://www.w3.org/2000/svg"><g><g fill="#36d49b"><path d="m310.791 388.879c-4.268 0-7.727-3.459-7.727-7.727 0-21.383 3.048-38.769 11.622-56.316 1.873-3.834 7.8-7.779 11.635-5.902 3.834 1.873 5.424 6.501 3.55 10.335-7.533 15.415-11.352 32.872-11.352 51.882 0 4.268-3.46 7.728-7.728 7.728z"/><path d="m279.242 380.122c-4.268 0-7.727-3.956-7.727-8.836v-106.449c0-4.881 3.46-8.836 7.727-8.836s7.727 3.956 7.727 8.836v106.449c.001 4.88-3.459 8.836-7.727 8.836z"/><path d="m271.515 299.735c0-22.303 18.05-38.023 39.324-48.806 64.781-32.834 104.866-100.166 100.449-172.658-.858-14.072-2.252-22.788-2.252-22.788l-135.582 127.554c-1.288 9.345-1.937 18.813-1.937 28.354z"/></g><path d="m273.454 183.037c6.419-46.961 28.684-90.646 63.549-123.575l58.483-55.233c8.051-7.603 21.282-4.538 25.101 5.855 15.948 43.396 30.935 142.55-147.133 172.953" fill="#80e0b7"/><path d="m234.467 380.122c4.268 0 7.727-3.956 7.727-8.836v-106.449c0-4.881-3.46-8.836-7.727-8.836-4.268 0-7.727 3.956-7.727 8.836v106.449c0 4.88 3.46 8.836 7.727 8.836z" fill="#36d49b"/><path d="m242.194 211.388v88.349c0-20.452-15.176-35.37-34.103-46.014-1.71-.968-3.462-1.896-5.224-2.792-64.775-32.836-104.864-100.166-100.444-172.658.855-14.074 2.256-22.79 2.256-22.79l66.723 62.777 68.855 64.775c1.288 9.344 1.937 18.813 1.937 28.353z" fill="#36d49b"/><path d="m208.091 253.724c-1.71-.968-3.462-1.896-5.224-2.792-64.775-32.837-104.864-100.167-100.444-172.659.855-14.074 2.256-22.79 2.256-22.79l66.723 62.777c-8.5 34.813-5.08 81.465 36.689 135.464z" fill="#00c780"/><path d="m240.257 183.034c-28.704-4.905-52.391-11.591-71.864-19.545l-35.174-39.389-28.684-5.615h-.01c-29.725-38.605-20.73-83.032-11.406-108.398 3.823-10.396 17.052-13.456 25.109-5.862l58.48 55.235c4.925 4.646 9.592 9.509 14.002 14.568 26.839 30.765 44.035 68.68 49.547 109.006z" fill="#80e0b7"/><path d="m168.393 163.489c-101.351-41.377-88.647-117.001-75.274-153.402 3.823-10.396 17.052-13.456 25.109-5.862l58.48 55.235c4.925 4.646 9.592 9.509 14.002 14.568-12.477 19.267-26.49 50.207-22.317 89.461z" fill="#36d49b"/><path d="m200.182 387.849c-4.268 0-7.727-3.459-7.727-7.727 0-18.653-3.687-35.839-10.957-51.081-1.838-3.853-.205-8.465 3.647-10.302 3.853-1.839 10.332 2.244 12.169 6.096 8.27 17.336 10.595 34.312 10.595 55.287 0 4.268-3.459 7.727-7.727 7.727z" fill="#00c780"/><path d="m197.314 324.835c-46.549 15.506-88.709 16.495-111.984-30.044-15.918-31.846.834-63.693 13.013-80.631 3.761-5.234 11.89-3.802 13.682 2.38 5.162 17.803 17.216 47.188 43.129 62.735 19.74 11.848 33.454 27.715 42.16 45.56z" fill="#36d49b"/><path d="m426.67 294.791c-23.275 46.539-65.435 45.55-111.984 30.044 8.706-17.845 22.419-33.712 42.16-45.56 25.912-15.547 37.967-44.931 43.129-62.735 1.793-6.182 9.922-7.614 13.682-2.38 12.179 16.938 28.931 48.785 13.013 80.631z" fill="#80e0b7"/><path d="m377.947 485.491c-7.583 16.237-23.996 26.509-41.903 26.509h-160.088c-17.907 0-34.32-10.272-41.903-26.509-15.073-32.269-17.989-66.527-17.67-90.296.237-16.949 13.961-30.59 30.909-30.59h44.272l7.944 3.699 7.872-3.699h157.327c16.948 0 30.672 13.641 30.909 30.59.32 23.769-2.596 58.026-17.669 90.296z" fill="#ffb3c2"/><path d="m223.37 512h-47.415c-17.907 0-34.32-10.272-41.903-26.509-15.073-32.269-17.989-66.527-17.67-90.296.237-16.949 13.961-30.59 30.909-30.59h78.993c-14.412 15.001-59.457 71.689-2.914 147.395z" fill="#ff899f"/><g><g fill="#fff"><ellipse cx="175.188" cy="448.041" rx="23.746" ry="29.818" transform="matrix(.005 -1 1 .005 -273.63 621.231)"/><ellipse cx="336.812" cy="448.761" rx="23.746" ry="29.818" transform="matrix(.005 -1 1 .005 -113.445 783.571)"/></g><g><path d="m319.54 432.723c-.012 0-.023 0-.034 0-4.268-.019-7.712-3.493-7.694-7.762l.022-4.932c.019-4.256 3.475-7.693 7.727-7.693h.034c4.268.019 7.712 3.493 7.694 7.762l-.022 4.932c-.018 4.256-3.475 7.693-7.727 7.693z" fill="#495560"/></g><g><path d="m192.672 432.158c-.012 0-.023 0-.034 0-4.268-.019-7.712-3.493-7.694-7.762l.022-4.932c.019-4.256 3.475-7.693 7.727-7.693h.034c4.268.019 7.712 3.493 7.694 7.762l-.022 4.932c-.019 4.256-3.476 7.693-7.727 7.693z" fill="#495560"/></g><path d="m275.846 422.547c0-10.544-8.578-19.122-19.122-19.122-4.268 0-7.727 3.459-7.727 7.727s3.46 7.727 7.727 7.727c2.022 0 3.667 1.645 3.667 3.667s-1.645 3.668-3.667 3.668c-4.268 0-7.727 3.459-7.727 7.727s3.46 7.727 7.727 7.727c2.022 0 3.667 1.645 3.667 3.667s-1.645 3.667-3.667 3.667c-4.268 0-7.727 3.459-7.727 7.727s3.46 7.727 7.727 7.727c10.544 0 19.122-8.578 19.122-19.122 0-4.272-1.425-8.208-3.802-11.395 2.377-3.184 3.802-7.12 3.802-11.392z" fill="#495560"/></g></g></svg>