<svg id="Capa_1" enable-background="new 0 0 512 512" height="512" viewBox="0 0 512 512" width="512" xmlns="http://www.w3.org/2000/svg"><g><g fill="#80e0b7"><path d="m184.063 361.076c-.874 0-1.763-.152-2.632-.472-3.944-1.454-5.964-5.831-4.509-9.775.483-1.31 12.107-32.502 36.841-69.905 22.937-34.685 61.915-81.264 117.356-106.198 69.033-31.046 108.551-75.245 129.547-106.859 22.8-34.328 29.342-61.696 29.405-61.969.952-4.09 5.036-6.638 9.13-5.696 4.092.946 6.646 5.021 5.706 9.114-.276 1.2-7.026 29.818-31.134 66.333-22.111 33.49-63.726 80.274-136.411 112.962-100.035 44.989-145.706 166.264-146.156 167.483-1.134 3.077-4.045 4.982-7.143 4.982z"/><path d="m29.777 361.074c-.875 0-1.765-.152-2.634-.473-3.943-1.455-5.961-5.829-4.507-9.772.483-1.31 12.107-32.502 36.841-69.905 22.937-34.685 61.916-81.264 117.356-106.198 69.034-31.046 108.552-75.246 129.548-106.859 22.8-34.328 29.342-61.696 29.405-61.969.952-4.09 5.036-6.638 9.13-5.696 4.092.946 6.646 5.021 5.706 9.114-.276 1.2-7.026 29.818-31.134 66.333-22.111 33.49-63.726 80.274-136.411 112.962-51.993 23.383-88.891 67.499-110.69 100.39-23.843 35.976-35.355 66.79-35.468 67.097-1.136 3.073-4.046 4.976-7.142 4.976z"/><path d="m327.937 361.076c-3.097 0-6.008-1.903-7.143-4.978-.113-.307-11.626-31.121-35.468-67.097-21.798-32.891-58.696-77.007-110.689-100.39-72.685-32.688-114.3-79.471-136.411-112.962-24.107-36.514-30.858-65.132-31.133-66.332-.941-4.098 1.619-8.181 5.716-9.122 4.097-.941 8.182 1.619 9.123 5.716.06.261 6.602 27.629 29.402 61.957 20.995 31.613 60.514 75.813 129.548 106.859 55.44 24.934 94.419 71.513 117.356 106.198 24.734 37.403 36.358 68.595 36.841 69.905 1.454 3.944-.565 8.321-4.509 9.775-.869.319-1.758.471-2.633.471z"/><path d="m482.223 361.076c-3.098 0-6.008-1.903-7.142-4.978-.113-.307-11.626-31.121-35.468-67.097-21.798-32.891-58.697-77.007-110.69-100.39-72.685-32.688-114.3-79.471-136.411-112.962-24.108-36.515-30.858-65.132-31.134-66.333-.941-4.098 1.619-8.181 5.716-9.122 4.097-.941 8.182 1.619 9.123 5.716.06.261 6.602 27.629 29.402 61.957 20.995 31.613 60.514 75.813 129.548 106.859 55.44 24.934 94.42 71.513 117.356 106.198 24.734 37.403 36.359 68.595 36.841 69.905 1.454 3.944-.565 8.321-4.509 9.775-.868.32-1.758.472-2.632.472z"/></g><path d="m506.894 360.149-34.094 113.637h-433.6l-34.094-113.637c-5.856-19.538 8.769-39.199 29.171-39.199h1.868l9.795 4.101 7.409-4.101h137.084l5.511 2.76 11.753-2.76h270.026c20.401 0 35.027 19.661 29.171 39.199z" fill="#deddf5"/><path d="m186.87 473.786h-147.67l-34.094-113.637c-5.856-19.538 8.769-39.199 29.171-39.199h181.327c-21.051 19.366-65.152 72.409-28.734 152.836z" fill="#c7c4ea"/><path d="m500.55 489.072c0 6.334-2.568 12.068-6.719 16.22-4.141 4.141-9.876 6.708-16.209 6.708h-443.244c-12.667 0-22.928-10.261-22.928-22.928 0-6.334 2.568-12.058 6.719-16.209 4.141-4.151 9.876-6.719 16.209-6.719h443.243c12.668-.001 22.929 10.271 22.929 22.928z" fill="#c7c4ea"/><path d="m209.179 512h-174.8c-12.667 0-22.928-10.261-22.928-22.928 0-6.334 2.568-12.058 6.719-16.209 4.141-4.151 9.876-6.719 16.209-6.719h149.243c5.724 14.372 14.027 29.667 25.557 45.856z" fill="#b2aee4"/><path d="m95.511 23.043c.051 14.493-2.071 34.184-12.109 48.212-3.309 4.628-7.683 8.058-12.545 10.189-9.632 4.233-21.213 3.37-30.348-3.299-14.332-10.464-16.26-30.997-5.065-44.77 10.302-12.677 27.08-20.381 40.072-24.745.985-.325 1.979-.558 2.964-.68 8.789-1.107 16.99 5.784 17.031 15.093z" fill="#29ce69"/><path d="m70.857 81.444c-9.632 4.233-21.213 3.37-30.348-3.299-14.332-10.464-16.26-30.997-5.065-44.77 10.302-12.677 27.08-20.381 40.072-24.745.985-.325 1.979-.558 2.964-.68-12.505 11.742-29.303 36.427-7.623 73.494z" fill="#00c140"/><path d="m85.32 182.314c-1.939.395-3.908.669-5.887.843-14.372 1.258-29.526-2.893-40.772-7.186-9.683-3.695-12.84-15.814-6.293-23.832 9.165-11.236 23.314-25.09 39.98-29.547 1.553-.415 3.106-.7 4.659-.872 14.819-1.604 29.008 7.876 32.845 22.796 4.416 17.183-7.135 34.265-24.532 37.798z" fill="#29ce69"/><path d="m79.433 183.156c-14.372 1.258-29.526-2.893-40.772-7.186-9.683-3.695-12.84-15.814-6.293-23.832 9.165-11.236 23.314-25.09 39.98-29.547 1.553-.415 3.106-.7 4.659-.872-7.206 9.49-20.309 33.383 2.426 61.437z" fill="#00c140"/><path d="m166.367 261.543c-11.185 9.206-27.76 20.005-44.964 21.132h-.041c-16.94 1.075-31.546-11.866-32.469-28.867-.954-17.722 13.723-32.195 31.475-32.246 4.435-.011 8.891.578 13.256 1.604 11.713 2.71 22.807 8.455 31.251 13.773 8.769 5.522 9.49 18.027 1.492 24.604z" fill="#29ce69"/><path d="m121.403 282.675h-.041c-16.94 1.075-31.546-11.866-32.469-28.867-.954-17.722 13.723-32.195 31.475-32.246 4.435-.011 8.891.578 13.256 1.604-11.632 9.907-25.558 29.211-12.221 59.509z" fill="#00c140"/><path d="m194.441 111.234c-4.456 2.497-9.328 4.314-14.321 5.602-11.002 2.832-22.644 3.126-32.053 2.619-10.343-.558-17.062-11.124-13.276-20.767 5.298-13.499 14.535-31.017 29.039-40.356 3.695-2.375 7.714-3.857 11.794-4.496 11.682-1.828 23.883 3.237 30.612 13.915 9.459 15.013 3.684 34.805-11.795 43.483z" fill="#29ce69"/><path d="m180.12 116.836c-11.002 2.832-22.644 3.126-32.053 2.619-10.343-.558-17.062-11.124-13.276-20.767 5.298-13.499 14.535-31.017 29.039-40.356 3.695-2.375 7.714-3.857 11.794-4.496-6.913 11.602-15.347 35.007 4.496 63z" fill="#00c140"/><path d="m471.491 78.145c-5.39 3.939-11.622 5.847-17.813 5.888-9.602.06-19.072-4.385-25.08-12.778-10.038-14.027-12.159-33.718-12.109-48.212.041-10.353 10.18-17.712 19.995-14.413 6.476 2.172 13.895 5.176 20.98 9.216 7.135 4.07 13.926 9.175 19.092 15.529 11.195 13.774 9.267 34.306-5.065 44.77z" fill="#29ce69"/><path d="m453.678 84.033c-9.602.06-19.072-4.385-25.08-12.778-10.038-14.027-12.159-33.718-12.109-48.212.041-10.353 10.18-17.712 19.995-14.413 6.476 2.172 13.895 5.176 20.98 9.216-9.734 10.464-26.176 35.108-3.786 66.187z" fill="#00c140"/><path d="m473.338 175.97c-9.186 3.501-20.98 6.922-32.835 7.369-4.649.172-9.307-.112-13.824-1.025-17.397-3.533-28.947-20.615-24.532-37.798 4.243-16.484 21.102-26.318 37.504-21.924 1.502.396 2.984.873 4.435 1.431 14.738 5.501 27.202 17.894 35.545 28.115 6.547 8.019 3.39 20.137-6.293 23.832z" fill="#29ce69"/><path d="m440.504 183.339c-4.649.172-9.307-.112-13.824-1.025-17.397-3.533-28.947-20.615-24.532-37.798 4.243-16.484 21.102-26.318 37.504-21.924 1.502.396 2.984.873 4.435 1.431-10.12 11.094-22.675 32.591-3.583 59.316z" fill="#00c140"/><path d="m57.571 292.775c-5.755 3.917-12.322 5.511-18.737 5.105-9.947-.649-19.528-6.14-25.141-15.357-8.485-13.956-10.109-32.348-9.866-46.04.193-10.363 10.515-17.447 20.29-14.007 7.196 2.528 15.539 6.111 23.274 11.002 6.963 4.406 13.418 9.876 18.087 16.575 9.693 13.946 6.16 33.14-7.907 42.722z" fill="#29ce69"/><path d="m38.834 297.879c-9.947-.649-19.528-6.14-25.141-15.357-8.485-13.956-10.109-32.348-9.866-46.04.193-10.363 10.515-17.447 20.29-14.007 7.196 2.528 15.539 6.111 23.274 11.002-12.058 9.126-28.308 29.223-8.557 64.402z" fill="#00c140"/><path d="m423.107 253.809c-.853 15.834-13.58 28.135-28.998 28.886h-.01c-1.147.061-2.294.051-3.461-.02-17.214-1.106-33.809-11.916-45.004-21.132-7.998-6.577-7.277-19.081 1.492-24.603 9.896-6.232 23.446-13.063 37.362-14.9 2.375-.314 4.76-.488 7.145-.477 17.751.051 32.428 14.524 31.474 32.246z" fill="#29ce69"/><path d="m394.099 282.695c-1.147.061-2.294.051-3.461-.02-17.214-1.106-33.809-11.916-45.004-21.132-7.998-6.577-7.277-19.081 1.492-24.603 9.896-6.232 23.446-13.063 37.362-14.9-5.959 10.16-16.19 35.443 9.611 60.655z" fill="#00c140"/><path d="m498.307 282.523c-3.014 4.953-7.176 8.831-11.916 11.449-9.795 5.42-22.086 5.532-31.962-1.197-14.068-9.582-17.6-28.775-7.907-42.721 8.506-12.23 22.969-20.319 35.565-25.384 0-.01 0-.01 0-.01 1.989-.802 3.928-1.522 5.796-2.183 9.774-3.44 20.097 3.644 20.289 14.007.244 13.691-1.38 32.083-9.865 46.039z" fill="#29ce69"/><path d="m486.391 293.972c-9.795 5.42-22.086 5.532-31.962-1.197-14.068-9.582-17.6-28.775-7.907-42.721 8.506-12.23 22.969-20.319 35.565-25.384-7.673 9.397-26.897 38.963 4.304 69.302z" fill="#00c140"/><path d="m363.933 119.455c-6.141.335-13.225.315-20.472-.517-8.901-1.025-18.036-3.299-25.902-7.704-15.479-8.678-21.254-28.47-11.794-43.482 8.353-13.256 25.161-17.874 38.925-11.358 1.188.569 2.345 1.208 3.481 1.939 14.504 9.338 23.74 26.856 29.039 40.356 3.785 9.642-2.934 20.208-13.277 20.766z" fill="#29ce69"/><path d="m343.461 118.938c-8.901-1.025-18.036-3.299-25.902-7.704-15.479-8.678-21.254-28.47-11.794-43.482 8.353-13.256 25.161-17.874 38.925-11.358-8.192 9.379-23.325 33.018-1.229 62.544z" fill="#00c140"/><circle cx="256" cy="129.89" fill="#36d49b" r="22.927"/><circle cx="171.936" cy="183.385" fill="#36d49b" r="22.927"/><circle cx="256" cy="244.523" fill="#36d49b" r="22.927"/><circle cx="340.065" cy="183.385" fill="#36d49b" r="22.927"/><g><g><path d="m202.966 402.21c.007 13.639-13.872 24.702-30.999 24.711s-31.017-11.041-31.024-24.68 13.872-24.703 30.999-24.711c17.127-.009 31.017 11.041 31.024 24.68z" fill="#ffa1ac"/><path d="m309.034 402.157c.007 13.639 13.897 24.688 31.023 24.68 17.127-.009 31.005-11.072 30.999-24.711-.007-13.639-13.897-24.689-31.024-24.68-17.126.008-31.005 11.072-30.998 24.711z" fill="#ffa1ac"/><path d="m286.392 391.004c-.009-18.787-13.62-20.545-30.408-20.536-16.788.008-30.397 1.78-30.388 20.567.009 18.786 13.627 34.008 30.415 34 16.789-.009 30.391-15.245 30.381-34.031z" fill="#495560"/></g><g><path d="m175.254 382.963c-4.203 0-7.61-3.406-7.612-7.608-.003-5.976 2.321-11.595 6.545-15.823 4.223-4.227 9.841-6.558 15.817-6.561h.011c12.332 0 22.367 10.028 22.373 22.361.002 4.205-3.404 7.614-7.609 7.616-.001 0-.002 0-.003 0-4.203 0-7.61-3.406-7.612-7.608-.002-3.94-3.208-7.145-7.148-7.145-.001 0-.002 0-.004 0-1.909.001-3.704.745-5.053 2.096-1.35 1.351-2.092 3.146-2.091 5.055.002 4.205-3.404 7.614-7.609 7.616-.003.001-.004.001-.005.001z" fill="#495560"/></g><g><path d="m307.198 382.897c-4.203 0-7.61-3.406-7.612-7.608-.003-5.976 2.321-11.596 6.545-15.823 4.223-4.227 9.841-6.558 15.817-6.561h.011c12.332 0 22.367 10.028 22.373 22.361.002 4.205-3.404 7.614-7.609 7.616-.001 0-.003 0-.003 0-4.203 0-7.61-3.406-7.612-7.608-.002-3.94-3.209-7.145-7.148-7.145-.001 0-.002 0-.004 0-1.909.001-3.704.745-5.053 2.096-1.35 1.351-2.092 3.146-2.091 5.055.002 4.205-3.404 7.614-7.609 7.616-.003.001-.004.001-.005.001z" fill="#495560"/></g></g></g></svg>