<svg id="Capa_1" enable-background="new 0 0 512 512" height="512" viewBox="0 0 512 512" width="512" xmlns="http://www.w3.org/2000/svg"><g><path d="m430.843 160.481c2.308 5.522 3.585 11.591 3.585 17.948 0 .639-.01 1.278-.041 1.916-1.237 30.528-34.309 48.806-61.252 35.165 14.229-3.081 26.077-15.033 26.726-31.28l-143.861-107.307-43.386 32.362-100.475 74.944c.659 16.248 12.487 28.158 26.695 31.239-26.943 13.62-59.984-4.595-61.221-35.123-.031-.638-.041-1.277-.041-1.916 0-6.357 1.278-12.426 3.585-17.948 3.173-7.593 3.472-16.104.381-23.728-2.555-6.295-3.967-13.178-3.967-20.39 0-26.716 19.143-48.362 43.603-53.277 10.313-2.071 18.762-9.355 22.574-19.153 5.121-13.146 16.619-28.416 42.438-28.416 4.162 0 8.201.546 12.044 1.577 9.819 2.617 20.287.051 28.117-6.419 5.471-4.533 12.003-7.841 19.164-9.489 3.37-.773 6.883-1.186 10.489-1.186 11.271 0 21.605 4.008 29.652 10.674 7.83 6.47 18.298 9.036 28.117 6.419 3.843-1.03 7.882-1.577 12.044-1.577 23.676 0 35.556 15.99 41.356 29.333 4.111 9.489 12.642 16.196 22.811 18.072 24.861 4.585 44.447 26.407 44.447 53.442 0 7.212-1.411 14.095-3.967 20.39-3.089 7.624-2.79 16.134.383 23.728z" fill="#80e0b7"/><path d="m212.614 109.285-100.475 74.944c.659 16.248 12.487 28.158 26.695 31.239-26.943 13.62-59.984-4.595-61.221-35.123-.031-.638-.041-1.277-.041-1.916 0-6.357 1.278-12.426 3.585-17.948 3.173-7.593 3.472-16.104.381-23.728-2.555-6.295-3.967-13.178-3.967-20.39 0-26.716 19.143-48.362 43.603-53.277 10.313-2.071 18.762-9.355 22.574-19.153 5.121-13.146 16.619-28.416 42.438-28.416 4.162 0 8.201.546 12.044 1.577 9.819 2.617 20.287.051 28.117-6.419 5.471-4.533 12.003-7.841 19.164-9.489-13.311 17.195-38.986 57.686-32.897 108.099z" fill="#36d49b"/><path d="m296.058 271.517c2.195 21.595 6.491 38.791 6.491 38.791h-93.098s4.296-17.196 6.491-38.791c.762-7.408 1.267-15.341 1.267-23.275 0-31.032-15.516-62.055-15.516-62.055h108.615s-15.516 31.022-15.516 62.055c-.001 7.933.504 15.867 1.266 23.275z" fill="#80e0b7"/><path d="m302.549 310.308h-93.098s4.296-17.196 6.491-38.791h80.116c2.195 21.595 6.491 38.791 6.491 38.791z" fill="#36d49b"/><path d="m353.219 488.726h-194.438c-85.34-69.813-15.516-155.154-15.516-155.154h225.472c-.001 0 69.823 85.34-15.518 155.154z" fill="#e4996d"/><path d="m219.167 488.726h-60.386c-85.34-69.813-15.516-155.154-15.516-155.154h69.473c-18.783 33.804-32.62 87.916 6.429 155.154z" fill="#d97c41"/><path d="m372.363 496.484c0 4.286-1.731 8.17-4.544 10.973-2.813 2.802-6.687 4.543-10.973 4.543h-201.692c-8.572 0-15.516-6.944-15.516-15.516 0-4.286 1.731-8.171 4.544-10.973s6.687-4.543 10.973-4.543h201.692c8.571 0 15.516 6.944 15.516 15.516z" fill="#d97c41"/><path d="m214.86 480.968c5.316 10.045 11.807 20.4 19.637 31.032h-79.344c-8.572 0-15.516-6.944-15.516-15.516 0-4.286 1.731-8.171 4.544-10.973s6.687-4.543 10.973-4.543z" fill="#af602d"/><path d="m403.396 325.814c0 6.429-2.607 12.25-6.821 16.465-4.204 4.203-10.025 6.81-16.454 6.81h-248.242c-12.858 0-23.275-10.416-23.275-23.275 0-6.429 2.607-12.24 6.821-16.454 4.204-4.204 10.025-6.81 16.454-6.81h79.292l7.995 5.512 15.99-5.512h144.964c12.859 0 23.276 10.416 23.276 23.264z" fill="#d97c41"/><path d="m205.206 349.088h-73.327c-12.858 0-23.275-10.416-23.275-23.275 0-6.429 2.607-12.24 6.821-16.454 4.204-4.204 10.025-6.81 16.454-6.81h103.278c-8.119 8.748-20.843 24.676-29.951 46.539z" fill="#af602d"/><path d="m396.997 168.208c1.865 4.451 2.895 9.345 2.895 14.476 0 .515-.01 1.03-.031 1.545-.649 16.248-12.497 28.2-26.726 31.28-.495-.258-.999-.515-1.494-.793-6.275-3.483-13.981-7.274-22.419-10.355-30.765-11.22-55.667-7.686-72.255 12.22l-62.241-23.646-7.511 6.326c-23.687-5.234-50.196 6.109-66.764 15.362-.536.299-1.072.577-1.607.845h-.01c-14.208-3.081-26.036-14.991-26.695-31.239-.021-.515-.031-1.03-.031-1.545 0-5.131 1.03-10.025 2.895-14.476 2.555-6.12 2.792-12.982.299-19.133-2.061-5.079-3.194-10.633-3.194-16.444 0-21.554 15.434-39.007 35.164-42.974 8.315-1.669 15.125-7.542 18.206-15.444 4.121-10.602 13.394-22.914 34.216-22.914 3.369 0 6.625.443 9.716 1.267 2.864.763 5.801.979 8.685.69 5.069-.494 9.963-2.535 13.992-5.862 6.491-5.378 14.826-8.603 23.913-8.603s17.422 3.225 23.913 8.603c6.316 5.224 14.764 7.285 22.677 5.172 3.091-.824 6.347-1.267 9.716-1.267 19.092 0 28.673 12.899 33.341 23.656 3.328 7.655 10.2 13.064 18.401 14.579 20.05 3.699 35.844 21.296 35.844 43.097 0 5.811-1.133 11.365-3.194 16.444-2.493 6.151-2.256 13.013.299 19.133z" fill="#29ce69"/><g fill="#00c140"><path d="m276.967 216.581c-3.987 4.77-7.48 10.468-10.468 17.134-1.854 4.131-5.976 6.769-10.499 6.769-2.246 0-4.41-.649-6.233-1.813-1.824-1.175-3.318-2.854-4.234-4.915-24.511-54.905-78.046-34.227-105.081-19.133-.536.299-1.072.577-1.607.845h-.01c-14.208-3.081-26.036-14.991-26.695-31.239-.021-.515-.031-1.03-.031-1.545 0-5.131 1.03-10.025 2.895-14.476 2.555-6.12 2.792-12.982.299-19.133-2.061-5.079-3.194-10.633-3.194-16.444 0-21.554 15.434-39.007 35.164-42.974 8.315-1.669 15.125-7.542 18.206-15.444 4.121-10.602 13.394-22.914 34.216-22.914 3.369 0 6.625.443 9.716 1.267 2.864.763 5.801.979 8.685.69-13.292 42.449-11.18 102.197 58.871 163.325z"/><path d="m294.784 170.637c-1.744 0-3.498-.588-4.942-1.791-3.279-2.732-3.722-7.605-.99-10.883 21.367-25.644 54.319-13.674 55.712-13.15 3.995 1.498 6.02 5.952 4.522 9.949-1.495 3.988-5.932 6.013-9.924 4.531-1.039-.377-24.175-8.549-38.437 8.563-1.529 1.834-3.727 2.781-5.941 2.781z"/><path d="m279.265 138.745c-1.473 0-2.962-.421-4.279-1.299-3.551-2.367-4.511-7.165-2.143-10.716 18.799-28.198 42.694-33.258 43.702-33.459 4.185-.839 8.257 1.877 9.093 6.062.833 4.169-1.855 8.223-6.012 9.083-.869.189-18.914 4.372-33.925 26.887-1.488 2.233-3.938 3.442-6.436 3.442z"/></g><path d="m217.216 170.637c-2.215 0-4.412-.947-5.94-2.781-14.28-17.137-37.461-8.919-38.441-8.561-4.005 1.46-8.438-.581-9.916-4.569-1.477-3.99.533-8.419 4.518-9.913 1.393-.521 34.346-12.491 55.712 13.15 2.732 3.278 2.289 8.151-.99 10.883-1.445 1.203-3.2 1.791-4.943 1.791z" fill="#00a62c"/><path d="m237.012 137.443c-1.319.886-2.802 1.298-4.276 1.298-2.493 0-4.945-1.205-6.439-3.441-3.75-5.625-7.717-10.107-11.57-13.672-11.622-10.756-22.162-13.178-22.306-13.198-4.183-.845-6.893-4.915-6.058-9.098s4.915-6.903 9.098-6.058c.525.103 7.326 1.535 16.392 6.934 8.242 4.915 18.35 13.085 27.303 26.52 2.368 3.554 1.41 8.345-2.144 10.715z" fill="#00c140"/><path d="m214.726 121.628c-11.622-10.756-22.162-13.178-22.306-13.198-4.183-.845-6.893-4.915-6.058-9.098s4.915-6.903 9.098-6.058c.525.103 7.326 1.535 16.392 6.934.329 6.934 1.246 14.094 2.874 21.42z" fill="#00a62c"/><path d="m256 108.576c-4.268 0-7.727-3.459-7.727-7.727v-31.031c0-4.268 3.459-7.727 7.727-7.727s7.727 3.459 7.727 7.727v31.031c0 4.268-3.459 7.727-7.727 7.727z" fill="#00c140"/><g><g fill="#fff"><ellipse cx="174.032" cy="425.309" rx="30.244" ry="24.085"/><ellipse cx="337.968" cy="425.309" rx="30.244" ry="24.085"/></g><g><path d="m191.659 409.852c-4.268 0-7.727-3.459-7.727-7.727v-12.364c0-4.268 3.459-7.727 7.727-7.727s7.727 3.459 7.727 7.727v12.364c.001 4.268-3.459 7.727-7.727 7.727z" fill="#495560"/></g><g><path d="m320.341 409.852c-4.268 0-7.727-3.459-7.727-7.727v-12.364c0-4.268 3.459-7.727 7.727-7.727s7.727 3.459 7.727 7.727v12.364c0 4.268-3.459 7.727-7.727 7.727z" fill="#495560"/></g><g><path d="m256 417.212c-8.734 0-17.041-3.783-22.788-10.38-2.804-3.217-2.468-8.099.75-10.902 3.217-2.803 8.099-2.469 10.902.75 2.812 3.227 6.871 5.077 11.137 5.077s8.325-1.85 11.137-5.077c2.802-3.22 7.685-3.554 10.902-.75 3.218 2.803 3.554 7.685.75 10.902-5.749 6.597-14.056 10.38-22.79 10.38z" fill="#495560"/></g></g></g></svg>