<svg id="Capa_1" enable-background="new 0 0 512 512" height="512" viewBox="0 0 512 512" width="512" xmlns="http://www.w3.org/2000/svg"><g><path d="m341.082 170.597s.031 12.74-3.862 28.787c-5.201 21.464-17.406 48.849-46.069 59.622-11.906 4.47-19.641 16.057-19.641 28.776v45.667h-31.022v-66.348c0-13.698-8.991-25.882-22.164-29.631-21.896-6.252-35.1-21.659-43.061-38.015-12.164-24.976-12.102-52.125-12.102-52.125h30.795s0 36.243 20.774 53.309c4.48 3.708 9.918 6.499 16.541 7.848 4.768.968 9.218-2.719 9.218-7.591v-69.077h31.022v89.645c0 5.737 6.046 9.517 11.164 6.931 11.247-5.696 17.911-16.345 21.865-26.953 5.747-15.459 5.747-30.847 5.747-30.847h30.795z" fill="#e4996d"/><g fill="#d97c41"><path d="m214.731 200.64c-4.007.639-8.353.979-13.018.979-7.045 0-16.345-.762-26.449-2.163-12.164-24.976-12.102-52.125-12.102-52.125h30.795s0 36.243 20.774 53.309z"/><path d="m271.511 131.821v48.994c-1.833 1.411-3.78 2.544-5.819 3.389-3.049 1.267-6.303 1.916-9.692 1.916-5.655 0-10.948-1.802-15.511-5.284v-49.014h31.022z"/><path d="m341.082 170.597s.031 12.74-3.862 28.787c-10.289 1.442-19.774 2.235-26.933 2.235-1.977 0-3.893-.062-5.747-.175 5.747-15.459 5.747-30.847 5.747-30.847z"/></g><path d="m251.844 91.535c14.99 25.963 11.237 47.239-3.599 55.804-14.836 8.566-35.138 1.178-50.128-24.785s-38.379-94.249-23.543-102.815c14.837-8.565 62.28 45.833 77.27 71.796z" fill="#36d49b"/><path d="m223.46 97.212c25.963 14.99 33.351 35.291 24.785 50.128-8.566 14.836-29.841 18.589-55.804 3.599s-80.362-62.433-71.796-77.269 76.852 8.552 102.815 23.542z" fill="#00c140"/><path d="m201.717 116.321c29.98 0 46.529 13.888 46.529 31.019s-16.549 31.019-46.529 31.019-100.812-13.888-100.812-31.019 70.832-31.019 100.812-31.019z" fill="#36d49b"/><path d="m260.156 91.535c-14.99 25.963-11.237 47.239 3.599 55.804 14.836 8.566 35.138 1.178 50.128-24.785s38.379-94.249 23.543-102.815-62.28 45.833-77.27 71.796z" fill="#80e0b7"/><path d="m288.54 97.212c-25.963 14.99-33.351 35.291-24.785 50.128 8.566 14.836 29.841 18.589 55.804 3.599s80.362-62.433 71.796-77.269-76.852 8.552-102.815 23.542z" fill="#29ce69"/><path d="m310.283 116.321c-29.98 0-46.529 13.888-46.529 31.019s16.549 31.019 46.529 31.019 100.812-13.888 100.812-31.019-70.832-31.019-100.812-31.019z" fill="#80e0b7"/><path d="m287.022 116.32c0 24.059-8.95 39.467-21.33 44.617l-11.34-1.967-9.619 1.246c-10.969-5.469-18.899-19.352-19.682-40.425l5.86-9.063-4.954-12.019c3.44-37.222 15.593-98.709 30.043-98.709 5.057 0 9.826 7.519 14.038 18.889 10.083 27.159 16.984 76.297 16.984 97.431z" fill="#36d49b"/><path d="m265.692 160.937c-3.049 1.267-6.303 1.916-9.692 1.916-17.128 0-31.022-16.551-31.022-46.532s13.894-116.321 31.022-116.321c5.057 0 9.826 7.519 14.038 18.889-15.665 21.875-44.38 76.245-4.346 142.048z" fill="#00c780"/><path d="m352.031 321.997-11.195 82.086c-4.172 30.62-30.332 53.443-61.229 53.443h-47.212c-30.898 0-57.058-22.823-61.229-53.443l-11.195-82.086c-2.534-18.549 11.896-35.069 30.62-35.069h130.821c18.723 0 33.152 16.52 30.619 35.069z" fill="#deddf5"/><path d="m256.361 457.525h-23.966c-30.898 0-57.058-22.823-61.229-53.443l-11.195-82.086c-2.534-18.549 11.896-35.069 30.62-35.069h42.731c-14.338 20.321-52.836 90.037 23.039 170.598z" fill="#c7c4ea"/><path d="m155.823 510.699-1.274-.451c-11.76-4.163-17.919-17.071-13.756-28.831l28.691-81.05 43.861 15.527-28.691 81.05c-4.163 11.759-17.071 17.918-28.831 13.755z" fill="#af602d"/><path d="m356.177 510.699 1.274-.451c11.76-4.163 17.919-17.071 13.756-28.831l-28.691-81.05-43.862 15.527 28.691 81.05c4.164 11.759 17.072 17.918 28.832 13.755z" fill="#d97c41"/><path d="m364.565 403.248c0 6.427-2.606 12.235-6.808 16.448-4.212 4.213-10.031 6.818-16.458 6.818h-109.183l-45.739-6.983-25.388 4.861c-8.003-3.677-13.554-11.762-13.554-21.144 0-6.427 2.606-12.246 6.808-16.458 3.594-3.584 8.363-6.015 13.677-6.633l17.21 5.912 27.932-6.087h128.236c12.854 0 23.267 10.413 23.267 23.266z" fill="#e4996d"/><path d="m232.116 426.514h-61.415c-12.853 0-23.266-10.423-23.266-23.266 0-6.427 2.606-12.246 6.808-16.458 4.212-4.202 10.031-6.808 16.458-6.808h42.361c2.905 14.553 8.817 30.177 19.054 46.532z" fill="#d97c41"/><g><g><path d="m191.683 343.636c-4.267 0-7.724-3.458-7.724-7.724v-12.359c0-4.266 3.458-7.724 7.724-7.724 4.267 0 7.724 3.458 7.724 7.724v12.359c0 4.265-3.458 7.724-7.724 7.724z" fill="#495560"/></g><g><path d="m320.317 343.636c-4.267 0-7.724-3.458-7.724-7.724v-12.359c0-4.266 3.458-7.724 7.724-7.724 4.267 0 7.724 3.458 7.724 7.724v12.359c.001 4.265-3.457 7.724-7.724 7.724z" fill="#495560"/></g><g><path d="m256 350.993c-8.731 0-17.035-3.782-22.78-10.375-2.803-3.217-2.467-8.096.749-10.898s8.096-2.468 10.898.749c2.811 3.226 6.869 5.076 11.133 5.076 4.265 0 8.322-1.85 11.133-5.076 2.801-3.216 7.681-3.551 10.898-.749 3.217 2.803 3.552 7.682.749 10.898-5.745 6.593-14.049 10.375-22.78 10.375z" fill="#495560"/></g></g></g></svg>