<svg id="Capa_1" enable-background="new 0 0 512 512" height="512" viewBox="0 0 512 512" width="512" xmlns="http://www.w3.org/2000/svg"><g><path d="m387.862 256.033-23.272 15.514s-12.733-44.575-61.276-47.185c-7.558-.406-14.355 4.623-16.005 12.01-4.919 22.031-8.038 48.928-8.038 81.718h-46.543c0-32.79-3.119-59.687-8.038-81.718-1.649-7.387-8.447-12.416-16.005-12.01-48.543 2.61-61.276 47.185-61.276 47.185l-23.272-15.514s23.601-58.985 75.93-58.65c5.87.038 9.668-6.117 6.961-11.327-19.901-38.306-44.105-46.371-44.105-46.371v-31.029s57.568 4.432 85.708 93.607c2.276 7.212 12.461 7.212 14.737 0 28.139-89.175 85.708-93.607 85.708-93.607v31.029s-24.204 8.065-44.105 46.371c-2.706 5.209 1.091 11.364 6.961 11.327 52.329-.335 75.93 58.65 75.93 58.65z" fill="#80e0b7"/><path d="m418.891 341.352-33.316 146.594c-3.204 14.072-15.71 24.054-30.143 24.054h-198.864c-14.433 0-26.939-9.982-30.143-24.054l-33.316-146.594z" fill="#e4996d"/><path d="m250.004 512h-93.437c-14.433 0-26.939-9.982-30.143-24.054l-33.315-146.594h133.387c-16.401 37.302-28.598 100.349 23.508 170.648z" fill="#d97c41"/><path d="m441.648 329.32-13.536 46.667c-2.019 6.974-9.694 11.909-18.533 11.909h-307.157c-8.839 0-16.514-4.935-18.533-11.909l-13.537-46.667c-2.812-9.694 6.263-18.986 18.543-18.986h334.209c12.28 0 21.356 9.292 18.544 18.986z" fill="#d97c41"/><path d="m244.184 310.334c-7.613 10.384-25.847 38.703-30.627 77.562h-111.135c-8.839 0-16.514-4.935-18.533-11.909l-13.537-46.667c-2.812-9.694 6.263-18.986 18.543-18.986z" fill="#af602d"/><path d="m431.964 158.785c-16.359 14.814-42.134 22.159-64.18 18.934-15.205-2.235-28.649-9.498-36.005-22.829-.505-.917-1.04-1.823-1.597-2.709l-1.432-21.108-22.767-.536c-.412-.196-.834-.392-1.257-.588-34.006-15.298-34.717-69.939-12.022-99.525 17.966-23.436 47.244-34.223 71.34-29.226 17.07 3.534 34.253 4.492 48.48 4.399 6.418-.031 12.228-.288 17.163-.608 8.839-.577 16.349 6.346 16.493 15.205.258 15.896 1.988 40.836 9.117 65.117 6.933 23.614-1.432 53.653-23.333 73.474z" fill="#29ce69"/><path d="m367.784 177.719c-15.205-2.235-28.649-9.498-36.005-22.829-1.782-3.224-3.853-6.263-6.202-9.065l-1.04-7.386-10.271-3.049c-2.988-2.102-6.181-3.925-9.539-5.44-34.006-15.298-34.717-69.939-12.022-99.525 17.966-23.436 47.244-34.223 71.34-29.226 17.07 3.534 34.253 4.492 48.48 4.399-25.786 13.279-97.826 61.934-44.741 172.121z" fill="#00c140"/><path d="m194.19 118.763c-2.658 2.555-5.058 5.336-7.16 8.313l-7.984 4.924.804 8.715c-1.257 3.42-2.194 6.984-2.792 10.621-3.77 23.045-25.806 37.436-50.211 41.475-14.567 2.41-29.978 1.123-42.855-4.224-27.279-11.321-45.235-36.818-46.626-61.388-1.422-25.26-8.149-49.345-13.238-64.406-2.843-8.396 1.916-17.43 10.436-19.851 15.298-4.347 38.951-12.445 60.574-25.589 16.967-10.322 40.558-12.084 62.047-3.935 5.141 1.937 10.168 4.45 14.948 7.551 31.308 20.263 48.965 71.967 22.057 97.794z" fill="#29ce69"/><path d="m126.847 192.811c-14.567 2.41-29.978 1.123-42.855-4.224-27.279-11.321-45.235-36.818-46.626-61.388-1.422-25.26-8.149-49.345-13.238-64.406-2.843-8.396 1.916-17.43 10.436-19.851 15.298-4.347 38.951-12.445 60.574-25.589 16.967-10.322 40.558-12.084 62.047-3.935-31.018 18.944-88.883 71.462-30.338 179.393z" fill="#00c140"/><path d="m195.848 350.48c-11.332 27.279-36.829 45.235-61.398 46.615-7.479.422-14.865 1.308-21.932 2.482l-4.358-1.092-1.576 2.153c-14.402 2.761-27.207 6.541-36.54 9.704-8.396 2.833-17.431-1.916-19.851-10.436-4.347-15.298-12.444-38.951-25.589-60.574-12.784-21.025-12.434-52.219 3.616-77.005 20.263-31.297 71.968-48.954 97.794-22.046.093.093.185.196.288.289 2.472 2.544 5.161 4.842 8.025 6.871l3.822 9.889 9.828-2.719c3.42 1.257 6.974 2.194 10.611 2.792 36.797 6.027 51.559 58.638 37.26 93.077z" fill="#29ce69"/><path d="m112.517 399.577c-16.802 2.782-31.874 7.181-42.474 10.766-8.396 2.833-17.431-1.916-19.851-10.436-4.347-15.298-12.444-38.951-25.589-60.574-12.784-21.025-12.434-52.219 3.616-77.005 20.263-31.297 71.968-48.954 97.794-22.046.093.093.185.196.288.289-28.556 25.733-56.865 75.12-13.784 159.006z" fill="#00c140"/><path d="m487.398 339.333c-13.145 21.624-21.242 45.276-25.589 60.574-2.421 8.52-11.456 13.269-19.851 10.436-8.87-2.998-20.882-6.572-34.408-9.292-.711-.144-1.422-.278-2.143-.412l-62.284-26.444-31.585-63.861c3.379-25.466 17.987-49.016 41.877-52.93 1.391-.227 2.781-.505 4.141-.835l18.492 5.099 5.82-17.492c1.432-1.226 2.802-2.524 4.121-3.894 15.72-16.38 41.032-16.246 63.005-6.572 14.124 6.212 26.857 16.369 34.789 28.618 16.049 24.785 16.399 55.979 3.615 77.005z" fill="#29ce69"/><path d="m407.549 401.051c-9.436-1.885-19.614-3.369-29.999-3.956-24.57-1.381-50.066-19.336-61.398-46.615-14.299-34.439.464-87.05 37.261-93.076 3.637-.598 7.191-1.535 10.611-2.792l10.487 1.422 3.163-8.591c2.977-2.102 5.759-4.502 8.314-7.16 15.72-16.38 41.032-16.246 63.005-6.572-28.382 16.049-89.656 64.59-41.444 167.34z" fill="#00c140"/><path d="m423.918 96.078c-1.401 2.565-4.049 4.018-6.789 4.018-1.246 0-2.514-.299-3.688-.938-9.169-4.986-26.568-11.548-36.314-9.199l-11.868 12.867c8.19.639 16.709 3.596 25.394 8.891 13.639 8.313 22.911 19.583 23.292 20.057 2.699 3.307 2.205 8.18-1.102 10.879-1.432 1.164-3.163 1.731-4.873 1.731-2.246 0-4.461-.968-5.985-2.833-.082-.093-8.211-9.92-19.666-16.813-12.228-7.366-22.88-8.53-32.44-3.544-1.185.598-2.349 1.308-3.492 2.112l-20.428 22.159c-.124.134-.247.258-.381.361-1.638-1.978-3.41-3.853-5.295-5.594-1.896-1.741-3.904-3.358-6.016-4.842.093-.134.206-.268.33-.402l20.428-22.159c6.418-11.002 5.007-22.674-4.347-35.685-7.809-10.869-18.255-18.172-18.358-18.244-3.503-2.421-4.389-7.232-1.968-10.745 2.431-3.502 7.222-4.388 10.734-1.978.505.35 12.496 8.674 21.891 21.592 3.451 4.749 6.119 9.498 8.004 14.227 1.401 3.472 2.369 6.922 2.915 10.353l11.868-12.867c.979-6.305-1.875-15.401-5.563-23.436-2.112-4.595-4.481-8.839-6.562-12.012-2.328-3.564-1.339-8.355 2.235-10.693 3.564-2.339 8.344-1.35 10.683 2.215.453.68 1.679 2.586 3.245 5.347 3.06 5.429 7.448 14.186 9.849 23.509l24.312-26.373c2.895-3.142 7.788-3.338 10.92-.443 3.142 2.884 3.338 7.778.443 10.909l-24.312 26.383c14.309 2.462 27.701 9.539 29.824 10.703 3.75 2.039 5.13 6.737 3.08 10.487z" fill="#00c140"/><path d="m369.803 40.902c-3.482 4.584-6.748 9.622-9.601 15.144-2.112-4.595-4.481-8.839-6.562-12.012-2.328-3.564-1.339-8.355 2.235-10.693 3.564-2.339 8.344-1.35 10.683 2.215.453.68 1.679 2.585 3.245 5.346z" fill="#00a62c"/><path d="m350.982 81.996c-2.4 11.579-3.039 24.6-1.102 39.198-1.185.598-2.349 1.308-3.492 2.112l-20.428 22.159c-.124.134-.247.258-.381.361-1.638-1.978-3.41-3.853-5.295-5.594-1.896-1.741-3.904-3.358-6.016-4.842.093-.134.206-.268.33-.402l20.428-22.159c6.418-11.002 5.007-22.674-4.347-35.685-7.809-10.869-18.255-18.172-18.358-18.244-3.503-2.421-4.389-7.232-1.968-10.745 2.431-3.502 7.222-4.388 10.734-1.978.505.35 12.496 8.674 21.891 21.592 3.451 4.749 6.119 9.498 8.004 14.227z" fill="#00a62c"/><path d="m187.03 127.076c-1.504 2.102-2.854 4.306-4.049 6.583s-2.246 4.636-3.132 7.057c-.155-.062-.309-.134-.464-.216l-26.682-14.031c-12.28-3.369-23.199 1.01-33.357 13.392-4.11 5.007-7.252 10.405-9.405 14.639-2.297 4.523-3.461 7.747-3.492 7.809-1.133 3.152-4.1 5.11-7.273 5.11-.865 0-1.741-.144-2.596-.453-4.018-1.432-6.109-5.841-4.677-9.859.185-.525 4.275-11.847 12.517-23.189.865-1.175 1.762-2.359 2.709-3.523 6.408-7.891 13.433-13.537 20.933-16.885l-15.494-8.148c-3.297.35-7.057 1.895-10.858 4.1-7.706 4.44-15.607 11.538-20.263 16.74-1.535 1.71-3.647 2.575-5.769 2.575-1.834 0-3.667-.649-5.141-1.967-3.183-2.844-3.451-7.726-.618-10.899 1.617-1.813 11.857-12.96 24.508-20.088l-31.75-16.699c-3.77-1.978-5.223-6.655-3.245-10.436 1.988-3.771 6.665-5.223 10.436-3.235l31.76 16.699c-1.308-14.474 2.081-29.226 2.647-31.575 1.01-4.152 5.192-6.696 9.344-5.687 2.483.608 4.389 2.359 5.295 4.553.618 1.463.783 3.132.381 4.79-2.452 10.147-4.316 28.639.464 37.457l15.494 8.139c-1.494-8.066-.824-17.06 2.05-26.816 4.522-15.319 13.021-27.186 13.382-27.681 2.493-3.461 7.325-4.234 10.786-1.741 3.451 2.504 4.234 7.325 1.741 10.786-.175.237-7.489 10.569-11.188 23.333-4.44 15.391-1.854 26.878 7.881 35.078l26.671 14.031c.155.082.299.164.454.257z" fill="#00c140"/><path d="m104.42 133.916c1.308 6.562 3.132 13.423 5.522 20.583-2.297 4.523-3.461 7.747-3.492 7.809-1.133 3.152-4.1 5.11-7.273 5.11-.865 0-1.741-.144-2.596-.453-4.018-1.432-6.109-5.841-4.677-9.859.185-.526 4.275-11.848 12.516-23.19z" fill="#00a62c"/><path d="m101.711 109.46c-7.706 4.44-15.607 11.538-20.263 16.74-1.535 1.71-3.647 2.575-5.769 2.575-1.834 0-3.667-.649-5.141-1.967-3.183-2.844-3.451-7.726-.618-10.899 1.617-1.813 11.857-12.96 24.508-20.088l-31.75-16.699c-3.77-1.978-5.223-6.655-3.245-10.436 1.988-3.771 6.665-5.223 10.436-3.235l31.76 16.699c-1.308-14.474 2.081-29.226 2.647-31.575 1.01-4.152 5.192-6.696 9.344-5.687 2.483.608 4.389 2.359 5.295 4.553-10.199 15.299-17.606 35.058-17.204 60.019z" fill="#00a62c"/><path d="m174.225 337.891c-1.133 3.152-4.11 5.12-7.273 5.12-.865 0-1.741-.144-2.596-.443-.577-.206-14.299-5.161-26.702-15.226-7.901-6.407-13.547-13.444-16.895-20.933l-8.149 15.484c1.061 9.972 13.073 24.168 20.851 31.132 3.173 2.844 3.441 7.726.598 10.91-1.525 1.7-3.637 2.575-5.759 2.575-1.834 0-3.667-.649-5.141-1.968-1.813-1.607-12.96-11.847-20.088-24.508l-7.943 15.102-8.756 16.647c-1.38 2.637-4.059 4.141-6.84 4.141-1.216 0-2.442-.288-3.585-.896-3.781-1.988-5.233-6.655-3.245-10.436l16.689-31.75c-2.297.216-4.605.299-6.871.299-11.971 0-22.715-2.472-24.693-2.957-4.152-1.01-6.686-5.192-5.676-9.333 1.01-4.151 5.192-6.686 9.333-5.676 7.52 1.813 19.625 3.307 28.968 2.019 3.276-.464 6.202-1.257 8.489-2.493l8.149-15.494c-2.771.505-5.656.783-8.643.783-2.009 0-4.059-.113-6.16-.35-3.863-.433-7.871-1.246-12.022-2.472-15.319-4.523-27.186-13.022-27.681-13.382-3.461-2.504-4.234-7.335-1.731-10.786 2.493-3.461 7.325-4.234 10.776-1.741.247.176 10.58 7.489 23.333 11.177 4.069 1.175 7.86 1.865 11.394 2.05 9.848.536 17.657-2.761 23.694-9.92l14.021-26.682c.082-.154.165-.299.258-.443 2.102 1.493 4.306 2.843 6.583 4.038s4.636 2.245 7.067 3.132c-.072.154-.144.309-.227.463l-14.031 26.681c-3.369 12.28 1.01 23.21 13.403 33.367 10.333 8.478 22.314 12.846 22.437 12.888 4.005 1.444 6.096 5.863 4.664 9.881z" fill="#00c140"/><path d="m95.128 355.136-8.756 16.647c-1.38 2.637-4.059 4.141-6.84 4.141-1.216 0-2.442-.288-3.585-.896-3.781-1.988-5.233-6.655-3.245-10.436l16.689-31.75c-2.297.216-4.605.299-6.871.299-11.971 0-22.715-2.472-24.693-2.957-4.152-1.01-6.686-5.192-5.676-9.333 1.01-4.151 5.192-6.686 9.333-5.676 7.52 1.813 19.625 3.307 28.968 2.019-.289 11.476 1.101 24.096 4.676 37.942z" fill="#00a62c"/><path d="m52.582 283.786c-3.461-2.504-4.234-7.335-1.731-10.786 2.493-3.461 7.325-4.234 10.776-1.741.247.176 10.58 7.489 23.333 11.177 4.069 1.175 7.86 1.865 11.394 2.05-1.689 4.76-3.07 9.807-4.069 15.154-3.863-.433-7.871-1.246-12.022-2.472-15.319-4.522-27.187-13.021-27.681-13.382z" fill="#00a62c"/><path d="m413.555 299.991c-2.988 0-5.872-.278-8.643-.783l8.149 15.494c8.818 4.79 27.32 2.926 37.467.474 4.141-1.01 8.313 1.535 9.323 5.687 1.01 4.141-1.535 8.313-5.676 9.323-1.978.484-12.723 2.957-24.693 2.957-2.266 0-4.574-.082-6.871-.299l16.689 31.75c1.988 3.781.536 8.448-3.245 10.436-1.144.608-2.369.896-3.585.896-2.781 0-5.46-1.504-6.84-4.141l-16.699-31.75c-4.78 8.488-11.373 15.895-15.731 20.335-2.153 2.184-3.76 3.647-4.358 4.172-1.473 1.318-3.307 1.968-5.141 1.968-2.122 0-4.244-.876-5.769-2.575-2.843-3.184-2.565-8.066.618-10.91 3.451-3.101 7.737-7.613 11.528-12.558 4.749-6.181 8.726-13.032 9.313-18.574l-7.489-14.237-.659-1.246c-3.348 7.489-8.993 14.526-16.895 20.933-12.403 10.065-26.125 15.02-26.702 15.226-.855.299-1.731.443-2.596.443-3.173 0-6.15-1.968-7.273-5.13-1.432-4.018.659-8.438 4.677-9.869.319-.114 12.177-4.481 22.427-12.888 12.393-10.157 16.771-21.087 13.403-33.367l-14.031-26.681c-.082-.154-.155-.309-.227-.463 2.431-.886 4.79-1.937 7.067-3.132s4.481-2.545 6.583-4.038c.093.144.175.288.258.443l14.021 26.682c2.689 3.183 5.717 5.594 9.117 7.242 7.005 3.431 15.597 3.626 25.971.628 12.846-3.709 23.23-11.105 23.333-11.177 3.461-2.493 8.293-1.71 10.786 1.751s1.71 8.272-1.741 10.776c-.495.361-12.362 8.86-27.681 13.382-6.4 1.882-12.488 2.82-18.185 2.82z" fill="#00c140"/><path d="m390.077 340.466c.525 6.315 1.535 12.949 3.121 19.903-2.153 2.184-3.76 3.647-4.358 4.172-1.473 1.318-3.307 1.968-5.141 1.968-2.122 0-4.244-.876-5.769-2.575-2.843-3.184-2.565-8.066.618-10.91 3.452-3.101 7.738-7.613 11.529-12.558z" fill="#00a62c"/><path d="m374.346 327.341c-12.403 10.065-26.125 15.02-26.702 15.226-.855.299-1.731.443-2.596.443-3.173 0-6.15-1.968-7.273-5.13-1.432-4.018.659-8.438 4.677-9.869.319-.114 12.177-4.481 22.427-12.888 12.393-10.157 16.771-21.087 13.403-33.367l-14.031-26.681c-.082-.154-.155-.309-.227-.463 2.431-.886 4.79-1.937 7.067-3.132s4.481-2.545 6.583-4.038c.093.144.175.288.258.443l14.021 26.682c2.689 3.183 5.717 5.594 9.117 7.242-3.976 7.664-7.18 16.256-9.169 25.847l-.659-1.246c-3.349 7.488-8.994 14.524-16.896 20.931z" fill="#00a62c"/><g><g fill="#fff"><ellipse cx="174.043" cy="459.132" rx="30.24" ry="24.082"/><ellipse cx="337.957" cy="459.132" rx="30.241" ry="24.082"/></g><g><path d="m191.667 443.676c-4.267 0-7.726-3.459-7.726-7.726v-12.362c0-4.267 3.459-7.726 7.726-7.726s7.726 3.459 7.726 7.726v12.362c0 4.267-3.459 7.726-7.726 7.726z" fill="#495560"/></g><g><path d="m320.333 443.676c-4.267 0-7.726-3.459-7.726-7.726v-12.362c0-4.267 3.459-7.726 7.726-7.726s7.726 3.459 7.726 7.726v12.362c0 4.267-3.459 7.726-7.726 7.726z" fill="#495560"/></g><g><path d="m256 451.035c-8.733 0-17.038-3.782-22.786-10.377-2.804-3.217-2.469-8.097.748-10.901 3.216-2.804 8.097-2.469 10.901.748 2.812 3.226 6.871 5.077 11.137 5.077s8.324-1.851 11.137-5.077c2.804-3.218 7.685-3.552 10.901-.748 3.217 2.804 3.552 7.684.748 10.901-5.748 6.595-14.053 10.377-22.786 10.377z" fill="#495560"/></g></g></g></svg>