<svg id="Capa_1" enable-background="new 0 0 512 512" height="512" viewBox="0 0 512 512" width="512" xmlns="http://www.w3.org/2000/svg"><g><path d="m411.153 271.517-23.274 186.175h-263.758l-23.274-186.175z" fill="#ffb3c2"/><path d="m264.325 271.517-17.103 61.499s-53.782 47.59-33.505 124.677h-89.595l-23.274-186.175h163.477z" fill="#ff899f"/><path d="m480.967 232.757c-.011 30.425-28.92 55.369-62.838 54.245-3.524-.113-6.975-.505-10.324-1.143-7.727-1.463-15.63 2.071-18.957 8.489-9.623 18.587-30.621 31.476-54.977 31.476-8.654 0-16.876-1.628-24.326-4.564-5.728-2.256-12.353-1.772-17.371 1.577-10.087 6.748-22.605 10.746-36.164 10.746-2.988 0-5.924-.196-8.788-.566l-54.73-33.021-72.358-9.644h-.01c-3.987-3.802-10.004-5.615-15.918-4.492-3.348.639-6.8 1.03-10.324 1.143-33.917 1.123-62.828-23.821-62.838-54.245-.011-16.34 8.026-30.992 20.74-40.944 4.43-3.462 6.522-8.665 5.749-13.878-.361-2.38-.546-4.801-.546-7.263 0-28.21 23.872-49.774 50.001-53.71 6.295-.948 11.694-4.719 13.723-10.138 8.057-21.513 30.723-36.998 57.429-36.998 6.728 0 13.198.979 19.246 2.792 5.935 1.783 12.487.361 17.041-3.492 9.922-8.407 23.007-13.827 37.503-14.692 1.35-.083 2.71-.123 4.08-.123 16.093 0 30.724 5.625 41.573 14.816 4.554 3.853 11.107 5.275 17.041 3.492 6.048-1.813 12.518-2.792 19.246-2.792 26.705 0 49.372 15.486 57.429 36.998 2.03 5.419 7.429 9.19 13.713 10.138 26.16 3.946 50.011 25.562 50.011 53.71 0 2.462-.185 4.883-.546 7.263-.773 5.213 1.319 10.416 5.749 13.878 12.715 9.95 20.751 24.601 20.741 40.942z" fill="#29ce69"/><path d="m247.222 333.016c-10.169-1.329-19.514-4.915-27.386-10.179-5.017-3.349-11.642-3.833-17.371-1.577-7.449 2.936-15.671 4.564-24.325 4.564-24.357 0-45.354-12.889-54.977-31.476-3.328-6.418-11.23-9.952-18.957-8.489-3.348.639-6.8 1.03-10.324 1.143-33.917 1.123-62.828-23.821-62.838-54.245-.011-16.34 8.026-30.992 20.74-40.944 4.43-3.462 6.522-8.665 5.749-13.878-.361-2.38-.546-4.801-.546-7.263 0-28.21 23.872-49.774 50.001-53.71 6.295-.948 11.694-4.719 13.723-10.138 8.057-21.513 30.723-36.998 57.429-36.998 6.728 0 13.198.979 19.246 2.792 5.935 1.783 12.487.361 17.041-3.492 9.922-8.407 23.007-13.827 37.503-14.692-27.364 24.571-142.32 138.749-4.708 278.582z" fill="#00c140"/><path d="m354.43 87.754c-19.445-5.426-29.728-19.892-34.954-31.19-3.251-7.029-.723-15.256 5.735-19.531 9.035-5.981 13.196-15.609 14.994-24.705 2.359-11.932 17.034-16.4 25.847-8.017 4.53 4.309 8.456 8.876 11.641 12.986 4.814 6.212 13.457 7.645 20.189 3.59 12.426-7.484 28.776-8.642 40.668-8.231 9.067.314 15.912 8.343 14.788 17.345-1.474 11.808-5.205 27.769-14.56 38.855-5.069 6.007-5.021 14.767.352 20.503 3.554 3.795 7.443 8.393 10.981 13.548 6.883 10.028.151 23.812-12.004 24.254-9.266.337-19.431 2.923-26.765 10.897-5.243 5.701-13.766 6.896-20.192 2.574-10.33-6.947-22.987-19.389-25.269-39.447-.731-6.42-5.227-11.694-11.451-13.431z" fill="#80e0b7"/><path d="m92.829 216.33c-.781-20.173-12.475-33.523-22.258-41.221-6.087-4.789-14.675-4.232-20.328 1.062-7.908 7.406-18.238 9.227-27.503 8.872-12.154-.465-19.895 12.778-13.779 23.292 3.144 5.404 6.679 10.28 9.941 14.329 4.93 6.121 4.325 14.86-1.178 20.472-10.156 10.357-15.065 25.995-17.416 37.66-1.792 8.894 4.435 17.41 13.454 18.399 11.829 1.297 28.22 1.36 41.169-5.176 7.016-3.542 15.528-1.469 19.866 5.085 2.87 4.336 6.444 9.183 10.64 13.817 8.164 9.016 23.131 5.655 26.373-6.068 2.471-8.936 7.338-18.228 16.794-23.519 6.759-3.782 9.893-11.797 7.175-19.049-4.369-11.657-13.545-26.848-32.531-33.709-6.079-2.195-10.169-7.789-10.419-14.246z" fill="#36d49b"/><path d="m65.534 256.795c46.814-35.921 74.706-38.096 85.635-36.972 2.3.236 4.516.9 6.647 1.795 1.957.822 5.747 1.503 8.721-3.481 4.189-7.039-3.434-11.205-3.434-11.205-1.022-.492-10.537-4.778-28.7-1.765-22.849 3.794-49.191 17.039-78.283 39.369-3.388 2.595-4.022 7.443-1.427 10.831 2.605 3.39 7.453 4.024 10.841 1.428z" fill="#00c780"/><path d="m259.259 184.878c12.274-10.475 26.454-10.842 36.279-9.267 6.112.98 10.44 6.327 10.394 12.517-.064 8.66 4.465 15.715 9.695 20.965 6.861 6.888 3.277 18.613-6.214 20.718-4.879 1.082-9.659 1.648-13.805 1.927-6.268.421-11.073 5.514-11.388 11.788-.58 11.58-7.106 22.94-12.684 30.643-4.253 5.873-12.631 6.831-18.1 2.069-7.173-6.246-16.094-15.84-19.273-26.99-1.722-6.041-7.553-9.918-13.754-8.914-4.102.664-8.887 1.192-13.884 1.239-9.722.091-15.86-10.523-10.73-18.781 3.91-6.295 6.73-14.191 4.713-22.612-1.442-6.02 1.568-12.206 7.301-14.54 9.216-3.752 23.113-6.595 37.434.839 4.584 2.381 10.087 1.752 14.016-1.601z" fill="#80e0b7"/><path d="m236.038 145.583c9.648 9.648 22.899 30.803 28.075 76.063.484 4.24-2.56 8.07-6.8 8.555-4.24.487-8.069-2.559-8.555-6.799-6.894-60.31-28.553-70.81-28.768-70.886-4.009-1.465-6.074-5.898-4.611-9.908 1.462-4.009 5.898-6.073 9.907-4.611 1.118.407 5.377 2.211 10.752 7.586z" fill="#36d49b"/><path d="m141.796 96.64c-1.272 16.086-11.04 26.372-19.101 32.206-5.015 3.629-11.856 2.909-16.201-1.501-6.078-6.169-14.269-7.955-21.68-7.969-9.722-.019-15.479-10.844-10.256-19.044 2.685-4.215 5.665-7.995 8.399-11.124 4.134-4.73 3.931-11.729-.283-16.388-7.778-8.598-11.196-21.245-12.699-30.637-1.146-7.16 4.101-13.762 11.336-14.262 9.489-.656 22.581-.18 32.713 5.456 5.49 3.054 12.354 1.672 16.029-3.423 2.431-3.371 5.441-7.127 8.941-10.693 6.81-6.939 18.655-3.774 20.868 5.693 1.686 7.216 5.275 14.793 12.657 19.322 5.276 3.237 7.522 9.739 5.119 15.444-3.864 9.169-11.68 21.007-27.064 25.876-4.925 1.559-8.371 5.895-8.778 11.044z" fill="#36d49b"/><path d="m186.166 108.174c-13.644 0-37.973-5.589-73.636-33.933-3.34-2.656-3.896-7.516-1.241-10.857 2.654-3.342 7.515-3.896 10.857-1.242 47.521 37.771 70.26 29.88 70.466 29.782 3.871-1.799 8.466-.124 10.267 3.745s.124 8.465-3.745 10.266c-1.079.502-5.367 2.239-12.968 2.239z" fill="#00c780"/><path d="m431.942 227.524c4.344-17.9 17.215-27.726 27.356-32.843 6.309-3.183 13.889-1.133 17.988 4.623 5.734 8.053 14.644 11.548 22.994 12.905 10.954 1.78 15.484 15.023 8.114 23.32-3.789 4.265-7.831 7.986-11.48 11.018-5.515 4.583-6.553 12.508-2.646 18.522 7.21 11.099 8.775 25.971 8.769 36.829-.005 8.278-7.113 14.769-15.357 14.024-10.814-.978-25.484-3.883-35.883-12.069-5.635-4.435-13.621-4.12-18.685.958-3.35 3.359-7.422 7.048-12.013 10.435-8.931 6.588-21.709.878-22.49-10.193-.595-8.439-3.269-17.628-10.769-24.068-5.361-4.604-6.716-12.338-2.975-18.333 6.014-9.636 16.966-21.563 35.186-24.268 5.831-.866 10.5-5.13 11.891-10.86z" fill="#80e0b7"/><path d="m426.206 469.139-7.635 31.156c-1.69 6.883-7.748 11.704-14.702 11.704h-295.738c-6.955 0-13.013-4.821-14.702-11.704l-7.635-31.156c-2.39-9.747 4.843-19.194 14.702-19.194h311.008c9.86 0 17.092 9.448 14.702 19.194z" fill="#ff899f"/><path d="m238.794 512h-130.663c-6.955 0-13.013-4.821-14.702-11.704l-7.635-31.156c-2.39-9.747 4.843-19.194 14.702-19.194h111.407c3.884 18.874 12.168 39.655 26.891 62.054z" fill="#ff5f7f"/><path d="m400.252 70.443c-44.902 38.284-52.852 65.108-54.034 76.03-.249 2.298-.063 4.604.367 6.875.395 2.086.271 5.934-5.225 7.802-7.758 2.628-10.241-5.697-10.241-5.697-.268-1.103-2.473-11.303 4.265-28.436 8.48-21.554 26.932-44.551 54.844-68.34 3.245-2.771 8.119-2.38 10.89.865 2.772 3.256 2.38 8.129-.866 10.901z" fill="#36d49b"/><path d="m459.567 269.724c-1.474 1.35-3.348 2.019-5.203 2.019-2.102 0-4.184-.845-5.708-2.514-34.81-38.116-58.841-45.43-69.355-46.587-2.511-.276-5.038-.046-7.515.452-2.232.449-6.254.39-7.605-5.288-1.906-8.026 5.11-10.087 5.11-10.087 3.596-1.01 36.617-8.222 90.77 51.082 2.886 3.154 2.659 8.038-.494 10.923z" fill="#36d49b"/><g><g fill="#fff"><path d="m203.97 402.145c-.029 13.381-13.674 24.198-30.476 24.161s-30.4-10.914-30.371-24.294c.029-13.381 13.674-24.198 30.477-24.161 16.802.036 30.4 10.913 30.37 24.294z"/><ellipse cx="338.453" cy="402.439" rx="24.228" ry="30.424" transform="matrix(.002 -1 1 .002 -64.725 740.011)"/></g><g><path d="m260.081 415.137c-1.514 0-3.059-.206-4.599-.632l-11.711-3.24c-4.113-1.138-6.525-5.395-5.387-9.508s5.394-6.525 9.508-5.387l11.711 3.24c.335.092.901.251 1.356-.568.455-.818.023-1.215-.234-1.452-3.137-2.887-4.931-6.988-4.922-11.25.01-4.263 1.822-8.355 4.971-11.227.259-.236.691-.631.24-1.452-.451-.819-1.015-.668-1.353-.575l-11.726 3.189c-4.111 1.121-8.363-1.31-9.484-5.429-1.12-4.118 1.311-8.365 5.429-9.485l11.725-3.189c7.556-2.056 15.179 1.175 18.953 8.044 3.738 6.802 2.447 14.872-3.201 20.157 5.624 5.309 6.88 13.385 3.113 20.17-3.028 5.455-8.481 8.594-14.389 8.594z" fill="#495560"/></g><g><path d="m203.881 385.759c-4.268 0-7.727-3.46-7.727-7.727 0-3.559-2.896-6.454-6.454-6.454-3.559 0-6.454 2.895-6.454 6.454 0 4.268-3.459 7.727-7.727 7.727s-7.727-3.46-7.727-7.727c0-12.081 9.828-21.909 21.909-21.909s21.909 9.828 21.909 21.909c-.002 4.267-3.461 7.727-7.729 7.727z" fill="#495560"/></g><g><path d="m330.656 385.759c-4.268 0-7.727-3.46-7.727-7.727 0-3.559-2.896-6.454-6.455-6.454s-6.454 2.895-6.454 6.454c0 4.268-3.459 7.727-7.727 7.727s-7.727-3.46-7.727-7.727c0-12.081 9.828-21.909 21.909-21.909s21.91 9.828 21.91 21.909c-.002 4.267-3.461 7.727-7.729 7.727z" fill="#495560"/></g></g></g></svg>