<svg id="Capa_1" enable-background="new 0 0 512 512" height="512" viewBox="0 0 512 512" width="512" xmlns="http://www.w3.org/2000/svg"><g><path d="m372.362 442.187c0 20.792-6.295 40.099-17.072 56.151-5.739 8.552-15.372 13.662-25.655 13.662h-147.27c-10.282 0-19.916-5.11-25.655-13.661-10.777-16.052-17.072-35.36-17.072-56.151 0-23.408 7.974-44.942 21.358-62.065h190.007c13.384 17.123 21.359 38.656 21.359 62.064z" fill="#e4996d"/><path d="m238.155 512h-55.79c-10.282 0-19.916-5.11-25.655-13.661-10.777-16.052-17.072-35.36-17.072-56.151 0-23.408 7.974-44.942 21.358-62.065h58.572c-15.217 30.445-26.107 79.744 18.587 131.877z" fill="#d97c41"/><path d="m46.819 310.505c17.69 2.833 56.12 3.277 74.563-1.102 29.178-6.913 42.881-20.874 39.924-33.381-.319-1.35-.824-2.617-1.504-3.812-.618-.495-1.247-.968-1.865-1.442-3.348-2.555-6.728-5.018-10.087-7.367-8.768-2.895-21.43-3.019-37.204.721-18.442 4.369-52.586 22.018-67.124 32.486-5.584 4.027-3.503 12.805 3.297 13.897z" fill="#00c780"/><path d="m132.632 231.204c3.348 14.135 8.345 24.634 14.043 31.372 0 .011 0 .011.01.011 3.74 2.596 7.511 5.327 11.251 8.181 2.699.855 5.419.978 8.077.35 12.508-2.957 18.824-21.471 11.91-50.65-4.379-18.442-22.017-52.586-32.496-67.124-4.028-5.584-12.796-3.503-13.888 3.297-2.842 17.69-3.275 56.12 1.093 74.563z" fill="#00c780"/><path d="m224.958 380.092c-3.977 0-7.356-3.051-7.692-7.086-2.746-32.988-23.672-64.845-62.197-94.687-.033-.026-.067-.052-.1-.079-.435-.347-.874-.683-1.311-1.016l-.425-.325c-3.142-2.399-6.449-4.813-9.813-7.167-.389-.276-.729-.515-1.077-.754-.067-.045-.134-.093-.199-.14-34.013-23.541-67.044-36.539-67.374-36.668-3.975-1.549-5.943-6.029-4.395-10.004 1.549-3.976 6.029-5.942 10.001-4.397 1.416.55 35.072 13.771 70.7 38.455.041.029.083.058.123.088.376.259.746.518 1.123.786 3.496 2.446 6.977 4.988 10.304 7.527l.417.319c.512.391 1.029.787 1.539 1.194 42.061 32.594 64.968 68.117 68.087 105.586.353 4.253-2.807 7.988-7.06 8.342-.218.018-.435.026-.651.026z" fill="#36d49b"/><path d="m309.857 174.447c-21.206 21.206-40.28 25.545-49.369 16.456s-4.75-28.162 16.456-49.369c13.4-13.4 46.342-33.201 62.887-40.07 6.361-2.641 12.737 3.735 10.096 10.096-6.869 16.545-26.67 49.487-40.07 62.887z" fill="#80e0b7"/><path d="m251.508 190.898c-7.326 7.336-21.142 5.934-37.328-5.996-3.895-2.865-7.923-6.347-12.034-10.458-13.404-13.394-33.206-46.343-40.078-62.889-2.638-6.357 3.74-12.734 10.097-10.087 12.436 5.162 34.134 17.629 49.836 29.188 5.193 3.833 9.726 7.552 13.054 10.88 21.203 21.204 25.54 40.275 16.453 49.362z" fill="#80e0b7"/><g fill="#36d49b"><path d="m162.068 111.555c-2.638-6.357 3.74-12.734 10.097-10.087 12.436 5.162 34.134 17.629 49.836 29.188-4.811 16.402-7.82 34.536-7.82 54.245-3.895-2.865-7.923-6.347-12.034-10.458-13.405-13.393-33.207-46.341-40.079-62.888z"/><path d="m465.181 310.505c-17.69 2.833-56.12 3.277-74.563-1.102-29.178-6.913-42.881-20.874-39.924-33.381.319-1.35.824-2.617 1.504-3.812.618-.495 1.247-.968 1.865-1.442 3.348-2.555 6.728-5.018 10.087-7.367 8.768-2.895 21.43-3.019 37.204.721 18.442 4.369 52.586 22.018 67.124 32.486 5.584 4.027 3.503 12.805-3.297 13.897z"/><path d="m379.368 231.204c-3.348 14.135-8.345 24.634-14.043 31.372 0 .011 0 .011-.01.011-3.74 2.596-7.511 5.327-11.251 8.181-2.699.855-5.419.978-8.077.35-12.508-2.957-18.824-21.471-11.91-50.65 4.379-18.442 22.017-52.586 32.496-67.124 4.028-5.584 12.796-3.503 13.888 3.297 2.842 17.69 3.275 56.12-1.093 74.563z"/></g><path d="m309.857 267.537c-21.206 21.207-40.28 25.545-49.369 16.456s-4.75-28.162 16.456-49.369c13.4-13.4 46.342-33.201 62.887-40.07 6.361-2.641 12.737 3.735 10.096 10.096-6.869 16.545-26.67 49.487-40.07 62.887z" fill="#80e0b7"/><path d="m251.508 283.996c-2.772 2.771-6.45 4.286-10.839 4.471-10.045.423-23.769-6.171-38.523-20.925-6.398-6.388-14.249-17.237-21.461-28.632l-15.135-37.142 2.504-7.737c1.308-.196 2.71-.062 4.111.525 11.251 4.678 30.085 15.321 45.199 25.881 7.109 4.956 13.394 9.891 17.69 14.187 21.204 21.204 25.541 40.285 16.454 49.372z" fill="#80e0b7"/><path d="m217.364 220.437c3.791 21.255 11.179 43.983 23.305 68.03-10.045.423-23.769-6.171-38.523-20.925-13.404-13.404-33.206-46.343-40.078-62.889-2.638-6.367 3.74-12.735 10.097-10.097 11.251 4.677 30.085 15.32 45.199 25.881z" fill="#36d49b"/><path d="m256 372.336c-4.268 0-7.727-3.459-7.727-7.727v-255.999c0-4.268 3.459-7.727 7.727-7.727s7.727 3.459 7.727 7.727v255.998c0 4.268-3.459 7.728-7.727 7.728z" fill="#36d49b"/><path d="m287.042 380.092c-.215 0-.432-.008-.65-.026-4.253-.354-7.413-4.089-7.06-8.342 3.119-37.469 26.026-72.992 68.087-105.586.51-.408 1.027-.803 1.539-1.194l.402-.308c3.341-2.55 6.822-5.092 10.36-7.567.34-.241.705-.498 1.081-.757.04-.029.082-.058.123-.088 35.628-24.684 69.284-37.905 70.7-38.455 3.977-1.548 8.456.422 10.003 4.399 1.547 3.976-.421 8.454-4.397 10.002-.33.129-33.362 13.127-67.376 36.668-.065.047-.132.095-.199.14-.347.238-.686.477-1.034.724-3.406 2.383-6.713 4.797-9.87 7.207l-.409.314c-.437.333-.876.669-1.311 1.016-.032.027-.066.053-.1.079-38.525 29.841-59.451 61.699-62.197 94.687-.336 4.035-3.715 7.087-7.692 7.087z" fill="#80e0b7"/><path d="m279.274 77.576c0 29.992-10.416 46.549-23.274 46.549-9.53 0-17.711-9.087-21.306-25.994-1.267-5.904-1.968-12.776-1.968-20.555 0-18.947 9.293-56.244 16.135-72.8 2.627-6.367 11.652-6.367 14.28 0 3.534 8.561 7.727 22.667 10.962 36.916 3.008 13.31 5.171 26.725 5.171 35.884z" fill="#80e0b7"/><path d="m234.694 98.131c-1.267-5.904-1.968-12.776-1.968-20.555 0-18.947 9.293-56.244 16.135-72.8 2.627-6.367 11.652-6.367 14.28 0 3.534 8.561 7.727 22.667 10.962 36.916-11.726 12.363-27.149 31.454-39.409 56.439z" fill="#36d49b"/><path d="m457.014 232.528c-25.526 15.743-45.086 15.564-51.833 4.624s1.874-28.498 27.4-44.241c16.13-9.948 52.751-21.615 70.434-24.483 6.798-1.103 11.532 6.572 7.495 12.152-10.501 14.514-37.366 42-53.496 51.948z" fill="#36d49b"/><path d="m54.986 232.528c25.526 15.743 45.086 15.564 51.833 4.624s-1.874-28.498-27.4-44.241c-16.13-9.948-52.751-21.615-70.434-24.483-6.798-1.103-11.532 6.572-7.495 12.152 10.501 14.514 37.366 42 53.496 51.948z" fill="#00c780"/><path d="m387.878 380.122c0 6.429-2.607 12.25-6.821 16.454-4.203 4.214-10.025 6.821-16.454 6.821h-217.206c-12.858 0-23.274-10.416-23.274-23.275 0-6.418 2.607-12.24 6.821-16.454 4.203-4.214 10.025-6.821 16.454-6.821h67.051l7.532 2.164 8.387-2.164h134.237c12.857.001 23.273 10.428 23.273 23.275z" fill="#d97c41"/><path d="m234.096 356.848c-6.944 9.056-17.68 25.479-23.573 46.549h-63.126c-12.858 0-23.274-10.416-23.274-23.275 0-6.418 2.607-12.24 6.821-16.454 4.203-4.214 10.025-6.821 16.454-6.821h86.698z" fill="#af602d"/><g><g><path d="m206.795 461.393c-4.268 0-7.727-3.459-7.727-7.727 0-3.56-2.896-6.455-6.454-6.455s-6.454 2.896-6.454 6.455c0 4.268-3.459 7.727-7.727 7.727s-7.727-3.459-7.727-7.727c0-12.081 9.828-21.91 21.909-21.91s21.909 9.829 21.909 21.91c-.001 4.268-3.461 7.727-7.729 7.727z" fill="#495560"/></g><g><path d="m333.568 461.393c-4.268 0-7.727-3.459-7.727-7.727 0-3.56-2.896-6.455-6.454-6.455s-6.454 2.896-6.454 6.455c0 4.268-3.459 7.727-7.727 7.727s-7.727-3.459-7.727-7.727c0-12.081 9.828-21.91 21.909-21.91s21.909 9.829 21.909 21.91c-.002 4.268-3.461 7.727-7.729 7.727z" fill="#495560"/></g><g><path d="m256 484.822c-7.998 0-15.604-3.463-20.869-9.502-2.804-3.218-2.47-8.098.747-10.903 3.22-2.806 8.1-2.47 10.903.747 2.329 2.671 5.689 4.204 9.219 4.204s6.89-1.532 9.219-4.204c2.803-3.216 7.684-3.553 10.903-.747 3.217 2.804 3.551 7.685.747 10.903-5.265 6.039-12.871 9.502-20.869 9.502z" fill="#495560"/></g></g></g></svg>