<svg id="Capa_1" enable-background="new 0 0 512 512" height="512" viewBox="0 0 512 512" width="512" xmlns="http://www.w3.org/2000/svg"><g><path d="m387.879 387.88-18.545 98.909c-2.741 14.62-15.507 25.211-30.384 25.211h-165.899c-14.878 0-27.643-10.591-30.384-25.211l-18.545-98.909z" fill="#deddf5"/><path d="m235.786 512h-62.735c-14.878 0-27.643-10.591-30.384-25.211l-18.545-98.909h90.357c-11.261 30.384-13.281 73.017 21.307 124.12z" fill="#c7c4ea"/><path d="m411.153 372.24v.248c0 17.072-13.837 30.909-30.909 30.909h-248.488c-17.072 0-30.909-13.837-30.909-30.909v-.248c0-17.072 13.837-30.909 30.909-30.909h108.728l1.68 1 2.215-1h135.866c17.071 0 30.908 13.837 30.908 30.909z" fill="#c7c4ea"/><path d="m244.378 341.331c-8.665 8.644-27.437 30.343-34.484 62.066h-78.138c-17.072 0-30.909-13.837-30.909-30.909v-.248c0-17.072 13.837-30.909 30.909-30.909z" fill="#b2aee4"/><path d="m408.215 211.32c-37.756-5.829-73.086 20.097-78.833 57.886-6.025 39.616 23.58 75.445 63.459 79.371 48.225 4.747 92.375-24.461 112.632-40.514 7.043-5.581 8.618-15.637 3.587-23.083-15.03-22.248-50.401-65.871-100.845-73.66z" fill="#29ce69"/><path d="m364.068 102.589c-33.394 8.56-53.508 42.607-44.867 75.999 9.058 35.007 46.334 54.229 80.814 43.336 41.696-13.173 67.963-53.073 79.075-73.579 3.863-7.129 1.602-16.032-5.214-20.424-20.366-13.125-65.192-36.769-109.808-25.332z" fill="#00c140"/><path d="m343.005 7.052c-27.918 11.87-40.906 44.152-28.967 72.058 12.517 29.254 47.491 41.04 76.044 26.997 34.529-16.982 52.095-55.172 59.046-74.483 2.416-6.714-.73-14.159-7.241-17.077-19.455-8.722-61.583-23.354-98.882-7.495z" fill="#29ce69"/><path d="m263.767 155.124c-.459 0-.924-.041-1.392-.126-4.199-.763-6.984-4.786-6.22-8.985 6.813-37.468 30.447-66.575 68.348-84.172 28.097-13.045 53.939-15.158 55.026-15.241 4.264-.323 7.97 2.857 8.297 7.112.328 4.255-2.855 7.968-7.109 8.297-.505.042-24.656 2.123-50.119 14.043-33.374 15.624-53.304 40.093-59.237 72.726-.679 3.731-3.932 6.346-7.594 6.346z" fill="#80e0b7"/><path d="m263.767 263.73c-.459 0-.924-.041-1.392-.126-4.199-.763-6.984-4.786-6.22-8.985 6.813-37.469 30.447-66.575 68.348-84.172 28.097-13.045 53.939-15.158 55.026-15.241 4.27-.33 7.97 2.857 8.297 7.112.327 4.252-2.852 7.965-7.103 8.296h.001c-.242.02-24.521 2.057-50.126 14.043-33.374 15.624-53.304 40.093-59.237 72.726-.679 3.732-3.932 6.346-7.594 6.347z" fill="#36d49b"/><path d="m167.765 322.693c-11.632 14.177-28.859 23.934-48.61 25.881-48.218 4.75-92.366-24.46-112.633-40.512-7.037-5.584-8.613-15.64-3.585-23.079 15.032-22.255 50.403-65.877 100.846-73.667 1.607-.247 3.204-.433 4.791-.566 35.916-3.029 68.546 22.275 74.048 58.459 3.039 19.999-2.998 39.039-14.857 53.484z" fill="#29ce69"/><path d="m108.574 210.75c8.222 33.557 26.479 70.926 59.191 111.942-11.632 14.177-28.859 23.934-48.61 25.881-48.218 4.75-92.366-24.46-112.633-40.512-7.037-5.584-8.613-15.64-3.585-23.079 15.032-22.255 50.403-65.877 100.846-73.667 1.608-.245 3.205-.431 4.791-.565z" fill="#00c140"/><path d="m192.801 178.584c-9.056 35.01-46.333 54.235-80.817 43.345-.124-.041-.247-.083-.371-.124-41.48-13.291-67.619-53.019-78.705-73.461-3.864-7.13-1.597-16.031 5.213-20.42 15.702-10.117 45.941-26.489 79.416-28.21 9.943-.526 20.173.258 30.394 2.875 33.393 8.562 53.504 42.603 44.87 75.995z" fill="#00c140"/><path d="m111.613 221.805c-41.48-13.291-67.619-53.019-78.705-73.461-3.864-7.13-1.597-16.031 5.213-20.42 15.702-10.117 45.941-26.489 79.416-28.21-14.557 32.939-20.615 73.77-5.924 122.091z" fill="#00a62c"/><path d="m263.271 337.149c-.994 0-2.004-.193-2.979-.601-3.937-1.647-5.793-6.174-4.146-10.111 15.611-37.32 46.584-58.824 89.57-62.187 31.62-2.478 58.376 5.743 59.5 6.094 4.074 1.273 6.344 5.607 5.072 9.68-1.273 4.074-5.608 6.346-9.68 5.071-.243-.076-25.395-7.747-54.116-5.404-37.124 3.029-62.725 20.763-76.088 52.71-1.241 2.964-4.111 4.748-7.133 4.748z" fill="#80e0b7"/><path d="m251.704 336.55c-.968.401-1.978.597-2.978.597-3.019 0-5.893-1.782-7.13-4.75-13.363-31.939-38.966-49.681-76.088-52.71-9.87-.804-19.318-.423-27.478.422l-12.92-5.852 4.719-8.736c10.149-1.422 22.852-2.339 36.452-1.268 42.994 3.359 73.965 24.862 89.574 62.189 1.649 3.937-.205 8.46-4.151 10.108z" fill="#80e0b7"/><path d="m129.829 265.521c2.524 4.801 5.255 9.664 8.201 14.589-15.588 1.617-26.479 4.935-26.643 4.987-4.07 1.267-8.407-1.01-9.675-5.08-1.267-4.07.999-8.397 5.069-9.675.639-.205 9.603-2.956 23.048-4.821z" fill="#36d49b"/><path d="m197.963 79.109c-12.518 29.26-47.497 41.037-76.047 26.994-1.988-.978-3.915-2.019-5.79-3.132l-.968-3.41-3.462.608h-.01c-27.839-18.784-42.583-51.238-48.816-68.547-2.411-6.707.731-14.156 7.243-17.072 19.452-8.726 61.581-23.357 98.878-7.5 5.78 2.452 10.921 5.79 15.331 9.777 16.897 15.269 23.11 40.161 13.641 62.282z" fill="#29ce69"/><path d="m62.87 31.622c-2.411-6.707.731-14.156 7.243-17.072 19.452-8.726 61.581-23.357 98.878-7.5 5.78 2.452 10.921 5.79 15.331 9.777-21.286 16.701-51.258 45.653-68.196 86.143-30.723-18.174-46.703-53.143-53.256-71.348z" fill="#00c140"/><path d="m249.623 155c-.464.083-.927.124-1.391.124-3.658 0-6.913-2.617-7.593-6.346-5.935-32.63-25.861-57.1-59.232-72.729-16.876-7.902-33.186-11.477-42.407-13.003l-.742-9.097 11.704-4.564c10.097 2.164 23.542 5.955 37.534 12.456 37.905 17.598 61.54 46.704 68.35 84.176.762 4.192-2.02 8.221-6.223 8.983z" fill="#80e0b7"/><path d="m149.962 49.384c-3.719 4.286-7.398 8.84-10.963 13.662-4.76-.793-7.645-1.03-7.717-1.04-4.255-.33-7.439-4.049-7.099-8.304.33-4.245 4.049-7.418 8.284-7.099.546.04 7.325.597 17.495 2.781z" fill="#36d49b"/><path d="m248.234 263.73c-3.662 0-6.915-2.615-7.593-6.346-5.933-32.634-25.863-57.102-59.237-72.726-25.605-11.987-49.883-14.024-50.126-14.043-4.25-.336-7.429-4.053-7.097-8.304.332-4.25 4.035-7.438 8.292-7.104 1.087.084 26.929 2.196 55.026 15.241 37.901 17.597 61.535 46.703 68.348 84.172.764 4.199-2.021 8.222-6.22 8.985-.47.084-.935.125-1.393.125z" fill="#36d49b"/><path d="m271.515 341.334h-31.03v-233.183c0-8.317 6.742-15.059 15.059-15.059h.913c8.317 0 15.059 6.742 15.059 15.059v233.183z" fill="#29ce69"/><g><g><path d="m206.795 460.456c-4.268 0-7.727-3.46-7.727-7.727 0-3.559-2.896-6.455-6.454-6.455-3.559 0-6.454 2.896-6.454 6.455 0 4.268-3.459 7.727-7.727 7.727s-7.727-3.46-7.727-7.727c0-12.081 9.828-21.91 21.909-21.91s21.909 9.829 21.909 21.91c-.002 4.267-3.461 7.727-7.729 7.727z" fill="#495560"/></g><g><path d="m333.569 460.456c-4.268 0-7.727-3.46-7.727-7.727 0-3.559-2.896-6.455-6.454-6.455-3.559 0-6.454 2.896-6.454 6.455 0 4.268-3.459 7.727-7.727 7.727s-7.727-3.46-7.727-7.727c0-12.081 9.828-21.91 21.909-21.91s21.909 9.829 21.909 21.91c-.002 4.267-3.461 7.727-7.729 7.727z" fill="#495560"/></g><g><path d="m256 483.886c-7.998 0-15.604-3.464-20.869-9.504-2.804-3.217-2.47-8.098.748-10.902 3.217-2.803 8.099-2.47 10.902.748 2.329 2.672 5.689 4.204 9.219 4.204 3.531 0 6.89-1.532 9.219-4.204 2.802-3.217 7.685-3.552 10.902-.748 3.218 2.804 3.552 7.686.748 10.902-5.264 6.04-12.871 9.504-20.869 9.504z" fill="#495560"/></g></g></g></svg>