<svg id="Capa_1" enable-background="new 0 0 512 512" height="512" viewBox="0 0 512 512" width="512" xmlns="http://www.w3.org/2000/svg"><g><path d="m395.637 418.911c0 28.704-8.665 55.389-23.522 77.571h-232.229c-14.857-22.182-23.522-48.867-23.522-77.571 0-12.137 1.545-23.924 4.461-35.154 5.296-20.421 23.769-34.669 44.88-34.669h59.263l30.487-13.445 31.579 13.445h59.263c21.111 0 39.584 14.249 44.88 34.669 2.915 11.231 4.46 23.017 4.46 35.154z" fill="#e4996d"/><path d="m207.824 496.482h-67.938c-14.857-22.182-23.522-48.867-23.522-77.571 0-12.137 1.545-23.924 4.461-35.154 5.296-20.421 23.769-34.669 44.88-34.669h51.577c-16.763 13.27-71.533 65.888-9.458 147.394z" fill="#d97c41"/><path d="m418.788 49.507c-1.391-27.746-14.702-49.506-30.909-49.506-17.134 0-31.033 24.315-31.033 54.307s13.899 54.297 31.033 54.297c2.411 0 4.76-.484 7.006-1.391l26.994.226 7.19-34.022z" fill="#ff899f"/><path d="m232.739 302.516c-.348 0-.699-.024-1.054-.072-4.228-.577-7.189-4.472-6.612-8.7 7.618-55.859-.928-98.454-25.396-126.606-30.159-34.699-75.118-35.287-75.569-35.289-4.261-.018-7.712-3.482-7.703-7.743.009-4.262 3.458-7.711 7.719-7.711 2.114 0 52.175.46 87.063 40.428 27.636 31.66 37.46 78.429 29.2 139.009-.53 3.874-3.845 6.684-7.648 6.684z" fill="#36d49b"/><path d="m279.263 333.546c-3.804 0-7.117-2.81-7.647-6.684-8.26-60.579 1.564-107.349 29.199-139.009 34.888-39.969 84.949-40.428 87.063-40.428 4.268 0 7.727 3.46 7.727 7.727 0 4.264-3.453 7.721-7.716 7.727-.698.006-45.489.688-75.564 35.289-24.469 28.151-33.014 70.747-25.396 126.605.577 4.228-2.385 8.124-6.612 8.7-.353.05-.706.073-1.054.073z" fill="#80e0b7"/><ellipse cx="338.511" cy="74.755" fill="#ff5f7f" rx="31.03" ry="54.303" transform="matrix(.707 -.707 .707 .707 46.288 261.258)"/><ellipse cx="318.061" cy="124.123" fill="#ff899f" rx="54.303" ry="31.03"/><ellipse cx="338.511" cy="173.492" fill="#ff5f7f" rx="54.303" ry="31.03" transform="matrix(.707 -.707 .707 .707 -23.53 290.178)"/><path d="m418.912 193.945c0 21.914-7.429 40.8-18.113 49.372-3.936 3.163-8.304 4.925-12.92 4.925-16.207 0-29.518-21.76-30.909-49.496l7.387-18.7-1.669-17.814c4.152-10.076 10.231-17.567 17.288-20.812 2.524-1.164 5.172-1.782 7.902-1.782 17.135 0 31.034 24.315 31.034 54.307z" fill="#ffb3c2"/><path d="m400.799 243.317c-3.936 3.163-8.304 4.925-12.92 4.925-17.134 0-31.033-24.315-31.033-54.297 0-25.211 9.819-46.415 23.13-52.525-5.655 25.387-1.287 58.563 20.823 101.897z" fill="#ff899f"/><ellipse cx="437.248" cy="173.492" fill="#ff899f" rx="31.03" ry="54.303" transform="matrix(.707 -.707 .707 .707 5.39 359.996)"/><ellipse cx="457.697" cy="124.123" fill="#ffb3c2" rx="54.303" ry="31.03"/><path d="m480.163 62.15c-2.802 11.168-10.056 23.635-20.977 34.546-21.204 21.204-48.218 28.581-60.334 16.454-1.411-1.412-2.555-3.029-3.441-4.812-.196-.371-.361-.742-.525-1.123.762-.309 1.525-.67 2.267-1.082 4.472-2.432 8.51-6.604 11.859-12.055 0-.02.01-.02.01-.02 6.089-9.912 9.891-24.047 9.891-39.749 0-1.618-.041-3.225-.124-4.801 20.596-18.638 45.395-24.614 56.862-13.147 5.872 5.873 7.17 15.259 4.512 25.789z" fill="#ff899f"/><path d="m480.163 62.15c-17.165 3.41-47.827 11.931-71.142 31.908 6.089-9.912 9.891-24.047 9.891-39.749 0-1.618-.041-3.225-.124-4.801 20.596-18.638 45.395-24.614 56.862-13.147 5.873 5.873 7.171 15.259 4.513 25.789z" fill="#ff5f7f"/><path d="m433.254 127.574c.258 1.143.391 2.308.391 3.451 0 3.483-1.174 6.903-3.379 9.674-1.453 1.824-2.483 3.946-2.998 6.223-.525 2.298-1.556 4.42-2.998 6.223-1.432 1.803-3.276 3.287-5.399 4.307-2.102 1.01-3.946 2.483-5.399 4.307-1.474 1.844-3.328 3.307-5.399 4.307-2.071.999-4.369 1.535-6.728 1.535-2.328 0-4.636.515-6.738 1.535-2.133 1.02-4.43 1.535-6.728 1.535s-4.595-.515-6.728-1.535c-1.051-.505-2.153-.896-3.287-1.154l-29.291-45.982 39.306-38.059 27.828 4.832c.968.793 2.03 1.474 3.163 2.03 2.122 1.02 3.966 2.493 5.399 4.297 1.442 1.803 2.473 3.925 2.998 6.223.515 2.277 1.545 4.399 2.998 6.223 2.205 2.772 3.379 6.192 3.379 9.675 0 1.143-.134 2.308-.391 3.451-.258 1.144-.392 2.298-.392 3.452.001 1.162.135 2.316.393 3.45z" fill="#fcf5af"/><path d="m377.865 167.982c-1.133-.258-2.287-.381-3.452-.381-2.359 0-4.657-.536-6.728-1.535s-3.925-2.462-5.399-4.307c-1.453-1.824-3.297-3.297-5.399-4.307-2.122-1.02-3.966-2.504-5.399-4.307-1.442-1.803-2.473-3.926-2.998-6.223-.515-2.277-1.545-4.399-2.998-6.223-2.205-2.771-3.379-6.192-3.379-9.674 0-1.144.134-2.308.391-3.451.258-1.133.392-2.287.392-3.452 0-1.154-.134-2.308-.392-3.452-.258-1.143-.391-2.308-.391-3.451 0-3.483 1.174-6.903 3.379-9.675 1.453-1.823 2.483-3.946 2.998-6.223.525-2.298 1.556-4.42 2.998-6.223 1.432-1.803 3.276-3.277 5.399-4.297 2.102-1.02 3.946-2.483 5.399-4.307 1.474-1.855 3.328-3.307 5.399-4.307 2.071-.999 4.369-1.535 6.728-1.535 2.328 0 4.636-.525 6.738-1.535 2.133-1.03 4.43-1.535 6.728-1.535s4.595.505 6.728 1.535c2.102 1.01 4.41 1.535 6.738 1.535 2.359 0 4.657.536 6.728 1.535s3.925 2.452 5.399 4.307c.67.835 1.411 1.597 2.236 2.277-22.038 16.095-39.698 40.966-37.843 79.211z" fill="#f8ea69"/><path d="m395.637 496.482c0 4.286-1.741 8.17-4.544 10.973-2.803 2.802-6.687 4.544-10.973 4.544h-248.24c-8.572 0-15.516-6.944-15.516-15.516 0-4.286 1.741-8.17 4.544-10.973 2.803-2.802 6.687-4.544 10.973-4.544h248.24c8.572 0 15.516 6.944 15.516 15.516z" fill="#d97c41"/><path d="m220.775 511.999h-88.894c-8.572 0-15.516-6.944-15.516-15.516 0-4.286 1.741-8.17 4.544-10.973 2.803-2.802 6.687-4.544 10.973-4.544h65.28c6.036 9.87 13.794 20.225 23.613 31.033z" fill="#af602d"/><path d="m403.396 124.122c0 8.572-6.944 15.516-15.516 15.516-2.545 0-4.945-.608-7.068-1.7l-3.647-10.633 6.11-15.836 10.921-1.525c5.419 2.422 9.2 7.852 9.2 14.178z" fill="#ffb3c2"/><path d="m394.195 109.945c-5.862 8.005-10.53 17.278-13.383 27.993-5.018-2.565-8.449-7.789-8.449-13.816 0-8.572 6.944-15.516 15.516-15.516 2.246 0 4.389.474 6.316 1.339z" fill="#ff899f"/><path d="m146.027 39.576-8.953 55.234-20.998 3.544c-1.731 1.7-3.719 3.039-5.945 3.966-15.825 6.553-37.966-10.581-49.444-38.286-11.477-27.714-7.943-55.491 7.882-62.054 14.981-6.202 35.607 8.809 47.507 33.918z" fill="#ff899f"/><ellipse cx="51.569" cy="89.939" fill="#ff5f7f" rx="31.03" ry="54.303" transform="matrix(.383 -.924 .924 .383 -51.258 103.165)"/><ellipse cx="51.569" cy="143.375" fill="#ff899f" rx="54.303" ry="31.03" transform="matrix(.924 -.383 .383 .924 -50.942 30.649)"/><ellipse cx="89.354" cy="181.161" fill="#ff5f7f" rx="54.303" ry="31.03" transform="matrix(.383 -.924 .924 .383 -112.211 194.386)"/><path d="m163.573 231.335c-.103.041-.196.083-.299.113-14.96 5.883-35.381-9.087-47.208-34.02l-1.257-23.697-7.428-12.23c-.021-10.932 2.751-20.204 8.067-25.892 1.865-2.009 4.059-3.575 6.563-4.616 15.836-6.563 37.967 10.581 49.444 38.296 11.477 27.706 7.954 55.483-7.882 62.046z" fill="#ffb3c2"/><path d="m115.448 135.61c2.019 27.736 15.3 59.86 47.826 95.838-15.815 6.223-37.75-10.88-49.156-38.409-9.664-23.336-8.685-46.714 1.33-57.429z" fill="#ff899f"/><ellipse cx="180.576" cy="143.375" fill="#ff899f" rx="31.03" ry="54.303" transform="matrix(.383 -.924 .924 .383 -20.989 255.338)"/><ellipse cx="180.576" cy="89.939" fill="#ffb3c2" rx="54.303" ry="31.03" transform="matrix(.924 -.383 .383 .924 -20.673 75.95)"/><path d="m171.455 64.025c-11.477 27.705-33.608 44.859-49.444 38.296-1.102-.453-2.133-1.01-3.112-1.669-1.01-.659-1.947-1.432-2.823-2.298 10.592-10.396 11.817-34.257 1.947-58.078-.618-1.494-1.267-2.957-1.947-4.379 11.89-25.109 32.516-40.12 47.497-33.907 7.593 3.142 12.364 11.169 13.992 21.739 1.772 11.458-.135 25.882-6.11 40.296z" fill="#ff899f"/><path d="m116.076 98.354c10.592-10.396 11.817-34.257 1.947-58.078-.618-1.494-1.267-2.957-1.947-4.379 11.89-25.109 32.516-40.12 47.497-33.907 7.593 3.142 12.364 11.169 13.992 21.739-16.567 11.663-47.919 38.069-58.665 76.922-1.011-.658-1.948-1.431-2.824-2.297z" fill="#ff5f7f"/><path d="m161.574 115.756c-.402 1.401-.608 2.844-.608 4.297 0 .866.072 1.741.216 2.596.144.865.216 1.741.216 2.607 0 3.781-1.38 7.47-3.936 10.334-1.556 1.731-2.699 3.802-3.348 6.038-.649 2.277-1.803 4.327-3.338 6.048-1.535 1.71-3.452 3.091-5.626 3.998-2.153.886-4.08 2.256-5.636 3.987-2.947 3.307-7.161 5.172-11.56 5.172-.289 0-.577 0-.876-.021-.278-.01-.556-.021-.835-.021-1.947 0-3.874.35-5.687 1.072l-35.216-19.699 11.23-58.573 33.732-9.767c.546.093 1.092.155 1.649.185 2.349.134 4.616.804 6.635 1.916 2.009 1.113 3.781 2.669 5.151 4.595 1.35 1.906 3.101 3.472 5.141 4.605 2.071 1.144 3.822 2.72 5.151 4.595 1.329 1.886 2.256 4.049 2.648 6.378.381 2.298 1.288 4.482 2.637 6.388 1.886 2.648 2.864 5.79 2.864 8.974.004 1.442-.202 2.885-.604 4.296z" fill="#fcf5af"/><path d="m120.558 161.862c-.103.031-.196.072-.289.113-1.906.783-3.915 1.174-5.935 1.174-2.596 0-5.182-.649-7.511-1.937-2.04-1.123-4.307-1.772-6.635-1.906-2.359-.134-4.616-.793-6.625-1.906-2.02-1.113-3.792-2.679-5.151-4.605-1.35-1.906-3.112-3.472-5.151-4.606-2.061-1.133-3.812-2.72-5.151-4.595-1.329-1.875-2.246-4.059-2.638-6.378-.392-2.298-1.298-4.482-2.648-6.388-1.886-2.648-2.854-5.801-2.854-8.984 0-1.432.196-2.875.598-4.286.402-1.401.608-2.843.608-4.296 0-.865-.072-1.741-.216-2.596-.144-.865-.216-1.741-.216-2.607 0-3.781 1.381-7.47 3.946-10.334 1.545-1.731 2.689-3.802 3.338-6.037.659-2.267 1.803-4.327 3.338-6.048s3.452-3.091 5.636-3.997c2.153-.886 4.07-2.256 5.625-3.987 2.967-3.307 7.181-5.182 11.591-5.182.289 0 .567 0 .855.021 2.318.134 4.647-.258 6.8-1.154 1.906-.783 3.925-1.175 5.945-1.175 2.586 0 5.172.649 7.501 1.927 1.556.865 3.235 1.442 4.987 1.731-13.385 23.047-20.865 52.668-9.748 88.038z" fill="#f8ea69"/><path d="m122.011 130.994c-2.215.917-4.523 1.278-6.759 1.164l-8.686-7.181.814-17.01 11.313-6.604c5.069.876 9.602 4.245 11.715 9.355 3.276 7.923-.485 16.99-8.397 20.276z" fill="#ffb3c2"/><path d="m115.252 132.159c-5.78-.319-11.148-3.864-13.518-9.561-3.276-7.923.484-17 8.397-20.276 2.813-1.164 5.77-1.442 8.562-.958-2.555 9.529-3.874 19.812-3.441 30.795z" fill="#ff899f"/><path d="m259.092 330.903-3.091 18.185h-31.033c0-14.867-9.849-24.902-21.616-27.952-2.493-.649-5.079-.989-7.676-.989-9.345 0-18.813 4.348-24.851 13.991-.103.155-.155.247-.155.247-17.154 22.862-33.691 28.014-41.531 29.6-2.432.495-4.935.433-7.356-.175l-15.063-3.761c-7.603-1.906-15.506 1.731-19.009 8.737l-1.041 2.092c-4.502 8.995-15.867 12.013-24.243 6.429l-.701-.464c-4.08-2.7-9.118-3.452-13.847-2.174-17.268 4.709-31.022.237-40.46-5.399-9.891-5.924-9.87-20.266-.083-26.355 6.975-4.338 14.342-6.676 20.256-7.933 3.431-.721 6.388-2.596 8.479-5.151 2.092-2.555 3.328-5.811 3.328-9.324 0-9.324 8.531-16.309 17.68-14.486l8.325 1.669c7.305 1.463 14.558-2.751 16.907-9.819l1.216-3.627c1.576-4.739 5.46-8.346 10.303-9.633 21.533-5.739 40.789-4.915 54.637-2.658 13.806 2.236 27.901-.289 40.161-7.026.268-.144.536-.299.814-.443 5.832-3.132 11.9-4.842 17.896-5.296 24.954-1.958 48.661 17.567 48.661 45.117z" fill="#80e0b7"/><path d="m203.353 321.136c-2.493-.649-5.079-.989-7.676-.989-9.345 0-18.813 4.348-24.851 13.991-.103.155-.155.247-.155.247-17.154 22.862-33.691 28.014-41.531 29.6-2.432.495-4.935.433-7.356-.175l-15.063-3.761c-7.603-1.906-15.506 1.731-19.009 8.737l-1.041 2.092c-4.502 8.995-15.867 12.013-24.243 6.429l-.701-.464c-4.08-2.7-9.118-3.452-13.847-2.174-17.268 4.709-31.022.237-40.46-5.399-9.891-5.924-9.87-20.266-.083-26.355 6.975-4.338 14.342-6.676 20.256-7.933 3.431-.721 6.388-2.596 8.479-5.151 2.092-2.555 3.328-5.811 3.328-9.324 0-9.324 8.531-16.309 17.68-14.486l8.325 1.669c7.305 1.463 14.558-2.751 16.907-9.819l1.216-3.627c1.576-4.739 5.46-8.346 10.303-9.633 21.533-5.739 40.789-4.915 54.637-2.658 13.806 2.236 27.901-.289 40.161-7.026.268-.144.536-.299.814-.443 5.832-3.132 11.9-4.842 17.896-5.296-9.261 9.798-18.74 27.396-3.986 51.948z" fill="#36d49b"/><path d="m256.001 349.091h31.03v-4.601c0-29.41 38.548-35.286 54.145-10.353.101.161.152.246.152.246 17.154 22.862 33.691 28.014 41.531 29.6 2.431.495 4.935.433 7.356-.175l15.063-3.761c7.603-1.906 15.506 1.731 19.009 8.737l1.041 2.092c4.502 8.995 15.866 12.013 24.243 6.429l.701-.464c4.08-2.7 9.124-3.453 13.844-2.168 17.273 4.702 31.026.237 40.463-5.404 9.891-5.924 9.87-20.266.083-26.355-6.975-4.338-14.342-6.676-20.256-7.933-3.431-.721-6.388-2.596-8.479-5.151s-3.328-5.811-3.328-9.324c0-9.324-8.531-16.31-17.68-14.486l-8.325 1.669c-7.305 1.463-14.558-2.751-16.907-9.819l-1.216-3.627c-1.576-4.739-5.461-8.346-10.303-9.633-21.535-5.732-40.787-4.908-54.634-2.659-13.81 2.242-27.902-.28-40.161-7.023-.269-.148-.541-.296-.816-.443-30.096-16.163-66.558 5.659-66.558 39.82 0 27.683.002 34.786.002 34.786z" fill="#36d49b"/><g><g><ellipse cx="172.745" cy="433.233" fill="#fff" rx="30.72" ry="24.464"/><ellipse cx="339.257" cy="433.233" fill="#fff" rx="30.72" ry="24.464"/><path d="m285.788 403.781c-4.268 0-7.727 3.46-7.727 7.727 0 3.952-3.215 7.166-7.167 7.166-3.951 0-7.166-3.215-7.166-7.166 0-4.268-3.459-7.727-7.727-7.727s-7.727 3.46-7.727 7.727c0 3.952-3.215 7.166-7.167 7.166-3.951 0-7.166-3.215-7.166-7.166 0-4.268-3.459-7.727-7.727-7.727s-7.727 3.46-7.727 7.727c0 12.473 10.147 22.621 22.62 22.621 5.7 0 10.911-2.124 14.894-5.616 3.982 3.492 9.193 5.616 14.893 5.616 12.473 0 22.621-10.148 22.621-22.621 0-4.267-3.459-7.727-7.727-7.727z" fill="#495560"/></g><g><path d="m206.796 407.062c-4.268 0-7.727-3.46-7.727-7.727 0-3.559-2.896-6.455-6.454-6.455-3.559 0-6.454 2.896-6.454 6.455 0 4.268-3.459 7.727-7.727 7.727s-7.727-3.46-7.727-7.727c0-12.081 9.828-21.909 21.909-21.909s21.909 9.829 21.909 21.909c-.002 4.268-3.461 7.727-7.729 7.727z" fill="#495560"/></g><g><path d="m333.569 407.062c-4.268 0-7.727-3.46-7.727-7.727 0-3.559-2.896-6.455-6.454-6.455-3.559 0-6.454 2.896-6.454 6.455 0 4.268-3.459 7.727-7.727 7.727s-7.727-3.46-7.727-7.727c0-12.081 9.828-21.909 21.909-21.909s21.909 9.829 21.909 21.909c-.001 4.268-3.461 7.727-7.729 7.727z" fill="#495560"/></g></g></g></svg>