<svg id="Capa_1" enable-background="new 0 0 512 512" height="512" viewBox="0 0 512 512" width="512" xmlns="http://www.w3.org/2000/svg"><g><path d="m254.573 251.444s273.115-140.408 256.716 165.536c-.411 7.661-8.823 12.148-15.435 8.257-2.874-1.691-4.747-4.681-5.015-8.004-19.771-245.027-226.536-128.242-226.536-128.242z" fill="#00c140"/><path d="m500.603 294.723c-1.659-.186-3.225-.763-4.574-1.669-1.35-.907-2.483-2.122-3.276-3.585-89.688-163.333-192.326-93.015-236.753-49.414v-51.144c63.806-51.968 179.055-105.781 255.308 91.954 2.751 7.161-3.081 14.703-10.705 13.858z" fill="#29ce69"/><path d="m257.432 251.447-9.737 37.544s-24.82-14.022-58.088-22.151c-62.735-15.341-155.524-9.737-168.443 150.393-.134 1.659-.67 3.245-1.535 4.615-.855 1.37-2.04 2.545-3.483 3.39-6.614 3.895-15.022-.597-15.434-8.252-10.601-197.747 99.744-209.028 179.118-192.255 43.437 9.149 77.602 26.716 77.602 26.716z" fill="#00c140"/><path d="m189.608 266.839c-62.735-15.341-155.524-9.737-168.443 150.393-.134 1.659-.67 3.245-1.535 4.615-.855 1.37-2.04 2.545-3.483 3.39-6.614 3.895-15.022-.597-15.434-8.252-10.602-197.746 99.743-209.027 179.117-192.254.309 12.837 3.153 26.921 9.778 42.108z" fill="#00a62c"/><path d="m256 188.907v51.144c-16.825-16.515-42.005-36.864-71.668-46.899-48.651-16.454-109.366-5.162-165.085 96.312-.793 1.463-1.927 2.679-3.276 3.585-1.35.907-2.916 1.484-4.574 1.669-7.624.845-13.456-6.697-10.705-13.858 58.696-152.216 140.512-155.369 204.174-125.037 19.03 9.068 36.442 21.123 51.134 33.084z" fill="#29ce69"/><path d="m19.248 289.464c-.793 1.463-1.927 2.679-3.276 3.585-1.35.907-2.916 1.484-4.574 1.669-7.624.845-13.456-6.697-10.705-13.858 58.696-152.216 140.512-155.369 204.174-125.037-7.305 8.902-15.568 21.523-20.534 37.328-48.651-16.453-109.367-5.16-165.085 96.313z" fill="#00c140"/><path d="m279.273 310.303h-46.546l7.758-186.181h31.03z" fill="#80e0b7"/><path d="m248.242 65.816c0-41.148 30.666-58.423 51.351-65.394 6.547-2.206 12.444 4.699 9.302 10.852-6.513 12.756-14.108 32.383-14.108 54.542z" fill="#ff899f"/><path d="m418.911 380.12c0 50.042-22.564 94.808-58.078 124.697-5.533 4.667-12.57 7.181-19.813 7.181h-170.04c-7.243 0-14.28-2.514-19.813-7.181-35.514-29.889-58.078-74.655-58.078-124.697 0-23.82 5.11-46.435 14.29-66.825 4.987-11.076 16.031-18.164 28.168-18.164h240.904c12.137 0 23.182 7.088 28.168 18.164 9.181 20.39 14.292 43.005 14.292 66.825z" fill="#fcf5af"/><path d="m225.462 511.998h-54.482c-7.243 0-14.28-2.514-19.813-7.181-35.514-29.889-58.078-74.655-58.078-124.697 0-23.82 5.11-46.435 14.29-66.825 4.987-11.076 16.031-18.164 28.168-18.164h87.637c-26.673 26.541-76.715 98.589 2.278 216.867z" fill="#f8ea69"/><path d="m263.758 65.816c0-41.148-30.666-58.423-51.351-65.394-6.547-2.206-12.444 4.699-9.302 10.852 6.513 12.756 14.108 32.383 14.108 54.542z" fill="#ff5f7f"/><path d="m236.779 108.607c0-48.177 39.454-63.197 68.101-69.547 9.283-2.058 16.57 8.049 11.536 16.115-7.61 12.193-13.871 27.98-13.871 53.432z" fill="#ffb3c2"/><path d="m302.549 108.606c0 17.139-13.894 31.033-31.033 31.033h-31.032c-17.139 0-31.033-13.894-31.033-31.033 0-25.448-6.254-41.243-13.868-53.431-5.038-8.067 2.257-18.175 11.54-16.114 23.719 5.256 54.858 16.461 64.861 47.518 4.195 13.025 16.075 22.027 29.76 22.027z" fill="#ff899f"/><path d="m234.931 152.168c0-52.809 43.247-69.274 74.649-76.235 10.175-2.256 18.163 8.823 12.645 17.665-8.342 13.366-15.204 30.67-15.204 58.57z" fill="#ff5f7f"/><path d="m307.025 152.166c0 18.787-15.23 34.017-34.016 34.017h-34.016c-18.787 0-34.016-15.23-34.016-34.016 0-27.895-6.855-45.208-15.201-58.569-5.522-8.843 2.474-19.922 12.649-17.663 26 5.761 60.132 18.044 71.097 52.087 4.599 14.278 17.621 24.145 32.621 24.145h.882z" fill="#ffb3c2"/><path d="m220.96 305.743c-2.432-.082-4.863-.113-7.315-.082-54.75.7-112.653 32.032-122.667 156.038-.134 1.659-.67 3.245-1.535 4.616-.855 1.37-2.04 2.545-3.483 3.39-6.604 3.884-15.022-.598-15.434-8.263-7.707-143.963 48.682-189.09 110.561-196.509l5.182 1.133 2.225-1.855c11.787-.865 23.687-.453 35.298.804 6.955.763 13.074 4.935 16.196 11.189 6.945 13.889-3.522 30.085-19.028 29.539z" fill="#29ce69"/><path d="m213.645 305.661c-54.75.7-112.653 32.032-122.667 156.038-.134 1.659-.67 3.245-1.535 4.616-.855 1.37-2.04 2.545-3.483 3.39-6.604 3.884-15.022-.598-15.434-8.263-8.016-149.692 53.276-192.522 117.969-197.23 5.347 13.023 13.466 26.87 25.15 41.449z" fill="#00c140"/><path d="m272.008 276.206c-6.943 13.882 3.523 30.08 19.035 29.536 56.801-1.994 119.523 26.419 129.976 155.962.134 1.659.67 3.245 1.535 4.616.855 1.37 2.04 2.545 3.483 3.39 6.604 3.884 15.022-.598 15.434-8.263 9.482-176.963-77.906-204.589-153.263-196.425-6.954.752-13.071 4.927-16.2 11.184z" fill="#29ce69"/><g><g><ellipse cx="173.942" cy="421.271" fill="#ffa1ac" rx="30.278" ry="24.112"/><ellipse cx="338.058" cy="421.271" fill="#ffa1ac" rx="30.278" ry="24.112"/><path d="m280.411 402.745c0-15.087-10.929-16.504-24.411-16.504s-24.411 1.417-24.411 16.504c0 15.086 10.929 27.316 24.411 27.316s24.411-12.23 24.411-27.316z" fill="#495560"/></g><g><path d="m179.004 400.212c-4.268 0-7.727-3.459-7.727-7.727v-12.364c0-4.268 3.46-7.727 7.727-7.727s7.727 3.459 7.727 7.727v12.364c0 4.268-3.46 7.727-7.727 7.727z" fill="#495560"/></g><g><path d="m332.997 400.212c-4.268 0-7.727-3.459-7.727-7.727v-12.364c0-4.268 3.459-7.727 7.727-7.727s7.727 3.459 7.727 7.727v12.364c0 4.268-3.459 7.727-7.727 7.727z" fill="#495560"/></g></g></g></svg>