<svg id="Capa_1" enable-background="new 0 0 512 512" height="512" viewBox="0 0 512 512" width="512" xmlns="http://www.w3.org/2000/svg"><g><path d="m185.794 21.834h30.118v195.768h-30.118z" fill="#d97c41" transform="matrix(.94 .342 -.342 .94 53.039 -61.459)"/><path d="m296.092 21.834h30.118v195.768h-30.118z" fill="#e4996d" transform="matrix(-.94 .342 -.342 -.94 644.482 125.833)"/><path d="m67.864 496.901c-26.803 0-52.236-16.014-62.883-42.349-8.777-21.71-5.834-46.026 7.875-65.046 17.586-24.4 28.535-54.132 31.661-85.981l4.498-45.815c.405-4.122 4.064-7.139 8.197-6.732 4.122.404 7.136 4.074 6.731 8.196l-4.497 45.815c-3.385 34.483-15.287 66.741-34.42 93.288-10.677 14.813-12.971 33.749-6.137 50.651 8.289 20.502 28.093 32.969 48.958 32.971 6.571.001 13.243-1.234 19.7-3.845 11.562-4.675 17.166-17.884 12.491-29.447-2.265-5.602-6.575-9.986-12.136-12.345-5.562-2.359-11.71-2.411-17.31-.147-1.872.757-3.337 2.197-4.126 4.057-.789 1.858-.806 3.913-.049 5.784.757 1.873 2.197 3.338 4.056 4.126 1.859.79 3.914.807 5.785.05 3.84-1.552 8.212.301 9.764 4.142 1.553 3.841-.302 8.212-4.142 9.765-5.586 2.258-11.717 2.208-17.265-.147-5.547-2.354-9.846-6.727-12.105-12.314-2.259-5.586-2.207-11.717.147-17.265 2.353-5.547 6.726-9.846 12.312-12.105 19.232-7.774 41.201 1.546 48.975 20.776 7.775 19.232-1.545 41.202-20.776 48.976-8.291 3.353-16.865 4.941-25.304 4.941z" fill="#00a62c"/><path d="m453.075 459.256c-7.329 0-14.77-1.378-21.971-4.289-16.95-6.854-25.164-26.218-18.312-43.169 6.852-16.949 26.218-25.165 43.168-18.312 10.392 4.202 15.428 16.075 11.227 26.467-4.201 10.391-16.073 15.428-26.466 11.227-3.84-1.552-5.695-5.924-4.142-9.764 1.552-3.84 5.923-5.696 9.764-4.143 2.726 1.101 5.837-.22 6.937-2.942 1.101-2.725-.219-5.837-2.943-6.939-9.28-3.754-19.885.745-23.638 10.028-3.753 9.281.746 19.886 10.028 23.639 10.849 4.386 22.758 4.284 33.532-.285 10.774-4.57 19.123-13.063 23.51-23.913 5.678-14.044 3.772-29.776-5.099-42.083-16.414-22.775-26.624-50.442-29.527-80.011l-3.832-39.029c-.404-4.122 2.609-7.792 6.732-8.196 4.123-.407 7.793 2.607 8.197 6.732l3.832 39.029c2.644 26.936 11.9 52.077 26.767 72.705 11.902 16.512 14.458 37.626 6.837 56.476-9.245 22.866-31.331 36.77-54.601 36.772z" fill="#00c140"/><path d="m486.725 284.21c-22.86-4.19-60.331-2.22-72.601 26.42h-316.245c-6.74-15.72-21.06-23.4-36.391-26.451l-6.02-4.069-8.88 2.46c-7.66-.2-15.03.489-21.31 1.64-9.8 1.79-17.75-5.99-17.75-14.76 0-2.46.62-5 2.01-7.431 18.66-32.65 59.791-45.24 93.181-27.95 4.27 2.21 8.07 4.569 11.29 6.779 7.5 5.15 11.88 9.53 11.89 9.54 9.35-9.35 10.8-33.2 10.56-49.95-.14-9.58 8.68-16.79 18.06-14.841 2.03.42 3.98.86 5.86 1.32l6.83 16.04 21.36-5.43c4.14 2.31 7.53 4.68 10.3 6.98 10.1 8.37 11.95 15.76 11.95 15.76 0-25.73 21.11-51.461 34.471-65.171 4.19-4.3 10.33-5.529 15.64-3.68 2.12.73 4.11 1.96 5.78 3.68 13.36 13.71 34.471 39.441 34.471 65.171 0 0 1.85-7.39 11.95-15.76 8.2-6.81 21.84-14.25 44.351-18.91 9.38-1.949 18.2 5.261 18.06 14.841-.24 16.75 1.21 40.6 10.56 49.95 0 0 4.38-4.38 11.89-9.529 3.22-2.221 7.01-4.57 11.28-6.78 10.17-5.271 21.07-7.771 31.83-7.771 24.54 0 48.391 13 61.361 35.711 6.333 11.081-3.188 24.481-15.738 22.191z" fill="#29ce69"/><path d="m255.142 310.631h-157.263c-12.27-28.64-49.741-30.611-72.601-26.42-9.8 1.79-17.75-5.99-17.75-14.76 0-2.46.62-5 2.01-7.431 18.66-32.65 59.791-45.24 93.181-27.95 4.27 2.21 8.07 4.569 11.29 6.779 7.5 5.15 11.88 9.53 11.89 9.54 9.35-9.35 10.8-33.2 10.56-49.95-.14-9.58 8.68-16.79 18.06-14.841 22.51 4.66 36.15 12.101 44.351 18.91 10.1 8.37 11.95 15.76 11.95 15.76 0-25.73 21.11-51.461 34.471-65.171 4.19-4.3 10.33-5.529 15.64-3.68-15.409 23.181-51.55 90.602-5.789 159.214z" fill="#00c140"/><path d="m406.594 353.881c0 83.171-67.421 150.592-150.592 150.592-4.75 0-9.45-.22-14.08-.66-76.571-7.09-136.512-71.511-136.512-149.932l109.962-16.49 40.631-6.1z" fill="#fcf5af"/><path d="m241.921 503.813c-76.571-7.09-136.512-71.511-136.512-149.932l109.962-16.49c-29.76 31.091-53.741 87.112 26.55 166.422z" fill="#f8ea69"/><path d="m436.714 331.291c0 6.24-2.53 11.89-6.62 15.97-4.09 4.09-9.73 6.62-15.97 6.62h-316.245c-12.47 0-22.59-10.111-22.59-22.59 0-6.231 2.53-11.88 6.62-15.97 3.9-3.891 9.2-6.37 15.1-6.59h.01l67.571 10.65 89.291-10.67h160.243c12.47 0 22.59 10.11 22.59 22.58z" fill="#f8ea69"/><path d="m253.882 308.711s-32.131 15.31-51.731 45.171h-104.272c-12.47 0-22.59-10.111-22.59-22.59 0-6.231 2.53-11.88 6.62-15.97 4.09-4.08 9.73-6.61 15.97-6.61h156.003z" fill="#eedb00"/><path d="m316.233 220.61c-.03 2.23-.41 22.11-6.27 32.66-1.37 2.461-3.93 3.86-6.56 3.86-1.23 0-2.48-.31-3.64-.95-3.62-2.01-4.92-6.58-2.91-10.199 3.05-5.481 4.25-18.75 4.33-25.711 0 0 1.85-7.39 11.95-15.76 2.13 4.549 3.13 13.11 3.1 16.1z" fill="#00c140"/><path d="m212.241 256.18c-1.16.641-2.41.95-3.64.95-2.63 0-5.19-1.399-6.56-3.86-5.86-10.55-6.24-30.43-6.27-32.66-.03-2.99.97-11.551 3.1-16.101 10.1 8.37 11.95 15.76 11.95 15.76.08 6.961 1.28 20.231 4.33 25.711 2.01 3.62.71 8.19-2.91 10.2z" fill="#00a62c"/><path d="m125.9 250.39c-.49.5-12.29 12.16-24.51 17.281-.95.39-1.93.58-2.9.58-2.93 0-5.71-1.73-6.92-4.61-1.6-3.819.2-8.21 4.03-9.81 6.99-2.93 14.8-9.561 18.41-12.981 7.5 5.15 11.88 9.53 11.89 9.54z" fill="#00a62c"/><path d="m420.434 263.64c-1.21 2.88-3.99 4.61-6.92 4.61-.97 0-1.95-.19-2.9-.58-12.22-5.12-24.02-16.781-24.51-17.281 0 0 4.38-4.38 11.89-9.529 3.61 3.409 11.42 10.04 18.41 12.97 3.83 1.6 5.63 5.99 4.03 9.81z" fill="#00c140"/><path d="m376.474 22.586c0 4.16-1.69 7.93-4.41 10.651-2.72 2.72-6.49 4.41-10.65 4.41h-210.824c-8.32 0-15.06-6.74-15.06-15.061 0-4.16 1.69-7.93 4.41-10.65 2.72-2.721 6.49-4.41 10.65-4.41h210.823c8.32 0 15.061 6.74 15.061 15.06z" fill="#d97c41"/><path d="m258.972 37.647h-108.382c-8.32 0-15.06-6.74-15.06-15.061 0-4.16 1.69-7.93 4.41-10.65 2.72-2.721 6.49-4.41 10.65-4.41h107.682c-3.49 5.42-8.19 16.69.7 30.121z" fill="#af602d"/><g><g fill="#ffa1ac"><ellipse cx="177.624" cy="422.828" rx="28.92" ry="23.03"/><ellipse cx="334.38" cy="422.828" rx="28.92" ry="23.03"/></g><g><path d="m208.244 405.267c-4.142 0-7.5-3.357-7.5-7.5 0-3.454-2.811-6.265-6.265-6.265-3.455 0-6.265 2.811-6.265 6.265 0 4.143-3.358 7.5-7.5 7.5s-7.5-3.357-7.5-7.5c0-11.726 9.54-21.265 21.265-21.265s21.265 9.539 21.265 21.265c0 4.143-3.358 7.5-7.5 7.5z" fill="#495560"/></g><g><path d="m331.29 405.267c-4.142 0-7.5-3.357-7.5-7.5 0-3.454-2.811-6.265-6.265-6.265s-6.265 2.811-6.265 6.265c0 4.143-3.358 7.5-7.5 7.5s-7.5-3.357-7.5-7.5c0-11.726 9.54-21.265 21.265-21.265s21.265 9.539 21.265 21.265c.001 4.143-3.357 7.5-7.5 7.5z" fill="#495560"/></g><g><path d="m256.002 428.009c-7.764 0-15.147-3.362-20.256-9.225-2.721-3.123-2.396-7.861.727-10.582 3.123-2.722 7.86-2.396 10.582.727 2.259 2.593 5.521 4.08 8.947 4.08s6.688-1.487 8.947-4.08c2.721-3.123 7.459-3.448 10.582-.727s3.448 7.459.727 10.582c-5.11 5.862-12.493 9.225-20.256 9.225z" fill="#495560"/></g></g></g></svg>