<svg id="Capa_1" enable-background="new 0 0 512 512" height="512" viewBox="0 0 512 512" width="512" xmlns="http://www.w3.org/2000/svg"><g><path d="m431.685 231.696-175.688 175.687-175.687-175.687c-27.684-27.684-41.521-63.961-41.521-100.238 0-36.288 13.837-72.565 41.521-100.249 32.176-32.176 79.807-39.471 119-21.883 11.498 5.141 22.265 12.446 31.703 21.883l6.367 6.378-70.617 47.94-45.467 30.858 134.702 244.151 12.652-24.171 112.015-213.933-106.05-84.846 6.367-6.378c20.802-20.812 48.085-31.208 75.347-31.208 27.282 0 54.544 10.396 75.357 31.208 55.368 55.369 55.368 145.129-.001 200.488z" fill="#ffb3c2"/><path d="m251.639 403.025-171.329-171.329c-27.684-27.684-41.521-63.961-41.521-100.238 0-36.288 13.837-72.565 41.521-100.249 32.176-32.176 79.807-39.471 119-21.883-12.106 18.123-25.809 44.179-32.547 76.201l-45.467 30.858 134.702 244.151 12.652-24.171c16.639 32.484 6.758 53.441-17.011 66.66z" fill="#ff899f"/><path d="m272.544 344.957c-5.893 5.667-11.447 10.88-16.547 15.578-21.42-19.72-50.938-48.569-78.684-81.26l-.01-.021-48.651-81.497-3.503-127.675 62.436-41.192c22.636-.35 42.397 5.976 49.795 8.696h.01l7.676 7.686c6.038 6.038 15.826 6.038 21.863 0l7.676-7.686h.01c17.927-6.583 108.615-34.433 136.536 63.261 21.544 75.408-76.613 184.496-138.607 244.11z" fill="#29ce69"/><path d="m272.544 344.957c-5.893 5.667-11.447 10.88-16.547 15.578-58.83-54.174-178.748-177.12-155.154-259.688 16.403-57.409 54.483-71.462 86.741-71.957-29.57 55.369-52.638 153.237 50.959 266.375 17.578 19.195 28.499 35.639 34.001 49.692z" fill="#00c140"/><path d="m434.426 310.308-23.275 170.66h-310.307l-23.275-170.66z" fill="#fcf5af"/><path d="m202.576 480.968h-101.732l-23.275-170.66h125.471c-19.679 35.473-40.131 98.095-.464 170.66z" fill="#f8ea69"/><path d="m452.899 298.48-7.789 31.146c-1.721 6.883-7.902 11.704-15.001 11.704h-348.223c-7.099 0-13.281-4.822-15.001-11.704l-7.789-31.146c-2.432-9.757 4.945-19.205 15.001-19.205h53.792l38.647 10.458 58.109-10.458h213.253c10.056 0 17.433 9.448 15.001 19.205z" fill="#f8ea69"/><path d="m81.886 341.33c-7.099 0-13.281-4.822-15.001-11.704l-7.789-31.146c-2.432-9.757 4.945-19.205 15.001-19.205h150.548s-22.306 23.646-35.422 62.055z" fill="#eedb00"/><path d="m439.175 483.45-2.596 15.64c-1.247 7.449-7.696 12.91-15.249 12.91h-330.666c-7.552 0-14.002-5.46-15.249-12.91l-2.596-15.64c-1.576-9.417 5.687-17.999 15.238-17.999h335.88c9.551 0 16.815 8.583 15.238 17.999z" fill="#f8ea69"/><path d="m194.921 465.451c6.645 15.063 15.795 30.641 28.035 46.549h-132.292c-7.552 0-14.002-5.46-15.249-12.91l-2.596-15.64c-1.576-9.417 5.687-17.999 15.238-17.999z" fill="#eedb00"/><g><path d="m204.526 414.871c-.042 13.237-13.55 23.925-30.172 23.873s-30.064-10.825-30.022-24.062c.041-13.237 13.55-23.926 30.172-23.874 16.622.053 30.064 10.826 30.022 24.063z" fill="#ffa1ac"/><path d="m307.469 415.194c-.041 13.237 13.4 24.01 30.022 24.062s30.131-10.636 30.172-23.873c.042-13.237-13.4-24.01-30.022-24.062-16.622-.053-30.131 10.635-30.172 23.873z" fill="#ffa1ac"/><path d="m280.321 396.693c.047-14.997-10.813-16.44-24.214-16.482-13.402-.042-24.27 1.333-24.317 16.33-.047 14.996 10.779 27.187 24.181 27.229 13.401.042 24.303-12.081 24.35-27.077z" fill="#495560"/><g><path d="m206.377 396.522c-.009 0-.016 0-.025 0-4.268-.013-7.716-3.483-7.703-7.751.006-1.763-.676-3.422-1.918-4.672-1.242-1.251-2.897-1.942-4.659-1.947-.007 0-.015 0-.022 0-1.755 0-3.406.68-4.651 1.918-1.25 1.243-1.941 2.897-1.947 4.66-.013 4.259-3.471 7.703-7.727 7.703-.009 0-.016 0-.025 0-4.268-.013-7.716-3.483-7.703-7.751.019-5.89 2.33-11.421 6.508-15.573 4.161-4.135 9.679-6.41 15.542-6.41h.072c5.89.018 11.421 2.329 15.573 6.508s6.428 9.724 6.41 15.614c-.011 4.257-3.469 7.701-7.725 7.701z" fill="#495560"/></g><g><path d="m334.433 396.924c-.008 0-.016 0-.025 0-4.268-.013-7.716-3.483-7.703-7.751.012-3.638-2.939-6.608-6.578-6.62-.007 0-.014 0-.02 0-3.629 0-6.587 2.947-6.598 6.578-.014 4.259-3.471 7.703-7.727 7.703-.009 0-.017 0-.025 0-4.268-.014-7.716-3.484-7.703-7.751.039-12.136 9.925-21.985 22.053-21.985h.068c12.16.038 22.022 9.963 21.985 22.122-.013 4.26-3.471 7.704-7.727 7.704z" fill="#495560"/></g></g></g></svg>