<svg id="Capa_1" enable-background="new 0 0 512 512" height="512" viewBox="0 0 512 512" width="512" xmlns="http://www.w3.org/2000/svg"><g><path d="m395.637 106.481c0-18.017-21.143-27.768-34.809-16.026-39.808 34.203-99.542 103.25-99.542 209.632v75.572h67.175s-32.399-145.795 61.905-254.418c3.367-3.878 5.27-8.812 5.27-13.948v-.812z" fill="#29ce69"/><path d="m426.667 184.057c0-18.017-21.143-27.768-34.809-16.026-39.808 34.203-99.542 103.25-99.542 209.632v49.005h67.175s-32.399-119.227 61.905-227.85c3.367-3.878 5.27-8.812 5.27-13.948v-.813z" fill="#80e0b7"/><path d="m250.715 300.087v75.573h-67.176s32.403-145.799-61.901-254.424c-3.369-3.874-5.275-8.809-5.275-13.94v-.814c0-18.02 21.142-27.766 34.814-16.032 21.833 18.762 49.671 48.023 70.35 88.174 17.02 33.032 29.188 73.441 29.188 121.463z" fill="#29ce69"/><path d="m242.081 375.66h-58.542s32.403-145.799-61.901-254.424c-3.369-3.874-5.275-8.809-5.275-13.94v-.814c0-18.02 21.142-27.766 34.814-16.032 21.833 18.762 49.671 48.023 70.35 88.174-14.115 33.639-21.358 85.495 13.497 152.238 11.94 22.873 13.104 36.998 7.057 44.798z" fill="#00c140"/><path d="m85.333 184.057c0-18.017 21.143-27.768 34.809-16.026 39.808 34.203 99.542 103.25 99.542 209.632v49.005h-67.175s32.399-119.227-61.905-227.85c-3.367-3.878-5.27-8.812-5.27-13.948v-.813z" fill="#36d49b"/><path d="m240.485 139.636h31.03v186.182h-31.03z" fill="#80e0b7"/><path d="m380.121 325.814-26.726 160.356c-2.483 14.909-15.383 25.83-30.487 25.83h-133.816c-15.104 0-28.004-10.921-30.487-25.83l-26.726-160.357h248.242z" fill="#fcf5af"/><path d="m229.336 512h-40.244c-15.104 0-28.004-10.921-30.487-25.83l-26.726-160.357h82.96c-18.587 31.322-49.465 105.999 14.497 186.187z" fill="#f8ea69"/><path d="m406.353 329.502-11.663 46.673c-1.721 6.882-7.902 11.704-15.001 11.704h-247.377c-7.099 0-13.281-4.822-15.001-11.704l-11.663-46.673c-2.441-9.747 4.935-19.194 14.991-19.194h29.014l33.886 7.398 41.851-7.398h165.972c10.055 0 17.432 9.447 14.991 19.194z" fill="#f8ea69"/><path d="m225.39 310.308s-26.077 31.187-32.918 77.572h-60.159c-7.099 0-13.281-4.822-15.001-11.704l-11.663-46.673c-2.441-9.747 4.935-19.194 14.991-19.194h104.75z" fill="#eedb00"/><path d="m332.613 134.754c2.906 13.291-.876 27.169-10.117 37.153-2.514 2.72-4.657 5.759-6.357 9.026-1.7 3.255-2.967 6.738-3.761 10.365l-2.411 11.045c-2.194 10.004-11.055 17.134-21.296 17.134h-.69c-5.729 0-11.23 2.267-15.29 6.264l-58.192-27.2-32.382-77.479c.464-4.409.216-8.871-.731-13.229l-1.999-9.139c-2.906-13.291.876-27.169 10.117-37.153l3.668-3.966c2.638-2.854 4.471-6.357 5.296-10.149l3.565-16.32c2.194-10.004 11.055-17.134 21.296-17.134h.69c6.069 0 11.869-2.535 15.99-6.985 4.307-4.658 10.149-6.987 15.991-6.987s11.684 2.329 15.99 6.986c.227.247.463.495.711.731 4.059 3.997 9.551 6.254 15.28 6.254h.69c10.241 0 19.102 7.13 21.296 17.134l3.565 16.32c.825 3.792 2.658 7.295 5.296 10.149l3.668 3.966c9.242 9.984 13.023 23.862 10.117 37.153l-1.999 9.139c-1.277 5.862-1.277 11.92 0 17.783z" fill="#ffb3c2"/><path d="m272.691 225.74c-.237.237-.474.474-.701.721-4.307 4.657-10.149 6.985-15.99 6.985-5.842 0-11.684-2.328-15.99-6.985-2.061-2.226-4.544-3.967-7.263-5.162-2.73-1.195-5.698-1.824-8.727-1.824h-.69c-10.241 0-19.102-7.13-21.296-17.134l-2.411-11.045c-1.587-7.243-5.08-13.94-10.118-19.391-7.192-7.769-11.076-17.897-11.076-28.272 0-2.957.309-5.934.958-8.881l1.999-9.138c1.277-5.863 1.277-11.921 0-17.783l-1.999-9.139c-2.906-13.291.876-27.169 10.117-37.153l3.668-3.966c2.638-2.854 4.471-6.357 5.296-10.149l3.565-16.32c2.194-10.004 11.055-17.134 21.296-17.134h.69c6.069 0 11.869-2.535 15.99-6.985 4.307-4.656 10.149-6.985 15.991-6.985s11.684 2.329 15.99 6.986c.227.247.463.495.711.731-18.401 26.644-70.895 118.619-.01 218.023z" fill="#ff899f"/><g><g><path d="m191.57 452.978c-4.268 0-7.727-3.459-7.727-7.727v-12.364c0-4.268 3.459-7.727 7.727-7.727s7.727 3.459 7.727 7.727v12.364c0 4.268-3.459 7.727-7.727 7.727z" fill="#495560"/></g><g><path d="m320.252 452.978c-4.268 0-7.727-3.459-7.727-7.727v-12.364c0-4.268 3.459-7.727 7.727-7.727s7.727 3.459 7.727 7.727v12.364c.001 4.268-3.459 7.727-7.727 7.727z" fill="#495560"/></g><path d="m285.886 444.895c-4.268 0-7.727 3.459-7.727 7.727 0 3.951-3.215 7.166-7.166 7.166-3.952 0-7.167-3.215-7.167-7.166 0-4.268-3.459-7.727-7.727-7.727s-7.727 3.459-7.727 7.727c0 3.951-3.215 7.166-7.166 7.166-3.952 0-7.167-3.215-7.167-7.166 0-4.268-3.459-7.727-7.727-7.727s-7.727 3.459-7.727 7.727c0 12.473 10.148 22.62 22.621 22.62 5.7 0 10.911-2.124 14.894-5.616 3.982 3.492 9.193 5.616 14.894 5.616 12.473 0 22.62-10.147 22.62-22.62-.001-4.268-3.46-7.727-7.728-7.727z" fill="#495560"/></g></g></svg>