<svg id="Capa_1" enable-background="new 0 0 512 512" height="512" viewBox="0 0 512 512" width="512" xmlns="http://www.w3.org/2000/svg"><g><path d="m287.414 147.653-22.625-106.327-8.789-41.326c2.741 0 5.481.732 7.923 2.174 5.286 3.142 12.704 7.882 20.637 14.012 11.828 9.128 24.779 21.338 33.506 35.875 20.235 33.743 28.735 79.221-30.652 95.592z" fill="#ff899f"/><path d="m284.56 16.187c-5.656 5.728-12.93 14.146-19.771 25.139l-8.789-41.326c2.741 0 5.481.732 7.923 2.174 5.286 3.143 12.704 7.882 20.637 14.013z" fill="#ff5f7f"/><path d="m274.065 395.842s0-69.818-85.334-100.849c-48.255-17.547-69.222-45.017-78.333-65.576-3.051-6.885-13.093-5.862-14.644 1.507-12.743 60.533 16.044 201.566 178.31 195.556v-30.638z" fill="#00c140"/><path d="m237.935 395.842s0-69.818 85.334-100.849c48.255-17.547 69.222-45.017 78.333-65.576 3.051-6.885 13.093-5.862 14.644 1.507 12.743 60.533-16.044 201.566-178.31 195.556v-30.638z" fill="#29ce69"/><path d="m240.485 193.939h31.03v232.728h-31.03z" fill="#80e0b7"/><path d="m302.549 162.912-9.438 47.147c-1.432 7.14-4.811 13.476-9.52 18.484-3.41 3.616-7.511 6.563-12.075 8.613l-18.978-5.048-12.034 5.048c-10.88-4.873-19.153-14.785-21.616-27.097l-9.438-47.147z" fill="#29ce69"/><path d="m283.592 228.543c-6.965 7.408-16.835 11.941-27.592 11.941-18.041 0-33.578-12.734-37.112-30.425l-9.438-47.147h41.665c6.163 20.081 16.507 41.985 32.477 65.631z" fill="#00c140"/><path d="m224.586 147.653c-59.387-16.371-50.887-61.849-30.652-95.592 14.579-24.295 40.975-42.067 54.143-49.887 2.442-1.442 5.182-2.174 7.923-2.174z" fill="#ff5f7f"/><path d="m287.414 147.653c-8.892 2.452-19.298 4.255-31.414 5.265-2.7-.227-5.306-.484-7.83-.793-8.84-1.051-16.67-2.566-23.584-4.472-2.287-8.83-3.637-17.577-4.235-26.139v-.01l6.368-45.442 27.53-50.33 18.534 4.033c12.9 27.736 26.614 71.658 14.631 117.888z" fill="#ffb3c2"/><path d="m248.17 152.125c-8.84-1.051-16.67-2.566-23.584-4.472-19.967-77.015 31.414-147.653 31.414-147.653s8.212 11.293 16.784 29.766c-17.979 23.522-38.451 64.95-24.614 122.359z" fill="#ff899f"/><path d="m387.467 465.451-3.225 20.462c-2.37 15.022-15.32 26.087-30.528 26.087h-195.428c-15.207 0-28.158-11.065-30.528-26.087l-3.225-20.462 74.687-4.688 56.78-3.555z" fill="#f8ea69"/><path d="m225.585 512h-67.3c-15.207 0-28.158-11.065-30.528-26.087l-3.225-20.462 74.687-4.688c4.596 15.785 12.911 32.929 26.366 51.237z" fill="#eedb00"/><path d="m397.75 400.336-10.282 65.116h-186.785l-43.438-8.242-32.712 8.242-10.282-65.116c-2.102-13.311 4.585-25.716 15.434-31.806l38.255 5.647 48.033-9.572h151.249c18.988 0 33.495 16.969 30.528 35.731z" fill="#fcf5af"/><path d="m200.683 465.451h-76.15l-10.282-65.116c-2.967-18.762 11.54-35.731 30.528-35.731h71.194c-14.105 19.453-30.673 54.597-15.29 100.847z" fill="#f8ea69"/><path d="m475.136 132.92c-21.616 36.679-76.758 83.012-215.447 49.382-.546-.134-1.092-.236-1.638-.298l-18.339-5.997-24.861 13.817h-.01c-111.438 17.35-158.42-23.728-177.975-56.904-7.109-12.044 4.162-26.458 17.618-22.667 19.37 5.471 47.755 8.809 85.155 1.329 14.888-2.978 28.344-3.39 40.367-2.092h.01l27.21 17.062 38.327 12.539c2.751 2.524 4.956 4.822 6.625 6.666 2.05 2.277 5.594 2.277 7.645 0 11.519-12.776 49.032-46.879 112.54-34.175 37.4 7.48 65.785 4.142 85.155-1.329 13.455-3.791 24.727 10.623 17.618 22.667z" fill="#80e0b7"/><path d="m258.05 182.004c-1.906-.258-3.853-.155-5.739.298-138.689 33.63-193.831-12.703-215.447-49.382-7.109-12.044 4.162-26.458 17.618-22.667 19.37 5.471 47.755 8.809 85.155 1.329 54.328-10.87 89.637 12.518 105.915 27.509 2.133 13.353 6.121 27.675 12.498 42.913z" fill="#36d49b"/><g><g><path d="m191.659 425.546c-4.268 0-7.727-3.46-7.727-7.727v-12.364c0-4.268 3.46-7.727 7.727-7.727s7.727 3.46 7.727 7.727v12.364c0 4.267-3.46 7.727-7.727 7.727z" fill="#495560"/></g><g><path d="m320.341 425.546c-4.268 0-7.727-3.46-7.727-7.727v-12.364c0-4.268 3.459-7.727 7.727-7.727s7.727 3.46 7.727 7.727v12.364c0 4.267-3.459 7.727-7.727 7.727z" fill="#495560"/></g><g><path d="m256 432.906c-8.734 0-17.041-3.783-22.789-10.378-2.804-3.218-2.469-8.099.749-10.903 3.218-2.803 8.099-2.469 10.903.749 2.812 3.227 6.872 5.078 11.138 5.078s8.326-1.85 11.137-5.077c2.802-3.218 7.685-3.552 10.902-.749 3.218 2.804 3.554 7.685.75 10.902-5.749 6.595-14.055 10.378-22.79 10.378z" fill="#495560"/></g></g></g></svg>