<svg id="Capa_1" enable-background="new 0 0 512 512" height="512" viewBox="0 0 512 512" width="512" xmlns="http://www.w3.org/2000/svg"><g><path d="m473.208 349.481c-24.49 73.471-14.96 112.921-4.605 132.023 1.185 2.194 1.741 4.533 1.741 6.831 0 6.306-4.183 12.25-10.849 13.909-6.068 1.525-12.384-1.102-15.691-6.409-30.208-48.506-15.846-114.436-4.008-150.713 10.19-31.27 23.089-64.013 17.896-96.488-9.932-62.303-45.766-85.33-93.088-85.33-41.367 0-65.095 19.854-78.221 38.389-10.406 14.702-14.167 28.56-14.775 31.033l-11.952 8.242-11.416-8.242c.031-2.349.474-14.981 5.883-30.559.051-.154.113-.319.165-.474 9.798-27.777 35.442-64.631 102.556-69.422 108.606-7.756 155.155 100.848 116.364 217.21z" fill="#80e0b7"/><path d="m286.384 201.695c-10.406 14.702-14.167 28.56-14.775 31.033l-11.952 8.242-11.416-8.242c.031-2.349.474-14.981 5.883-30.559.051-.154.113-.319.165-.474z" fill="#36d49b"/><path d="m271.515 93.093h-31.03v-78.032c0-8.317 6.742-15.059 15.059-15.059h.913c8.317 0 15.059 6.742 15.059 15.059v78.032z" fill="#e4996d"/><path d="m262.759 124.731-6.759 10.468-42.953 66.496-39.585 61.272-26.066-16.845 28.704-44.427 60.592-93.799 19.308 12.467z" fill="#e4996d"/><path d="m176.1 201.695h36.947l-39.585 61.272-26.066-16.845z" fill="#d97c41"/><path d="m364.604 246.122-26.066 16.845-39.585-61.272-42.953-66.496-6.759-10.468 6.759-4.368 19.308-12.467 60.592 93.799z" fill="#e4996d"/><path d="m364.604 246.122-26.066 16.845-39.585-61.272h36.947z" fill="#d97c41"/><circle cx="256" cy="110.567" fill="#d97c41" r="31.03"/><path d="m377.905 392.888c-11.539 16.362-30.384 26.026-50.402 26.026h-143.006c-20.019 0-38.863-9.664-50.402-26.026-44.674-63.322 9.17-129.128 9.17-129.128h225.471s53.843 65.805 9.169 129.128z" fill="#deddf5"/><path d="m226.698 418.914h-42.201c-20.019 0-38.863-9.664-50.402-26.026-44.674-63.322 9.17-129.128 9.17-129.128h66.712c-18.268 33.567-31.775 89.07 16.721 155.154z" fill="#c7c4ea"/><path d="m262.975 232.728-13.312 7.212-12.333-7.212c-3.163-8.057-9.067-19.947-19.246-31.033-14.043-15.3-36.256-29.065-70.689-29.065-47.322 0-83.156 23.027-93.088 85.33-5.193 32.475 7.707 65.218 17.896 96.488 11.838 36.277 26.201 102.206-4.008 150.713-3.307 5.306-9.623 7.933-15.691 6.408-6.666-1.659-10.849-7.604-10.849-13.909 0-2.298.556-4.636 1.741-6.831 10.355-19.102 19.885-58.552-4.605-132.023-38.79-116.363 7.759-224.967 116.363-217.209 59.819 4.266 86.69 34.01 98.755 60.098.072.154.144.319.216.474 5.46 11.92 7.82 23.037 8.85 30.559z" fill="#36d49b"/><path d="m262.975 232.728-13.312 7.212-12.333-7.212c-3.163-8.057-9.067-19.947-19.246-31.033h35.824c.072.154.144.319.216.474 5.461 11.92 7.821 23.037 8.851 30.559z" fill="#00c780"/><path d="m403.395 256.002c0 6.429-2.607 12.25-6.821 16.464-4.204 4.204-10.025 6.81-16.454 6.81h-248.241c-12.858 0-23.275-10.416-23.275-23.274 0-6.429 2.607-12.25 6.821-16.464 4.204-4.204 10.025-6.81 16.454-6.81h24.171l11.282 7.212 25.665-7.212h187.124c12.858 0 23.274 10.416 23.274 23.274z" fill="#c7c4ea"/><path d="m232.396 232.728c-6.439 6.738-20.348 23.047-29.714 46.549h-70.802c-12.858 0-23.275-10.416-23.275-23.274 0-6.429 2.607-12.25 6.821-16.464 4.204-4.204 10.025-6.81 16.454-6.81h100.516z" fill="#b2aee4"/><path d="m106.039 356.075-18.02 20.514-3.41 1.082c-3.204 4.822-7.088 8.407-11.364 9.695-.968.299-1.947.464-2.947.495-.155.021-.319.021-.484.021-12.858 0-23.275-21.646-23.275-38.781 0-2.854.288-5.399.835-7.665l15.64-14.96.01-.01c2.143-.443 4.43-.649 6.79-.649 5.419 0 10.406 1.092 14.352 3.637 3.874 2.483 6.749 6.378 8.088 12.003z" fill="#fcf5af"/><path d="m70.298 387.86c-.155.021-.319.021-.484.021-12.858 0-23.275-21.646-23.275-38.781 0-17.144 10.416-23.285 23.275-23.285 5.419 0 10.406 1.092 14.352 3.637-6.645 13.137-15.424 35.298-13.868 58.408z" fill="#f8ea69"/><path d="m53.362 346.273c12.118 12.118 20.059 34.795 10.971 43.883s-31.765 1.147-43.883-10.971-9.089-23.824 0-32.913c9.088-9.087 20.794-12.117 32.912.001z" fill="#eedb00"/><path d="m23.273 372.369c17.138 0 38.788 10.42 38.788 23.273s-21.65 23.273-38.788 23.273-23.273-10.42-23.273-23.273 6.135-23.273 23.273-23.273z" fill="#f8ea69"/><path d="m20.449 412.098c12.118-12.118 34.795-20.059 43.883-10.971 9.089 9.089 1.147 31.765-10.971 43.883s-23.824 9.089-32.913 0-12.117-20.793.001-32.912z" fill="#eedb00"/><path d="m46.545 442.188c0-17.138 10.42-38.788 23.273-38.788s23.273 21.65 23.273 38.788-10.42 23.273-23.273 23.273-23.273-6.136-23.273-23.273z" fill="#f8ea69"/><path d="m119.186 445.011c-1.752 1.751-3.596 3.276-5.533 4.513-8.078 5.182-17.598 5.265-27.375-4.513-10.993-10.983-18.545-30.662-13.075-41.006.556-1.061 1.257-2.029 2.102-2.875 9.087-9.087 31.764-1.154 43.881 10.973 12.116 12.117 9.087 23.821 0 32.908z" fill="#f8ea69"/><path d="m113.653 449.524c-8.078 5.182-17.598 5.265-27.375-4.513-10.993-10.983-18.545-30.662-13.075-41.006 5.059 16.66 16.99 32.836 40.45 45.519z" fill="#eedb00"/><path d="m116.364 418.915c-17.138 0-38.788-10.42-38.788-23.273s21.65-23.273 38.788-23.273 23.273 10.42 23.273 23.273-6.136 23.273-23.273 23.273z" fill="#fcf5af"/><path d="m119.19 379.19c-12.116 12.116-34.793 20.06-43.891 10.962-.824-.824-1.504-1.751-2.05-2.782 11.23-3.369 19.844-22.687 19.844-38.276 0-2.844-.289-5.388-.835-7.645 9.942-6.12 19.349-2.761 26.932 4.822 9.088 9.088 12.117 20.792 0 32.919z" fill="#f8ea69"/><path d="m93.088 395.639c0 9.685-5.904 17.979-14.311 21.482l-22.193-5.677-3.163-26.922 17.268-12.137c12.457.453 22.399 10.705 22.399 23.254z" fill="#ffb3c2"/><path d="m78.778 417.121c-2.761 1.154-5.79 1.793-8.964 1.793-12.848 0-23.264-10.417-23.264-23.275 0-12.848 10.416-23.274 23.264-23.274.299 0 .587.011.876.021-1.618 14.475-.072 30.135 8.088 44.735z" fill="#ff899f"/><path d="m478.403 115.587-18.02 20.513-3.41 1.082c-3.204 4.822-7.088 8.407-11.364 9.695-.969.299-1.947.464-2.947.495-.155.021-.319.021-.484.021-12.858 0-23.275-21.646-23.275-38.781 0-17.144 10.416-23.285 23.275-23.285 5.419 0 10.406 1.092 14.352 3.637 3.874 2.483 6.749 6.378 8.088 12.003z" fill="#fcf5af"/><path d="m442.662 147.371c-.155.021-.319.021-.484.021-12.858 0-23.275-21.646-23.275-38.781 0-17.144 10.416-23.285 23.275-23.285 5.419 0 10.406 1.092 14.352 3.637-6.646 13.137-15.424 35.299-13.868 58.408z" fill="#f8ea69"/><path d="m425.726 105.785c12.118 12.118 20.059 34.795 10.971 43.883s-31.765 1.147-43.883-10.971-9.089-23.824 0-32.913 20.793-12.118 32.912.001z" fill="#eedb00"/><path d="m395.636 131.881c17.138 0 38.788 10.42 38.788 23.273s-21.65 23.273-38.788 23.273-23.273-10.42-23.273-23.273c.001-12.854 6.136-23.273 23.273-23.273z" fill="#f8ea69"/><path d="m392.813 171.61c12.118-12.118 34.795-20.059 43.883-10.971s1.147 31.765-10.971 43.883-23.824 9.089-32.913 0c-9.088-9.088-12.117-20.794.001-32.912z" fill="#eedb00"/><path d="m418.909 201.699c0-17.138 10.42-38.788 23.273-38.788s23.273 21.65 23.273 38.788-10.42 23.273-23.273 23.273-23.273-6.135-23.273-23.273z" fill="#f8ea69"/><path d="m491.55 204.523c-1.752 1.751-3.596 3.276-5.533 4.513-8.078 5.182-17.598 5.265-27.375-4.513-10.993-10.983-18.545-30.662-13.075-41.006.556-1.061 1.257-2.029 2.102-2.875 9.087-9.087 31.764-1.154 43.881 10.973 12.116 12.116 9.087 23.82 0 32.908z" fill="#f8ea69"/><path d="m486.017 209.035c-8.078 5.182-17.598 5.265-27.375-4.513-10.993-10.983-18.545-30.662-13.075-41.006 5.059 16.66 16.99 32.836 40.45 45.519z" fill="#eedb00"/><path d="m488.727 178.426c-17.138 0-38.788-10.42-38.788-23.273s21.65-23.273 38.788-23.273 23.273 10.42 23.273 23.273c0 12.854-6.135 23.273-23.273 23.273z" fill="#fcf5af"/><path d="m491.554 138.701c-12.116 12.116-34.793 20.06-43.891 10.962-.824-.824-1.504-1.751-2.05-2.782 11.23-3.369 19.844-22.687 19.844-38.276 0-2.844-.289-5.388-.835-7.645 9.942-6.12 19.349-2.761 26.932 4.821 9.087 9.09 12.116 20.794 0 32.92z" fill="#f8ea69"/><path d="m465.45 155.145c0 9.685-5.904 17.979-14.311 21.482l-21.369-5.522-.876-29.508 14.156-9.705c12.458.453 22.4 10.705 22.4 23.253z" fill="#ffb3c2"/><path d="m451.141 176.632c-2.761 1.154-5.79 1.793-8.964 1.793-12.848 0-23.264-10.417-23.264-23.275 0-12.848 10.416-23.274 23.264-23.274.299 0 .587.011.876.021-1.617 14.475-.072 30.136 8.088 44.735z" fill="#ff899f"/><g><g fill="#ffa1ac"><ellipse cx="174.033" cy="358.099" rx="30.244" ry="24.085"/><ellipse cx="337.967" cy="358.099" rx="30.244" ry="24.085"/></g><g><path d="m191.659 342.641c-4.268 0-7.727-3.459-7.727-7.727v-12.364c0-4.268 3.46-7.727 7.727-7.727s7.727 3.459 7.727 7.727v12.364c0 4.268-3.46 7.727-7.727 7.727z" fill="#495560"/></g><g><path d="m320.341 342.641c-4.268 0-7.727-3.459-7.727-7.727v-12.364c0-4.268 3.46-7.727 7.727-7.727s7.727 3.459 7.727 7.727v12.364c0 4.268-3.459 7.727-7.727 7.727z" fill="#495560"/></g><g><path d="m256 350.001c-8.734 0-17.041-3.783-22.789-10.378-2.804-3.218-2.469-8.099.749-10.903 3.218-2.803 8.099-2.468 10.903.749 2.812 3.228 6.872 5.078 11.138 5.078s8.325-1.85 11.138-5.078c2.804-3.218 7.685-3.552 10.903-.749 3.217 2.804 3.552 7.685.749 10.903-5.75 6.595-14.057 10.378-22.791 10.378z" fill="#495560"/></g></g></g></svg>