<svg id="Capa_1" enable-background="new 0 0 512 512" height="512" viewBox="0 0 512 512" width="512" xmlns="http://www.w3.org/2000/svg"><g><path d="m341.334 232.698c-4.268 0-7.727-3.459-7.727-7.727 0-50.488 15.805-79.148 29.063-94.301 14.905-17.035 30.2-21.552 30.844-21.736 4.102-1.172 8.38 1.204 9.553 5.307 1.168 4.087-1.184 8.346-5.257 9.538-.305.095-12.35 3.934-24.207 17.876-16.055 18.879-24.542 47.688-24.542 83.315 0 4.268-3.46 7.728-7.727 7.728z" fill="#80e0b7"/><path d="m256 186.152c-4.268 0-7.727-3.459-7.727-7.727v-100.85c0-4.268 3.46-7.727 7.727-7.727 4.268 0 7.727 3.459 7.727 7.727v100.849c0 4.269-3.459 7.728-7.727 7.728z" fill="#80e0b7"/><path d="m454.01 158.756c-10.668 13.421-30.183 15.65-43.595 4.988-1.86-1.479-3.505-3.127-4.929-4.905-5.184-6.47-12.856-10.434-21.077-11.508-5.402-.706-10.686-2.845-15.26-6.481s-7.85-8.302-9.756-13.405c-2.901-7.767-8.493-14.347-15.965-17.938-2.054-.987-4.03-2.217-5.89-3.696-13.413-10.662-15.642-30.176-4.974-43.597 5.123-6.444 12.288-10.307 19.836-11.397 5.439-.785 10.564-2.964 14.759-6.515 8.133-6.885 20.515-7.642 29.55-.46.047.037.094.075.14.112 6.434 5.194 14.557 7.902 22.773 6.97 5.912-.671 12.08.914 17.107 4.91s7.962 9.648 8.642 15.559c.945 8.215 5.415 15.518 11.927 20.615.047.037.094.074.141.111 9.041 7.187 11.086 19.416 6.22 28.886-2.513 4.89-3.483 10.376-3.021 15.854.642 7.601-1.506 15.453-6.628 21.897z" fill="#c7c4ea"/><path d="m170.666 232.698c-4.268 0-7.727-3.459-7.727-7.727 0-35.627-8.486-64.436-24.542-83.315-11.95-14.051-24.09-17.841-24.212-17.877-4.104-1.173-6.452-5.441-5.28-9.545 1.173-4.103 5.475-6.469 9.581-5.299.643.184 15.939 4.701 30.844 21.736 13.259 15.153 29.063 43.813 29.063 94.301.001 4.266-3.459 7.726-7.727 7.726z" fill="#36d49b"/><path d="m57.99 158.756c10.668 13.421 30.183 15.65 43.595 4.988 1.86-1.479 3.505-3.127 4.929-4.905 5.184-6.47 12.856-10.434 21.077-11.508 5.402-.706 10.686-2.845 15.26-6.481s7.85-8.302 9.756-13.405c2.901-7.767 8.493-14.347 15.965-17.938 2.054-.987 4.03-2.217 5.89-3.696 13.413-10.662 15.642-30.176 4.974-43.597-5.123-6.444-12.288-10.307-19.836-11.397-5.439-.785-10.564-2.964-14.759-6.515-8.133-6.885-20.515-7.642-29.55-.46-.047.037-.094.075-.14.112-6.434 5.194-14.557 7.902-22.774 6.97-5.912-.671-12.08.914-17.107 4.91s-7.962 9.648-8.642 15.559c-.945 8.215-5.415 15.518-11.927 20.615-.047.037-.094.074-.141.111-9.041 7.187-11.086 19.416-6.22 28.886 2.513 4.89 3.483 10.376 3.021 15.854-.641 7.601 1.507 15.453 6.629 21.897z" fill="#b2aee4"/><path d="m333.572 69.814c0 17.144-13.888 31.033-31.022 31.033-2.38 0-4.688-.268-6.913-.773-8.078-1.834-16.557-.165-23.656 4.111-3.802 2.287-8.139 3.781-12.776 4.255l-7.696-3.276-3.235 2.473c-2.947-.752-5.718-1.927-8.253-3.452-7.099-4.276-15.578-5.945-23.656-4.111-2.226.505-4.533.773-6.913.773-9.819 0-18.566-4.554-24.243-11.673l-5.77-26.963-.051-.041c1.308-5.183 3.925-9.85 7.48-13.621 3.771-3.997 6.419-8.891 7.501-14.28 2.081-10.458 11.302-18.752 22.842-18.752h.175c8.273.062 16.32-2.875 22.172-8.716 4.202-4.205 10.023-6.801 16.442-6.801.536 0 1.061.021 1.587.062 5.79.381 11.004 2.885 14.857 6.738 5.852 5.842 13.899 8.778 22.172 8.716h.175c11.55 0 20.761 8.304 22.842 18.741 1.082 5.388 3.73 10.293 7.501 14.29 5.233 5.555 8.438 13.034 8.438 21.267z" fill="#deddf5"/><path d="m259.204 108.44c-1.051.114-2.122.165-3.204.165-5.842 0-11.313-1.617-15.98-4.42-7.099-4.276-15.578-5.945-23.656-4.111-2.226.505-4.533.773-6.913.773-17.134 0-31.022-13.889-31.022-31.033 0-8.232 3.204-15.712 8.438-21.266 3.771-3.997 6.419-8.891 7.501-14.28 2.081-10.458 11.302-18.752 22.842-18.752h.175c8.273.062 16.32-2.875 22.172-8.716 4.203-4.204 10.024-6.8 16.443-6.8.536 0 1.061.021 1.587.062-12.23 17.412-35.412 61.551 1.617 108.378z" fill="#c7c4ea"/><path d="m255.118 239.324c-.135 5.811 2.779 11.307 7.885 14.084 10.293 5.598 17.623 14.808 19.341 26.022 2.119 13.829-4.815 27.299-16.964 36.066-9.094 6.563-17.302 14.272-23.94 23.312l-4.366 5.946c-6.638 9.04-11.536 19.179-15.075 29.821-4.727 14.216-15.504 24.865-29.333 26.983-11.214 1.718-22.196-2.518-30.619-10.663-4.178-4.04-10.295-5.176-15.799-3.307-11.75 3.99-24.178 2.882-33.796-4.18-9.036-6.635-13.801-17.214-14.108-28.758-.163-6.12-3.944-11.477-9.567-13.9-12.253-5.279-21.196-15.31-23.12-27.864-1.593-10.364 1.899-20.522 8.858-28.649 4.66-5.442 4.749-13.405.58-19.233-11.452-16.009-13.929-34.573-4.664-47.191s27.719-15.813 46.422-9.678c6.808 2.233 14.379-.236 18.177-6.312 5.671-9.072 14.317-15.446 24.683-17.029 12.554-1.923 24.803 3.607 33.508 13.717 3.995 4.64 10.238 6.644 16.126 4.966 11.106-3.163 22.626-1.784 31.662 4.851 9.621 7.064 14.398 18.59 14.109 30.996z" fill="#00c780"/><path d="m256.882 239.324c.135 5.811-2.779 11.307-7.885 14.084-10.293 5.598-17.623 14.808-19.341 26.022-2.119 13.829 4.815 27.299 16.964 36.066 9.094 6.563 17.302 14.272 23.94 23.312l4.366 5.946c6.638 9.04 11.536 19.179 15.075 29.821 4.728 14.216 15.504 24.865 29.333 26.983 11.214 1.718 22.196-2.518 30.619-10.663 4.178-4.04 10.295-5.176 15.799-3.307 11.75 3.99 24.178 2.882 33.796-4.18 9.036-6.635 13.801-17.214 14.108-28.758.163-6.12 3.944-11.477 9.567-13.9 12.253-5.279 21.196-15.31 23.12-27.864 1.593-10.364-1.899-20.522-8.858-28.649-4.66-5.442-4.749-13.405-.58-19.233 11.452-16.009 13.929-34.573 4.664-47.191s-27.719-15.813-46.422-9.678c-6.808 2.233-14.379-.236-18.177-6.312-5.671-9.072-14.317-15.446-24.683-17.029-12.554-1.923-24.803 3.607-33.508 13.717-3.995 4.64-10.238 6.644-16.126 4.966-11.106-3.163-22.626-1.784-31.662 4.851-9.621 7.064-14.398 18.59-14.109 30.996z" fill="#36d49b"/><path d="m411.154 372.363-18.968 113.807c-2.483 14.909-15.382 25.83-30.487 25.83h-211.398c-15.104 0-28.004-10.921-30.487-25.83l-18.968-113.807z" fill="#ffb3c2"/><path d="m229.398 512h-79.097c-15.104 0-28.004-10.921-30.487-25.83l-18.968-113.807h117.342c-16.331 28.89-28.086 76.912 11.21 139.637z" fill="#ff899f"/><path d="m364.604 279.275c0 11.942-6.46 22.605-16.629 29.724-4.77 3.328-7.47 8.933-6.687 14.682 1.576 11.612-1.504 22.976-9.53 30.992-9.891 9.901-24.851 12.281-39.11 7.675-10.674-3.441-21.75-5.502-32.959-5.502h-7.377c-11.21 0-22.286 2.061-32.959 5.502-14.259 4.606-29.219 2.226-39.11-7.675-3.812-3.802-6.501-8.366-8.108-13.343h.01l15.053-148.622v-.01c5.44-2.277 11.488-3.153 17.68-2.689 7.15.535 13.621-4.111 15.846-10.921 6.13-18.7 19.627-31.692 35.278-31.692 7.315 0 14.156 2.833 19.988 7.758 6.666 5.625 12.024 13.971 15.29 23.934 2.225 6.81 8.696 11.457 15.846 10.921 10.664-.804 20.926 2.39 28.333 9.808 8.984 8.984 11.776 22.131 8.778 35.134-1.381 5.966.701 12.179 5.543 15.939 9.117 7.078 14.824 17.175 14.824 28.385z" fill="#80e0b7"/><path d="m252.311 356.846c-11.21 0-22.286 2.061-32.959 5.502-14.259 4.606-29.219 2.226-39.11-7.675-8.026-8.016-11.107-19.38-9.53-30.992.783-5.749-1.916-11.354-6.687-14.682-10.169-7.12-16.629-17.783-16.629-29.724 0-11.21 5.708-21.306 14.826-28.385 4.842-3.761 6.924-9.974 5.543-15.939-2.998-13.002-.206-26.149 8.778-35.134 7.408-7.418 17.67-10.612 28.333-9.808 7.15.535 13.621-4.111 15.846-10.921 6.13-18.7 19.627-31.692 35.278-31.692 7.315 0 14.156 2.833 19.988 7.758-27.581 22.1-93.83 90.955-23.677 201.692z" fill="#36d49b"/><path d="m312.43 286.703c-.659.186-48.703 14.486-48.703 46.869v38.791c0 1.453-.402 2.803-1.113 3.967-1.339 2.256-3.802 3.761-6.615 3.761-4.265 0-7.727-3.462-7.727-7.727v-38.791c0-15.3-10.715-26.551-22.09-34.196-12.766-8.572-26.366-12.601-26.623-12.673-4.09-1.185-6.46-5.46-5.285-9.561 1.174-4.101 5.44-6.47 9.541-5.296.865.248 8.675 2.535 18.381 7.377 8.356 4.152 18.113 10.19 26.077 18.422v-10.612c0-22.945-15.795-36.514-25.85-42.83-4.389-2.761-7.676-4.142-8.098-4.306-3.946-1.607-5.862-6.11-4.265-10.056s6.069-5.862 10.025-4.286c.371.154 2.535 1.04 5.708 2.761 5.698 3.07 14.682 8.819 22.481 17.783v-36.648c0-4.265 3.462-7.727 7.727-7.727s7.727 3.462 7.727 7.727v36.648c12.127-13.94 27.138-20.122 28.189-20.544 3.967-1.587 8.459.34 10.045 4.306 1.587 3.956-.34 8.449-4.286 10.035-1.453.587-33.949 14.229-33.949 47.136v10.612c17.206-17.793 42.84-25.346 44.458-25.799 4.101-1.174 8.376 1.195 9.551 5.306 1.164 4.101-1.206 8.377-5.306 9.551z" fill="#36d49b"/><path d="m210.059 229.841c1.597-3.946 6.069-5.862 10.025-4.286.371.154 2.535 1.04 5.708 2.761-1.422 5.069-2.565 10.365-3.369 15.887-4.389-2.761-7.676-4.142-8.098-4.306-3.947-1.608-5.863-6.11-4.266-10.056z" fill="#00c780"/><path d="m222.196 279.223c.824 6.491 2.122 13.208 3.987 20.153-12.766-8.572-26.366-12.601-26.623-12.673-4.09-1.185-6.46-5.46-5.285-9.561 1.174-4.101 5.44-6.47 9.541-5.296.864.248 8.674 2.535 18.38 7.377z" fill="#00c780"/><path d="m434.428 364.605c0 6.429-2.607 12.25-6.821 16.454-4.214 4.214-10.035 6.821-16.454 6.821h-310.307c-12.848 0-23.275-10.416-23.275-23.274 0-6.419 2.607-12.24 6.821-16.454 2.267-2.266 4.987-4.059 8.016-5.234l72.709 7.934 78.097-9.52h167.94c12.848-.002 23.274 10.425 23.274 23.273z" fill="#ff899f"/><path d="m243.214 341.33s-20.678 16.454-32.403 46.549h-109.965c-12.848 0-23.275-10.416-23.275-23.274 0-6.419 2.607-12.24 6.821-16.454s10.035-6.821 16.454-6.821z" fill="#ff5f7f"/><g><g><ellipse cx="169.612" cy="463.344" fill="#fff" rx="31.875" ry="25.384"/><ellipse cx="342.388" cy="463.344" fill="#fff" rx="31.875" ry="25.384"/><ellipse cx="256" cy="443.841" fill="#495560" rx="16.92" ry="18.934"/></g><g><path d="m206.184 440.24c-4.268 0-7.727-3.459-7.727-7.727 0-3.56-2.896-6.456-6.455-6.456s-6.455 2.896-6.455 6.456c0 4.268-3.46 7.727-7.727 7.727-4.268 0-7.727-3.459-7.727-7.727 0-12.081 9.828-21.91 21.909-21.91s21.91 9.829 21.91 21.91c-.001 4.268-3.46 7.727-7.728 7.727z" fill="#495560"/></g><g><path d="m332.958 440.24c-4.268 0-7.727-3.459-7.727-7.727 0-3.56-2.896-6.456-6.455-6.456s-6.454 2.896-6.454 6.456c0 4.268-3.46 7.727-7.727 7.727s-7.727-3.459-7.727-7.727c0-12.081 9.828-21.91 21.909-21.91s21.91 9.829 21.91 21.91c-.002 4.268-3.461 7.727-7.729 7.727z" fill="#495560"/></g></g></g></svg>