<svg id="Capa_1" enable-background="new 0 0 512 512" height="512" viewBox="0 0 512 512" width="512" xmlns="http://www.w3.org/2000/svg"><g><path d="m133.029 215.098c6.526 3.585 13.237 7.617 20.074 12.136 10.633-5.038 18.238-27.296 17.607-53.785-.725-29.98-11.725-54.033-24.575-53.725s-22.68 24.865-21.964 54.85c.387 16.214 3.785 30.692 8.858 40.524z" fill="#80e0b7"/><path d="m143.596 282.582c-3.019 1.123-6.171 2.143-9.427 3.06-28.858 8.109-55.09 4.678-58.572-7.707-2.4-8.541 6.676-19.112 22.038-27.519 6.872-3.75 15.011-7.078 23.934-9.592 19.431-5.471 37.668-5.698 48.578-1.484 3.07 2.339 6.161 4.78 9.262 7.325.299.598.546 1.205.732 1.855 3.09 10.973-12.766 25.294-36.545 34.062z" fill="#80e0b7"/><path d="m143.596 282.582c-3.019 1.123-6.171 2.143-9.427 3.06-28.858 8.109-55.09 4.678-58.572-7.707-2.4-8.541 6.676-19.112 22.038-27.519 10.951 11.138 25.87 22.048 45.961 32.166z" fill="#36d49b"/><path d="m255.468 341.303c-2.54 0-5.027-1.251-6.504-3.545-7.959-12.36-16.484-24.195-25.338-35.175-2.345-2.917-4.818-5.893-7.36-8.855-3.892-4.54-7.945-9.033-12.049-13.357-4.269-4.495-8.633-8.85-12.966-12.94-5.433-5.141-11.069-10.12-16.756-14.804-2.888-2.374-5.844-4.712-9.033-7.145-5.449-4.151-11.039-8.122-16.613-11.798-6.422-4.245-12.994-8.219-19.539-11.814-49.451-27.212-88.283-28.713-88.669-28.725-4.26-.132-7.616-3.689-7.492-7.949.123-4.189 3.55-7.502 7.713-7.502.071 0 .143.001.215.003 1.718.047 42.713 1.486 95.678 30.631 6.908 3.795 13.844 7.988 20.609 12.46 5.859 3.863 11.738 8.038 17.468 12.404 3.344 2.551 6.444 5.004 9.483 7.501 5.965 4.913 11.869 10.128 17.552 15.505 4.531 4.276 9.096 8.831 13.56 13.533 4.284 4.514 8.512 9.202 12.571 13.936 2.646 3.084 5.227 6.188 7.667 9.225 9.19 11.396 18.039 23.68 26.294 36.5 2.31 3.588 1.275 8.37-2.313 10.68-1.295.833-2.745 1.231-4.178 1.231z" fill="#36d49b"/><path d="m105.588 201.683c-2.102 8.294-14.373 12.889-30.919 12.868-8.315-.01-17.711-1.195-27.437-3.658-29.065-7.377-50.072-23.449-46.92-35.906 3.163-12.456 29.291-16.588 58.366-9.211 4.544 1.154 8.881 2.514 12.961 4.039 22.08 8.264 36.618 21.359 33.949 31.868z" fill="#80e0b7"/><g fill="#36d49b"><path d="m74.669 214.552c-8.315-.01-17.711-1.195-27.437-3.658-29.065-7.377-50.072-23.449-46.92-35.906 3.163-12.456 29.291-16.588 58.366-9.211 4.544 1.154 8.881 2.514 12.961 4.039-2.348 12.663-2.719 28.241 3.03 44.736z"/><path d="m202.323 108.543c3.554 6.543 7.022 13.562 10.333 21.059 11.669 1.507 30.096-13.112 43.878-35.742 15.591-25.618 19.332-51.8 8.354-58.485-10.979-6.685-32.52 8.667-48.121 34.284-8.436 13.85-13.4 27.869-14.444 38.884z"/><path d="m230.533 182.176c1.467 5.906 2.804 12.003 4.009 18.311 10.134 6.778 33.191-3.482 53.041-24.011 20.844-21.57 30.252-46.289 21.012-55.222-9.24-8.934-33.635 1.311-54.477 22.87-12.466 12.9-20.855 26.944-23.585 38.052z"/><path d="m224.288 160.162c-.072.67-.196 1.319-.391 1.957-2.112 6.903-11.323 10.829-24.078 11.395-8.521.381-18.628-.731-29.24-3.472l-.01-.01-24.284-20.286-19.627-2.504c-5.605-5.811-8.18-11.745-6.614-16.855 2.844-9.335 18.679-13.219 38.698-10.726 6.347.793 13.116 2.226 20.029 4.337 19.308 5.893 34.783 15.558 41.686 24.995 1.317 3.638 2.605 7.357 3.831 11.169z"/></g><path d="m199.819 173.515c-9.963.443-22.079-1.154-34.649-4.997-28.673-8.768-48.887-25.829-45.127-38.131 2.844-9.335 18.679-13.219 38.698-10.726 7.367 17.413 20.256 35.628 41.078 53.854z" fill="#00c780"/><path d="m382.201 179.439c-6.233 4.08-12.621 8.613-19.091 13.641-8.788-3.369-16.474-17.845-19.916-37.039-.876-4.822-1.473-9.932-1.751-15.248-1.566-29.951 7.573-54.77 20.4-55.44 12.034-.639 23.058 20.183 25.685 47.465.175 1.824.309 3.668.412 5.543.845 16.197-1.432 30.889-5.739 41.078z" fill="#36d49b"/><path d="m387.528 132.818c-14.362 3.853-29.312 11.138-44.333 23.223-.876-4.822-1.473-9.932-1.751-15.248-1.566-29.951 7.573-54.77 20.4-55.44 12.032-.639 23.056 20.183 25.684 47.465z" fill="#00c780"/><path d="m386.444 249.865c-29.406-5.902-51.193-20.904-48.665-33.503.136-.653.329-1.285.584-1.905 2.894-2.775 5.789-5.439 8.672-8.009 10.557-5.032 28.762-6.196 48.558-2.225 29.406 5.902 51.197 20.894 48.668 33.494-2.531 12.608-28.417 18.036-57.817 12.148z" fill="#36d49b"/><path d="m241.318 282.118c-4.264 0-7.722-3.454-7.727-7.719-.016-14.696-.794-29.261-2.311-43.288-.398-3.742-.858-7.476-1.409-11.428-.822-5.927-1.805-11.898-2.92-17.749-1.163-6.091-2.481-12.112-3.918-17.895-1.794-7.262-3.844-14.497-6.099-21.511-1.147-3.556-2.37-7.121-3.74-10.892-2.341-6.436-4.9-12.798-7.604-18.904-3.109-7.04-6.491-13.935-10.057-20.5-26.904-49.618-58.767-71.865-59.086-72.084-3.512-2.413-4.414-7.219-2.008-10.737 2.409-3.518 7.204-4.425 10.723-2.026 1.422.969 35.138 24.332 63.954 77.475 3.764 6.929 7.334 14.206 10.609 21.622 2.842 6.417 5.533 13.108 7.995 19.876 1.436 3.952 2.719 7.691 3.926 11.435 2.364 7.358 4.514 14.936 6.39 22.531 1.501 6.046 2.881 12.346 4.097 18.715 1.164 6.108 2.189 12.337 3.047 18.518.572 4.117 1.052 8.013 1.467 11.908 1.575 14.558 2.383 29.676 2.4 44.919.005 4.268-3.451 7.731-7.719 7.736-.004-.002-.007-.002-.01-.002z" fill="#80e0b7"/><path d="m269.162 314.651c-1.241 0-2.499-.3-3.667-.931-3.755-2.029-5.152-6.718-3.123-10.472 7.248-13.407 15.133-26.33 23.437-38.412 2.189-3.197 4.525-6.489 6.935-9.776 3.685-5.028 7.542-10.025 11.466-14.849 4.094-5.031 8.298-9.921 12.495-14.539 5.249-5.787 10.737-11.438 16.305-16.788 2.808-2.692 5.794-5.451 8.884-8.205 5.381-4.791 10.925-9.403 16.479-13.709 6.397-4.969 12.992-9.68 19.598-13.996 50.578-33.101 91.344-37.666 93.055-37.844 4.259-.454 8.044 2.641 8.486 6.885.442 4.241-2.636 8.038-6.875 8.485-.555.061-39.093 4.574-86.207 35.408-6.259 4.089-12.509 8.553-18.58 13.27-5.285 4.098-10.557 8.483-15.675 13.04-2.987 2.663-5.757 5.22-8.462 7.815-5.308 5.1-10.547 10.495-15.565 16.028-4.016 4.417-8.034 9.093-11.95 13.903-3.758 4.621-7.456 9.41-10.989 14.233-2.314 3.155-4.553 6.311-6.657 9.382-8.001 11.641-15.597 24.092-22.585 37.018-1.398 2.586-4.058 4.054-6.805 4.054z" fill="#80e0b7"/><path d="m186.487 82.427c-6.697 6.254-20.936 2.637-35.967-7.892-6.048-4.245-12.24-9.613-18.113-15.898-20.482-21.904-29.466-46.785-20.08-55.564 9.108-8.5 32.155 1.247 52.205 21.832.629.639 1.257 1.298 1.875 1.958 20.482 21.915 29.466 46.786 20.08 55.564z" fill="#36d49b"/><path d="m132.407 58.637c-20.482-21.904-29.466-46.785-20.08-55.564 9.108-8.5 32.155 1.247 52.205 21.832-6.697 12.776-13.105 29.909-14.012 49.629-6.048-4.244-12.241-9.612-18.113-15.897z" fill="#00c780"/><path d="m492.535 156.845c-7.006 4.523-15.568 8.644-25.119 11.859-28.415 9.561-54.781 7.449-58.881-4.729-3.266-9.674 8.479-22.769 27.673-32.536 4.997-2.555 10.489-4.873 16.361-6.852 28.426-9.571 54.791-7.449 58.891 4.729 2.722 8.087-5.057 18.586-18.925 27.529z" fill="#36d49b"/><path d="m492.535 156.845c-11.199-8.15-31.342-20.462-56.326-25.407 4.997-2.555 10.489-4.873 16.361-6.852 28.426-9.571 54.791-7.449 58.891 4.729 2.721 8.088-5.058 18.587-18.926 27.53z" fill="#00c780"/><path d="m286.58 325.813h-77.57s0-15.805 4.605-35.143l7.119-6.563-1.886-10.705v-.011c3.266-8.706 7.624-17.412 13.435-25.149.144-.196.289-.381.433-.567l8.881-1.432 5.78-9.386c5.492-.886 10.684 1.824 15.867 6.47 9.716 8.727 19.431 24.284 31.094 35.947 23.274 23.275-7.758 46.539-7.758 46.539z" fill="#e4996d"/><path d="m251.241 320.342c1.319 1.916 2.421 3.73 3.338 5.471h-45.57s0-46.538 23.274-77.571c11.601-15.485 21.286-13.589 30.96-4.915-13.29 12.549-36.317 41.717-12.002 77.015z" fill="#d97c41"/><path d="m341.329 496.481h-170.657c-73.913-56.851-60.324-130.383-47.785-165.599 4.389-12.333 16.042-20.575 29.137-20.575h58.108l16.65 4.966 18.7-4.966h114.496c13.095 0 24.748 8.242 29.137 20.575 12.538 35.215 26.128 108.747-47.786 165.599z" fill="#deddf5"/><path d="m234.2 496.481h-63.528c-73.913-56.851-60.324-130.383-47.785-165.599 4.389-12.333 16.042-20.575 29.137-20.575h93.458c-.001 0-97.899 81.002-11.282 186.174z" fill="#c7c4ea"/><path d="m385.261 489.474-10.426 15.64c-2.864 4.296-7.696 6.882-12.858 6.882h-211.952c-5.162 0-9.994-2.586-12.858-6.882l-10.426-15.64c-6.841-10.262.515-24.026 12.868-24.026h232.784c12.353 0 19.709 13.765 12.868 24.026z" fill="#c7c4ea"/><path d="m248.191 511.997h-98.166c-5.162 0-9.994-2.586-12.858-6.882l-10.426-15.64c-6.841-10.262.515-24.026 12.868-24.026h73.728c7.809 14.908 19.111 30.496 34.854 46.548z" fill="#b2aee4"/><g><g fill="#ffa1ac"><ellipse cx="173.548" cy="396.38" rx="24.228" ry="30.423" transform="matrix(.002 -1 1 .002 -223.211 569.057)"/><ellipse cx="338.453" cy="396.74" rx="24.228" ry="30.423" transform="matrix(.002 -1 1 .002 -59.028 734.324)"/></g><g><path d="m188.518 385.311c-4.268 0-7.727-3.46-7.727-7.727v-12.364c0-4.268 3.459-7.727 7.727-7.727s7.727 3.46 7.727 7.727v12.363c0 4.268-3.459 7.728-7.727 7.728z" fill="#495560"/></g><g><path d="m340.396 384.966c-4.268 0-7.727-3.46-7.727-7.727 0-3.639-2.961-6.6-6.6-6.6s-6.6 2.961-6.6 6.6c0 4.268-3.459 7.727-7.727 7.727s-7.727-3.46-7.727-7.727c0-12.161 9.893-22.054 22.055-22.054 12.161 0 22.055 9.893 22.055 22.054-.002 4.267-3.461 7.727-7.729 7.727z" fill="#495560"/></g><path d="m285.886 377.978c-4.268 0-7.727 3.46-7.727 7.727 0 3.952-3.215 7.166-7.166 7.166-3.952 0-7.167-3.215-7.167-7.166 0-4.268-3.459-7.727-7.727-7.727s-7.727 3.46-7.727 7.727c0 3.952-3.215 7.166-7.166 7.166-3.952 0-7.167-3.215-7.167-7.166 0-4.268-3.459-7.727-7.727-7.727s-7.727 3.46-7.727 7.727c0 12.473 10.148 22.621 22.621 22.621 5.7 0 10.911-2.124 14.893-5.616 3.983 3.492 9.193 5.616 14.894 5.616 12.473 0 22.62-10.147 22.62-22.621 0-4.267-3.459-7.727-7.727-7.727z" fill="#495560"/></g></g></svg>