<svg id="Capa_1" enable-background="new 0 0 512 512" height="512" viewBox="0 0 512 512" width="512" xmlns="http://www.w3.org/2000/svg"><g><path d="m418.355 232.004h31.033v148.117h-31.033z" fill="#29ce69"/><path d="m418.355 287.033h31.033v93.088h-31.033z" fill="#00c140"/><path d="m240.483 192.142h31.033v133.672h-31.033z" fill="#29ce69"/><path d="m240.483 287.033h31.033v38.781h-31.033z" fill="#00c140"/><path d="m62.612 204.423h31.033v175.698h-31.033z" fill="#29ce69"/><path d="m62.612 287.033h31.033v93.088h-31.033z" fill="#00c140"/><path d="m464.905 85.326c0 23.274-13.899 62.065-31.033 62.065-3.452 0-6.779-1.576-9.881-4.286-12.292-10.725-21.152-39.193-21.152-57.779 0-17.134 13.899-31.023 31.033-31.023 6.326 0 12.209 1.896 17.113 5.141 8.387 5.554 13.92 15.074 13.92 25.882z" fill="#c7c4ea"/><path d="m402.839 85.326c0-17.134 13.899-31.023 31.033-31.023 6.326 0 12.209 1.896 17.113 5.141-11.622 16.258-26.386 44.519-26.994 83.661-12.291-10.725-21.152-39.193-21.152-57.779z" fill="#b2aee4"/><path d="m502.913 127.084c-16.464 16.454-56.924 45.024-69.041 32.908-2.174 2.174-5.275 3.039-8.984 2.895-16.918-.659-46.57-22.316-60.056-35.803-12.116-12.127-12.116-31.774 0-43.891 10.499-10.499 26.644-11.9 38.657-4.204l7.913 21.853 15.692 13.693c4.235 11.21 6.779 22.44 6.779 29.941 0-15.516 10.89-47.013 25.15-61.282 12.127-12.116 31.764-12.116 43.891 0 12.115 12.115 12.115 31.763-.001 43.89z" fill="#deddf5"/><path d="m364.831 127.084c-12.116-12.127-12.116-31.774 0-43.891 12.116-12.116 31.764-12.116 43.881 0 7.377 7.377 13.847 19.339 18.381 31.342-2.916 14.136-4.09 30.281-2.205 48.352-16.918-.66-46.57-22.317-60.057-35.803z" fill="#c7c4ea"/><path d="m464.905 186.182c0 16.114-6.666 39.677-16.464 52.638-4.338 5.749-9.304 9.417-14.569 9.417-17.134 0-31.033-38.791-31.033-62.055 0-13.827 9.036-25.531 21.513-29.539 2.998-.969 6.202-1.494 9.52-1.494 17.134 0 31.033 13.889 31.033 31.033z" fill="#c7c4ea"/><path d="m424.352 156.643c1.597 23.903 8.531 51.371 24.089 82.177-4.338 5.749-9.304 9.417-14.569 9.417-17.134 0-31.033-38.791-31.033-62.055 0-13.827 9.036-25.531 21.513-29.539z" fill="#b2aee4"/><path d="m502.913 227.93c-9.695 9.695-27.725 23.594-43.386 30.909-3.544 1.648-6.965 2.967-10.138 3.822l-15.146-7.387-15.887 7.377c-17.206-4.616-41.635-22.831-53.524-34.721-12.116-12.116-12.116-31.764 0-43.881 10.499-10.509 26.644-11.91 38.657-4.204l28.169 69.638h4.471l3.245-30.559c4.544-13.126 11.55-26.778 19.648-34.876 12.127-12.127 31.764-12.127 43.891 0 12.116 12.118 12.116 31.766 0 43.882z" fill="#deddf5"/><path d="m459.527 258.839c-10.921 5.09-20.678 6.975-25.655 1.999-12.116 12.116-52.587-16.454-69.041-32.908-12.116-12.116-12.116-31.764 0-43.881 12.116-12.127 31.764-12.127 43.881 0 14.27 14.259 25.16 45.756 25.16 61.272 0-6.708 2.03-16.403 5.502-26.397 5.151 12.674 11.776 25.985 20.153 39.915z" fill="#c7c4ea"/><path d="m286.48 31.023c0 23.274-13.899 62.065-31.033 62.065-3.451 0-6.779-1.576-9.881-4.286-12.292-10.725-21.152-39.193-21.152-57.779.001-17.135 13.9-31.023 31.034-31.023 6.326 0 12.209 1.896 17.113 5.141 8.387 5.554 13.919 15.073 13.919 25.882z" fill="#c7c4ea"/><path d="m224.415 31.023c0-17.135 13.899-31.023 31.033-31.023 6.326 0 12.209 1.896 17.113 5.141-11.622 16.258-26.386 44.519-26.994 83.661-12.292-10.726-21.152-39.193-21.152-57.779z" fill="#b2aee4"/><path d="m324.488 72.781c-16.464 16.454-56.924 45.024-69.041 32.908-2.174 2.174-5.275 3.039-8.984 2.895-16.918-.659-46.57-22.316-60.056-35.803-12.116-12.127-12.116-31.774 0-43.891 10.499-10.499 26.644-11.9 38.657-4.204l7.913 21.853 15.692 13.693c4.235 11.21 6.779 22.44 6.779 29.941 0-15.516 10.89-47.013 25.15-61.282 12.127-12.116 31.764-12.116 43.891 0 12.116 12.115 12.116 31.763-.001 43.89z" fill="#deddf5"/><path d="m186.407 72.781c-12.116-12.127-12.116-31.774 0-43.891 12.116-12.116 31.764-12.116 43.881 0 7.377 7.377 13.847 19.339 18.381 31.342-2.916 14.136-4.09 30.281-2.205 48.352-16.918-.66-46.57-22.317-60.057-35.803z" fill="#c7c4ea"/><path d="m286.48 131.879c0 16.114-6.666 39.677-16.464 52.638-4.338 5.749-9.304 9.417-14.569 9.417-17.134 0-31.033-38.791-31.033-62.055 0-13.827 9.036-25.531 21.513-29.539 2.998-.969 6.202-1.494 9.52-1.494 17.135 0 31.033 13.889 31.033 31.033z" fill="#c7c4ea"/><path d="m245.928 102.34c1.597 23.903 8.531 51.371 24.089 82.177-4.338 5.749-9.304 9.417-14.569 9.417-17.134 0-31.033-38.791-31.033-62.055 0-13.827 9.036-25.531 21.513-29.539z" fill="#b2aee4"/><path d="m324.484 173.628c-9.695 9.695-27.725 23.594-43.386 30.909-3.544 1.648-6.408 2.813-9.582 3.668l-15.702-7.233-15.331 7.522-.556-.144c-17.206-4.616-41.635-22.832-53.524-34.721-12.116-12.116-12.116-31.764 0-43.881 10.499-10.509 26.644-11.91 38.657-4.204l28.169 69.638h4.472l3.245-30.559c4.544-13.126 11.55-26.778 19.648-34.876 12.127-12.127 31.764-12.127 43.891 0 12.115 12.116 12.115 31.764-.001 43.881z" fill="#deddf5"/><path d="m281.102 204.536c-10.921 5.09-20.678 6.975-25.655 1.999-12.116 12.116-52.587-16.454-69.041-32.908-12.116-12.116-12.116-31.764 0-43.881 12.116-12.127 31.764-12.127 43.881 0 14.27 14.26 25.16 45.756 25.16 61.272 0-6.708 2.03-16.403 5.502-26.397 5.152 12.674 11.777 25.985 20.153 39.915z" fill="#c7c4ea"/><path d="m109.161 85.331c0 23.274-13.899 62.065-31.033 62.065-3.451 0-6.779-1.576-9.881-4.286-12.292-10.725-21.152-39.193-21.152-57.779 0-17.134 13.899-31.023 31.033-31.023 6.326 0 12.209 1.896 17.113 5.141 8.387 5.554 13.92 15.073 13.92 25.882z" fill="#c7c4ea"/><path d="m47.095 85.331c0-17.134 13.899-31.023 31.033-31.023 6.326 0 12.209 1.896 17.113 5.141-11.622 16.258-26.386 44.519-26.994 83.661-12.291-10.726-21.152-39.193-21.152-57.779z" fill="#b2aee4"/><path d="m147.169 127.089c-16.464 16.454-56.924 45.024-69.041 32.908-2.174 2.174-5.275 3.039-8.984 2.895-16.918-.659-46.57-22.316-60.056-35.803-12.116-12.127-12.116-31.774 0-43.891 10.499-10.499 26.644-11.9 38.657-4.204l7.913 21.853 15.692 13.693c4.235 11.21 6.779 22.44 6.779 29.941 0-15.516 10.89-47.013 25.15-61.282 12.127-12.116 31.764-12.116 43.891 0 12.115 12.115 12.115 31.763-.001 43.89z" fill="#deddf5"/><path d="m9.087 127.089c-12.116-12.127-12.116-31.774 0-43.891 12.116-12.116 31.764-12.116 43.881 0 7.377 7.377 13.847 19.339 18.381 31.342-2.916 14.136-4.09 30.281-2.205 48.352-16.918-.66-46.57-22.317-60.057-35.803z" fill="#c7c4ea"/><path d="m109.161 186.187c0 16.114-6.666 39.677-16.464 52.638-4.338 5.749-9.304 9.417-14.569 9.417-17.134 0-31.033-38.791-31.033-62.055 0-13.827 9.036-25.531 21.513-29.539 2.998-.969 6.202-1.494 9.52-1.494 17.134 0 31.033 13.889 31.033 31.033z" fill="#c7c4ea"/><path d="m68.608 156.648c1.597 23.903 8.531 51.371 24.089 82.177-4.338 5.749-9.304 9.417-14.569 9.417-17.134 0-31.033-38.791-31.033-62.055 0-13.827 9.036-25.531 21.513-29.539z" fill="#b2aee4"/><path d="m147.169 227.935c-9.695 9.695-27.725 23.594-43.386 30.909-3.544 1.648-6.965 2.967-10.138 3.822v-.01l-15.145-7.377-15.887 7.377c-17.206-4.616-41.635-22.831-53.524-34.721-12.116-12.116-12.116-31.764 0-43.881 10.499-10.509 26.644-11.91 38.657-4.204l28.169 69.638h4.471l3.245-30.559c4.544-13.126 11.55-26.778 19.648-34.876 12.127-12.127 31.764-12.127 43.891 0 12.115 12.117 12.115 31.765-.001 43.882z" fill="#deddf5"/><path d="m103.783 258.844c-10.921 5.09-20.678 6.975-25.655 1.999-12.116 12.116-52.587-16.454-69.041-32.908-12.116-12.116-12.116-31.764 0-43.881 12.116-12.127 31.764-12.127 43.881 0 14.27 14.26 25.16 45.756 25.16 61.272 0-6.708 2.03-16.403 5.502-26.397 5.151 12.674 11.776 25.985 20.153 39.915z" fill="#c7c4ea"/><path d="m488.725 372.363-15.764 100.898c-3.493 22.357-21.626 38.739-42.871 38.739h-348.181c-21.245 0-39.378-16.382-42.871-38.739l-15.763-100.898z" fill="#ffb3c2"/><path d="m234.281 512h-152.372c-21.245 0-39.378-16.382-42.871-38.739l-15.763-100.898h171.205c-11.302 35.978-9.437 84.887 39.801 139.637z" fill="#ff899f"/><path d="m511.999 333.52v31.146c0 8.531-6.924 15.455-15.455 15.455h-481.089c-8.531 0-15.455-6.924-15.455-15.455v-31.146c0-8.541 6.924-15.455 15.455-15.455h47.157l13.785 6.305 17.247-6.305h402.9c8.532.001 15.455 6.914 15.455 15.455z" fill="#ff899f"/><path d="m225.904 318.066c-9.912 11.024-26.417 32.805-33.609 62.055h-176.84c-8.531 0-15.455-6.924-15.455-15.455v-31.146c0-8.541 6.924-15.455 15.455-15.455h210.449z" fill="#ff5f7f"/><g><g fill="#fff"><path d="m203.97 452.327c-.029 13.381-13.674 24.198-30.477 24.161-16.802-.037-30.4-10.914-30.371-24.294s13.674-24.198 30.477-24.161c16.803.036 30.4 10.913 30.371 24.294z"/><ellipse cx="338.453" cy="452.621" rx="24.228" ry="30.424" transform="matrix(.002 -1 1 .002 -114.908 790.082)"/></g><g><path d="m191.569 441.942c-4.268 0-7.727-3.46-7.727-7.727v-12.364c0-4.268 3.46-7.727 7.727-7.727 4.268 0 7.727 3.46 7.727 7.727v12.364c.001 4.267-3.459 7.727-7.727 7.727z" fill="#495560"/></g><g><path d="m320.252 441.942c-4.268 0-7.727-3.46-7.727-7.727v-12.364c0-4.268 3.46-7.727 7.727-7.727s7.727 3.46 7.727 7.727v12.364c0 4.267-3.46 7.727-7.727 7.727z" fill="#495560"/></g><path d="m285.886 433.859c-4.268 0-7.727 3.46-7.727 7.727 0 3.952-3.215 7.166-7.166 7.166-3.952 0-7.166-3.215-7.166-7.166 0-4.268-3.46-7.727-7.727-7.727-4.268 0-7.727 3.46-7.727 7.727 0 3.952-3.215 7.166-7.166 7.166-3.952 0-7.166-3.215-7.166-7.166 0-4.268-3.46-7.727-7.727-7.727-4.268 0-7.727 3.46-7.727 7.727 0 12.473 10.148 22.621 22.621 22.621 5.701 0 10.911-2.124 14.894-5.616 3.982 3.492 9.193 5.616 14.894 5.616 12.473 0 22.621-10.148 22.621-22.621-.004-4.268-3.464-7.727-7.731-7.727z" fill="#495560"/></g></g></svg>