<svg id="Capa_1" enable-background="new 0 0 512 512" height="512" viewBox="0 0 512 512" width="512" xmlns="http://www.w3.org/2000/svg"><g><path d="m387.879 372.364-18.968 113.807c-2.483 14.908-15.382 25.829-30.486 25.829h-164.848c-15.104 0-28.003-10.921-30.487-25.829l-18.968-113.807z" fill="#deddf5"/><path d="m237.919 512h-64.342c-15.104 0-28.003-10.921-30.487-25.829l-18.968-113.807h90.893c-16.68 32.907-24.551 82.382 22.904 139.636z" fill="#c7c4ea"/><path d="m410.69 352.778-7.614 31.156c-1.69 6.872-7.738 11.704-14.671 11.704h-182.415l-49.619-5.667-28.374 5.667h-4.399c-6.934 0-12.982-4.832-14.671-11.704l-7.614-31.156c-2.39-9.757 4.832-19.205 14.661-19.205h84.35l7.913-3.936 7.573 3.936h16.485l8.191-3.936 4.739 2.566 2.535 1.37h15.712l8.716-3.936 6.738 3.936h16.454l8.346-3.936 7.49 3.936h84.814c9.828 0 17.05 9.448 14.66 19.205z" fill="#ffb3c2"/><path d="m245.224 332.203c-7.954 7.356-30.188 30.229-39.234 63.435h-82.393c-6.934 0-12.982-4.832-14.671-11.704l-7.614-31.156c-2.39-9.757 4.832-19.205 14.661-19.205h84.35l7.913-3.936 7.573 3.936h16.485l8.191-3.936z" fill="#ff899f"/><g fill="#29ce69"><path d="m248.119 333.387v.186h-15.465c-2.596-105.575-58.294-148.538-58.861-148.961-3.41-2.566-4.111-7.408-1.545-10.818 2.565-3.41 7.398-4.111 10.818-1.545.649.495 16.196 12.312 31.95 38.234 14.321 23.574 31.681 64.023 33.103 122.904z"/><path d="m306.31 200.685c-1.391 1.03-25.943 20.73-27.025 132.888h-15.454v-.072c.505-52.679 6.048-92.83 16.474-119.35 8.263-21.007 17.103-26.283 18.793-27.128l6.903 13.827s.114-.041.309-.165z"/><path d="m124.328 228.791c-3.06-.536-6.068-1.154-9.015-1.844-88.42-20.832-126.191-112.601-108.882-161.788 5.811-16.537 1.164-33.227-5.048-45.9-4.678-9.561 3.194-20.513 13.754-19.142 20.648 2.679 48.991 7.923 72.029 17.927 12.621 5.481 31.672 16.547 48.836 32.526 39.254 36.545 68.608 98.713-11.674 178.221z"/></g><path d="m115.313 226.947c-88.42-20.832-126.191-112.601-108.882-161.788 5.811-16.537 1.164-33.227-5.048-45.9-4.678-9.561 3.194-20.513 13.754-19.142 20.648 2.679 48.991 7.923 72.029 17.927 12.621 5.481 31.672 16.547 48.836 32.526-19.658 31.836-50.382 99.239-20.689 176.377z" fill="#00c140"/><path d="m178.399 316.851c-7.119 6.192-14.568 11.776-22.162 16.722l-39.677 1.978-14.156 21.698v.01c-5.976 1.34-11.704 2.143-17.093 2.391-20.194.917-36.05 13.095-46.93 25.211-8.201 9.139-23.316 5.44-26.407-6.449-6.037-23.244-12.672-55.822-11.91-84.783.948-35.895 29.312-115.713 102.989-137.844 33.371-10.025 76.046-8.212 129.673 14.888 13.116 61.179-15.629 112.508-54.327 146.178z" fill="#80e0b7"/><path d="m178.399 316.851c-29.992 26.098-65.98 41.573-93.087 42.799-20.194.917-36.05 13.095-46.93 25.211-8.201 9.139-23.316 5.44-26.407-6.449-6.037-23.244-12.672-55.822-11.91-84.783.948-35.895 29.312-115.713 102.989-137.844-1.402 47.743 15.495 104.4 75.345 161.066z" fill="#36d49b"/><path d="m510.619 19.259c-5.1 10.406-9.149 23.512-7.222 37.019.422 2.947 1.133 5.914 2.174 8.881 17.886 50.825-23.037 147.116-117.897 163.632-2.71-2.678-5.286-5.347-7.738-7.985-102.463-109.923 4.389-185.165 44.901-202.763 23.036-10.003 51.38-15.247 72.027-17.926 10.561-1.371 18.432 9.581 13.755 19.142z" fill="#29ce69"/><path d="m510.619 19.259c-5.1 10.406-9.149 23.512-7.222 37.019-31.146 9.427-136.134 49.908-123.461 164.528-102.463-109.923 4.389-185.165 44.901-202.763 23.036-10.003 51.38-15.247 72.027-17.926 10.561-1.371 18.432 9.581 13.755 19.142z" fill="#00c140"/><path d="m511.937 276.021c0 28.972-5.873 61.54-11.91 84.783-3.091 11.89-18.206 15.589-26.407 6.45-10.88-12.117-26.736-24.295-46.93-25.212-.103 0-.216-.01-.319-.02-62.086-3.122-154.813-101.722-131.58-210.141 29.364-12.642 55.028-19.174 77.407-20.884l31.764 11.581 64.61 23.563c32.249 35.061 43.365 89.131 43.365 129.88z" fill="#80e0b7"/><path d="m426.371 342.022c-62.086-3.122-154.813-101.722-131.58-210.141 29.364-12.642 55.028-19.174 77.407-20.884l31.764 11.581c-31.568 43.602-42.448 112.632 22.409 219.444z" fill="#36d49b"/><path d="m363.654 143.727c-41.604 3.785-51.294-40.085-45.652-72.51 3.429-19.709-4.174-33.797-12.341-42.819-4.719-5.214-.503-13.52 6.496-12.839 30.398 2.957 80.875 21.727 79.146 114.082z" fill="#b2aee4"/><path d="m370.435 150.507c-3.785 41.604 40.085 51.294 72.51 45.652 19.709-3.429 33.797 4.174 42.819 12.341 5.214 4.719 13.52.503 12.839-6.496-2.957-30.398-14.904-81.391-107.258-79.662z" fill="#deddf5"/><path d="m363.173 151.828c-.443.638-45.024 65.867-51.958 181.745h-15.475c0-.144 0-.299.01-.453 7.14-120.844 52.823-187.381 54.771-190.152 2.442-3.493 7.264-4.348 10.756-1.896 3.493 2.442 4.348 7.264 1.896 10.756z" fill="#80e0b7"/><path d="m474.146 67.478c-3.421 27.89-22.368 60.489-84.279 79.735-.474.154-.948.299-1.422.443l-21.935-21.945c-5.79-13.518-4.75-25.088.453-34.618l89.461-35.03z" fill="#fcf5af"/><path d="m474.146 67.478c-28.622 13.25-66.022 37.73-84.279 79.735-.474.154-.948.299-1.422.443l-21.935-21.945c-16.464-38.399 22.265-61.169 54.853-65.826 19.802-2.823 30.847-14.414 36.905-24.964 3.503-6.099 12.703-4.657 14.218 2.205 1.887 8.55 3.051 19.07 1.66 30.352z" fill="#f8ea69"/><path d="m415.625 257.949c-9.613-2.236-21.08-6.388-31.733-14.074l-34.165-79.653c.041-9.056.824-18.957 2.473-29.796l32.32-9.973c2.122-.649 4.296-1.092 6.481-1.309l5.388 2.628 6.367-1.504c1.133.33 2.236.742 3.328 1.226 25.242 11.21 19.576 49.475 11.076 76.51-5.996 19.081-.319 34.041 6.584 44.056 3.997 5.8-1.257 13.486-8.119 11.889z" fill="#c7c4ea"/><path d="m383.892 243.875c-22.337-16.083-41.099-47.631-31.692-109.449l32.32-9.973c5.955-1.844 12.333-1.978 18.236-.185-19.853 28.312-30.939 67.103-18.864 119.607z" fill="#b2aee4"/><path d="m390.578 127.357c.811-5.294.593-10.729-.94-15.861-8.84-29.592-49.132-23.404-77.479-14.497-19.095 6-34.068.311-44.089-6.601-5.798-4-13.457 1.274-11.857 8.134 5.919 25.386 25.185 63.763 87.492 65.824 17.359.574 33.004-7.396 41.664-21.504 2.568-4.183 4.195-8.877 4.938-13.729z" fill="#c7c4ea"/><path d="m145.946 181.839c39.208 14.42 59.918-25.449 62.858-58.23 1.787-19.925 12.776-31.566 22.999-38.169 5.908-3.815 3.984-12.93-2.953-14.083-30.128-5.008-83.742.063-105.967 89.721z" fill="#deddf5"/><path d="m137.642 186.634c-7.108 41.167-51.991 39.176-81.853 25.338-18.151-8.412-33.726-4.713-44.554.842-6.257 3.21-13.19-3.012-10.722-9.597 10.721-28.598 35.454-74.763 124.217-49.199z" fill="#b2aee4"/><path d="m147.85 163.697-26.87 15.516c-6.594-4.111-12.549-8.242-17.917-12.384-2.813-2.174-5.471-4.348-7.975-6.522l-13.6-23.759 3.503-52.957 32.166 4.76c28.468 14.208 55.029 44.417 30.693 75.346z" fill="#fcf5af"/><path d="m103.063 166.83c-58.5-45.107-47.559-91.285-34.67-116.115 3.246-6.244 12.508-5.255 14.311 1.545 3.122 11.756 10.798 25.809 29.188 33.66 1.752.752 3.513 1.566 5.265 2.431-8.468 21.76-15.021 48.589-14.094 78.479z" fill="#f8ea69"/><path d="m215.809 333.573h-15.485c-5.223-55.482-24.305-88.523-39.43-106.492-16.371-19.442-31.764-25.922-31.919-25.984-3.936-1.617-5.831-6.12-4.234-10.055 1.597-3.946 6.058-5.863 10.014-4.276.742.289 18.432 7.542 37.204 29.477 16.928 19.781 38.276 56.069 43.819 116.63.02.226.031.473.031.7z" fill="#36d49b"/><path d="m159.421 175.824c-4.327 38.935-16.258 63.528-30.899 78.869l-19.463-1.875-21.389-52.257 15.403-45.446c2.04-.865 4.234-1.494 6.604-1.865 7.326-1.154 14.816.618 21.101 4.574z" fill="#deddf5"/><path d="m128.522 254.693c-19.875 20.833-44.746 24.603-62.333 24.026-7.037-.226-10.128-9.005-4.76-13.579 9.252-7.892 18.607-20.874 17.752-40.852-1.102-25.86 2.493-60.138 23.893-69.174-1 30.333 5.367 64.292 25.448 99.579z" fill="#c7c4ea"/><path d="m124.175 159.061c.587-5.324 2.203-10.518 5.011-15.078 16.195-26.297 53.515-9.895 78.592 6.042 16.888 10.733 32.819 9.116 44.285 5.034 6.635-2.362 12.667 4.735 9.346 10.946-12.293 22.989-40.833 55.045-101.53 40.921-16.917-3.936-29.967-15.683-34.682-31.551-1.398-4.705-1.756-9.66-1.218-14.539z" fill="#c7c4ea"/><g><path d="m285.788 452.389c-4.268 0-7.727 3.459-7.727 7.727 0 3.951-3.215 7.166-7.167 7.166-3.951 0-7.166-3.215-7.166-7.166 0-4.268-3.459-7.727-7.727-7.727s-7.727 3.459-7.727 7.727c0 3.951-3.215 7.166-7.167 7.166-3.951 0-7.166-3.215-7.166-7.166 0-4.268-3.459-7.727-7.727-7.727s-7.727 3.459-7.727 7.727c0 12.473 10.147 22.62 22.62 22.62 5.7 0 10.911-2.124 14.894-5.616 3.982 3.492 9.193 5.616 14.893 5.616 12.473 0 22.621-10.147 22.621-22.62 0-4.268-3.459-7.727-7.727-7.727z" fill="#495560"/><g><path d="m206.796 455.67c-4.268 0-7.727-3.459-7.727-7.727 0-3.559-2.896-6.454-6.454-6.454s-6.454 2.896-6.454 6.454c0 4.268-3.459 7.727-7.727 7.727s-7.727-3.459-7.727-7.727c0-12.081 9.828-21.909 21.909-21.909s21.909 9.828 21.909 21.909c-.002 4.267-3.461 7.727-7.729 7.727z" fill="#495560"/></g><g><path d="m333.569 455.67c-4.268 0-7.727-3.459-7.727-7.727 0-3.559-2.896-6.454-6.454-6.454-3.559 0-6.454 2.896-6.454 6.454 0 4.268-3.459 7.727-7.727 7.727s-7.727-3.459-7.727-7.727c0-12.081 9.828-21.909 21.909-21.909s21.909 9.828 21.909 21.909c-.002 4.267-3.461 7.727-7.729 7.727z" fill="#495560"/></g></g></g></svg>