<svg id="Capa_1" enable-background="new 0 0 512 512" height="512" viewBox="0 0 512 512" width="512" xmlns="http://www.w3.org/2000/svg"><g><path d="m244.025 87.963c18.107 38.83 16.915 69.148 1.383 76.391s-39.523-11.333-57.629-50.163c-18.412-39.484-18.118-75.037-16.308-92.72.594-5.805 7.179-8.876 12.008-5.599 14.711 9.979 42.134 32.607 60.546 72.091z" fill="#ff5f7f"/><path d="m267.975 87.963c-18.107 38.83-16.915 69.148-1.383 76.391s39.523-11.333 57.629-50.163c18.412-39.484 18.118-75.037 16.308-92.72-.594-5.805-7.179-8.876-12.008-5.599-14.711 9.979-42.134 32.607-60.546 72.091z" fill="#ff899f"/><path d="m287.033 94.687c0 42.84-13.899 69.813-31.033 69.813-3.153 0-6.192-.907-9.056-2.679-7.655-4.667-14.053-15.372-17.938-30.775-.144-.587-.288-1.174-.433-1.772l8.119-26.922-8.51-41.902c4.976-26.211 14.661-45.766 21.193-56.687 2.988-5.017 10.262-5.017 13.25 0 2.545 4.266 5.584 9.85 8.623 16.629 2.133 4.75 4.276 10.097 6.264 15.99 5.317 15.764 9.521 35.453 9.521 58.305z" fill="#ffb3c2"/><path d="m246.944 161.821c-7.655-4.667-14.053-15.372-17.938-30.775-2.576-10.19-4.039-22.44-4.039-36.359 0-43.571 15.29-75.665 24.408-90.924 2.988-5.017 10.262-5.017 13.25 0 2.545 4.266 5.584 9.85 8.623 16.629-14.671 27.54-35.71 80.281-24.304 141.429z" fill="#ff899f"/><path d="m315.767 134.848-20.977 105.637h-77.581l-20.977-105.637c-.268-1.257.185-2.349.968-3.06l20.194 12.704 26.448-9.932c1.607-.505 3.122-1.401 4.399-2.679 2.143-2.143 4.956-3.215 7.758-3.215s5.615 1.072 7.758 3.215 4.955 3.214 7.758 3.214 5.615-1.072 7.758-3.214c2.143-2.143 4.956-3.215 7.758-3.215s5.615 1.072 7.758 3.215 4.956 3.214 7.758 3.214 5.615-1.072 7.758-3.214c.67-.67 1.474-.969 2.267-.969 1.898 0 3.68 1.711 3.195 3.936z" fill="#29ce69"/><path d="m280.233 240.485h-63.023l-20.977-105.637c-.68-3.153 3.173-5.254 5.46-2.967 2.143 2.143 4.956 3.214 7.758 3.214 2.803 0 5.615-1.072 7.758-3.214 2.143-2.143 4.956-3.215 7.758-3.215 1.474 0 2.957.299 4.338.896 1.247.536 2.411 1.309 3.421 2.318 2.143 2.143 4.955 3.214 7.758 3.214 1.133 0 2.267-.175 3.359-.536 1.349 32.176 10.808 67.681 34.927 103.71.504.754.989 1.485 1.463 2.217z" fill="#00c140"/><path d="m266.303 268.952-6.501 21.173-.876 2.864-2.926 9.561h-69.813l-26.231-104.915c-2.442-9.757 4.935-19.205 14.991-19.205h19.236c3.719 0 7.356.33 10.89.958l5.749 5.831 7.563-1.865c2.668 1.133 5.234 2.442 7.696 3.926 17.938 10.828 29.92 30.497 29.92 52.968z" fill="#80e0b7"/><path d="m259.802 290.125-.876 2.864-2.926 9.561h-69.813l-26.231-104.915c-2.442-9.757 4.935-19.205 14.991-19.205h19.236c8.593 0 16.774 1.751 24.202 4.925-8.181 24.552-11.292 66.156 37.616 103.679 1.359 1.04 2.626 2.071 3.801 3.091z" fill="#36d49b"/><path d="m352.044 197.633-26.231 104.917h-69.813v-62.302c0-34.141 27.677-61.818 61.818-61.818h19.233c10.055 0 17.432 9.449 14.993 19.203z" fill="#36d49b"/><path d="m382.397 322.641-.495 3.204-5.265 10.54 2.885 4.915-22.677 147.426h-201.691l-22.677-147.426 4.513-6.841-6.893-8.613-.495-3.204c-2.885-18.72 11.601-35.607 30.548-35.607h22.151l25.799 8.84 47.899-8.84h95.849c18.948-.001 33.434 16.886 30.549 35.606z" fill="#deddf5"/><path d="m231.438 488.725h-76.283l-22.678-147.425 4.513-6.841-6.893-8.613-.495-3.204c-2.885-18.72 11.601-35.607 30.548-35.607h95.85c0-.001-94.005 71.265-24.562 201.69z" fill="#c7c4ea"/><path d="m381.099 485.8-5.213 15.63c-2.102 6.315-8.006 10.57-14.662 10.57h-210.448c-6.656 0-12.559-4.255-14.661-10.571l-5.213-15.63c-3.338-10.014 4.111-20.348 14.661-20.348h220.876c10.549 0 17.998 10.334 14.66 20.349z" fill="#c7c4ea"/><path d="m245.213 512h-94.438c-6.656 0-12.559-4.255-14.661-10.571l-5.213-15.63c-3.338-10.014 4.111-20.348 14.661-20.348h74.903c6.006 14.672 14.115 30.198 24.748 46.549z" fill="#b2aee4"/><path d="m381.903 325.845-2.38 15.455h-247.046l-2.38-15.455z" fill="#c7c4ea"/><path d="m132.477 341.3-2.38-15.454h94.097c-2.658 4.729-5.203 9.88-7.5 15.454z" fill="#b2aee4"/><g><g><path d="m206.795 402.031c-4.268 0-7.727-3.46-7.727-7.727 0-3.559-2.896-6.454-6.454-6.454s-6.454 2.895-6.454 6.454c0 4.268-3.459 7.727-7.727 7.727s-7.727-3.46-7.727-7.727c0-12.081 9.828-21.909 21.909-21.909s21.909 9.828 21.909 21.909c-.002 4.268-3.461 7.727-7.729 7.727z" fill="#495560"/></g><g><path d="m333.568 402.031c-4.268 0-7.727-3.46-7.727-7.727 0-3.559-2.896-6.454-6.454-6.454-3.559 0-6.454 2.895-6.454 6.454 0 4.268-3.459 7.727-7.727 7.727s-7.727-3.46-7.727-7.727c0-12.081 9.828-21.909 21.909-21.909s21.909 9.828 21.909 21.909c-.001 4.268-3.461 7.727-7.729 7.727z" fill="#495560"/></g><g><path d="m256 425.461c-7.998 0-15.604-3.464-20.869-9.504-2.804-3.217-2.47-8.098.748-10.902 3.217-2.803 8.099-2.469 10.902.748 2.329 2.672 5.689 4.204 9.219 4.204 3.531 0 6.89-1.532 9.219-4.204 2.802-3.217 7.685-3.552 10.902-.748 3.218 2.804 3.552 7.686.748 10.902-5.265 6.04-12.871 9.504-20.869 9.504z" fill="#495560"/></g></g></g></svg>