<svg id="Capa_1" enable-background="new 0 0 512 512" height="512" viewBox="0 0 512 512" width="512" xmlns="http://www.w3.org/2000/svg"><g><path d="m387.879 356.846-32.939 131.745c-3.431 13.755-15.795 23.409-29.982 23.409h-137.916c-14.187 0-26.551-9.654-29.982-23.408l-32.939-131.745h263.758z" fill="#e4996d"/><path d="m243.441 512h-56.399c-14.187 0-26.551-9.654-29.982-23.408l-32.939-131.745h91.47c-18.153 37.08-30.548 96.58 27.85 155.153z" fill="#d97c41"/><path d="m403.395 341.268v38.914c0 8.531-6.924 15.455-15.455 15.455h-263.881c-8.531 0-15.455-6.924-15.455-15.455v-38.914c0-8.531 6.924-15.455 15.455-15.455h124.131c.289 0 7.81-3.235 7.81-3.235l7.841 3.235h124.1c8.531.001 15.454 6.924 15.454 15.455z" fill="#d97c41"/><path d="m235.013 325.814c-8.995 11.457-26.479 37.122-32.444 69.824h-78.509c-8.531 0-15.455-6.924-15.455-15.455v-38.914c0-8.531 6.924-15.455 15.455-15.455z" fill="#af602d"/><g fill="#29ce69"><path d="m315.216 288.041c-2.894-25.543-.314-49.337 8.2-50.302l5.153 1.933c4.974 4.492 14.49 18.08 17.48 44.875 2.851 25.548-1.661 47.032-10.176 47.996-8.514.965-17.762-18.959-20.657-44.502z"/><path d="m378.915 317.123c-5.884-25.024-3.446-47.59 4.896-49.551l3.182 1.943c7.329 4.657 17.396 20.377 22.129 40.506 5.884 25.024 3.891 46.9-4.45 48.861s-19.873-16.735-25.757-41.759z"/><path d="m427.849 245.764c-25.51 3.171-45.096 13.305-44.039 21.808l3.182 1.943c7.449 4.001 23.207 9.713 44.685 7.043 25.51-3.171 45.333-12.636 44.276-21.139s-22.594-12.827-48.104-9.655z"/><path d="m362.102 205.727c-24.396 8.102-41.386 23.88-38.686 32.012l5.153 1.933c7.783 1.288 23.584 1.648 43.313-4.496 24.544-7.644 41.984-21.263 39.283-29.395-2.7-8.132-24.667-8.156-49.063-.054z"/><path d="m196.784 319.071c2.894-25.543.314-49.337-8.2-50.302l-5.153 1.933c-4.974 4.492-14.49 18.08-17.48 44.875-2.851 25.548 1.661 47.032 10.176 47.996 8.514.965 17.762-18.959 20.657-44.502z"/><path d="m133.085 348.153c5.884-25.024 3.446-47.59-4.896-49.551l-3.182 1.943c-7.329 4.657-17.396 20.377-22.129 40.506-5.884 25.024-3.891 46.9 4.45 48.861s19.873-16.735 25.757-41.759z"/><path d="m83.865 279.091c25.51 3.171 45.236 12.174 44.337 19.409l-3.139 1.599c-7.359 3.277-22.977 7.862-44.455 5.192-25.51-3.171-45.461-11.608-44.561-18.843s22.308-10.529 47.818-7.357z"/><path d="m149.898 236.757c24.396 8.102 41.386 23.88 38.686 32.012l-5.153 1.933c-7.783 1.288-23.584 1.648-43.313-4.496-24.544-7.644-41.984-21.263-39.283-29.395 2.7-8.132 24.667-8.156 49.063-.054z"/></g><path d="m462.164 323.475c-2.658 3.338-7.521 3.895-10.859 1.236-77.118-61.427-126.635-81.002-154.587-86.618-6.058-1.216-12.23.041-17.371 3.524-5.213 3.534-8.696 8.892-9.829 15.094-3.318 18.174-5.224 41.377-5.677 69.102h-15.65c-.34-15.001-1.7-28.158-4.059-39.213-2.617-12.281-14.373-20.132-26.747-17.876-28.076 5.131-78.045 24.387-156.689 87.019-1.422 1.133-3.122 1.679-4.811 1.679-2.267 0-4.523-.999-6.048-2.916-2.658-3.338-2.102-8.201 1.236-10.859 81.147-64.621 133.713-84.681 163.53-90.121 7.078-1.298 14.022-.608 20.276 1.679-18.329-46.539-50.815-76.479-51.206-76.84-3.153-2.875-3.39-7.758-.525-10.911 2.864-3.163 7.738-3.41 10.901-.546 1.865 1.69 40.79 37.462 59.17 93.521.34-2.174.69-4.307 1.072-6.357.804-4.904 19.978-120.535 49.3-157.461 2.658-3.348 7.511-3.905 10.859-1.247 3.338 2.648 3.895 7.511 1.247 10.859-18.144 22.842-32.764 82.991-40.388 119.917 7.552-3.74 16.052-4.884 24.449-3.194 29.632 5.945 81.641 26.324 161.17 89.667 3.337 2.671 3.894 7.524 1.236 10.862z" fill="#00c140"/><circle cx="380.121" cy="31.031" fill="#f8ea69" r="31.03"/><circle cx="209.455" cy="162.909" fill="#fcf5af" r="31.03"/><path d="m147.396 93.089c0 16.083-12.23 29.292-27.88 30.868-1.041.113-2.092.165-3.153.165-17.134 0-31.033-13.889-31.033-31.033 0-17.134 13.899-31.033 31.033-31.033 3.637 0 7.13.628 10.375 1.782 12.034 4.266 20.658 15.754 20.658 29.251z" fill="#f8ea69"/><path d="m126.738 63.838c-6.615 14.218-13.229 36.184-7.222 60.118-1.041.113-2.092.165-3.153.165-17.134 0-31.033-13.889-31.033-31.033 0-17.134 13.899-31.033 31.033-31.033 3.637.001 7.13.63 10.375 1.783z" fill="#eedb00"/><circle cx="170.667" cy="116.364" fill="#eedb00" r="38.788"/><path d="m162.912 147.396c0 10.025-3.802 19.164-10.045 26.046-7.099 7.83-17.35 12.745-28.745 12.745-21.42 0-38.791-17.371-38.791-38.791 0-11.56 5.059-21.935 13.075-29.013l11.488-2.019 7.387-7.15c2.225-.402 4.513-.608 6.841-.608 21.419-.001 38.79 17.37 38.79 38.79z" fill="#fcf5af"/><path d="m152.867 173.442c-7.099 7.83-17.35 12.745-28.745 12.745-21.42 0-38.791-17.371-38.791-38.791 0-19.091 13.796-34.958 31.95-38.183 1.112 20.235 10.055 42.984 35.586 64.229z" fill="#f8ea69"/><path d="m201.693 178.429c0 7.841-2.905 15.001-7.717 20.462-5.677 6.47-14.012 10.561-23.305 10.561-17.144 0-31.033-13.889-31.033-31.022 0-5.069 1.216-9.85 3.369-14.074 5.131-10.066 15.588-16.959 27.664-16.959 17.133-.001 31.022 13.888 31.022 31.032z" fill="#f8ea69"/><path d="m193.976 198.891c-5.677 6.47-14.012 10.561-23.305 10.561-17.144 0-31.033-13.889-31.033-31.022 0-5.069 1.216-9.85 3.369-14.074 11.704 12.033 28.189 23.778 50.969 34.535z" fill="#eedb00"/><ellipse cx="39.096" cy="364.194" fill="#29ce69" rx="46.545" ry="22.815" transform="matrix(.782 -.623 .623 .782 -218.376 103.667)"/><ellipse cx="472.904" cy="330.552" fill="#29ce69" rx="22.815" ry="46.545" transform="matrix(.623 -.782 .782 .623 -80.279 494.54)"/><circle cx="364.606" cy="77.576" fill="#fcf5af" r="38.788"/><circle cx="333.576" cy="38.788" fill="#eedb00" r="31.03"/><path d="m341.33 77.572c0 21.43-17.361 38.791-38.781 38.791-4.286 0-8.407-.69-12.261-1.978-15.413-5.131-26.53-19.669-26.53-36.813 0-20.163 15.382-36.73 35.061-38.605 1.226-.113 2.473-.175 3.73-.175 21.42 0 38.781 17.36 38.781 38.78z" fill="#f8ea69"/><path d="m290.289 114.385c-15.413-5.131-26.53-19.669-26.53-36.813 0-20.163 15.382-36.73 35.061-38.605-5.667 9.695-20.421 39.893-8.531 75.418z" fill="#eedb00"/><circle cx="333.576" cy="116.364" fill="#eedb00" r="31.03"/><path d="m318.065 124.122c0 8.83-3.688 16.794-9.602 22.44-5.574 5.327-13.116 8.593-21.43 8.593-17.144 0-31.033-13.899-31.033-31.033 0-10.746 5.461-20.225 13.775-25.789l9.087.381 7.15-5.595c.34-.021.68-.031 1.02-.031 17.135.001 31.033 13.9 31.033 31.034z" fill="#fcf5af"/><path d="m308.463 146.561c-5.574 5.327-13.116 8.593-21.43 8.593-17.144 0-31.033-13.899-31.033-31.033 0-16.794 13.342-30.476 30.013-31.002 1.185 16.331 7.181 34.773 22.45 53.442z" fill="#f8ea69"/><g><path d="m280.323 451.832c.047-14.997-10.813-16.44-24.214-16.482s-24.27 1.333-24.317 16.33c-.047 14.996 10.779 27.187 24.181 27.229 13.401.042 24.303-12.081 24.35-27.077z" fill="#495560"/><g><path d="m206.38 451.662c-.009 0-.016 0-.025 0-4.268-.013-7.716-3.484-7.703-7.751.006-1.763-.676-3.422-1.918-4.672s-2.897-1.941-4.66-1.947c-.007 0-.014 0-.021 0-1.755 0-3.406.681-4.651 1.918-1.25 1.242-1.941 2.897-1.947 4.66-.013 4.259-3.471 7.703-7.727 7.703-.009 0-.016 0-.025 0-4.268-.013-7.716-3.484-7.703-7.751.019-5.891 2.33-11.421 6.508-15.574 4.179-4.152 9.738-6.403 15.614-6.41 5.891.018 11.421 2.329 15.573 6.508 4.152 4.178 6.428 9.723 6.41 15.614-.011 4.258-3.469 7.702-7.725 7.702z" fill="#495560"/></g><g><path d="m334.435 452.063c-.008 0-.016 0-.025 0-4.268-.013-7.716-3.484-7.703-7.751.012-3.638-2.939-6.608-6.578-6.619-.007 0-.015 0-.021 0-3.629 0-6.586 2.946-6.598 6.578-.014 4.268-3.531 7.731-7.752 7.703-4.268-.014-7.716-3.484-7.703-7.752.039-12.136 9.925-21.983 22.051-21.983h.07c12.16.038 22.022 9.962 21.984 22.122-.011 4.258-3.469 7.702-7.725 7.702z" fill="#495560"/></g></g></g></svg>