<svg id="Capa_1" enable-background="new 0 0 512 512" height="512" viewBox="0 0 512 512" width="512" xmlns="http://www.w3.org/2000/svg"><g><path d="m511.997 56.743c-.247 11.508-1.257 32.681-5.1 56.676-1.484 9.293-10.859 15.166-19.833 12.343-2.514-.793-5.182-1.494-7.995-2.081-6.821-1.432-13.703 2.184-16.433 8.593-.783 1.844-1.154 3.771-1.154 5.677 0 4.842 2.421 9.53 6.718 12.312 5.255 3.41 11.642 8.469 17.278 15.537 3.606 4.513 4.307 10.736 1.875 15.98-9.17 19.771-21.729 37.07-38.924 47.785-5.368 3.338-12.291-.835-11.786-7.13.752-9.407-.371-21.121-5.955-34.422-2.607-6.213-9.242-9.716-15.836-8.397l-.309.062c-6.285 1.267-10.87 6.357-11.663 12.497-.093.732-.134 1.473-.113 2.225.196 8.356-.896 20.05-6.491 31.836-3.977 8.376-14.424 11.292-22.254 6.347-24.768-15.64-27.416-49.598-26.169-71.76.69-12.178-5.852-23.614-16.701-29.209-19.72-10.169-47.641-29.672-48.558-58.943-.289-9.273 7.521-16.794 16.753-15.97 13.002 1.164 23.635 6.151 30.734 10.561 6.038 3.75 13.878 2.658 18.617-2.638 2.473-2.761 3.74-6.264 3.74-9.777 0-3.05-.958-6.12-2.905-8.696-8.572-11.385-18.009-18.216-26.417-22.306-5.687-2.761-5.77-10.839-.165-13.765 17.948-9.396 39.234-11.436 60.921-9.314 5.749.567 10.756 4.327 12.817 9.726 3.225 8.448 4.348 16.516 4.616 22.77.175 3.925 1.865 7.47 4.533 10.014 2.174 2.071 4.987 3.493 8.15 3.905h.01c6.903.907 13.507-3.194 15.733-9.798.927-2.72 1.669-5.378 2.267-7.944 2.122-9.17 11.931-14.27 20.698-10.839 22.636 8.871 41.387 18.741 51.422 24.366 4.963 2.784 7.992 8.09 7.879 13.777z" fill="#80e0b7"/><path d="m402.879 192.175c-.093.732-.134 1.473-.113 2.225.196 8.356-.896 20.05-6.491 31.836-3.977 8.376-14.424 11.292-22.254 6.347-24.768-15.64-27.416-49.598-26.169-71.76.69-12.178-5.852-23.614-16.701-29.209-19.72-10.169-47.641-29.672-48.558-58.943-.289-9.273 7.521-16.794 16.753-15.97 13.002 1.164 23.635 6.151 30.734 10.561 6.038 3.75 13.878 2.658 18.617-2.638 2.473-2.761 3.74-6.264 3.74-9.777 0-3.05-.958-6.12-2.905-8.696-8.572-11.385-18.009-18.216-26.417-22.306-5.687-2.761-5.77-10.839-.165-13.765 17.948-9.396 39.234-11.436 60.921-9.314 5.749.567 10.756 4.327 12.817 9.726 3.225 8.448 4.348 16.516 4.616 22.77.175 3.925 1.865 7.47 4.533 10.014-25.305 22.739-65.744 75.913-2.958 148.899z" fill="#36d49b"/><path d="m189.536 157.495c-9.983 7.016-14.908 19.236-12.57 31.208 1.824 9.345 3.225 20.946 2.473 32.629-1.01 15.547-5.842 31.259-18.638 42.026-7.088 5.965-17.834 4.502-22.914-3.256-7.14-10.921-9.819-22.357-10.756-30.662-.804-7.068-6.522-12.549-13.672-12.982l-.309-.021c-6.717-.422-12.817 3.956-14.558 10.468-3.719 13.94-3.235 25.696-1.216 34.906 1.36 6.171-4.935 11.251-10.705 8.665-18.494-8.273-33.289-23.707-45.065-42.036-3.122-4.873-3.276-11.127-.309-16.093 4.626-7.768 10.262-13.651 15.001-17.742 3.338-2.874 5.121-6.975 5.121-11.137 0-2.545-.67-5.11-2.061-7.439-3.565-5.986-10.88-8.624-17.443-6.275-2.71.958-5.254 2.019-7.634 3.142-8.51 4.018-18.597-.525-21.337-9.53-7.068-23.254-10.942-44.086-12.755-55.461-.886-5.615 1.391-11.282 5.934-14.713 9.18-6.944 26.417-19.266 47.641-31.135 8.211-4.585 18.628-.876 21.976 7.923.937 2.462 2.04 4.987 3.318 7.562 2.462 4.935 7.428 7.954 12.724 8.078.113.01.237.01.35.01 1.278 0 2.576-.175 3.853-.525 6.862-1.875 11.333-8.418 10.674-15.506-.577-6.233-.567-14.383 1.484-23.182 1.308-5.636 5.749-10.045 11.374-11.385 21.203-5.059 42.561-5.924 61.622.938 5.945 2.133 6.965 10.159 1.71 13.662-7.779 5.193-16.196 13.239-23.14 25.685-1.236 2.215-1.834 4.636-1.834 7.037 0 4.183 1.803 8.294 5.162 11.158 5.419 4.595 13.342 4.616 18.813.082 6.439-5.337 16.289-11.725 29.013-14.64 9.036-2.081 17.793 4.317 18.772 13.538 3.07 29.128-21.935 52.248-40.099 65.003z" fill="#36d49b"/><path d="m179.439 221.332c-1.01 15.547-5.842 31.259-18.638 42.026-7.088 5.965-17.834 4.502-22.914-3.256-7.14-10.921-9.819-22.357-10.756-30.662-.804-7.068-6.522-12.549-13.672-12.982l-.309-.021c-6.717-.422-12.817 3.956-14.558 10.468-3.719 13.94-3.235 25.696-1.216 34.906 1.36 6.171-4.935 11.251-10.705 8.665-18.494-8.273-33.289-23.707-45.065-42.036-3.122-4.873-3.276-11.127-.309-16.093 4.626-7.768 10.262-13.651 15.001-17.742 3.338-2.874 5.121-6.975 5.121-11.137 0-2.545-.67-5.11-2.061-7.439-3.565-5.986-10.88-8.624-17.443-6.275-2.71.958-5.254 2.019-7.634 3.142-8.51 4.018-18.597-.525-21.337-9.53-7.068-23.254-10.942-44.086-12.755-55.461-.886-5.615 1.391-11.282 5.934-14.713 9.18-6.944 26.417-19.266 47.641-31.135 8.211-4.585 18.628-.876 21.976 7.923.937 2.462 2.04 4.987 3.318 7.562 2.462 4.935 7.428 7.954 12.724 8.078-12.22 38.432-17.433 107.719 87.657 135.712z" fill="#00c780"/><path d="m413.243 116.191c0 7.109-4.894 13.27-11.817 14.919-7.233 1.721-17.216 4.667-28.292 9.623-41.778 18.669-99.186 65.743-84.01 182.104h-17.659c-.175 9.829-.835 20.173-2.04 31.032h-31.033c19.205-147.229-77.797-183.536-112.302-191.727-6.924-1.648-11.817-7.81-11.817-14.919 0-8.665 7.068-15.341 15.29-15.341 1.185 0 2.401.144 3.616.433 29.631 7.13 86.812 28.343 117.556 88.997 3.142 6.182 12.281 5.327 14.259-1.319 19.874-66.742 68.618-97.301 104.812-111.107 9.221-3.513 17.628-5.945 24.531-7.604 1.216-.288 2.431-.433 3.616-.433 8.223.001 15.29 6.677 15.29 15.342z" fill="#36d49b"/><path d="m289.124 322.837h-17.659c-.175 9.829-.835 20.173-2.04 31.032h-31.033c19.205-147.229-77.797-183.536-112.302-191.727-6.924-1.648-11.817-7.81-11.817-14.919 0-8.665 7.068-15.341 15.29-15.341 1.185 0 2.401.144 3.616.433 29.631 7.13 86.812 28.343 117.556 88.997 3.142 6.182 12.281 5.327 14.259-1.319 19.874-66.742 68.618-97.301 104.812-111.107-.855 9.819 0 20.462 3.328 31.846-41.778 18.669-99.186 65.743-84.01 182.105z" fill="#00c780"/><path d="m353.219 488.724h-194.437c-85.339-69.813-15.516-155.152-15.516-155.152h225.469s69.823 85.339-15.516 155.152z" fill="#fcf5af"/><path d="m221.691 488.724h-62.91c-85.339-69.813-15.516-155.152-15.516-155.152h62.673c-17.638 35.813-30.579 93.149 15.753 155.152z" fill="#f8ea69"/><path d="m372.361 496.482c0 4.286-1.731 8.17-4.544 10.973-2.813 2.802-6.687 4.544-10.973 4.544h-201.69c-8.572 0-15.516-6.944-15.516-15.516 0-4.286 1.731-8.17 4.543-10.973 2.813-2.802 6.687-4.544 10.973-4.544h201.69c8.573 0 15.517 6.944 15.517 15.516z" fill="#f8ea69"/><path d="m241.792 511.998h-86.637c-8.572 0-15.516-6.944-15.516-15.516 0-4.286 1.731-8.17 4.543-10.973 2.813-2.802 6.687-4.544 10.973-4.544h61.035c6.882 10.221 15.33 20.586 25.602 31.033z" fill="#eedb00"/><path d="m403.394 325.814c0 6.429-2.607 12.25-6.821 16.464-4.204 4.204-10.025 6.81-16.454 6.81h-248.238c-12.858 0-23.274-10.416-23.274-23.274 0-6.429 2.607-12.24 6.821-16.454 4.204-4.204 10.025-6.81 16.454-6.81h248.239c12.856 0 23.273 10.416 23.273 23.264z" fill="#f8ea69"/><path d="m199.231 349.088h-67.35c-12.858 0-23.274-10.416-23.274-23.274 0-6.429 2.607-12.24 6.821-16.454 4.204-4.204 10.025-6.81 16.454-6.81h93.551c-6.822 8.644-18.155 24.964-26.202 46.538z" fill="#eedb00"/><g><g fill="#ffa1ac"><ellipse cx="174.033" cy="425.309" rx="30.244" ry="24.085"/><ellipse cx="337.967" cy="425.309" rx="30.244" ry="24.085"/></g><g><path d="m191.66 409.851c-4.268 0-7.727-3.46-7.727-7.727v-12.364c0-4.268 3.46-7.727 7.727-7.727s7.727 3.46 7.727 7.727v12.364c0 4.267-3.46 7.727-7.727 7.727z" fill="#495560"/></g><g><path d="m320.341 409.851c-4.268 0-7.727-3.46-7.727-7.727v-12.364c0-4.268 3.46-7.727 7.727-7.727 4.268 0 7.727 3.46 7.727 7.727v12.364c0 4.267-3.46 7.727-7.727 7.727z" fill="#495560"/></g><g><path d="m256 417.211c-8.734 0-17.04-3.783-22.788-10.378-2.804-3.217-2.469-8.098.748-10.902s8.098-2.469 10.902.748c2.813 3.227 6.872 5.078 11.138 5.078s8.325-1.851 11.138-5.078c2.803-3.218 7.684-3.552 10.902-.748 3.217 2.804 3.552 7.685.748 10.902-5.748 6.595-14.054 10.378-22.788 10.378z" fill="#495560"/></g></g></g></svg>