<svg id="Capa_1" enable-background="new 0 0 512 512" height="512" viewBox="0 0 512 512" width="512" xmlns="http://www.w3.org/2000/svg"><g><path d="m279.273 240.484c0 17.647-5.302 33.923-14.236 46.959-10.696 15.608-16.787 33.906-16.787 52.827v39.851h-77.582v-39.851c0-18.921-6.091-37.219-16.787-52.827-8.933-13.036-14.236-29.312-14.236-46.959s5.302-33.919 14.236-46.954c10.696-15.608 16.787-33.906 16.787-52.827v-1.065c0-21.424 17.367-38.791 38.791-38.791 21.424 0 38.791 17.367 38.791 38.791v1.065c0 18.921 6.091 37.22 16.787 52.827 8.933 13.035 14.236 29.307 14.236 46.954z" fill="#00c780"/><path d="m372.354 240.484c0 17.647-5.302 33.923-14.236 46.959-10.696 15.608-16.787 33.906-16.787 52.827v39.851h-77.581v-39.851c0-18.921-6.091-37.219-16.787-52.827-8.933-13.036-14.236-29.312-14.236-46.959s5.302-33.919 14.236-46.954c10.696-15.608 16.787-33.906 16.787-52.827v-1.065c0-21.424 17.367-38.791 38.791-38.791 21.424 0 38.791 17.367 38.791 38.791v1.065c0 18.921 6.091 37.22 16.787 52.827 8.933 13.035 14.235 29.307 14.235 46.954z" fill="#36d49b"/><path d="m325.813 240.484c0 17.649-5.306 33.928-14.239 46.961-10.694 15.609-16.784 33.907-16.784 52.824v39.852h-77.582v-38.791l3.307-217.363s-.01 0-.021 0c6.027-13.61 19.658-23.12 35.504-23.12 3.4 0 6.687.433 9.829 1.247 6.759 1.772 12.807 5.316 17.598 10.118 7.027 7.016 11.364 16.712 11.364 27.427v1.061c0 18.927 6.089 37.225 16.784 52.834 8.934 13.032 14.24 29.301 14.24 46.95z" fill="#80e0b7"/><path d="m217.209 380.121v-39.852c0-18.917-6.089-37.215-16.784-52.824-8.933-13.033-14.239-29.312-14.239-46.961s5.306-33.918 14.239-46.951c10.694-15.609 16.784-33.907 16.784-52.834v-1.061c0-21.42 17.371-38.791 38.791-38.791 3.4 0 6.687.433 9.829 1.247l-3.513 13.549s-83.589 104.545 4.801 233.055c7.902 11.488 13.26 21.935 16.475 31.424h-66.383z" fill="#36d49b"/><ellipse cx="294.788" cy="62.061" fill="#ff899f" rx="46.546" ry="62.061"/><ellipse cx="217.212" cy="62.061" fill="#ff5f7f" rx="46.546" ry="62.061"/><path d="m294.791 62.056c0 26.984-14.053 49.372-32.475 53.586l-15.722-3.822-22.884-49.754 19.648-51.35c3.967-1.916 8.212-2.957 12.642-2.957 2.359 0 4.667.299 6.913.855 18.123 4.564 31.878 26.757 31.878 53.442z" fill="#ffb3c2"/><path d="m262.316 115.642c-2.05.474-4.162.721-6.316.721-21.42 0-38.791-24.315-38.791-54.307 0-29.982 17.371-54.297 38.791-54.297 2.359 0 4.667.299 6.913.855-13.888 13.312-40.006 49.197-.597 107.028z" fill="#ff899f"/><path d="m395.637 372.239v124.244h-279.274v-124.244c0-17.072 13.837-30.909 30.909-30.909h23.398l38.791 10.581 52.762-10.581h102.505c17.072 0 30.909 13.837 30.909 30.909z" fill="#deddf5"/><path d="m249.849 496.484h-133.486v-124.245c0-17.072 13.837-30.909 30.909-30.909h114.951s-74.089 56.925-12.374 155.154z" fill="#c7c4ea"/><path d="m416.017 489.478-11.529 15.64c-3.163 4.296-8.5 6.882-14.208 6.882h-268.56c-5.708 0-11.045-2.586-14.208-6.882l-11.529-15.64c-7.562-10.262.577-24.027 14.218-24.027h291.597c13.642 0 21.781 13.765 14.219 24.027z" fill="#c7c4ea"/><path d="m260.502 512h-138.782c-5.708 0-11.045-2.586-14.208-6.882l-11.529-15.64c-7.562-10.262.577-24.027 14.218-24.027h123.884c5.543 14.404 14.054 29.951 26.417 46.549z" fill="#b2aee4"/><g><g fill="#ffa1ac"><path d="m203.97 410.598c-.029 13.381-13.674 24.198-30.477 24.161-16.802-.037-30.4-10.914-30.371-24.294s13.674-24.198 30.477-24.161c16.803.036 30.401 10.913 30.371 24.294z"/><ellipse cx="338.453" cy="410.892" rx="24.228" ry="30.424" transform="matrix(.002 -1 1 .002 -73.179 748.445)"/></g><g><path d="m191.57 400.213c-4.268 0-7.727-3.46-7.727-7.727v-12.364c0-4.268 3.46-7.727 7.727-7.727 4.268 0 7.727 3.46 7.727 7.727v12.364c0 4.267-3.46 7.727-7.727 7.727z" fill="#495560"/></g><g><path d="m320.252 400.213c-4.268 0-7.727-3.46-7.727-7.727v-12.364c0-4.268 3.46-7.727 7.727-7.727 4.268 0 7.727 3.46 7.727 7.727v12.364c0 4.267-3.459 7.727-7.727 7.727z" fill="#495560"/></g><path d="m285.886 392.13c-4.268 0-7.727 3.46-7.727 7.727 0 3.952-3.215 7.166-7.166 7.166-3.952 0-7.166-3.215-7.166-7.166 0-4.268-3.46-7.727-7.727-7.727s-7.727 3.46-7.727 7.727c0 3.952-3.215 7.166-7.166 7.166s-7.166-3.215-7.166-7.166c0-4.268-3.46-7.727-7.727-7.727s-7.727 3.46-7.727 7.727c0 12.473 10.148 22.621 22.621 22.621 5.701 0 10.911-2.124 14.894-5.616 3.982 3.492 9.193 5.616 14.894 5.616 12.473 0 22.621-10.148 22.621-22.621-.004-4.268-3.464-7.727-7.731-7.727z" fill="#495560"/></g></g></svg>