<svg id="Capa_1" enable-background="new 0 0 512 512" height="512" viewBox="0 0 512 512" width="512" xmlns="http://www.w3.org/2000/svg"><g><path d="m151.28 347.44c-11.21 14.105-40.882 10.932-70.679-.144-19.802-7.346-39.656-18.185-54.204-29.745-30.363-24.14-33.454-57.656-14.795-81.126 18.659-23.481 52.01-28.035 82.373-3.905 10.427 8.284 21.101 19.308 30.59 31.373 23.696 30.136 40.037 66.784 26.715 83.547z" fill="#00c140"/><path d="m80.601 347.295c-19.802-7.346-39.656-18.185-54.204-29.745-30.363-24.14-33.454-57.656-14.795-81.126 18.659-23.481 52.01-28.035 82.373-3.905 10.427 8.284 21.101 19.308 30.59 31.373-15.713 9.85-47.931 36.02-43.964 83.403z" fill="#00a62c"/><path d="m314.935 317.546c30.365-24.134 33.456-57.648 14.796-81.126s-52.007-28.03-82.372-3.896c-36.438 28.961-75.967 91.436-57.307 114.914 18.661 23.479 88.445-.93 124.883-29.892z" fill="#00c140"/><path d="m473.209 77.572c0 8.569-6.947 15.516-15.516 15.516h-144.725c-16.395 0-32.119 6.513-43.712 18.106l-64.963 64.963c-11.593 11.593-18.106 27.317-18.106 43.712v129.218h-31.033v-129.272c0-24.593 9.769-48.178 27.159-65.568l65.032-65.032c17.39-17.39 40.975-27.159 65.568-27.159h144.779c8.57 0 15.517 6.947 15.517 15.516z" fill="#36d49b"/><path d="m263.16 465.451-3.132 20.338c-2.318 15.083-15.289 26.211-30.548 26.211h-117.63c-15.259 0-28.23-11.127-30.549-26.211l-3.132-20.338 82.229-5.615 8.242-.567z" fill="#c7c4ea"/><path d="m190.627 512h-78.777c-15.259 0-28.23-11.127-30.549-26.211l-3.132-20.338 82.229-5.615c6.295 16.783 16.011 34.298 30.229 52.164z" fill="#b2aee4"/><path d="m281.552 345.915-18.392 119.536h-100.536l-49.929-7.099-34.525 7.099-18.391-119.536c-2.875-18.731 11.612-35.607 30.548-35.607h64.816l11.663 5.687 15.63-5.687h68.566c18.948 0 33.434 16.876 30.55 35.607z" fill="#deddf5"/><path d="m162.624 465.451h-84.454l-18.391-119.536c-2.875-18.731 11.612-35.607 30.548-35.607h92.109c-11.405 15.454-51.875 78.334-19.812 155.143z" fill="#c7c4ea"/><path d="m107.894 411.823c-.721.762-1.442 1.515-2.174 2.236l-22.018 7.995-10.509 10.993-.01.01c-17.268 3.977-34.361-.824-47.332-12.941-21.915-20.472-23.8-54.07 2.668-82.424 3.369-3.606 7.109-7.212 11.138-10.746l27.839-10.952 27.447-24.088c17.835-7.521 34.66-10.725 45.931-6.357l3.915 8.747 7.418 1.772c12.127 25.614-15.3 84.692-44.313 115.755z" fill="#29ce69"/><path d="m105.72 414.059c-26.108 26.128-58.542 25.974-79.869 6.058-21.915-20.472-23.8-54.07 2.668-82.424 16.619-17.783 42.438-35.69 66.424-45.787-16.918 24.594-25.809 64.157 10.777 122.153z" fill="#00c140"/><path d="m315.479 420.117c-21.915 20.472-55.574 20.06-82.043-8.294-29.013-31.064-56.44-90.121-44.313-115.744l8.984-2.833 2.339-7.696c26.427-10.241 83.393 21.121 112.365 52.144 26.479 28.353 24.593 61.951 2.668 82.423z" fill="#29ce69"/><path d="m343.978 117.497c-4.235 5.976-11.024 9.304-18.02 9.304-2.689 0-5.419-.495-8.046-1.525l-57.388-22.471-41.738-16.341c-20.709-8.109-23.182-36.411-4.203-47.992 6.285-3.822 10.715-10.066 12.281-17.258 2.904-13.424 14.537-21.213 26.406-21.213 7.346 0 14.774 2.978 20.297 9.427l32.052 37.472 37.142 43.417c6.595 7.707 7.1 18.917 1.217 27.18z" fill="#ff899f"/><path d="m305.619 46.9c-19.637 8.902-38.502 25.418-45.096 55.904l-41.738-16.341c-20.709-8.109-23.182-36.411-4.203-47.992 6.285-3.822 10.715-10.066 12.281-17.258 2.905-13.423 14.538-21.212 26.407-21.212 7.346 0 14.774 2.978 20.297 9.427z" fill="#ff5f7f"/><path d="m341.268 51.248c-1.813 6.821-8.222 11.385-15.279 11.22-8.046-.196-19.565 1.855-27.561 13.116l-8.995 12.642-17.876-12.704-7.418-5.275 8.995-12.652c1.793-2.524 3.102-5.069 3.998-7.573l7.604-9.396-7.212-26.582h-.011c1.092-1.916 2.617-3.596 4.544-4.894 13.023-8.788 30.641-9.098 44.19.536 9.469 6.728 15.001 16.938 16.104 27.653.473 4.626.122 9.335-1.083 13.909z" fill="#ffb3c2"/><path d="m342.35 37.339c-20.483 2.122-52.71 10.087-70.792 38.183l-7.418-5.275 8.995-12.652c8.005-11.251 6.161-22.801 3.349-30.332-2.473-6.615-.278-14.167 5.574-18.113 13.023-8.788 30.641-9.098 44.19.536 9.467 6.728 14.999 16.938 16.102 27.653z" fill="#ff899f"/><path d="m289.433 88.226c-8.005 11.251-6.161 22.801-3.338 30.342 2.473 6.615.268 14.167-5.584 18.113-6.419 4.338-13.971 6.604-21.616 6.635-5.986.021-12.014-1.339-17.587-4.173l-19.823-24.068c-1.875-6.625-1.978-13.713-.175-20.493.597-2.246 1.69-4.235 3.142-5.904l29.209 1.576 4.626-13.744c2.071-1.669 4.049-3.74 5.852-6.275l4.503-6.316 7.459 5.306 17.824 12.675z" fill="#ffb3c2"/><path d="m258.895 143.316c-7.82.021-15.712-2.308-22.574-7.181-13.548-9.633-19.04-26.376-15.011-41.552 1.813-6.831 8.222-11.385 15.279-11.22 8.036.185 19.555-1.865 27.55-13.126l4.503-6.316 7.459 5.306c-12.786 15.846-20.719 39.327-17.206 74.089z" fill="#ff899f"/><path d="m300.251 86.402c-7.449 10.478-21.976 12.93-32.455 5.481-1.164-.824-2.225-1.741-3.184-2.72l-2.668-19.761 17.185-16.083h14.713c.309.206.618.412.927.629 10.48 7.449 12.932 21.976 5.482 32.454z" fill="#fcf5af"/><path d="m293.843 53.319c-11.993 7.799-22.718 19.205-29.23 35.844-7.717-7.902-8.922-20.431-2.298-29.735 7.233-10.168 21.142-12.775 31.528-6.109z" fill="#f8ea69"/><path d="m190.349 227.801c-4.173 6.388-11.21 10.025-18.525 10.025-2.411 0-4.853-.392-7.222-1.216l-57.151-19.782-43.448-15.042c-21.008-7.264-24.614-35.453-6.11-47.775 6.12-4.08 10.313-10.489 11.581-17.742 2.442-13.94 14.373-22.265 26.623-22.265 6.996 0 14.084 2.699 19.576 8.624l30.219 28.807 22.193 21.152 22.131 25.232c6.892 7.439 5.676 21.482.133 29.982z" fill="#ff899f"/><path d="m145.891 151.435c-18.515 13.322-35.257 33.907-38.44 65.393l-43.448-15.042c-21.008-7.264-24.614-35.453-6.11-47.775 6.12-4.08 10.313-10.489 11.581-17.742 2.442-13.94 14.373-22.265 26.623-22.265 6.996 0 14.084 2.699 19.576 8.624z" fill="#ff5f7f"/><path d="m184.992 160.677c-1.535 6.893-7.758 11.704-14.826 11.818-8.047.134-19.462 2.648-27.015 14.208l-8.479 13.002-19.195-12.528-6.79-4.441 8.479-12.992c1.69-2.596 2.885-5.193 3.689-7.727l8.242-15.382-9.479-20.225v-.01c1.03-2.091 2.545-3.967 4.523-5.419 12.662-9.304 30.25-10.313 44.179-1.226 5.553 3.627 9.86 8.428 12.827 13.868 4.483 8.199 5.895 17.843 3.845 27.054z" fill="#ffb3c2"/><path d="m181.149 133.621c-20.483 6.955-50.949 22.182-65.672 53.555l-6.79-4.441 8.479-12.992c7.542-11.56 5.244-23.027 2.133-30.445-2.741-6.512-.845-14.136 4.842-18.319 12.662-9.304 30.25-10.313 44.179-1.226 5.555 3.627 9.861 8.428 12.829 13.868z" fill="#ff899f"/><path d="m134.671 199.694c-7.552 11.57-5.244 23.038-2.133 30.456 2.741 6.512.845 14.146-4.842 18.329-5.285 3.874-11.416 6.305-17.783 7.161l-36.143-40.347 29.323-26.056c2.009-1.762 3.895-3.905 5.594-6.501l4.234-6.491 6.182 4.039 19.803 12.92z" fill="#ffb3c2"/><path d="m109.913 255.64c-8.912 1.216-18.278-.649-26.396-5.945-13.919-9.087-20.081-25.603-16.66-40.924 1.535-6.893 7.758-11.704 14.816-11.818 8.046-.134 19.462-2.648 27.015-14.218l4.234-6.491 6.182 4.039c-10.705 18.268-15.919 42.727-9.191 75.357z" fill="#ff899f"/><path d="m145.407 197.448c-7.026 10.756-21.44 13.796-32.207 6.769-1.102-.711-2.112-1.504-3.05-2.359l-5.162-17.124 14.115-20.122 13.744-2.102c1.999.618 3.946 1.525 5.79 2.72 10.768 7.027 13.797 21.451 6.77 32.218z" fill="#fcf5af"/><path d="m132.848 162.511c-9.973 10.056-18.339 22.924-22.698 39.347-8.232-7.573-10.025-20.184-3.719-29.848 5.821-8.922 16.722-12.528 26.417-9.499z" fill="#f8ea69"/><path d="m504.622 25.429c0 2.246-.34 4.502-1.051 6.697-.433 1.391-1.02 2.761-1.762 4.08l-51.938 92.923c-5.955 10.653-17.206 15.042-27.612 13.445-8.531-1.298-16.495-6.625-20.503-15.815-2.936-6.748-8.51-11.993-15.424-14.517-9.293-3.39-15.073-10.849-16.979-19.153l15.249-31.033 85.968-55.235c8.531-5.481 19.699-4.451 27.087 2.493 4.565 4.297 6.965 10.17 6.965 16.115z" fill="#ff899f"/><path d="m504.622 25.429c0 2.246-.34 4.502-1.051 6.697-32.681 4.193-94.51 23.532-81.311 110.449-8.531-1.298-16.495-6.625-20.503-15.815-2.936-6.748-8.51-11.993-15.424-14.517-11.56-4.214-17.68-14.733-17.68-25.335 0-8.562 3.997-17.165 12.353-22.543l89.564-57.542c8.531-5.481 19.699-4.451 27.087 2.493 4.565 4.295 6.965 10.168 6.965 16.113z" fill="#ff5f7f"/><path d="m461.236 59.376-21.26 22.606-11.304-10.63c-10.06-9.461-21.752-9.213-29.598-7.446-6.89 1.551-14.07-1.656-17.187-7.993-6.931-14.088-4.839-31.587 6.55-43.698 11.389-12.11 28.728-15.276 43.217-9.226 6.519 2.722 10.161 9.694 9.034 16.668-1.284 7.941-.816 19.628 9.244 29.089z" fill="#ff899f"/><path d="m455.584 54.062-21.26 22.606 5.65 5.313c10.06 9.461 10.53 21.146 9.248 29.085-1.126 6.972 2.516 13.942 9.032 16.664 14.487 6.053 31.824 2.893 43.214-9.218 11.389-12.11 13.485-29.611 6.558-43.701-3.117-6.34-10.299-9.548-17.191-7.995-7.847 1.768-19.541 2.019-29.601-7.442z" fill="#ffb3c2"/><path d="m461.906 81.302c-8.799 9.365-23.532 9.819-32.898 1.01-.402-.381-.793-.773-1.154-1.175l-2.473-20.524 17.896-15.248 15.558 1.319c.711.525 1.401 1.102 2.061 1.721 9.366 8.809 9.819 23.542 1.01 32.897z" fill="#fcf5af"/><path d="m458.836 46.684c-12.508 7.439-23.914 18.37-30.981 34.453-8.222-8.881-8.273-22.759.144-31.723 8.191-8.696 21.492-9.695 30.837-2.73z" fill="#f8ea69"/><path d="m152.207 296.069-68.505 69.339-7.789 7.892c-1.504 1.525-3.503 2.287-5.492 2.287-1.968 0-3.925-.742-5.43-2.225-3.039-2.998-3.07-7.892-.072-10.931l15.619-15.815 60.335-61.066c2.555.979 4.832 2.359 6.759 4.162 1.907 1.782 3.421 3.915 4.575 6.357z" fill="#00c140"/><path d="m83.702 365.408-7.789 7.892c-1.504 1.525-3.503 2.287-5.492 2.287-1.968 0-3.925-.742-5.43-2.225-3.039-2.998-3.07-7.892-.072-10.931l15.619-15.815c.455 5.924 1.475 12.188 3.164 18.792z" fill="#00a62c"/><path d="m264.634 362.379c-1.504 1.463-3.451 2.195-5.399 2.195-2.009 0-4.008-.773-5.523-2.328l-64.59-66.166c1.154-2.442 2.668-4.585 4.574-6.367 1.927-1.803 4.193-3.173 6.749-4.162l64.322 65.898c2.978 3.059 2.927 7.953-.133 10.93z" fill="#00c140"/></g></svg>