<svg id="Capa_1" enable-background="new 0 0 512 512" height="512" viewBox="0 0 512 512" width="512" xmlns="http://www.w3.org/2000/svg"><g><path d="m501.994 191.506c-10.087 2.173-23.12 6.686-36.998 16-4.966 3.328-10.035 7.274-15.125 11.941-4.286 3.946-5.327 10.344-2.504 15.434 12.683 22.914 28.549 35.895 40.614 43.015 8.541 5.049 8.181 17.608-.628 22.193-8.016 4.162-17.834 6.996-27.87 4.369-5.193-1.35-10.643.721-13.631 5.172-5.77 8.624-14.991 13.013-23.748 15.218-9.633 2.421-18.236-6.738-15.187-16.186 4.296-13.332 7.552-33.567 1.844-59.129-1.164-5.244-5.522-9.128-10.756-9.788-.443-.061-.896-.093-1.36-.103-26.17-.454-45.333 6.789-57.542 13.672-8.644 4.874-19.338-1.721-18.906-11.632.402-9.035 2.864-18.947 10.148-26.324 3.75-3.801 4.688-9.592 2.339-14.383-4.574-9.314-3.781-19.493-1.309-28.188 2.73-9.541 14.96-12.416 21.626-5.049 9.396 10.375 25.284 23.326 50.268 31.156 5.553 1.751 11.622-.556 14.62-5.543 13.497-22.44 16.794-42.665 16.938-56.666.103-9.933 11.158-15.898 19.534-10.561 7.614 4.863 14.97 11.951 17.721 21.955 1.412 5.141 5.965 8.85 11.292 9.211 10.344.69 18.762 6.47 25.057 12.96 6.905 7.141 3.268 19.154-6.437 21.256z" fill="#deddf5"/><path d="m501.994 191.506c-10.087 2.173-23.12 6.686-36.998 16-20.41 2.308-46.755 9.994-66.99 32.238-.443-.061-.896-.093-1.36-.103-26.17-.454-45.333 6.789-57.542 13.672-8.644 4.874-19.338-1.721-18.906-11.632.402-9.035 2.864-18.947 10.148-26.324 3.75-3.801 4.688-9.592 2.339-14.383-4.574-9.314-3.781-19.493-1.309-28.188 2.73-9.541 14.96-12.416 21.626-5.049 9.396 10.375 25.284 23.326 50.268 31.156 5.553 1.751 11.622-.556 14.62-5.543 13.497-22.44 16.794-42.665 16.938-56.666.103-9.933 11.158-15.898 19.534-10.561 7.614 4.863 14.97 11.951 17.721 21.955 1.412 5.141 5.965 8.85 11.292 9.211 10.344.69 18.762 6.47 25.057 12.96 6.904 7.142 3.267 19.155-6.438 21.257z" fill="#c7c4ea"/><path d="m172.896 253.313c-12.209-6.882-31.372-14.125-57.542-13.672-4.966.093-9.345 3.081-11.323 7.48-.34.763-.608 1.567-.793 2.411-5.708 25.562-2.452 45.797 1.844 59.129 3.05 9.448-5.553 18.607-15.187 16.186-8.758-2.205-17.979-6.594-23.748-15.218-2.988-4.45-8.438-6.522-13.631-5.172-10.035 2.627-19.854-.206-27.87-4.369-8.809-4.585-9.17-17.144-.628-22.193 12.065-7.12 27.931-20.101 40.614-43.015 2.823-5.09 1.782-11.488-2.504-15.434-19.287-17.71-38.43-24.995-52.123-27.941-9.705-2.102-13.342-14.115-6.439-21.256 6.295-6.491 14.713-12.27 25.057-12.96 5.327-.361 9.88-4.07 11.292-9.211 2.751-10.004 10.107-17.092 17.721-21.955 8.376-5.338 19.432.628 19.534 10.561.103 9.509 1.649 21.894 6.872 35.884 2.452 6.615 5.739 13.58 10.066 20.782 2.998 4.986 9.066 7.294 14.62 5.543 24.985-7.831 40.872-20.781 50.268-31.156 6.666-7.367 18.895-4.492 21.626 5.049 2.473 8.695 3.266 18.874-1.309 28.188-2.349 4.791-1.412 10.582 2.339 14.383 7.284 7.377 9.747 17.289 10.148 26.324.435 9.911-10.26 16.506-18.904 11.632z" fill="#deddf5"/><path d="m89.896 324.847c-8.758-2.205-17.979-6.594-23.748-15.218-2.988-4.45-8.438-6.522-13.631-5.172-10.035 2.627-19.854-.206-27.87-4.369-8.809-4.585-9.17-17.144-.628-22.193 12.065-7.12 27.931-20.101 40.614-43.015 2.823-5.09 1.782-11.488-2.504-15.434-19.287-17.71-38.43-24.995-52.123-27.941-9.705-2.102-13.342-14.115-6.439-21.256 6.295-6.491 14.713-12.27 25.057-12.96 5.327-.361 9.88-4.07 11.292-9.211 2.751-10.004 10.107-17.092 17.721-21.955 8.376-5.338 19.432.628 19.534 10.561.103 9.509 1.649 21.894 6.872 35.884-2.38 21.596-.278 50.526 19.988 74.553-.34.763-.608 1.567-.793 2.411-5.708 25.562-2.452 45.797 1.844 59.129 3.05 9.448-5.553 18.607-15.186 16.186z" fill="#c7c4ea"/><path d="m378.152 138.692c-4.348 10.077-11.405 20.256-22.842 25.5-5.894 2.699-9.458 8.861-8.85 15.311 1.185 12.529-4.101 23.738-10.653 32.537-7.202 9.654-22.316 7.645-26.705-3.575-6.192-15.816-18.648-37.348-43.613-56.996-4.245-3.338-9.85-4.131-14.744-2.349-1.504.536-2.936 1.319-4.234 2.349-24.964 19.648-37.42 41.181-43.613 56.996-3.194 8.16-12.044 11.446-19.411 8.922l-6.553-44.745-16.639-6.13-.02-.01c-1.061-.927-2.267-1.699-3.586-2.308-11.436-5.244-18.494-15.423-22.842-25.5-4.76-11.065 4.533-23.14 16.444-21.337 16.804 2.556 41.676 2.534 71.173-9.262 6.553-2.628 10.499-9.438 9.489-16.433-4.533-31.455-16.948-53.009-27.56-66.289-7.521-9.407-1.7-23.502 10.262-24.902 10.89-1.278 23.244-.258 33.505 7.036 5.296 3.771 12.384 3.771 17.68 0 10.262-7.294 22.615-8.314 33.505-7.036 11.962 1.401 17.783 15.495 10.262 24.902-4.688 5.872-9.737 13.363-14.301 22.614-5.749 11.663-10.736 26.129-13.26 43.675-1.01 6.996 2.936 13.805 9.489 16.433 29.497 11.796 54.369 11.817 71.173 9.262 11.911-1.805 21.204 10.271 16.444 21.335z" fill="#ffb3c2"/><path d="m308.607 25.371c-4.688 5.872-9.737 13.363-14.301 22.614-18.082 14.404-47.589 46.601-43.561 101.134-1.504.536-2.936 1.319-4.234 2.349-24.964 19.648-37.42 41.181-43.613 56.996-4.389 11.22-19.503 13.229-26.705 3.575-6.553-8.799-11.838-20.008-10.653-32.537.608-6.449-2.957-12.611-8.85-15.311-11.436-5.244-18.494-15.423-22.842-25.5-4.76-11.065 4.533-23.14 16.444-21.337 16.804 2.556 41.676 2.534 71.173-9.262 6.553-2.628 10.499-9.438 9.489-16.433-4.533-31.455-16.948-53.009-27.56-66.289-7.521-9.407-1.7-23.502 10.262-24.902 10.89-1.278 23.244-.258 33.505 7.036 5.296 3.771 12.384 3.771 17.68 0 10.262-7.294 22.615-8.314 33.505-7.036 11.961 1.401 17.782 15.495 10.261 24.903z" fill="#ff899f"/><path d="m271.516 147.399v263.756h-31.033v-263.756c0-6.646 4.173-12.312 10.045-14.517 1.7-.649 3.544-.999 5.471-.999 4.286 0 8.16 1.741 10.973 4.544 2.813 2.802 4.544 6.685 4.544 10.972z" fill="#ff899f"/><path d="m271.516 219.571v191.584h-31.033v-263.756c0-6.646 4.173-12.312 10.045-14.517-1.163 23.779 4.215 52.504 20.988 86.689z" fill="#ff5f7f"/><path d="m420.6 244.659c0 4.513-1.855 9.015-5.584 12.26-16.536 14.394-31.733 30.147-45.457 47.054-21.945 27.025-40.13 57.017-53.977 89.173l-11.096 25.767-25.211-21.152 9.056-21.049c11.931-27.694 26.891-53.884 44.56-78.086 17.67-24.202 38.039-46.436 60.788-66.228 3.05-2.658 6.852-3.997 10.664-3.997 1.679 0 3.369.258 4.987.794 1.947.618 3.802 1.627 5.461 3.008 3.872 3.245 5.809 7.85 5.809 12.456z" fill="#c7c4ea"/><path d="m409.329 229.195c-18.236 14.352-33.753 37.554-39.77 74.778-21.945 27.025-40.13 57.017-53.977 89.173l-11.096 25.767-25.211-21.152 9.056-21.049c11.931-27.694 26.891-53.884 44.56-78.086 17.67-24.202 38.039-46.436 60.788-66.228 3.05-2.658 6.852-3.997 10.664-3.997 1.678 0 3.368.257 4.986.794z" fill="#b2aee4"/><path d="m232.726 397.761-25.211 21.152-11.096-25.767c-22.512-52.288-56.491-98.847-99.434-136.227-3.73-3.245-5.584-7.747-5.584-12.26 0-3.678 1.236-7.357 3.709-10.344.618-.753 1.319-1.463 2.102-2.112 3.029-2.535 6.738-3.802 10.447-3.802 3.812 0 7.614 1.339 10.664 3.997 17.979 15.64 34.463 32.804 49.3 51.257 3.956 4.904 7.779 9.891 11.488 14.97 17.669 24.202 32.629 50.392 44.56 78.086z" fill="#c7c4ea"/><path d="m232.726 397.761-25.211 21.152-11.096-25.767c-22.512-52.288-56.491-98.847-99.434-136.227-3.73-3.245-5.584-7.747-5.584-12.26 0-3.678 1.236-7.357 3.709-10.344 11.57 20.38 33.382 38.955 72.512 49.341 3.956 4.904 7.779 9.891 11.488 14.97 17.669 24.202 32.629 50.392 44.56 78.086z" fill="#b2aee4"/><path d="m395.636 442.187c0 20.791-7.14 40.099-19.349 56.151-6.511 8.552-17.422 13.662-29.085 13.662h-182.404c-11.663 0-22.574-5.11-29.085-13.661-12.209-16.052-19.349-35.36-19.349-56.151 0-23.408 9.036-44.942 24.202-62.065h230.869c15.165 17.123 24.201 38.656 24.201 62.064z" fill="#e4996d"/><path d="m237.455 512h-72.657c-11.663 0-22.574-5.11-29.085-13.661-12.209-16.052-19.349-35.36-19.349-56.151 0-23.408 9.036-44.942 24.202-62.065h54.75c-10.973 34.535-8.387 80.991 42.139 131.877z" fill="#d97c41"/><path d="m395.636 356.724v.247c0 17.072-13.837 30.909-30.909 30.909h-217.454c-17.072 0-30.909-13.837-30.909-30.909v-.247c0-17.061 13.837-30.909 30.909-30.909h11.642l18.143 7.81 20.245-7.81h167.423c17.073 0 30.91 13.848 30.91 30.909z" fill="#d97c41"/><path d="m228.192 325.815c-9.87 10.334-27.839 32.393-35.04 62.065h-45.879c-17.072 0-30.909-13.837-30.909-30.909v-.247c0-17.061 13.837-30.909 30.909-30.909z" fill="#af602d"/><g><g fill="#fff"><ellipse cx="174.033" cy="459.977" rx="30.244" ry="24.085"/><ellipse cx="337.967" cy="459.977" rx="30.244" ry="24.085"/></g><g><path d="m191.66 444.519c-4.268 0-7.727-3.459-7.727-7.727v-12.364c0-4.268 3.459-7.727 7.727-7.727s7.727 3.459 7.727 7.727v12.364c0 4.267-3.459 7.727-7.727 7.727z" fill="#495560"/></g><g><path d="m320.34 444.519c-4.268 0-7.727-3.459-7.727-7.727v-12.364c0-4.268 3.459-7.727 7.727-7.727s7.727 3.459 7.727 7.727v12.364c0 4.267-3.459 7.727-7.727 7.727z" fill="#495560"/></g><g><path d="m256 451.879c-8.734 0-17.04-3.782-22.788-10.377-2.803-3.217-2.469-8.099.749-10.903 3.217-2.804 8.097-2.468 10.903.749 2.812 3.227 6.871 5.077 11.137 5.077s8.325-1.85 11.137-5.077c2.804-3.217 7.686-3.553 10.903-.749 3.218 2.804 3.552 7.686.749 10.903-5.75 6.594-14.056 10.377-22.79 10.377z" fill="#495560"/></g></g></g></svg>