<svg id="Capa_1" enable-background="new 0 0 512 512" height="512" viewBox="0 0 512 512" width="512" xmlns="http://www.w3.org/2000/svg"><g><path d="m448.1 220-137.9-50.5c8.5-43.6 53.7-71.6 96.9-57 .6.2 1.2.4 1.9.7.6.2 1.2.5 1.9.7 42.5 16.7 58.9 67.3 37.2 106.1z" fill="#ff899f"/><path d="m448.1 220c-1.4 2.6-3 5.1-4.8 7.5-22.8 31.5-72.6 102.3-85 136.1l-72.2-26.4c12.4-33.8 20-120 23-158.8.2-3 .6-6 1.2-8.9 19.9-26 55.1-37.3 87.5-25.4 32.3 11.9 51.9 43.2 50.3 75.9z" fill="#36d49b"/><path d="m201.7 169.5-137.8 50.5c-21.7-38.8-5.3-89.4 37.2-106.1.6-.2 1.2-.5 1.9-.7.6-.2 1.2-.5 1.9-.7 43.1-14.6 88.4 13.4 96.8 57z" fill="#ff5f7f"/><path d="m225.9 337.2-72.2 26.4c-12.4-33.8-62.2-104.6-85-136.1-1.8-2.5-3.4-5-4.8-7.5-1.6-32.7 18-64 50.4-75.9 32.4-11.8 67.6-.6 87.5 25.4.6 2.9 1 5.8 1.2 8.9 2.8 38.8 10.5 125 22.9 158.8z" fill="#00c780"/><path d="m359.7 122.7h-207.4l.3-6.8-1.4-3.6c-3.5-58 41.2-110.7 102-112.2h2.8 2.8c1.8 0 3.6.1 5.3.3 61.7 4.6 105.2 62.1 95.6 122.3z" fill="#ffb3c2"/><path d="m264.1.3c-15.9 15.8-47.7 55.2-54 122.4h-57.9c-9.8-61.9 36.5-121 101-122.7h2.8 2.8c1.8.1 3.6.2 5.3.3z" fill="#ff899f"/><path d="m359.7 122.7c-.6 4.1-1.6 8.2-2.7 12.3-15 52.9-46.7 171-46.7 221.8h-108.6c0-12.2-1.8-28.4-4.8-46.5l-16.6-178.1 49.5-82.4c8.4-2.1 17.2-3.2 26.2-3.2 48.7-.1 89.9 32 103.7 76.1z" fill="#80e0b7"/><path d="m269.8 356.8h-68.1c0-50.8-31.7-168.9-46.7-221.8-1.2-4.1-2.1-8.2-2.7-12.3 11.2-35.9 40.6-63.9 77.4-73-24.6 51.6-38.9 139.7 26.3 271.1 6.7 13.3 11.2 25.3 13.8 36z" fill="#36d49b"/><path d="m420.7 346.3-25 150.2h-279.3l-25-150.2c-3.1-18.8 11.4-36 30.5-36h3.2l34.5 14.5 91.5-14.5h139.2c19 0 33.5 17.1 30.4 36z" fill="#fcf5af"/><path d="m238.1 496.5h-121.7l-25-150.2c-3.1-18.8 11.4-36 30.5-36h129.1s-102.8 77-12.9 186.2z" fill="#f8ea69"/><path d="m416 489.5-11.5 15.6c-3.2 4.3-8.5 6.9-14.2 6.9h-268.6c-5.7 0-11-2.6-14.2-6.9l-11.5-15.6c-7.6-10.3.6-24 14.2-24h291.6c13.6 0 21.8 13.7 14.2 24z" fill="#f8ea69"/><path d="m252 512h-130.3c-5.7 0-11-2.6-14.2-6.9l-11.5-15.6c-7.6-10.3.6-24 14.2-24h106.8c7.9 14.7 19.3 30.3 35 46.5z" fill="#eedb00"/><g><g fill="#ffa1ac"><path d="m204 395.1c0 13.4-13.7 24.2-30.5 24.2s-30.4-10.9-30.4-24.3 13.7-24.2 30.5-24.2 30.4 10.9 30.4 24.3z"/><ellipse cx="338.5" cy="395.4" rx="24.2" ry="30.4" transform="matrix(.002 -1 1 .002 -57.663 732.967)"/></g><g><path d="m191.6 384.7c-4.3 0-7.7-3.5-7.7-7.7v-12.4c0-4.3 3.5-7.7 7.7-7.7s7.7 3.5 7.7 7.7v12.4c0 4.2-3.5 7.7-7.7 7.7z" fill="#495560"/></g><g><path d="m320.3 384.7c-4.3 0-7.7-3.5-7.7-7.7v-12.4c0-4.3 3.5-7.7 7.7-7.7 4.3 0 7.7 3.5 7.7 7.7v12.4c0 4.2-3.5 7.7-7.7 7.7z" fill="#495560"/></g><path d="m285.9 376.6c-4.3 0-7.7 3.5-7.7 7.7 0 4-3.2 7.2-7.2 7.2s-7.2-3.2-7.2-7.2c0-4.3-3.5-7.7-7.7-7.7-4.3 0-7.7 3.5-7.7 7.7 0 4-3.2 7.2-7.2 7.2s-7.2-3.2-7.2-7.2c0-4.3-3.5-7.7-7.7-7.7s-7.7 3.5-7.7 7.7c0 12.5 10.1 22.6 22.6 22.6 5.7 0 10.9-2.1 14.9-5.6 4 3.5 9.2 5.6 14.9 5.6 12.5 0 22.6-10.1 22.6-22.6 0-4.2-3.4-7.7-7.7-7.7z" fill="#495560"/></g></g></svg>