<svg id="Capa_1" enable-background="new 0 0 512 512" height="512" viewBox="0 0 512 512" width="512" xmlns="http://www.w3.org/2000/svg"><g><path d="m333.572 162.911s-38.276 23.924-54.699 131.879c-4.493 29.508-7.357 65.301-7.357 108.605l-15.516-3.874-15.516 3.874c0-43.304-2.864-79.097-7.357-108.605-16.423-107.955-54.699-131.879-54.699-131.879l31.022-7.758s16.413 10.251 32.362 47.641c5.317 12.467 23.058 12.467 28.375 0 15.949-37.39 32.362-47.641 32.362-47.641z" fill="#80e0b7"/><path d="m278.873 294.791c-4.493 29.508-7.357 65.301-7.357 108.605l-15.516-3.875-15.516 3.874c0-43.304-2.864-79.097-7.357-108.605h45.746z" fill="#36d49b"/><path d="m231.798 136.535c-4.987 10.417-12.044 20.246-20.894 29.096-30.301 30.301-72.08 39.564-109.717 17.237-7.522-4.451-14.868-10.169-21.935-17.237-50.198-50.196-32.064-123.162-24.543-146.283 1.525-4.708 5.203-8.387 9.912-9.912 6.244-2.03 16.135-4.842 28.241-6.862l-.011.011 43.696 7.171 4.822.793 21.698-4.976c16.681 4.976 33.227 13.796 47.837 28.405 6.697 6.697 12.189 13.662 16.537 20.771v.011z" fill="#29ce69"/><path d="m101.186 182.869c-7.522-4.451-14.868-10.169-21.935-17.237-50.197-50.197-32.063-123.163-24.542-146.284 1.525-4.708 5.203-8.387 9.912-9.912 6.244-2.03 16.135-4.842 28.241-6.862l-.011.011 43.696 7.171c-32.239 33.692-73.492 96.468-35.361 173.113z" fill="#00c140"/><path d="m161.536 116.266s48.958-13.988 65.904-61.518c16.494 26.971 16.654 56.17 4.357 81.786-38.249 4.634-70.261-20.268-70.261-20.268z" fill="#00c140"/><path d="m161.531 116.269s-5.481-43.891-41.656-87.05c-7.583-9.046-16.516-18.062-27.025-26.634 14.857-2.493 33.063-3.802 51.938-1.03 6.048.886 12.178 2.194 18.277 4.018 21.596 49.032-1.534 110.696-1.534 110.696z" fill="#00c140"/><path d="m144.789 1.555c-7.697 7.305-16.495 16.619-24.913 27.664-7.583-9.046-16.516-18.062-27.025-26.634 14.857-2.493 33.063-3.801 51.938-1.03z" fill="#00a62c"/><path d="m194.285 144.016-4.358 81.765c-4.338 7.12-9.829 14.084-16.537 20.781-3.874 3.874-7.892 7.346-12.003 10.437-11.395 8.583-23.583 14.322-35.834 17.979l-70.215 2.988c-12.096-2.019-21.987-4.822-28.231-6.851-4.708-1.535-8.386-5.213-9.912-9.922-2.029-6.244-4.842-16.135-6.862-28.23l.01.01 5.553-35.391-2.566-34.834c4.976-16.681 13.796-33.227 28.406-47.837 2.226-2.215 4.471-4.307 6.748-6.254l95.809-14.631v-.021c10.416 4.997 20.245 12.054 29.096 20.905 8.862 8.86 15.919 18.679 20.896 29.106z" fill="#80e0b7"/><path d="m161.387 256.999c-11.395 8.583-23.583 14.322-35.834 17.979l-70.215 2.988c-12.096-2.019-21.987-4.822-28.231-6.851-4.708-1.535-8.386-5.213-9.912-9.922-2.029-6.244-4.842-16.135-6.862-28.23l.01.01 5.553-35.391-2.566-34.834c4.976-16.681 13.796-33.227 28.406-47.837 6.707-6.697 13.672-12.189 20.791-16.537l25.624-1.36c-8.54 44.92 5.092 100.114 73.236 159.985z" fill="#36d49b"/><path d="m124.028 164.282s-9.139-31.991-37.761-53.215c-6.779-5.018-14.651-9.448-23.758-12.694l18.36-2.988 9.561-8.284c18.402-3.894 36.916-1.215 53.865 6.924 4.636 38.245-20.267 70.257-20.267 70.257z" fill="#36d49b"/><path d="m86.267 111.066c-6.779-5.018-14.651-9.448-23.758-12.694 9.128-5.574 18.504-9.283 27.921-11.272-2.071 7.667-3.513 15.662-4.163 23.966z" fill="#00c780"/><path d="m124.028 164.282s-11.21 1.401-27.88 7.459c-23.213 8.439-57.007 25.913-85.804 61.231-3.297-19.627-4.523-45.076 2.988-70.225 25.943-11.416 55.42-10.324 77.428-6.759 19.596 3.163 33.268 8.294 33.268 8.294z" fill="#36d49b"/><path d="m96.148 171.741c-23.213 8.439-57.007 25.913-85.804 61.231-3.297-19.627-4.523-45.076 2.988-70.225 25.943-11.416 55.42-10.324 77.428-6.759 1.431 5.172 3.224 10.426 5.388 15.753z" fill="#00c780"/><path d="m189.928 225.799c-16.946-47.53-65.904-61.518-65.904-61.518s32.012-24.902 70.26-20.268c12.298 25.615 12.138 54.815-4.356 81.786z" fill="#36d49b"/><path d="m134.723 230.87c-.391 14.559-2.895 29.869-9.17 44.108-25.139 7.511-50.588 6.274-70.215 2.988 30.394-24.799 47.579-53.287 57.151-75.552 9.54-22.152 11.54-38.132 11.54-38.132s11.642 31.043 10.694 66.588z" fill="#36d49b"/><path d="m134.723 230.87c-.391 14.559-2.895 29.869-9.17 44.108-25.139 7.511-50.588 6.274-70.215 2.988 30.394-24.799 47.579-53.287 57.151-75.552 6.14 9.313 13.507 18.813 22.234 28.456z" fill="#00c780"/><path d="m280.202 136.535c4.987 10.417 12.044 20.246 20.894 29.096 36.36 36.36 89.235 42.418 131.652 0 50.197-50.197 32.063-123.163 24.542-146.283-1.525-4.708-5.203-8.387-9.912-9.912-6.244-2.03-16.135-4.842-28.241-6.862l.011.011-48.518 7.964-21.698-4.976c-16.681 4.976-33.227 13.796-47.837 28.405-6.697 6.697-12.189 13.662-16.537 20.771v.011z" fill="#29ce69"/><path d="m350.464 116.266s-48.958-13.988-65.904-61.518c-16.494 26.971-16.654 56.17-4.357 81.786 38.249 4.634 70.261-20.268 70.261-20.268z" fill="#00c140"/><path d="m419.15 2.585c-19.627-3.293-45.074-4.525-70.216 2.987-21.594 49.031 1.53 110.694 1.53 110.694s8.029-64.213 68.686-113.681z" fill="#00c140"/><path d="m317.716 144.016 4.358 81.765c4.338 7.12 9.829 14.084 16.537 20.781 14.609 14.61 31.156 23.439 47.837 28.416l70.215 2.988c12.096-2.019 21.987-4.822 28.231-6.851 4.708-1.535 8.386-5.213 9.912-9.922 2.029-6.244 4.842-16.135 6.861-28.23l-.01.01-5.553-35.391 2.566-34.834c-4.976-16.681-13.796-33.227-28.406-47.837-6.707-6.697-13.672-12.189-20.791-16.537l-81.766-4.348v-.021c-10.416 4.997-20.245 12.054-29.096 20.905-8.861 8.86-15.919 18.679-20.895 29.106z" fill="#80e0b7"/><g fill="#36d49b"><path d="m387.976 164.281s13.988-48.958 61.518-65.904c-26.971-16.494-56.17-16.654-81.786-4.357-4.633 38.249 20.268 70.261 20.268 70.261z"/><path d="m501.657 232.967c3.293-19.627 4.525-45.074-2.987-70.216-49.031-21.594-110.694 1.53-110.694 1.53s64.214 8.028 113.681 68.686z"/><path d="m322.072 225.799c16.946-47.53 65.904-61.518 65.904-61.518s-32.012-24.902-70.26-20.268c-12.298 25.615-12.137 54.815 4.356 81.786z"/><path d="m386.446 274.975c25.142 7.511 50.59 6.28 70.216 2.987-60.658-49.467-68.686-113.681-68.686-113.681s-23.124 61.663-1.53 110.694z"/></g><path d="m352.973 465.451-5.79 23.141c-3.432 13.754-15.795 23.408-29.983 23.408h-122.4c-14.187 0-26.551-9.654-29.982-23.408l-5.79-23.141 63.343-4.039 33.629-2.143z" fill="#ffb3c2"/><path d="m247.964 512h-53.164c-14.187 0-26.551-9.654-29.982-23.408l-5.79-23.141 63.343-4.039c5.399 15.754 13.662 32.64 25.593 50.588z" fill="#ff899f"/><path d="m378.277 364.223-25.304 101.228h-129.17l-38.678-6.182-26.098 6.182-25.304-101.228c-4.873-19.504 9.881-38.41 29.982-38.41h73.266l4.533 1.515 5.388-1.515h101.403c20.101 0 34.856 18.906 29.982 38.41z" fill="#fcf5af"/><path d="m223.803 465.451h-64.776l-25.304-101.228c-4.873-19.504 9.881-38.41 29.982-38.41h83.187c-17.02 19.133-49.64 67.887-23.089 139.638z" fill="#f8ea69"/><g><g><path d="m280.412 391.593c0-15.087-10.93-16.504-24.411-16.504-13.482 0-24.412 1.417-24.412 16.504 0 15.086 10.93 27.316 24.412 27.316 13.481.001 24.411-12.229 24.411-27.316z" fill="#495560"/></g><g><path d="m179.003 389.06c-4.268 0-7.727-3.459-7.727-7.727v-12.364c0-4.268 3.459-7.727 7.727-7.727s7.727 3.459 7.727 7.727v12.364c0 4.268-3.459 7.727-7.727 7.727z" fill="#495560"/></g><g><path d="m332.998 389.06c-4.268 0-7.727-3.459-7.727-7.727v-12.364c0-4.268 3.459-7.727 7.727-7.727s7.727 3.459 7.727 7.727v12.364c0 4.268-3.459 7.727-7.727 7.727z" fill="#495560"/></g></g></g></svg>