<svg id="Capa_1" enable-background="new 0 0 512 512" height="512" viewBox="0 0 512 512" width="512" xmlns="http://www.w3.org/2000/svg"><g><path d="m512 96.693c0 8.654-.938 17.361-2.854 25.953-6.367 28.643-17.289 55.863-32.187 80.694-14.898 24.83-33.773 47.28-56.049 66.372l-19.864 17.031c-.052.041-.103.082-.144.124-8.294 6.821-20.781.896-20.781-9.839v-180.04c0-23.041-14.778-43.827-36.848-50.447-19.393-5.817-40.726.001-48.482 46.545v38.791h-23.274v-45.268c0-16.764 4.539-33.297 13.576-47.416 24.202-37.813 59.358-28.031 79.429-17.86 9.179 4.652 20.244 3.14 27.754-3.895.086-.081.173-.162.26-.243 28.941-26.911 75.181-21.451 97.838 10.921 14.198 20.276 21.626 44.252 21.626 68.577z" fill="#00c140"/><path d="m0 96.693c0 8.654.937 17.361 2.854 25.953 6.367 28.643 17.289 55.863 32.187 80.694s33.773 47.28 56.049 66.372l19.864 17.031c.052.041.103.082.144.124 8.294 6.821 20.781.896 20.781-9.839v-180.04c0-23.041 14.778-43.827 36.848-50.447 19.393-5.817 40.726.001 48.482 46.545v38.791h23.274v-45.268c0-16.764-4.539-33.297-13.576-47.416-24.202-37.813-59.358-28.031-79.429-17.86-9.179 4.652-20.244 3.14-27.754-3.895-.086-.081-.173-.162-.26-.243-28.941-26.912-75.181-21.451-97.838 10.921-14.198 20.276-21.626 44.252-21.626 68.577z" fill="#00a62c"/><path d="m379.76 345.914-21.523 139.874c-2.318 15.084-15.3 26.211-30.548 26.211h-143.378c-15.248 0-28.23-11.127-30.548-26.211l-21.523-139.874c-2.874-18.731 11.612-35.607 30.559-35.607h186.403c18.947-.001 33.433 16.876 30.558 35.607z" fill="#fcf5af"/><path d="m247.15 511.999h-62.838c-15.248 0-28.23-11.127-30.548-26.211l-21.524-139.874c-2.874-18.731 11.612-35.607 30.559-35.607h78.87l9.221 15.928s-93.346 82.394-3.74 185.764z" fill="#f8ea69"/><path d="m387.065 174.265c0 8.654-.937 17.361-2.854 25.953-12.436 56.007-42.304 106.575-85.268 144.48l-46.127 14.043-72.441-48.424-.01-.01c-7.449-9.345-14.249-19.164-20.39-29.394-12.085-20.143-21.554-41.862-28.096-64.631v-82.167c3.565-9.994 8.479-19.566 14.682-28.426 15.722-22.471 42.809-31.97 67.578-26.685l9.221 10.282 17.124 2.122c1.339 1.061 2.648 2.174 3.915 3.359.206.196.402.381.598.577.752.711 1.556 1.35 2.4 1.886.289.186.577.351.876.515 4.791 2.669 10.664 2.669 15.455 0 1.164-.639 2.267-1.442 3.276-2.401.196-.196.392-.381.598-.577 12.487-11.611 28.189-17.196 43.829-17.196 20.616 0 41.13 9.706 54.009 28.117 14.197 20.276 21.625 44.251 21.625 68.577z" fill="#29ce69"/><path d="m298.943 344.698c-.979.866-1.968 1.731-2.967 2.586l-19.864 17.031c-11.57 9.922-28.653 9.922-40.223 0l-19.864-17.031c-22.275-19.092-41.15-41.542-56.049-66.372-14.898-24.83-25.82-52.051-32.187-80.694-1.916-8.593-2.854-17.299-2.854-25.953 0-24.325 7.428-48.301 21.626-68.577 22.656-32.372 68.896-37.833 97.838-10.921.206.196.402.381.598.577.752.711 1.556 1.35 2.4 1.886-15.187 23.479-78.427 138.06 51.546 247.468z" fill="#00c140"/><path d="m339.609 196.87c2.669 3.328 2.122 8.191-1.205 10.859-1.422 1.143-3.132 1.69-4.822 1.69-2.267 0-4.513-.989-6.038-2.895-21.698-27.117-51.721-24.521-63.817-22.09v25.077c4.956-.103 11.467.206 18.257 1.772 19.669 4.543 32.084 17.021 35.896 36.071.835 4.194-1.875 8.263-6.058 9.098-.515.103-1.02.154-1.525.154-3.606 0-6.841-2.545-7.573-6.213-2.607-13.023-10.53-20.895-24.223-24.048-5.471-1.267-10.818-1.473-14.775-1.38v31.836c13.621 2.566 32.527 12.003 38.554 36.112 1.041 4.142-1.473 8.335-5.615 9.365-.629.165-1.267.237-1.885.237-3.462 0-6.615-2.339-7.49-5.852-2.607-10.447-8.644-17.834-17.948-21.966-1.968-.886-3.884-1.514-5.615-1.978v53.091c0 4.276-3.462 7.727-7.727 7.727-4.266 0-7.727-3.451-7.727-7.727v-53.12c-2.411.649-5.162 1.638-7.944 3.163-6.357 3.452-12.827 9.664-15.62 20.812-.876 3.503-4.028 5.852-7.49 5.852-.618 0-1.247-.072-1.885-.237-4.132-1.03-6.656-5.223-5.615-9.365 3.997-15.99 13.652-25.521 23.687-30.878 5.09-2.73 10.282-4.368 14.867-5.234v-31.878c-6.584-.206-16.969.495-25.49 5.605-6.264 3.761-11.519 9.912-13.507 19.865-.731 3.668-3.967 6.213-7.573 6.213-.505 0-1.01-.051-1.525-.154-4.183-.835-6.893-4.904-6.058-9.098 3.112-15.558 11.972-26.736 25.83-32.784 3.112-1.36 6.47-2.452 10.066-3.287 6.79-1.566 13.301-1.875 18.257-1.772v-25.077c-6.223-1.247-17.196-2.545-29.343.185-11.457 2.576-23.944 8.737-34.474 21.905-1.525 1.906-3.771 2.895-6.038 2.895-1.69 0-3.4-.546-4.822-1.69-3.328-2.668-3.874-7.532-1.205-10.859 12.436-15.547 28.993-25.211 48.208-28.22 2.545-.401 5.131-.68 7.768-.845 7.779-.495 14.682.144 19.906.979v-17.927c-3.431-2.823-10.55-7.975-20.647-11.591-11.869-4.245-27.849-6.357-46.755-.062-4.049 1.35-8.428-.835-9.778-4.884s.834-8.428 4.884-9.777c23.007-7.666 42.51-5.028 57.048.247 5.945 2.154 11.065 4.75 15.249 7.264v-34.312c4.791 2.669 10.664 2.669 15.455 0v34.309c14.435-8.665 39.883-18.309 72.296-7.511 4.039 1.349 6.233 5.728 4.884 9.777s-5.728 6.234-9.778 4.884c-34.969-11.653-59.943 5.502-67.402 11.653v17.927c5.224-.835 12.127-1.463 19.906-.979 22.531 1.402 41.89 11.458 55.974 29.066z" fill="#00c140"/><g fill="#00a62c"><path d="m171.093 134.32c-1.35-4.049.834-8.428 4.884-9.777 23.007-7.666 42.51-5.028 57.048.247-1.865 4.441-3.699 9.283-5.399 14.476-11.869-4.245-27.849-6.357-46.755-.062-4.05 1.349-8.429-.835-9.778-4.884z"/><path d="m218.93 184.619c-11.457 2.576-23.944 8.737-34.474 21.905-1.525 1.906-3.771 2.895-6.038 2.895-1.69 0-3.4-.546-4.822-1.69-3.328-2.668-3.874-7.532-1.205-10.859 12.436-15.547 28.993-25.211 48.208-28.22-.783 5.141-1.36 10.467-1.669 15.969z"/><path d="m209.276 250.394c-.731 3.668-3.967 6.213-7.573 6.213-.505 0-1.01-.051-1.525-.154-4.183-.835-6.893-4.904-6.058-9.098 3.112-15.558 11.972-26.736 25.83-32.784.649 5.223 1.587 10.55 2.833 15.959-6.264 3.761-11.519 9.911-13.507 19.864z"/><path d="m233.405 262.036c2.05 4.575 4.348 9.18 6.924 13.817-6.357 3.452-12.827 9.664-15.62 20.812-.876 3.503-4.028 5.852-7.49 5.852-.618 0-1.247-.072-1.885-.237-4.132-1.03-6.656-5.223-5.615-9.365 3.997-15.99 13.651-25.521 23.686-30.879z"/><path d="m263.727 309.709v16.104c0 4.276-3.462 7.727-7.727 7.727-4.266 0-7.727-3.451-7.727-7.727v-36.823c4.512 6.871 9.643 13.785 15.454 20.719z"/></g><g><g><ellipse cx="256" cy="444.419" fill="#495560" rx="16.92" ry="18.934"/></g><g><path d="m206.184 440.818c-4.268 0-7.727-3.459-7.727-7.727 0-3.56-2.896-6.456-6.455-6.456s-6.455 2.896-6.455 6.456c0 4.268-3.46 7.727-7.727 7.727-4.268 0-7.727-3.459-7.727-7.727 0-12.081 9.828-21.91 21.909-21.91s21.91 9.829 21.91 21.91c-.001 4.268-3.46 7.727-7.728 7.727z" fill="#495560"/></g><g><path d="m332.958 440.818c-4.268 0-7.727-3.459-7.727-7.727 0-3.56-2.896-6.456-6.455-6.456-3.56 0-6.456 2.896-6.456 6.456 0 4.268-3.459 7.727-7.727 7.727s-7.727-3.459-7.727-7.727c0-12.081 9.829-21.91 21.91-21.91s21.909 9.829 21.909 21.91c0 4.268-3.459 7.727-7.727 7.727z" fill="#495560"/></g></g></g></svg>