<svg id="Capa_1" enable-background="new 0 0 512 512" height="512" viewBox="0 0 512 512" width="512" xmlns="http://www.w3.org/2000/svg"><g><path d="m263.727 240.484c0 4.266-3.462 7.727-7.727 7.727s-7.727-3.462-7.727-7.727c0-28.962-18.02-52.453-37.781-69.525-23.78-20.524-50.073-31.744-50.557-31.95-3.936-1.649-5.801-6.172-4.152-10.107 1.638-3.936 6.161-5.801 10.097-4.152.937.392 22.162 9.325 44.695 26.355 1.226.917 2.452 1.865 3.678 2.833 32.361 25.624 49.474 55.554 49.474 86.546z" fill="#36d49b"/><path d="m155.782 128.902c1.638-3.936 6.161-5.801 10.097-4.152.937.392 22.162 9.325 44.695 26.355-.381 6.409-.422 13.023-.082 19.854-23.78-20.524-50.073-31.744-50.557-31.95-3.937-1.648-5.801-6.172-4.153-10.107z" fill="#00c780"/><path d="m256 248.213c-4.268 0-7.727-3.46-7.727-7.727 0-30.993 17.109-60.919 49.476-86.544 23.837-18.87 47.379-28.783 48.37-29.195 3.939-1.644 8.463.221 10.105 4.16 1.641 3.938-.22 8.461-4.157 10.103-.936.392-88.34 37.703-88.34 101.476 0 4.267-3.459 7.727-7.727 7.727z" fill="#36d49b"/><path d="m261.811 268.848c-2.803 3.205-7.686 3.534-10.901.721-5.832-5.1-11.684-9.252-17.536-12.436-11.436-6.244-22.873-8.809-34.155-7.655-27.252 2.782-45.478 26.448-45.653 26.685-1.525 2.009-3.843 3.07-6.182 3.07-1.618 0-3.246-.505-4.636-1.556-3.4-2.566-4.09-7.387-1.535-10.798.896-1.195 22.254-29.199 56.275-32.753 9.149-.958 18.267-.062 27.313 2.658 12.271 3.689 24.408 10.756 36.287 21.152 3.216 2.814 3.536 7.698.723 10.912z" fill="#36d49b"/><path d="m224.802 236.785c2.493 6.645 5.347 13.425 8.572 20.349-11.436-6.244-22.873-8.809-34.155-7.655-27.252 2.782-45.478 26.448-45.653 26.685-1.525 2.009-3.843 3.07-6.182 3.07-1.618 0-3.246-.505-4.636-1.556-3.4-2.566-4.09-7.387-1.535-10.798.896-1.195 22.254-29.199 56.275-32.753 9.15-.958 18.268-.062 27.314 2.658z" fill="#00c780"/><path d="m364.612 279.243c-2.344 0-4.659-1.062-6.177-3.077-.181-.238-18.399-23.901-45.655-26.686-17.065-1.745-34.461 5.016-51.692 20.093-3.212 2.809-8.094 2.484-10.904-.727-2.81-3.212-2.485-8.094.727-10.904 20.642-18.062 42.041-26.077 63.604-23.82 34.014 3.558 55.38 31.566 56.273 32.756 2.561 3.414 1.868 8.258-1.545 10.818-1.39 1.043-3.017 1.547-4.631 1.547z" fill="#36d49b"/><path d="m418.479 204.145c-1.35 4.039-5.718 6.233-9.757 4.884-.216-.072-19.926-6.471-46.508-6.471-1.855 0-3.73.031-5.646.093-37.709 1.298-68.938 15.033-92.841 40.821v113.375c0 4.266-3.462 7.727-7.727 7.727s-7.727-3.462-7.727-7.727v-113.375c-8.737-9.437-18.463-17.247-29.116-23.419-18.494-10.746-39.801-16.577-63.724-17.402-29.405-1.009-51.927 6.306-52.154 6.378-4.039 1.339-8.418-.855-9.757-4.905-1.35-4.039.834-8.407 4.884-9.757.999-.34 24.944-8.181 56.986-7.181 21.255.66 41.027 5.11 58.83 13.126 12.353 5.543 23.759 12.806 34.052 21.708v-136.69c0-4.266 3.462-7.727 7.727-7.727s7.727 3.462 7.727 7.727v136.691c25.15-21.74 56.893-33.712 92.882-34.835 32.053-.999 55.987 6.841 56.986 7.181 4.049 1.35 6.233 5.729 4.883 9.778z" fill="#00c140"/><path d="m219.156 220.053c-18.494-10.746-39.801-16.577-63.724-17.402-29.405-1.009-51.927 6.306-52.154 6.378-4.039 1.339-8.418-.855-9.757-4.905-1.35-4.039.834-8.407 4.884-9.757.999-.34 24.944-8.181 56.986-7.181 21.255.66 41.027 5.11 58.83 13.126 1.298 6.429 2.937 13.003 4.935 19.741z" fill="#00a62c"/><path d="m395.637 341.268v155.216h-279.274v-155.216c0-8.531 6.924-15.455 15.455-15.455h248.366c8.53.001 15.453 6.924 15.453 15.455z" fill="#fcf5af"/><path d="m216.776 496.484h-100.413v-155.216c0-8.531 6.924-15.455 15.455-15.455h95.942c-18.217 22.039-62.272 88.762-10.984 170.671z" fill="#f8ea69"/><path d="m91.017 258.492c13.121-18.194 34.272-27.172 55.116-25.586 7.701.586 14.013 6.346 15.248 13.97 1.472 9.089 10.034 15.263 19.123 13.791 7.624-1.235 15.083 2.935 18.07 10.058 8.085 19.278 6.244 42.181-6.877 60.375-20.051 27.802-63.374 40.37-91.176 20.32s-29.554-65.125-9.504-92.928z" fill="#36d49b"/><path d="m420.983 258.492c-13.121-18.194-34.272-27.172-55.116-25.586-7.701.586-14.013 6.346-15.248 13.97-1.472 9.089-10.034 15.263-19.123 13.791-7.624-1.235-15.083 2.935-18.07 10.058-8.085 19.278-6.244 42.181 6.877 60.375 20.051 27.802 63.374 40.37 91.176 20.32s29.554-65.125 9.504-92.928z" fill="#80e0b7"/><path d="m426.67 488.726c0 6.429-2.607 12.25-6.821 16.464-4.214 4.204-10.025 6.81-16.454 6.81h-294.791c-12.848 0-23.275-10.416-23.275-23.274 0-6.429 2.607-12.24 6.821-16.454s10.025-6.821 16.454-6.821h294.791c12.848 0 23.275 10.427 23.275 23.275z" fill="#f8ea69"/><path d="m227.522 512h-118.918c-12.848 0-23.275-10.416-23.275-23.274 0-6.429 2.607-12.24 6.821-16.454s10.025-6.821 16.454-6.821h92.769c5.492 14.888 13.92 30.466 26.149 46.549z" fill="#eedb00"/><path d="m76.42 131.869c22.432 0 42.085 11.904 52.992 29.738 4.03 6.589 3.05 15.078-2.412 20.54-6.511 6.511-6.511 17.066 0 23.577 5.462 5.461 6.441 13.95 2.412 20.54-10.907 17.833-30.56 29.736-52.992 29.736-34.278 0-69.813-27.787-69.813-62.066s35.535-62.065 69.813-62.065z" fill="#00c140"/><path d="m186.498 59.936c15.862 15.862 21.342 38.176 16.443 58.498-1.81 7.509-8.505 12.818-16.229 12.818-9.207 0-16.672 7.464-16.672 16.672 0 7.724-5.31 14.419-12.818 16.229-20.323 4.898-42.636-.581-58.498-16.443-24.238-24.238-29.717-69.014-5.478-93.252s69.013-18.761 93.252 5.478z" fill="#36d49b"/><path d="m435.58 131.869c-22.432 0-42.085 11.904-52.992 29.738-4.03 6.589-3.05 15.078 2.412 20.54 6.511 6.511 6.511 17.066 0 23.577-5.462 5.461-6.441 13.95-2.412 20.54 10.907 17.833 30.56 29.736 52.992 29.736 34.278 0 69.813-27.787 69.813-62.066s-35.535-62.065-69.813-62.065z" fill="#29ce69"/><path d="m325.502 59.936c-15.862 15.862-21.342 38.176-16.443 58.498 1.81 7.509 8.505 12.818 16.229 12.818 9.207 0 16.672 7.464 16.672 16.672 0 7.724 5.31 14.419 12.818 16.229 20.323 4.898 42.636-.581 58.498-16.443 24.238-24.238 29.717-69.014 5.478-93.252s-69.013-18.761-93.252 5.478z" fill="#80e0b7"/><path d="m318.066 69.814c0 22.43-11.91 42.088-29.745 52.988-6.584 4.029-15.073 3.05-20.534-2.411-3.256-3.256-7.521-4.883-11.787-4.883-4.276 0-8.541 1.627-11.797 4.883-3.215 3.215-7.48 4.873-11.787 4.873-3.009 0-6.038-.803-8.747-2.463-2.699-1.648-5.275-3.503-7.676-5.543-4.317-3.637-8.139-7.871-11.323-12.549l-1.834-27.107-8.892-8.686c.475-33.999 28.077-68.916 62.056-68.916 12.271 0 23.707 4.554 33.33 11.962 17.279 13.312 28.736 35.845 28.736 57.852z" fill="#29ce69"/><path d="m289.33 11.962c-20.42 15.444-58.84 50.608-73.337 105.297-13.497-11.375-22.059-28.416-22.059-47.445 0-34.279 27.788-69.814 62.066-69.814 12.271 0 23.707 4.554 33.33 11.962z" fill="#00c140"/><g><g fill="#ffa1ac"><path d="m203.97 409.903c-.029 13.381-13.674 24.198-30.477 24.161-16.802-.037-30.4-10.914-30.371-24.294s13.674-24.198 30.477-24.161c16.803.036 30.401 10.913 30.371 24.294z"/><ellipse cx="338.453" cy="410.197" rx="24.228" ry="30.424" transform="matrix(.002 -1 1 .002 -72.484 747.751)"/></g><g><path d="m191.57 399.518c-4.268 0-7.727-3.46-7.727-7.727v-12.364c0-4.268 3.46-7.727 7.727-7.727 4.268 0 7.727 3.46 7.727 7.727v12.364c0 4.267-3.46 7.727-7.727 7.727z" fill="#495560"/></g><g><path d="m320.252 399.518c-4.268 0-7.727-3.46-7.727-7.727v-12.364c0-4.268 3.46-7.727 7.727-7.727s7.727 3.46 7.727 7.727v12.364c.001 4.267-3.459 7.727-7.727 7.727z" fill="#495560"/></g><path d="m285.886 391.435c-4.268 0-7.727 3.46-7.727 7.727 0 3.952-3.215 7.166-7.166 7.166s-7.166-3.215-7.166-7.166c0-4.268-3.46-7.727-7.727-7.727-4.268 0-7.727 3.46-7.727 7.727 0 3.952-3.215 7.166-7.166 7.166-3.952 0-7.166-3.215-7.166-7.166 0-4.268-3.46-7.727-7.727-7.727-4.268 0-7.727 3.46-7.727 7.727 0 12.473 10.148 22.621 22.621 22.621 5.701 0 10.911-2.124 14.894-5.616 3.982 3.492 9.193 5.616 14.894 5.616 12.473 0 22.621-10.148 22.621-22.621-.004-4.268-3.463-7.727-7.731-7.727z" fill="#495560"/></g></g></svg>