<svg id="Capa_1" enable-background="new 0 0 512 512" height="512" viewBox="0 0 512 512" width="512" xmlns="http://www.w3.org/2000/svg"><g><path d="m418.929 248.145c0 102.838-17.368 147.412-38.793 147.412s-38.793-44.574-38.793-147.412c0-77.015 21.757-164.866 32.683-204.13 1.961-7.047 10.258-7.047 12.219 0 10.928 39.264 32.684 127.115 32.684 204.13z" fill="#36d49b"/><path d="m372.378 224.935c0 102.838-17.368 147.412-38.793 147.412s-38.793-44.574-38.793-147.412c0-77.015 21.757-164.866 32.683-204.13 1.961-7.047 10.258-7.047 12.219 0 10.927 39.264 32.684 127.115 32.684 204.13z" fill="#80e0b7"/><path d="m341.344 302.455c0 102.838-17.368 147.412-38.793 147.412s-38.793-44.574-38.793-147.412c0-77.015 21.757-164.866 32.683-204.13 1.961-7.047 10.258-7.047 12.219 0 10.927 39.264 32.684 127.115 32.684 204.13z" fill="#36d49b"/><path d="m93.071 248.145c0 102.838 17.368 147.412 38.793 147.412s38.793-44.574 38.793-147.412c0-77.015-21.757-164.866-32.683-204.13-1.961-7.047-10.258-7.047-12.219 0-10.928 39.264-32.684 127.115-32.684 204.13z" fill="#00c780"/><path d="m139.622 224.935c0 102.838 17.368 147.412 38.793 147.412s38.793-44.574 38.793-147.412c0-77.015-21.757-164.866-32.683-204.13-1.961-7.047-10.258-7.047-12.219 0-10.927 39.264-32.684 127.115-32.684 204.13z" fill="#36d49b"/><path d="m170.656 302.455c0 102.838 17.368 147.412 38.793 147.412s38.793-44.574 38.793-147.412c0-77.015-21.757-164.866-32.683-204.13-1.961-7.047-10.258-7.047-12.219 0-10.927 39.264-32.684 127.115-32.684 204.13z" fill="#00c780"/><path d="m294.796 209.414c0 71.677-8.439 115.047-20.814 134.749-5.368 8.573-11.49 12.664-17.981 12.664-7.182 0-13.901-5.008-19.661-15.518v-.01l-12.788-212.434v-.01c7.285-50.934 19.156-97.747 26.338-123.57 1.958-7.048 10.264-7.048 12.221 0 4.812 17.291 11.716 43.979 17.939 75.016 7.925 39.476 14.746 85.99 14.746 129.113z" fill="#80e0b7"/><path d="m273.981 344.164c-5.368 8.573-11.49 12.664-17.981 12.664-21.423 0-38.796-44.576-38.796-147.413 0-77.014 21.762-164.858 32.685-204.128 1.958-7.048 10.264-7.048 12.221 0 4.812 17.291 11.716 43.979 17.939 75.016-30.53 54.333-67.44 155.449-6.068 263.861z" fill="#36d49b"/><path d="m411.172 372.346-18.97 113.821c-2.483 14.911-15.384 25.833-30.49 25.833h-211.424c-15.106 0-28.007-10.922-30.491-25.833l-18.97-113.821z" fill="#fcf5af"/><path d="m219.646 512h-69.358c-15.106 0-28.007-10.922-30.491-25.833l-18.97-113.821h99.735c-15.157 30.913-24.214 80.27 19.084 139.654z" fill="#f8ea69"/><path d="m434.45 364.587c0 6.43-2.607 12.251-6.822 16.456-4.215 4.214-10.037 6.822-16.456 6.822h-310.344c-12.85 0-23.278-10.417-23.278-23.277 0-6.42 2.607-12.242 6.822-16.456 4.019-4.019 9.501-6.574 15.57-6.801h.011l57.714 9.418 64.031-9.439h189.475c12.849-.001 23.277 10.427 23.277 23.277z" fill="#f8ea69"/><path d="m221.697 341.309c-6.512 7.028-19.723 23.288-27.513 46.555h-93.357c-12.85 0-23.278-10.417-23.278-23.277 0-6.42 2.607-12.242 6.822-16.456s10.037-6.822 16.456-6.822z" fill="#eedb00"/><g><g fill="#ffa1ac"><path d="m203.964 456.442c-.029 13.382-13.676 24.201-30.48 24.164s-30.404-10.915-30.374-24.297c.029-13.382 13.676-24.201 30.48-24.164 16.804.036 30.403 10.914 30.374 24.297z"/><ellipse cx="338.463" cy="456.736" rx="24.231" ry="30.427" transform="matrix(.002 -1 1 .002 -119.013 794.198)"/></g><g><path d="m191.562 446.054c-4.269 0-7.728-3.46-7.728-7.728v-12.365c0-4.269 3.46-7.728 7.728-7.728 4.269 0 7.728 3.46 7.728 7.728v12.365c0 4.269-3.459 7.728-7.728 7.728z" fill="#495560"/></g><g><path d="m320.26 446.054c-4.269 0-7.728-3.46-7.728-7.728v-12.365c0-4.269 3.46-7.728 7.728-7.728 4.269 0 7.728 3.46 7.728 7.728v12.365c0 4.269-3.459 7.728-7.728 7.728z" fill="#495560"/></g><path d="m285.89 437.971c-4.269 0-7.728 3.46-7.728 7.728 0 3.953-3.215 7.168-7.167 7.168-3.953 0-7.168-3.215-7.168-7.168 0-4.269-3.46-7.728-7.728-7.728-4.269 0-7.728 3.46-7.728 7.728 0 3.953-3.215 7.168-7.167 7.168-3.953 0-7.168-3.215-7.168-7.168 0-4.269-3.46-7.728-7.728-7.728-4.269 0-7.728 3.46-7.728 7.728 0 12.475 10.149 22.624 22.624 22.624 5.701 0 10.913-2.124 14.895-5.617 3.983 3.493 9.194 5.617 14.895 5.617 12.475 0 22.623-10.149 22.623-22.624.001-4.268-3.459-7.728-7.727-7.728z" fill="#495560"/></g></g></svg>