<svg id="Capa_1" enable-background="new 0 0 512 512" height="512" viewBox="0 0 512 512" width="512" xmlns="http://www.w3.org/2000/svg"><g><path d="m245.654 205.841c-78.55-225.942-191.668-161.741-243.017-115.905-6.25 5.579-.356 15.706 7.599 13.079 52.084-17.2 149.417-26.693 198.333 114.183z" fill="#36d49b"/><path d="m245.654 267.897c-78.55-225.942-191.668-161.74-243.017-115.905-6.25 5.579-.356 15.706 7.599 13.079 52.084-17.199 149.418-26.693 198.333 114.184z" fill="#00c780"/><path d="m249.479 200.732h-38.789c-5.522-149.024-101.365-168.454-156.204-167.26-8.376.186-11.044-11.219-3.431-14.721 45.887-21.141 126.493-41.982 169.649 42.95 15.66 30.774 26.395 75.445 28.775 139.031z" fill="#29ce69"/><path d="m236.209 200.732h-25.519c-5.522-149.024-101.365-168.454-156.204-167.26-8.376.186-11.044-11.219-3.431-14.721 45.887-21.141 126.493-41.982 169.649 42.95-11.25 33.463-19.111 86.849 15.505 139.031z" fill="#00c140"/><path d="m266.346 205.841c78.55-225.942 191.668-161.741 243.017-115.905 6.25 5.579.356 15.706-7.599 13.079-52.084-17.2-149.417-26.693-198.333 114.183z" fill="#80e0b7"/><path d="m266.346 267.897c78.55-225.942 191.668-161.741 243.017-115.905 6.25 5.579.356 15.706-7.599 13.079-52.084-17.199-149.418-26.693-198.333 114.184z" fill="#36d49b"/><path d="m262.524 200.732c8.946-239.039 135.905-210.776 198.425-181.986 7.61 3.504 4.94 14.913-3.436 14.73-54.837-1.194-150.684 18.231-156.204 167.255h-38.785z" fill="#29ce69"/><path d="m263.757 224.105c21.708-86.834 9.244-173.667-.202-217.997-1.736-8.144-13.374-8.144-15.109 0-9.446 44.33-21.911 131.163-.202 217.997z" fill="#80e0b7"/><path d="m362.99 371.39c-5.749 5.595-13.486 8.706-21.512 8.706h-170.956c-8.026 0-15.763-3.111-21.512-8.706-69.922-67.996-5.738-146.437-5.738-146.437h225.457c-.001-.001 64.183 78.441-5.739 146.437z" fill="#fcf5af"/><path d="m485.603 304.749c-9.592 44.815-35.193 87.147-54.984 114.769-12.816 17.895-19.595 39.035-19.595 61.154 0 4.276-3.461 7.727-7.727 7.727s-7.727-3.451-7.727-7.727c0-25.364 7.778-49.626 22.49-70.159 18.936-26.426 43.393-66.79 52.429-108.999 10.591-49.514-3.143-88.94-40.797-117.179-23.273-17.453-49.276-20.461-77.299-8.922-13.341 5.481-24.097 13.136-30.443 18.245l-11.348 11.333-11.472-11.07c7.129-6.614 27.054-24.34 46.896-32.602 33.112-13.794 65.245-10.117 92.938 10.652 22.953 17.215 38.273 38.407 45.526 62.999 6.172 20.894 6.542 44.363 1.113 69.779z" fill="#80e0b7"/><path d="m226.113 380.095h-55.591c-8.026 0-15.763-3.111-21.512-8.706-69.922-67.996-5.738-146.437-5.738-146.437h62.7c-17.401 30.444-29.125 82.832 20.141 155.143z" fill="#f8ea69"/><path d="m403.386 217.194c0 6.429-2.606 12.25-6.82 16.454-4.203 4.214-10.024 6.82-16.453 6.82h-248.225c-12.858 0-23.273-10.416-23.273-23.274 0-6.418 2.606-12.239 6.82-16.453 4.203-4.214 10.024-6.82 16.453-6.82h27.033l33.493 6.81 39.53-6.81h148.168c12.858.001 23.274 10.427 23.274 23.273z" fill="#f8ea69"/><path d="m213.204 193.922-12.639 11.333-10.623-11.333c-6.346-5.13-17.102-12.764-30.423-18.245-28.023-11.539-54.025-8.531-77.299 8.922-37.655 28.239-51.388 67.666-40.797 117.179 9.036 42.208 33.493 82.573 52.429 108.999 14.712 20.532 22.49 44.795 22.49 70.159 0 4.276-3.461 7.727-7.727 7.727-4.265 0-7.727-3.451-7.727-7.727 0-22.119-6.779-43.259-19.595-61.154-19.791-27.623-45.393-69.955-54.984-114.77-5.429-25.416-5.058-48.885 1.113-69.777 7.253-24.592 22.573-45.784 45.526-62.999 27.693-20.77 59.826-24.447 92.938-10.652 21.953 9.147 42.847 28.134 47.318 32.338z" fill="#36d49b"/><path d="m231.944 193.922s-21.511 15.897-33.369 46.547h-66.687c-12.858 0-23.273-10.416-23.273-23.274 0-6.418 2.606-12.239 6.82-16.453 4.203-4.214 10.024-6.82 16.453-6.82z" fill="#eedb00"/><path d="m403.388 488.658c-.205 0-.412-.008-.62-.025-3.429-.276-6.264-2.777-6.954-6.145-10.369-50.637-35.956-73.008-36.213-73.228-3.234-2.766-3.634-7.635-.881-10.881 2.751-3.246 7.599-3.664 10.854-.925 1.058.89 23.005 19.762 36.236 61.953 2.932-4.735 6.578-10.007 11.003-15.38 19.041-23.12 43.572-37.149 70.941-40.571 4.237-.525 8.097 2.474 8.626 6.709s-2.475 8.097-6.709 8.626c-56.526 7.066-78.838 64.294-79.057 64.872-1.145 3.02-4.038 4.995-7.226 4.995z" fill="#29ce69"/><path d="m490.956 481.366c-21.295-.521-54.172 3.022-76.401 25.896-6.139 6.317-16.199 6.317-22.337 0-22.229-22.875-55.106-26.417-76.401-25.896-7.397.175-10.746-9.148-4.976-13.773 18.234-14.591 49.707-30.157 82.423-2.083 5.834 5.006 14.411 5.006 20.245-.001 32.709-28.072 64.189-12.507 82.414 2.084 5.778 4.625 2.43 13.948-4.967 13.773z" fill="#80e0b7"/><path d="m108.613 488.664c-3.198 0-6.094-1.98-7.232-5.013-.214-.565-22.526-57.794-79.052-64.86-4.234-.529-7.238-4.392-6.709-8.626.53-4.235 4.39-7.236 8.626-6.709 27.37 3.422 51.9 17.451 70.941 40.571 4.425 5.374 8.071 10.645 11.003 15.38 13.231-42.191 35.178-61.063 36.236-61.953 3.267-2.747 8.14-2.327 10.887.939 2.742 3.259 2.328 8.12-.919 10.87-.441.381-25.879 22.773-36.209 73.225-.691 3.373-3.531 5.883-6.964 6.152-.204.016-.407.024-.608.024z" fill="#00c140"/><path d="m21.044 481.366c21.295-.521 54.172 3.022 76.401 25.896 6.139 6.317 16.199 6.317 22.337 0 22.229-22.875 55.106-26.417 76.401-25.896 7.397.175 10.746-9.148 4.976-13.773-18.234-14.591-49.707-30.157-82.423-2.083-5.834 5.006-14.411 5.006-20.245-.001-32.709-28.072-64.189-12.507-82.414 2.084-5.778 4.625-2.43 13.948 4.967 13.773z" fill="#36d49b"/><g><g><g fill="#ffa1ac"><ellipse cx="172.919" cy="330.742" rx="30.655" ry="24.412"/><ellipse cx="339.081" cy="330.886" rx="30.655" ry="24.412"/></g><g><path d="m328.447 314.956c-.002 0-.004 0-.006 0-4.267-.003-7.724-3.465-7.721-7.733l.009-12.235c.003-4.265 3.462-7.721 7.727-7.721h.006c4.267.003 7.724 3.465 7.721 7.733l-.009 12.235c-.003 4.265-3.462 7.721-7.727 7.721z" fill="#495560"/></g></g><path d="m209.134 283.588c-1.235-4.081-5.542-6.392-9.629-5.159-6.552 1.975-14.641 2.895-16.993 1.963-2.845-2.881-7.478-3.09-10.572-.391-3.217 2.804-3.551 7.685-.748 10.901 3.504 4.02 9.157 5.306 14.958 5.306 1.384 0 2.776-.076 4.149-.203l-.008 11.092c-.003 4.268 3.454 7.73 7.721 7.733h.006c4.265 0 7.724-3.456 7.727-7.721l.009-12.236c.001-.784-.118-1.538-.334-2.252 3.164-1.708 4.796-5.457 3.714-9.033z" fill="#495560"/><g><path d="m334.802 284.28c-2.372 0-4.714-1.09-6.228-3.146-3.744-5.086-14.016 1.709-14.118 1.78-3.512 2.397-8.319 1.515-10.733-1.987-2.414-3.503-1.557-8.287 1.935-10.717 7.79-5.421 25.208-12.027 35.36 1.761 2.53 3.436 1.796 8.273-1.64 10.803-1.38 1.016-2.984 1.505-4.576 1.506z" fill="#495560"/></g><g><path d="m272.676 325.966c-7.9 0-24.12-.028-36.589-5.126-3.95-1.615-5.843-6.126-4.229-10.076 1.615-3.95 6.126-5.844 10.076-4.229 9.731 3.978 24.589 3.973 30.877 3.977h.124c4.268 0 7.727 3.459 7.727 7.727s-3.459 7.727-7.727 7.727h-.124c-.045 0-.09 0-.135 0z" fill="#495560"/></g></g></g></svg>