<svg id="Capa_1" enable-background="new 0 0 512 512" height="512" viewBox="0 0 512 512" width="512" xmlns="http://www.w3.org/2000/svg"><g><path d="m418.9 311.389c-.536 19.762-16.227 36.194-35.937 37.596-13.837.989-26.273-5.285-33.876-15.403-6.481 4.863-14.538 7.748-23.275 7.748-12.178 0-23.048-5.615-30.167-14.394-8.191 13.291-22.883 22.151-39.646 22.151-8.201 0-15.897-2.112-22.574-5.831-6.996-3.885-12.889-9.52-17.072-16.321-7.12 8.779-17.989 14.394-30.167 14.394-8.737 0-16.794-2.886-23.275-7.748-7.603 10.118-20.039 16.392-33.876 15.403-19.709-1.402-35.401-17.834-35.937-37.596-.587-21.924 17-39.873 38.78-39.873 3.276 0 6.46.413 9.499 1.175 8.346 2.102 17.257 1.237 24.593-3.256 5.893-3.596 12.807-5.677 20.214-5.677 5.409 0 10.571 1.113 15.248 3.121 9.427 4.029 20.163 2.679 28.673-3.018 3.101-2.081 6.46-3.801 10.035-5.079 4.949-1.802 10.296-2.781 15.86-2.781 9.582 0 18.483 2.895 25.891 7.861 8.511 5.698 19.246 7.047 28.673 3.018 4.678-2.008 9.839-3.121 15.248-3.121 7.408 0 14.321 2.081 20.214 5.677 7.336 4.492 16.248 5.358 24.593 3.256 3.039-.763 6.223-1.175 9.499-1.175 21.782 0 39.37 17.949 38.782 39.873z" fill="#e4996d"/><path d="m240.144 258.782-6.717 84.474c-6.996-3.885-12.889-9.52-17.072-16.321-7.12 8.779-17.989 14.394-30.167 14.394-8.737 0-16.794-2.886-23.275-7.748-7.603 10.118-20.039 16.392-33.876 15.403-19.709-1.402-35.401-17.834-35.937-37.596-.587-21.924 17-39.873 38.78-39.873 3.276 0 6.46.413 9.499 1.175 8.346 2.102 17.257 1.237 24.593-3.256 5.893-3.596 12.807-5.677 20.214-5.677 5.409 0 10.571 1.113 15.248 3.121 9.427 4.029 20.163 2.679 28.673-3.018 3.103-2.08 6.462-3.8 10.037-5.078z" fill="#d97c41"/><path d="m418.911 341.33-33.32 146.611c-3.204 14.074-15.712 24.057-30.147 24.057h-198.888c-14.434 0-26.942-9.983-30.147-24.057l-33.32-146.611z" fill="#deddf5"/><path d="m246.47 511.998h-89.914c-14.434 0-26.942-9.983-30.147-24.057l-33.32-146.611h145.715c-21.656 34.153-41.84 94.467 7.666 170.668z" fill="#c7c4ea"/><path d="m487.889 147.417c0 15.042-12.456 27.962-28.344 27.427-50.917-1.71-140.038 7.727-172.513 88.914l-22.388-8.954-16.403-6.563s31.589-79.508 7.758-162.911c-5.316-18.597-13.353-34.453-21.636-47.28-10.591-16.423 1.164-38.049 20.709-38.049 4.976 0 9.705 1.494 13.682 4.141 3.967 2.648 7.171 6.439 9.087 11.034l26.561 63.766c3.575 8.571 11.941 14.145 21.224 14.145 4.513 0 8.819-1.319 12.456-3.657 3.637-2.339 6.615-5.718 8.479-9.819 6.841-15.093 21.183-40.099 47.404-60.375 9.232-7.141 22.316-6.347 30.569 1.906 4.43 4.43 6.769 10.344 6.769 16.361 0 3.03-.597 6.079-1.813 8.985-6.182 14.723-19.555 37.348-47.487 56.13-.876.588-1.669 1.257-2.38 1.988-3.874 3.946-5.347 9.758-3.544 15.156l.062.196c2.298 6.882 9.221 11.117 16.392 10.014l63.652-9.798c14.043-2.163 27.416 6.728 30.868 20.513.568 2.269.836 4.525.836 6.73z" fill="#29ce69"/><path d="m431.305 37.504c0 3.03-.597 6.079-1.813 8.985-6.182 14.723-19.555 37.348-47.487 56.13-.876.588-1.669 1.257-2.38 1.988-41.789 22.821-103.442 69.545-114.981 150.197l-16.403-6.563s31.589-79.508 7.758-162.911c-5.316-18.597-13.353-34.453-21.636-47.28-10.591-16.423 1.164-38.049 20.709-38.049 4.976 0 9.705 1.494 13.682 4.141 3.967 2.648 7.171 6.439 9.087 11.034l26.561 63.766c3.575 8.571 11.941 14.145 21.224 14.145 4.513 0 8.819-1.319 12.456-3.657 3.637-2.339 6.615-5.718 8.479-9.819 6.841-15.093 21.183-40.099 47.404-60.375 9.232-7.141 22.316-6.347 30.569 1.906 4.432 4.432 6.771 10.346 6.771 16.362z" fill="#00c140"/><path d="m233.169 308.945s-58.421-62.506-144.006-76.56c-19.083-3.134-36.864-2.635-51.997-.623-19.372 2.575-33.908-17.296-25.565-34.967 4.25-9.003 13.497-14.568 23.442-14.107l69.005 3.195c9.272.429 17.893-4.759 21.855-13.152 3.85-8.156 2.584-17.805-3.254-24.68-10.728-12.634-27.221-36.275-34.363-68.643-2.514-11.393 3.789-22.89 14.771-26.829 8.862-3.178 18.748-.662 25.043 6.339 10.671 11.868 25.418 33.626 30.489 66.898 1.016 6.665 6.275 11.875 12.969 12.677l.207.025c7.206.864 13.985-3.593 16.049-10.55l18.316-61.738c4.041-13.619 17.789-21.92 31.723-19.152 17.885 3.552 27.482 23.238 19.147 39.457-23.284 45.308-52.799 129.931 6.757 193.958z" fill="#00a62c"/><path d="m310.307 287.033c0 25.057-16.969 46.137-40.037 52.401-4.544 1.236-9.324 1.896-14.27 1.896-25.541 0-46.971-17.629-52.762-41.387l33.279-63.611.01-.01c5.254-2.019 10.9-3.246 16.794-3.524l6.604 3.626 8.902-2.174c23.8 5.76 41.48 27.21 41.48 52.783z" fill="#fcf5af"/><path d="m270.27 339.434c-4.544 1.236-9.324 1.896-14.27 1.896-29.992 0-54.307-24.305-54.307-54.297s24.315-54.307 54.307-54.307c4.42 0 8.716.525 12.827 1.524-7.603 28.622-8.758 62.097.474 100.99.34 1.422.66 2.813.969 4.194z" fill="#f8ea69"/><path d="m441.67 329.295-13.538 46.673c-2.02 6.975-9.695 11.91-18.535 11.91h-307.194c-8.84 0-16.515-4.935-18.535-11.91l-13.538-46.673c-2.813-9.694 6.264-18.988 18.545-18.988h123.224l25.51 6.388 27.056-6.388h158.46c12.281 0 21.358 9.294 18.545 18.988z" fill="#c7c4ea"/><path d="m264.665 310.307s-34.371 28.746-45.477 77.571h-116.785c-8.84 0-16.515-4.935-18.535-11.91l-13.538-46.673c-2.813-9.694 6.264-18.988 18.545-18.988z" fill="#b2aee4"/><path d="m211.652 309.414c-5.425-10.851-17.97-16.041-29.508-12.294-24.795 8.052-68.758 16.958-105.631-3.942-12.482-7.075-22.466-15.675-30.172-23.866-9.505-10.103-26.386-5.769-29.648 7.714l-.18.745c-1.746 7.217.946 14.571 6.776 18.841l40.453 29.628c5.435 3.981 7.944 10.84 6.36 17.388l-.012.051c-1.54 6.366-6.685 11.194-13.118 12.424-11.828 2.261-31.897 8.115-50.657 23.144-6.602 5.289-8.263 14.656-3.856 21.876 3.557 5.827 10.279 8.915 17.018 7.829 11.449-1.845 29.736-7.431 47.791-23.98 3.583-3.284 8.92-3.777 13.041-1.198l.128.08c4.466 2.794 6.267 8.401 4.264 13.273l-17.772 43.234c-3.921 9.537.068 20.491 9.204 25.274 11.732 6.143 26.117-.62 28.797-13.588 6.43-31.121 44.071-87.733 94.398-108.786 13.047-5.458 18.926-20.647 12.602-33.296z" fill="#00c140"/><path d="m300.348 309.414c5.425-10.851 17.97-16.041 29.508-12.294 24.795 8.052 68.758 16.958 105.631-3.942 12.482-7.075 22.466-15.675 30.172-23.866 9.505-10.103 26.386-5.769 29.648 7.714l.18.745c1.746 7.217-.946 14.571-6.776 18.841l-40.453 29.628c-5.435 3.981-7.944 10.84-6.36 17.388l.012.051c1.54 6.366 6.685 11.194 13.118 12.424 11.828 2.261 31.897 8.115 50.657 23.144 6.602 5.289 8.263 14.656 3.856 21.876-3.557 5.827-10.279 8.915-17.018 7.829-11.449-1.845-29.736-7.431-47.791-23.98-3.583-3.284-8.92-3.777-13.041-1.198l-.128.08c-4.466 2.794-6.267 8.401-4.264 13.273l17.772 43.234c3.921 9.537-.068 20.491-9.204 25.274-11.732 6.143-26.117-.62-28.797-13.588-6.43-31.121-44.071-87.733-94.398-108.786-13.047-5.458-18.926-20.647-12.602-33.296z" fill="#29ce69"/><g><g fill="#ffa1ac"><ellipse cx="174.033" cy="459.124" rx="30.244" ry="24.085"/><ellipse cx="337.967" cy="459.124" rx="30.244" ry="24.085"/></g><g><path d="m191.659 443.666c-4.268 0-7.727-3.459-7.727-7.727v-12.364c0-4.268 3.46-7.727 7.727-7.727 4.268 0 7.727 3.459 7.727 7.727v12.364c0 4.268-3.459 7.727-7.727 7.727z" fill="#495560"/></g><g><path d="m320.34 443.666c-4.268 0-7.727-3.459-7.727-7.727v-12.364c0-4.268 3.459-7.727 7.727-7.727s7.727 3.459 7.727 7.727v12.364c.001 4.268-3.459 7.727-7.727 7.727z" fill="#495560"/></g><g><path d="m256 451.025c-8.735 0-17.041-3.782-22.789-10.377-2.804-3.218-2.469-8.099.749-10.903 3.218-2.803 8.098-2.468 10.903.749 2.812 3.227 6.871 5.077 11.138 5.077 4.266 0 8.326-1.85 11.137-5.076 2.802-3.22 7.685-3.553 10.902-.75 3.218 2.803 3.554 7.685.75 10.902-5.749 6.596-14.055 10.378-22.79 10.378z" fill="#495560"/></g></g></g></svg>