<svg id="Capa_1" enable-background="new 0 0 512 512" height="512" viewBox="0 0 512 512" width="512" xmlns="http://www.w3.org/2000/svg"><g><path d="m150.847 207.684-.862-.278c-7.915-2.553-12.262-11.04-9.708-18.955l57.426-178.011c2.553-7.915 11.04-12.262 18.955-9.708l.862.278c7.915 2.553 12.262 11.04 9.708 18.955l-57.426 178.011c-2.553 7.915-11.04 12.261-18.955 9.708z" fill="#d97c41"/><path d="m361.153 207.684.862-.278c7.915-2.553 12.262-11.04 9.708-18.955l-57.426-178.011c-2.553-7.915-11.04-12.262-18.955-9.708l-.862.278c-7.915 2.553-12.262 11.04-9.708 18.955l57.426 178.011c2.553 7.915 11.04 12.261 18.955 9.708z" fill="#e4996d"/><circle cx="31.082" cy="426.686" fill="#ff5f7f" r="23.267"/><circle cx="100.884" cy="411.175" fill="#ff5f7f" r="23.267"/><path d="m403.362 294.84c0 25.7-10.414 48.969-27.256 65.811s-40.111 27.256-65.811 27.256h-107.385c-51.74 0-94.818-42.336-94.261-94.076.175-16.811 4.8-32.55 12.763-46.085 5.49-9.343 15.636-14.946 26.473-14.946h216.232c10.867 0 21.013 5.645 26.514 15.018 8.095 13.793 12.731 29.862 12.731 47.022z" fill="#fcf5af"/><path d="m252.034 387.907h-49.124c-51.74 0-94.818-42.336-94.261-94.076.175-16.811 4.8-32.55 12.763-46.085 5.49-9.343 15.636-14.946 26.473-14.946h104.995c-19.572 20.58-49.898 70.559-.846 155.107z" fill="#f8ea69"/><circle cx="85.372" cy="310.349" fill="#ff5f7f" r="31.023"/><circle cx="31.082" cy="225.035" fill="#ff5f7f" r="31.023"/><path d="m199.985 232.795h-34.816c-4.934-10.805-16.358-23.269-42.737-23.269-46.539 0-85.321 31.026-54.295 108.58 23.605 59.004 20.271 122.504.247 163.168-6.85 13.911-27.406 11.284-30.447-3.922-.527-2.637-.398-5.37.405-7.937 21.192-67.699-1.373-113.237-8.987-151.31-7.757-38.782-23.26-124.092 69.807-139.605s100.823 54.295 100.823 54.295z" fill="#00c780"/><circle cx="77.617" cy="488.733" fill="#ff5f7f" r="23.267"/><circle cx="100.884" cy="162.989" fill="#ff5f7f" r="23.267"/><circle cx="23.326" cy="349.128" fill="#ff5f7f" r="23.267"/><g fill="#ffb3c2"><circle cx="480.918" cy="426.686" r="23.267"/><circle cx="411.116" cy="411.175" r="23.267"/><circle cx="426.628" cy="310.349" r="31.023"/><circle cx="480.918" cy="225.035" r="31.023"/></g><path d="m312.015 232.795h34.816c4.934-10.805 16.358-23.269 42.737-23.269 46.539 0 85.321 31.026 54.295 108.58-23.605 59.004-20.271 122.504-.247 163.168 6.85 13.911 27.406 11.284 30.447-3.922.527-2.637.398-5.37-.405-7.937-21.192-67.699 1.373-113.237 8.987-151.31 7.756-38.782 23.259-124.092-69.808-139.605-93.066-15.513-100.822 54.295-100.822 54.295z" fill="#36d49b"/><circle cx="434.383" cy="488.733" fill="#ffb3c2" r="23.267"/><circle cx="411.116" cy="162.989" fill="#ffb3c2" r="23.267"/><circle cx="488.674" cy="349.128" fill="#ffb3c2" r="23.267"/><circle cx="209.465" cy="387.907" fill="#ff899f" r="23.267"/><circle cx="162.93" cy="240.547" fill="#ff899f" r="23.267"/><path d="m225.86 208.481c-2.391-6.058-9.6-8.527-15.24-5.27-15.801 9.127-42.136 31.42-35.011 76.349 10.018 63.167-5.434 61.808-17.915 115.211-11.02 47.152 17.277 61.342 24.052 64.018.834.329 1.705.532 2.598.611 8.518.749 13.479-9.403 7.641-15.651-10.003-10.706-15.818-26.046-3.387-46.26 18.169-29.545 29.292-67.496 17.915-115.211-6.299-26.419 10.49-53.266 18.071-63.672 2.136-2.931 2.607-6.752 1.276-10.125z" fill="#36d49b"/><path d="m248.244 287.084c0 12.587-10.002 22.847-22.497 23.248l-20.611-16.78 11.918-25.072 15.338-3.451c9.218 3.092 15.852 11.796 15.852 22.055z" fill="#ffb3c2"/><path d="m225.747 310.333c-.258.021-.515.021-.773.021-12.845 0-23.269-10.424-23.269-23.269 0-12.855 10.424-23.269 23.269-23.269 2.596 0 5.089.422 7.417 1.215-4.79 12.319-7.787 27.379-6.644 45.302z" fill="#ff899f"/><circle cx="155.175" cy="356.884" fill="#ff899f" r="23.267"/><circle cx="302.535" cy="395.663" fill="#ffb3c2" r="23.267"/><circle cx="349.07" cy="240.547" fill="#ffb3c2" r="23.267"/><circle cx="294.779" cy="310.349" fill="#ffb3c2" r="23.267"/><path d="m286.14 208.481c2.391-6.058 9.6-8.527 15.24-5.27 15.801 9.127 42.136 31.42 35.011 76.349-10.018 63.167 5.434 61.808 17.915 115.211 11.02 47.152-17.277 61.342-24.052 64.018-.834.329-1.705.532-2.599.611-8.518.749-13.479-9.403-7.641-15.651 10.003-10.706 15.818-26.046 3.387-46.26-18.169-29.545-29.292-67.496-17.915-115.211 6.299-26.419-10.49-53.266-18.071-63.672-2.135-2.931-2.606-6.752-1.275-10.125z" fill="#80e0b7"/><circle cx="356.825" cy="356.884" fill="#ffb3c2" r="23.267"/></g></svg>