<svg id="Capa_1" enable-background="new 0 0 512 512" height="512" viewBox="0 0 512 512" width="512" xmlns="http://www.w3.org/2000/svg"><g><path d="m201.781 344.328c27.077-139.284 151.301-172.364 218.407-164.738 31.249 3.551 65.327-.598 79.941-2.805 4.495-.679 8.661 1.117 10.666 4.59 2.006 3.474 1.478 7.979-1.358 11.533-9.218 11.553-29.85 38.991-42.4 67.828-26.949 61.928-117.709 152.97-251.871 106.777z" fill="#29ce69"/><path d="m310.219 344.328c-27.076-139.284-151.3-172.363-218.407-164.738-31.249 3.551-65.327-.598-79.941-2.805-4.495-.679-8.661 1.117-10.666 4.59-2.006 3.474-1.478 7.979 1.358 11.533 9.218 11.553 29.85 38.991 42.4 67.828 26.949 61.928 117.709 152.97 251.871 106.777z" fill="#00c140"/><path d="m279.228 339.28c46.193-134.162-44.848-224.922-106.777-251.871-28.838-12.549-56.276-33.182-67.828-42.4-3.554-2.836-8.059-3.364-11.533-1.358-3.474 2.006-5.269 6.171-4.59 10.666 2.207 14.614 6.356 48.692 2.805 79.941-7.625 67.106 25.455 191.33 164.738 218.407z" fill="#00a62c"/><path d="m232.772 339.28c-46.193-134.161 44.848-224.921 106.777-251.871 28.838-12.549 56.276-33.182 67.828-42.4 3.554-2.836 8.059-3.364 11.533-1.358 3.474 2.006 5.269 6.171 4.59 10.666-2.207 14.614-6.356 48.692-2.805 79.941 7.625 67.106-25.455 191.33-164.738 218.407z" fill="#00c140"/><path d="m269.384 349.087h-26.767c-8.706-7.572-16.485-15.341-23.408-23.274v-.01l-33.639-114.374 9.829-111.798c4.338-8.222 9.005-15.631 13.755-22.059 18.7-25.284 32.145-56.873 37.534-70.628.835-2.112 2.164-3.853 3.781-5.058 1.618-1.205 3.534-1.886 5.533-1.886 4.008 0 7.645 2.71 9.304 6.943 2.689 6.842 7.377 18.134 13.713 30.848 6.388 12.817 14.445 27.087 23.831 39.78 40.159 54.309 73.623 178.429-33.466 271.516z" fill="#29ce69"/><path d="m248.273 325.813c4.667 8.51 8.376 16.248 11.21 23.274h-16.866c-107.09-93.087-73.626-217.207-33.465-271.515 18.7-25.284 32.145-56.873 37.534-70.628.835-2.112 2.164-3.853 3.781-5.058 1.618-1.205 3.534-1.886 5.533-1.886 4.008 0 7.645 2.71 9.304 6.943 2.689 6.842 7.377 18.134 13.713 30.848-32.042 37.308-107.749 147.623-30.744 288.022z" fill="#00c140"/><path d="m256 349.06c-4.268 0-7.727-3.459-7.727-7.727v-217.212c0-4.268 3.46-7.727 7.727-7.727s7.727 3.459 7.727 7.727v217.212c0 4.268-3.459 7.727-7.727 7.727z" fill="#00c140"/><path d="m511.999 418.912c0 25.706-10.416 48.981-27.262 65.826-16.846 16.846-40.12 27.262-65.826 27.262h-325.823c-51.412 0-93.088-41.676-93.088-93.087 0-25.706 10.416-48.981 27.262-65.826 16.608-16.609 39.471-26.984 64.755-27.263h.021l55.915 11.88 74.233-11.89h196.726c51.412-.001 93.087 41.685 93.087 93.098z" fill="#e4996d"/><path d="m227.327 511.999h-134.239c-51.412 0-93.088-41.676-93.088-93.087 0-25.706 10.416-48.981 27.262-65.826 16.846-16.846 40.12-27.273 65.826-27.273h129.097c-16.454 16.876-82.434 94.994 5.142 186.186z" fill="#d97c41"/><g><g fill="#fff"><ellipse cx="175.248" cy="430.878" rx="29.796" ry="23.728"/><ellipse cx="336.752" cy="430.878" rx="29.796" ry="23.728"/></g><g><path d="m206.795 412.785c-4.268 0-7.727-3.459-7.727-7.727 0-3.559-2.896-6.454-6.455-6.454s-6.455 2.896-6.455 6.454c0 4.268-3.46 7.727-7.727 7.727s-7.727-3.459-7.727-7.727c0-12.081 9.829-21.909 21.91-21.909s21.91 9.828 21.91 21.909c-.001 4.268-3.461 7.727-7.729 7.727z" fill="#495560"/></g><g><path d="m333.569 412.785c-4.268 0-7.727-3.459-7.727-7.727 0-3.559-2.896-6.454-6.455-6.454s-6.455 2.896-6.455 6.454c0 4.268-3.46 7.727-7.727 7.727s-7.727-3.459-7.727-7.727c0-12.081 9.829-21.909 21.91-21.909s21.91 9.828 21.91 21.909c-.002 4.268-3.461 7.727-7.729 7.727z" fill="#495560"/></g><g><path d="m256 436.214c-7.998 0-15.605-3.463-20.869-9.503-2.804-3.217-2.469-8.099.748-10.902 3.217-2.805 8.098-2.471 10.902.748 2.328 2.67 5.688 4.203 9.218 4.203s6.89-1.532 9.218-4.203c2.804-3.218 7.686-3.554 10.902-.748 3.217 2.803 3.552 7.685.748 10.902-5.262 6.04-12.869 9.503-20.867 9.503z" fill="#495560"/></g></g></g></svg>