<svg id="Capa_1" enable-background="new 0 0 512 512" height="512" viewBox="0 0 512 512" width="512" xmlns="http://www.w3.org/2000/svg"><g><path d="m382.283 161.367c-21.206 21.206-15.721 50.103 5.485 71.31 21.206 21.206 50.103 26.692 71.31 5.485 26.758-26.758 34.869-72.161 37.328-97.23.952-9.703-7.191-17.845-16.893-16.893-25.069 2.46-70.472 10.571-97.23 37.328z" fill="#36d49b"/><path d="m393.254 161.367c21.206 21.206 15.721 50.103-5.485 71.31-21.206 21.206-50.103 26.692-71.31 5.485-26.758-26.758-34.869-72.161-37.328-97.23-.952-9.703 7.191-17.845 16.893-16.893 25.069 2.46 70.472 10.571 97.23 37.328z" fill="#00c780"/><path d="m442.071 186.136c0 27.972-19.473 44.529-46.652 46.59l-1.298.536-6.171 2.555-8.047-3.091-34.237-39.532 1.484-58.562c8.83-17.875 20.204-33.34 28.673-43.643 6.192-7.542 17.7-7.542 23.892 0 1.525 1.855 3.142 3.874 4.822 6.048 15.949 20.626 37.534 54.862 37.534 89.099z" fill="#80e0b7"/><path d="m394.12 233.261-6.171 2.555-8.047-3.091c-27.148-2.081-46.435-18.648-46.435-46.59 0-37.843 26.365-75.685 42.355-95.148 6.192-7.542 17.7-7.542 23.892 0 1.525 1.855 3.142 3.874 4.822 6.048-23.728 23.708-56.584 72.894-10.416 136.226z" fill="#36d49b"/><path d="m118.746 161.367c-21.206 21.206-15.721 50.103 5.485 71.31s50.103 26.692 71.31 5.485c26.758-26.758 34.869-72.161 37.328-97.23.952-9.703-7.191-17.845-16.893-16.893-25.069 2.46-70.473 10.571-97.23 37.328z" fill="#36d49b"/><path d="m129.717 161.367c21.206 21.206 15.721 50.103-5.485 71.31s-50.103 26.692-71.31 5.485c-26.758-26.758-34.869-72.161-37.328-97.23-.952-9.703 7.191-17.845 16.893-16.893 25.069 2.46 70.472 10.571 97.23 37.328z" fill="#00c780"/><path d="m178.532 186.136c0 27.972-19.473 44.529-46.652 46.59l-1.298.536-6.171 2.555-8.047-3.091-37.039-34.443 4.296-63.651c8.819-17.875 20.194-33.34 28.663-43.643 6.192-7.542 17.7-7.542 23.892 0 1.525 1.855 3.142 3.874 4.822 6.048 15.95 20.626 37.534 54.862 37.534 89.099z" fill="#80e0b7"/><path d="m130.583 233.261-6.171 2.555-8.047-3.091c-27.148-2.081-46.435-18.648-46.435-46.59 0-37.843 26.365-75.685 42.355-95.148 6.192-7.542 17.7-7.542 23.892 0 1.525 1.855 3.142 3.874 4.822 6.048-23.728 23.708-56.584 72.894-10.416 136.226z" fill="#36d49b"/><path d="m510.678 272.516-34.608 115.361h-440.14l-34.608-115.361c-5.945-19.833 8.902-39.79 29.611-39.79h17.01l73.707 14.486 78.869-14.486h280.548c20.709 0 35.556 19.957 29.611 39.79z" fill="#deddf5"/><path d="m187.156 387.877h-151.226l-34.608-115.361c-5.945-19.833 8.902-39.79 29.611-39.79h179.631c-14.774 14.764-61.333 70.502-23.408 155.151z" fill="#c7c4ea"/><path d="m504.238 403.394c0 6.429-2.607 12.24-6.82 16.454-4.204 4.214-10.025 6.82-16.454 6.82h-449.928c-12.858 0-23.274-10.426-23.274-23.274 0-6.429 2.607-12.25 6.82-16.464 4.204-4.204 10.025-6.81 16.454-6.81h449.928c12.858-.001 23.274 10.416 23.274 23.274z" fill="#c7c4ea"/><path d="m209.451 426.668h-178.415c-12.858 0-23.274-10.426-23.274-23.274 0-6.429 2.607-12.25 6.82-16.464 4.204-4.204 10.025-6.81 16.454-6.81h152.844c5.79 14.619 14.104 30.166 25.571 46.548z" fill="#b2aee4"/><g><g><path d="m202.166 315.898c.007 13.845-14.081 25.075-31.466 25.084s-31.484-11.207-31.492-25.052c-.007-13.845 14.081-25.075 31.466-25.084 17.386-.009 31.485 11.207 31.492 25.052z" fill="#ffa1ac"/><path d="m309.834 315.844c.007 13.845 14.106 25.061 31.491 25.052s31.473-11.239 31.466-25.084-14.106-25.061-31.491-25.052-31.473 11.239-31.466 25.084z" fill="#ffa1ac"/><path d="m286.851 304.523c-.01-19.07-13.825-20.855-30.867-20.846s-30.856 1.807-30.846 20.877c.01 19.069 13.832 34.521 30.874 34.513 17.041-.009 30.848-15.475 30.839-34.544z" fill="#495560"/></g><g><path d="m174.036 296.361c-4.266 0-7.725-3.457-7.727-7.724-.003-6.066 2.356-11.77 6.644-16.062s9.99-6.657 16.056-6.66h.011c6.062 0 11.762 2.359 16.051 6.644 4.292 4.287 6.657 9.989 6.66 16.056.002 4.268-3.456 7.729-7.724 7.731-.001 0-.003 0-.004 0-4.266 0-7.725-3.457-7.727-7.724-.002-3.999-3.257-7.252-7.256-7.252-.002 0-.003 0-.004 0-4.001.002-7.254 3.259-7.252 7.26.002 4.268-3.456 7.729-7.724 7.731-.002 0-.003 0-.004 0z" fill="#495560"/></g><g><path d="m307.97 296.294c-4.266 0-7.725-3.457-7.727-7.724-.006-12.522 10.177-22.715 22.699-22.722h.011c6.062 0 11.762 2.359 16.051 6.644 4.292 4.287 6.657 9.989 6.66 16.056.002 4.268-3.456 7.729-7.724 7.731-.001 0-.003 0-.004 0-4.266.001-7.725-3.457-7.727-7.724-.002-3.999-3.257-7.252-7.256-7.252-.001 0-.003 0-.004 0-4 .002-7.254 3.259-7.252 7.26.002 4.268-3.456 7.729-7.724 7.731-.001 0-.002 0-.003 0z" fill="#495560"/></g></g></g></svg>