<svg id="Capa_1" enable-background="new 0 0 512 512" height="512" viewBox="0 0 512 512" width="512" xmlns="http://www.w3.org/2000/svg"><g><path d="m408.847 374.439-18.686 112.115c-2.446 14.687-15.154 25.446-30.034 25.446h-208.254c-14.88 0-27.587-10.759-30.033-25.446l-18.686-112.115z" fill="#deddf5"/><path d="m211.787 512h-59.915c-14.88 0-27.587-10.759-30.033-25.446l-18.686-112.115h80.539c-14.148 30.318-22.502 80.407 28.095 137.561z" fill="#c7c4ea"/><path d="m266.77 282.704c-.28 0-.564-.015-.849-.047-4.179-.464-7.189-4.228-6.725-8.406 5.903-53.124 2.746-62.92-6.627-91.997-2.464-7.645-5.257-16.309-8.411-27.347-6.882-24.088-3.237-47.742 10.538-68.407 10.28-15.419 22.607-23.736 23.128-24.083 3.498-2.332 8.225-1.387 10.556 2.111 2.328 3.492 1.39 8.209-2.093 10.545-1.681 1.134-41.013 28.319-27.489 75.651 3.083 10.793 5.834 19.328 8.262 26.859 9.57 29.691 13.532 41.98 7.268 98.348-.433 3.894-3.73 6.773-7.558 6.773z" fill="#29ce69"/><path d="m306.384 82.124c-7.156 11.49-20.716 16.575-33.19 13.53-1.766-.426-3.522-1.025-5.217-1.786v-.01l-3.187-7.379-8.688-2.03c-7.45-9.805-8.496-23.588-1.604-34.662 7.298-11.703 26.653-21.853 38.783-24.664 8.12-1.878 16.27 3.207 18.158 11.317.294 1.259.548 2.619.761 4.06 1.867 12.483.731 31.129-5.816 41.624z" fill="#ffb3c2"/><path d="m273.194 95.653c-3.075-.741-6.08-1.989-8.912-3.755-14.331-8.932-18.706-27.78-9.784-42.112 7.298-11.703 26.653-21.853 38.783-24.664 8.12-1.878 16.27 3.207 18.158 11.317.294 1.259.548 2.619.761 4.06-17.235 4.233-49.471 17.336-39.006 55.154z" fill="#ff899f"/><path d="m195.25 273.223c-3.828 0-7.125-2.879-7.557-6.772-6.263-56.368-2.302-68.658 7.268-98.348 2.427-7.531 5.179-16.066 8.262-26.859 13.524-47.332-25.808-74.517-27.489-75.651-3.478-2.347-4.41-7.072-2.073-10.557 2.336-3.484 7.043-4.427 10.535-2.099.52.346 12.848 8.664 23.128 24.083 13.776 20.665 17.42 44.319 10.538 68.407-3.154 11.037-5.947 19.702-8.411 27.347-9.373 29.077-12.53 38.873-6.627 91.997.464 4.178-2.546 7.942-6.725 8.406-.285.031-.569.046-.849.046z" fill="#00c140"/><g fill="#ffb3c2"><path d="m419.721 45.442c-3.695 0-6.937-2.695-7.514-6.46l-4.632-30.216c-.637-4.156 2.215-8.041 6.37-8.678 4.165-.634 8.042 2.216 8.678 6.371l4.632 30.216c.637 4.156-2.215 8.041-6.37 8.678-.391.06-.781.089-1.164.089z"/><path d="m390.76 58.17c-2.231 0-4.441-.976-5.944-2.852l-19.119-23.852c-2.63-3.28-2.102-8.071 1.179-10.701s8.07-2.102 10.7 1.179l19.119 23.852c2.63 3.28 2.102 8.071-1.179 10.701-1.405 1.126-3.086 1.673-4.756 1.673z"/><path d="m372.024 83.682c-.919 0-1.854-.168-2.761-.521l-28.484-11.097c-3.917-1.526-5.856-5.939-4.33-9.856s5.939-5.856 9.856-4.33l28.484 11.097c3.917 1.526 5.856 5.939 4.33 9.856-1.172 3.009-4.049 4.851-7.095 4.851z"/><path d="m451.185 48.908c-.919 0-1.854-.168-2.761-.521-3.917-1.526-5.856-5.939-4.33-9.856l11.097-28.483c1.526-3.917 5.939-5.856 9.856-4.33s5.856 5.939 4.33 9.856l-11.097 28.483c-1.172 3.01-4.049 4.851-7.095 4.851z"/><path d="m476.703 67.636c-2.231 0-4.441-.976-5.944-2.852-2.63-3.28-2.102-8.071 1.179-10.701l23.852-19.119c3.28-2.631 8.07-2.102 10.7 1.179 2.63 3.28 2.102 8.071-1.179 10.701l-23.852 19.119c-1.405 1.126-3.086 1.673-4.756 1.673z"/></g><path d="m496.981 87.84c.797 5.197.99 10.343.63 15.368l-132.591 20.324c-1.858-4.685-3.215-9.652-4.011-14.849-5.756-37.552 20.017-72.657 57.559-78.412 37.552-5.756 72.657 20.017 78.413 57.569z" fill="#36d49b"/><path d="m508.193 110.827c0 9.642-8.932 16.849-18.331 14.727-2.679-.599-5.359-1.116-8.018-1.563-33.931-5.674-68.735.396-99.336 16.108-40.488 20.787-95.947 62.574-95.947 142.636h.01v91.704h-38.214v-91.704c0-81.382 39.798-130.537 58.849-150.015 5.633-5.755 14.037-7.815 21.68-5.268 2.162.721 4.385 1.076 6.608 1.076 4.588 0 9.125-1.512 12.87-4.385 8.221-6.313 19.407-13.053 35.677-19.366 26.775-10.383 55.469-15.154 84.122-13.307 9.937.64 20.29 2.111 29.577 4.994 6.251 1.95 10.453 7.817 10.453 14.363z" fill="#80e0b7"/><path d="m92.278 137.149c-.384 0-.771-.029-1.163-.089-4.155-.637-7.008-4.522-6.37-8.678l4.632-30.216c.637-4.156 4.518-7.009 8.678-6.371 4.155.637 7.008 4.522 6.37 8.678l-4.632 30.216c-.576 3.765-3.82 6.46-7.515 6.46z" fill="#ff899f"/><path d="m121.24 149.877c-1.67 0-3.351-.547-4.756-1.673-3.281-2.63-3.808-7.421-1.179-10.701l19.119-23.852c2.628-3.28 7.419-3.808 10.7-1.179 3.281 2.63 3.808 7.421 1.179 10.701l-19.119 23.852c-1.502 1.875-3.714 2.852-5.944 2.852z" fill="#ff899f"/><path d="m139.976 175.389c-3.047 0-5.922-1.842-7.095-4.851-1.526-3.918.412-8.331 4.33-9.856l28.484-11.097c3.919-1.528 8.33.413 9.856 4.33 1.526 3.918-.412 8.331-4.33 9.856l-28.484 11.097c-.908.353-1.843.521-2.761.521z" fill="#ff899f"/><path d="m60.815 140.615c-3.047 0-5.922-1.841-7.095-4.851l-11.098-28.484c-1.526-3.917.412-8.331 4.33-9.856 3.919-1.527 8.33.412 9.856 4.33l11.097 28.484c1.526 3.917-.412 8.331-4.33 9.856-.907.354-1.841.521-2.76.521z" fill="#ff899f"/><path d="m35.297 159.343c-1.67 0-3.351-.547-4.756-1.673l-23.851-19.12c-3.281-2.63-3.808-7.421-1.179-10.701 2.628-3.28 7.42-3.808 10.7-1.179l23.852 19.119c3.281 2.63 3.808 7.421 1.179 10.701-1.503 1.876-3.714 2.853-5.945 2.853z" fill="#ff899f"/><path d="m341.162 329.536c-21.628 25.929-60.181 29.416-86.111 7.788-25.929-21.628-29.416-60.181-7.788-86.111 25.012-29.986 75.039-39.107 100.236-41.846 8.59-.934 16.224 5.434 16.847 14.052 1.825 25.279 1.828 76.13-23.184 106.117z" fill="#29ce69"/><path d="m15.019 179.547c-.797 5.197-.99 10.343-.63 15.368l132.592 20.324c1.858-4.685 3.215-9.652 4.011-14.849 5.756-37.552-20.017-72.657-57.559-78.412-37.553-5.756-72.658 20.017-78.414 57.569z" fill="#00c780"/><path d="m263.643 374.439h-38.204c0-6.029-.315-11.835-.924-17.437l-13.631-2.365 6.283-30.521c-6.811-19.356-17.295-35.484-29.414-48.892-18.057-19.985-39.726-33.9-58.26-43.421-30.602-15.712-65.406-21.782-99.336-16.108-2.659.447-5.339.964-8.018 1.573-9.399 2.111-18.331-5.095-18.331-14.737 0-6.537 4.192-12.403 10.434-14.352l135.48 18.503s0 0 0-.01c5.46 3.096 10.018 6.181 13.915 9.175 3.745 2.872 8.282 4.385 12.87 4.385 2.223 0 4.446-.355 6.608-1.076 7.643-2.548 16.047-.487 21.68 5.268 1.837 1.878 3.867 4.029 6.039 6.465 20.319 22.787 52.809 70.015 52.809 143.55z" fill="#80e0b7"/><path d="m210.833 230.89c-9.155 9.358-19.823 24.147-23.081 44.334-18.057-19.985-39.726-33.9-58.26-43.421-30.602-15.712-65.406-21.782-99.336-16.108-2.659.447-5.339.964-8.018 1.573-9.399 2.111-18.331-5.095-18.331-14.737 0-6.547 4.202-12.413 10.454-14.362 9.287-2.883 19.64-4.354 29.577-4.994 28.653-1.847 57.347 2.923 84.122 13.306 16.27 6.313 27.455 13.063 35.677 19.366 3.745 2.872 8.282 4.385 12.87 4.385 2.223 0 4.446-.355 6.608-1.076 7.643-2.548 16.047-.487 21.68 5.268 1.836 1.878 3.866 4.03 6.038 6.466z" fill="#36d49b"/><path d="m224.028 334.256c-1.939 8.932-5.745 16.991-10.921 23.832-13.915 18.442-37.737 28.166-61.802 22.939-38.164-8.292-69.405-48.415-83.493-69.476-4.811-7.186-2.7-16.9 4.648-21.436 20.757-12.829 63.284-35.118 100.473-29.384l.01.01 8.698 4.659 8.262.355c25.487 11.733 40.326 39.949 34.125 68.501z" fill="#29ce69"/><path d="m213.107 358.088c-13.915 18.442-37.737 28.166-61.802 22.939-38.164-8.292-69.405-48.415-83.493-69.476-4.811-7.186-2.7-16.9 4.648-21.436 21.568-13.327 66.634-36.874 104.797-28.582 4.446.964 8.678 2.395 12.647 4.222-6.496 21.964-4.537 51.612 20.98 88.882.792 1.157 1.543 2.314 2.223 3.451z" fill="#00c140"/><path d="m360.697 381.022c-32.996 7.167-65.555-13.772-72.722-46.768s13.772-65.555 46.768-72.722c38.159-8.288 83.231 15.256 104.793 28.577 7.351 4.542 9.461 14.256 4.656 21.438-14.093 21.066-45.337 61.187-83.495 69.475z" fill="#00c140"/><path d="m197.74 82.418c-2.111 1.309-4.314 2.335-6.577 3.086-13.083 4.334-27.922-.65-35.535-12.87-7.288-11.703-7.876-33.545-5.044-45.674 1.888-8.12 10.038-13.195 18.158-11.317 3.918.903 8.607 2.588 13.388 4.841 9.998 4.699 20.452 11.906 25.385 19.823 8.931 14.321 4.556 33.179-9.775 42.111z" fill="#ffb3c2"/><path d="m191.163 85.504c-13.083 4.334-27.922-.65-35.535-12.87-7.288-11.703-7.876-33.545-5.044-45.674 1.888-8.12 10.038-13.195 18.158-11.317 3.918.903 8.607 2.588 13.388 4.841-8.912 16.077-16.362 42.152 9.033 65.02z" fill="#ff899f"/><path d="m431.775 366.796c0 6.333-2.568 12.068-6.719 16.209-4.151 4.151-9.886 6.719-16.209 6.719h-305.694c-12.657 0-22.928-10.261-22.928-22.929 0-6.323 2.568-12.058 6.719-16.209 2.233-2.233 4.923-4.009 7.917-5.166l50.475 8.343 58.697-9.896h204.814c12.656.001 22.928 10.272 22.928 22.929z" fill="#c7c4ea"/><path d="m204.033 343.868s-17.468 17.376-26.248 45.857h-74.632c-12.657 0-22.928-10.261-22.928-22.929 0-6.323 2.568-12.058 6.719-16.209s9.886-6.719 16.209-6.719z" fill="#b2aee4"/><g><g><ellipse cx="170.897" cy="464.067" fill="#ffa1ac" rx="31.401" ry="25.006"/><ellipse cx="341.103" cy="464.067" fill="#ffa1ac" rx="31.401" ry="25.006"/><ellipse cx="256" cy="444.854" fill="#495560" rx="16.669" ry="18.652"/></g><g><path d="m206.925 441.306c-4.205 0-7.612-3.408-7.612-7.612 0-3.506-2.853-6.359-6.359-6.359-3.507 0-6.36 2.852-6.36 6.359 0 4.204-3.408 7.612-7.612 7.612s-7.612-3.408-7.612-7.612c0-11.901 9.683-21.583 21.584-21.583s21.583 9.682 21.583 21.583c0 4.204-3.407 7.612-7.612 7.612z" fill="#495560"/></g><g><path d="m331.814 441.306c-4.205 0-7.612-3.408-7.612-7.612 0-3.506-2.853-6.359-6.359-6.359-3.507 0-6.36 2.852-6.36 6.359 0 4.204-3.408 7.612-7.612 7.612s-7.612-3.408-7.612-7.612c0-11.901 9.683-21.583 21.584-21.583s21.583 9.682 21.583 21.583c0 4.204-3.408 7.612-7.612 7.612z" fill="#495560"/></g></g></g></svg>