<svg id="Capa_1" enable-background="new 0 0 512 512" height="512" viewBox="0 0 512 512" width="512" xmlns="http://www.w3.org/2000/svg"><g><path d="m434.428 240.485-38.791 232.724h-279.274l-38.791-232.724z" fill="#fcf5af"/><path d="m205.227 473.209h-88.864l-38.791-232.724h94.365l48.733 64.528c.001-.001-61.261 67.772-15.443 168.196z" fill="#f8ea69"/><path d="m232.725 139.638c-11.622 18.278-40.501 23.244-71.812 18.299-23.305-3.658-47.961-12.817-67.825-26.056-36.792-24.532-49.671-77.788-54.06-103.597-1.463-8.614 3.802-16.939 12.22-19.268 25.253-6.986 78.643-17.124 116.198 6.377 13.167 8.242 25.356 18.597 35.793 29.951 28.982 31.559 44.385 70.865 29.486 94.294z" fill="#29ce69"/><path d="m203.238 45.345c-11.065 14.486-39.512 56.842-42.325 112.592-23.305-3.658-47.961-12.817-67.825-26.056-36.792-24.532-49.671-77.788-54.06-103.597-1.463-8.614 3.802-16.939 12.22-19.268 25.253-6.986 78.643-17.124 116.198 6.377 13.167 8.243 25.355 18.597 35.792 29.952z" fill="#00c140"/><path d="m220.584 178.397c-3.205 0-6.198-2.009-7.303-5.205-.232-.656-18.332-50.162-93.863-98.181-3.602-2.29-4.665-7.065-2.375-10.666 2.29-3.602 7.065-4.666 10.667-2.376 80.666 51.284 99.426 103.978 100.185 106.196 1.382 4.038-.771 8.432-4.808 9.813-.829.284-1.674.419-2.503.419z" fill="#00a62c"/><path d="m344.557 15.396c-49.769 31.149-85.534 92.386-65.284 124.24 20.264 31.875 93.091 23.273 139.636-7.758 36.793-24.528 49.673-77.791 54.059-103.601 1.464-8.612-3.802-16.934-12.221-19.264-25.249-6.986-78.636-17.121-116.19 6.383z" fill="#29ce69"/><path d="m291.413 178.383c-.837 0-1.686-.137-2.52-.426-4.023-1.393-6.167-5.764-4.788-9.792.759-2.218 19.519-54.912 100.185-106.196 3.603-2.289 8.377-1.225 10.667 2.376s1.227 8.376-2.375 10.666c-75.655 48.098-93.69 97.688-93.864 98.184-1.114 3.184-4.108 5.188-7.305 5.188z" fill="#00c140"/><path d="m239.56 277.234c-17.284-33.557-24.873-104.797 8.683-122.082 33.578-17.296 95.687 26.02 112.913 59.634 20.167 39.353 5.008 91.62-4.228 116.117-3.082 8.174-11.826 12.702-20.271 10.466-25.326-6.706-76.811-24.749-97.097-64.135z" fill="#00c140"/><path d="m304.239 261.263c-2.802 0-5.505-1.528-6.876-4.191-43.769-84.979-33.379-139.938-32.916-142.236.844-4.184 4.918-6.897 9.103-6.046 4.176.842 6.88 4.904 6.051 9.079-.118.615-9.509 52.505 31.501 132.126 1.954 3.794.463 8.454-3.331 10.409-1.132.582-2.341.859-3.532.859z" fill="#00a62c"/><path d="m256.258 266.087c-8.242 16.001-21.162 28.787-35.587 38.925l-79.653 24.273-22.038-30.569c-7.758-29.415-12.632-69.195 3.771-101.196 8.758-17.093 22.275-27.612 37.936-32.084 18.133-5.203 39.141-2.277 58.923 7.913 36.843 18.979 55.626 55.895 36.648 92.738z" fill="#29ce69"/><path d="m220.671 305.012c-24.573 17.268-53.504 26.849-71.029 31.496-9.273 2.452-18.865-2.513-22.255-11.487-10.138-26.902-26.788-84.29-4.636-127.5 8.758-17.093 22.275-27.612 37.936-32.084-.34 41.604 14.043 90.017 59.984 139.575z" fill="#00c140"/><path d="m457.035 163.163c0 1.629-.069 3.24-.203 4.829-.331 3.916-2.937 7.304-6.643 8.61-11.956 4.214-26.209 13.909-28.514 36.201-3.379.88-6.9 1.348-10.523 1.348s-7.144-.468-10.523-1.348c-2.305-22.292-16.557-31.987-28.514-36.201-3.707-1.307-6.312-4.694-6.643-8.61-.134-1.59-.203-3.201-.203-4.829 0-35.685 30.586-56.081 45.883-56.081s45.883 20.396 45.883 56.081z" fill="#deddf5"/><path d="m378.924 153.242c1.549.503 3.06 1.067 4.53 1.686 3.622 1.525 6.039 5.05 6.136 8.979.313 12.674 5.129 29.224 25.618 38.305-.207 3.486-.851 6.979-1.97 10.424s-2.652 6.65-4.533 9.591c-21.913-4.697-35.538 5.862-43.241 15.931-2.388 3.122-6.415 4.553-10.242 3.658-1.554-.363-3.107-.796-4.656-1.299-33.939-11.027-43.884-46.419-39.158-60.967 4.728-14.549 33.577-37.336 67.516-26.308z" fill="#c7c4ea"/><path d="m402.712 278.403c-.957-1.318-1.849-2.661-2.674-4.027-2.034-3.363-1.917-7.635.314-10.871 7.196-10.437 13.028-26.658 1.789-46.047 2.216-2.698 4.79-5.146 7.721-7.275s6.054-3.821 9.305-5.095c14.968 16.68 32.197 16.146 44.347 12.528 3.767-1.122 7.866.087 10.436 3.061 1.043 1.207 2.046 2.47 3.003 3.788 20.975 28.87 8.219 63.349-4.157 72.34-12.375 8.99-49.109 10.468-70.084-18.402z" fill="#b2aee4"/><path d="m345.351 224.464c.957-1.318 1.96-2.581 3.003-3.788 2.57-2.974 6.669-4.183 10.436-3.061 12.15 3.618 29.379 4.152 44.347-12.528 3.251 1.274 6.374 2.965 9.305 5.095 2.931 2.129 5.505 4.577 7.721 7.275-11.238 19.39-5.406 35.61 1.789 46.047 2.231 3.236 2.348 7.508.314 10.871-.826 1.365-1.717 2.709-2.674 4.027-20.975 28.87-57.709 27.392-70.084 18.401-12.376-8.99-25.133-43.469-4.157-72.339z" fill="#deddf5"/><path d="m471.737 240.517c-1.549.503-3.102.936-4.656 1.299-3.827.895-7.854-.536-10.242-3.658-7.703-10.069-21.327-20.628-43.241-15.931-1.881-2.942-3.414-6.146-4.533-9.591s-1.763-6.939-1.97-10.424c20.489-9.081 25.305-25.631 25.618-38.305.097-3.929 2.514-7.454 6.136-8.979 1.47-.619 2.981-1.182 4.53-1.686 33.939-11.027 62.788 11.759 67.515 26.307s-5.219 49.94-39.157 60.968z" fill="#c7c4ea"/><circle cx="411.152" cy="213.269" fill="#fcf5af" r="31.03"/><path d="m146.732 163.163c0 1.629-.069 3.24-.203 4.829-.331 3.916-2.937 7.304-6.643 8.61-11.956 4.214-26.209 13.909-28.514 36.201-3.379.88-6.9 1.348-10.523 1.348s-7.144-.468-10.523-1.348c-2.305-22.292-16.557-31.987-28.514-36.201-3.707-1.307-6.312-4.694-6.643-8.61-.135-1.59-.203-3.201-.203-4.829 0-35.685 30.586-56.081 45.883-56.081s45.883 20.396 45.883 56.081z" fill="#deddf5"/><path d="m68.621 153.242c1.549.503 3.06 1.067 4.53 1.686 3.622 1.525 6.039 5.05 6.136 8.979.313 12.674 5.129 29.224 25.618 38.305-.207 3.486-.851 6.979-1.97 10.424s-2.652 6.65-4.533 9.591c-21.913-4.697-35.538 5.862-43.241 15.931-2.388 3.122-6.415 4.553-10.242 3.658-1.554-.363-3.107-.796-4.656-1.299-33.938-11.028-43.884-46.42-39.157-60.968s33.576-37.335 67.515-26.307z" fill="#c7c4ea"/><path d="m92.409 278.403c-.957-1.318-1.849-2.661-2.674-4.027-2.034-3.363-1.917-7.635.314-10.871 7.196-10.437 13.028-26.658 1.789-46.047 2.216-2.698 4.79-5.146 7.721-7.275s6.054-3.821 9.305-5.095c14.968 16.68 32.196 16.146 44.347 12.528 3.767-1.122 7.866.087 10.436 3.061 1.043 1.207 2.046 2.47 3.003 3.788 20.975 28.87 8.219 63.349-4.157 72.34-12.375 8.99-49.109 10.468-70.084-18.402z" fill="#c7c4ea"/><path d="m35.048 224.464c.957-1.318 1.96-2.581 3.003-3.788 2.57-2.974 6.669-4.183 10.436-3.061 12.15 3.618 29.379 4.152 44.347-12.528 3.251 1.274 6.374 2.965 9.305 5.095 2.931 2.129 5.505 4.577 7.721 7.275-11.238 19.39-5.406 35.61 1.789 46.047 2.231 3.236 2.348 7.508.314 10.871-.826 1.365-1.717 2.709-2.674 4.027-20.975 28.87-57.709 27.392-70.084 18.401-12.376-8.99-25.133-43.469-4.157-72.339z" fill="#b2aee4"/><path d="m174.276 234.58c-3.833 2.38-8.108 4.389-12.848 5.934-1.545.505-3.101.938-4.647 1.299-3.833.895-7.861-.536-10.241-3.658-7.707-10.066-21.327-20.626-43.242-15.928-1.885-2.946-3.421-6.151-4.533-9.592-1.123-3.441-1.762-6.934-1.978-10.427 20.493-9.077 25.315-25.624 25.624-38.306.093-3.926 2.514-7.45 6.13-8.974 1.473-.619 2.988-1.185 4.533-1.69 4.204-1.37 8.325-2.215 12.333-2.617l6.316 4.08 9.654-3.451c20.606 3.73 35.875 18.061 39.213 28.302 4.07 12.518-2.72 40.46-26.314 55.028z" fill="#c7c4ea"/><path d="m174.276 234.58c-3.833 2.38-8.108 4.389-12.848 5.934-1.545.505-3.101.938-4.647 1.299-3.833.895-7.861-.536-10.241-3.658-7.707-10.066-21.327-20.626-43.242-15.928-1.885-2.946-3.421-6.151-4.533-9.592-1.123-3.441-1.762-6.934-1.978-10.427 20.493-9.077 25.315-25.624 25.624-38.306.093-3.926 2.514-7.45 6.13-8.974 1.473-.619 2.988-1.185 4.533-1.69 10.045-3.266 19.648-3.565 28.302-1.988-2.245 25.262.64 53.524 12.9 83.33z" fill="#b2aee4"/><circle cx="100.848" cy="213.269" fill="#f8ea69" r="31.03"/><path d="m301.883 56.081c0 1.629-.069 3.24-.203 4.829-.331 3.916-2.937 7.304-6.643 8.61-11.956 4.214-26.209 13.909-28.514 36.201-3.379.88-6.9 1.348-10.523 1.348s-7.144-.468-10.523-1.348c-2.305-22.292-16.557-31.987-28.514-36.201-3.707-1.307-6.312-4.694-6.643-8.61-.135-1.59-.203-3.201-.203-4.829 0-35.685 30.586-56.081 45.883-56.081s45.883 20.396 45.883 56.081z" fill="#deddf5"/><path d="m260.059 95.129c-.206 3.482-.855 6.975-1.968 10.427-1.123 3.441-2.658 6.645-4.533 9.592-21.915-4.698-35.545 5.863-43.242 15.928-2.39 3.122-6.419 4.554-10.241 3.657-1.556-.36-3.111-.793-4.657-1.298-11.838-3.844-20.761-10.663-27.159-18.525l-5.399-41.49 38.554-30.013h.01c1.133-.083 2.287-.134 3.441-.155 6.017-.083 12.364.783 18.906 2.906 1.545.505 3.06 1.072 4.533 1.689 3.616 1.525 6.038 5.049 6.13 8.974.321 12.674 5.133 29.231 25.625 38.308z" fill="#c7c4ea"/><path d="m168.259 114.91c-11.941-14.661-15.084-32.97-12.003-42.438 3.822-11.746 23.357-28.87 48.61-29.22-7.047 8.892-25.953 35.031-36.607 71.658z" fill="#b2aee4"/><path d="m247.561 171.321c-.957-1.318-1.849-2.661-2.674-4.027-2.034-3.363-1.917-7.635.314-10.871 7.196-10.437 13.028-26.658 1.789-46.047 2.216-2.698 4.79-5.146 7.721-7.275s6.054-3.821 9.305-5.095c14.968 16.68 32.197 16.146 44.347 12.528 3.767-1.122 7.866.087 10.436 3.061 1.043 1.207 2.046 2.47 3.003 3.788 20.975 28.87 8.219 63.349-4.157 72.34s-49.109 10.468-70.084-18.402z" fill="#b2aee4"/><path d="m190.199 117.382c.957-1.318 1.96-2.581 3.003-3.788 2.57-2.974 6.669-4.183 10.436-3.061 12.15 3.618 29.379 4.152 44.347-12.528 3.251 1.274 6.374 2.965 9.305 5.095 2.931 2.129 5.505 4.577 7.721 7.275-11.238 19.39-5.406 35.61 1.789 46.047 2.231 3.236 2.348 7.508.314 10.871-.826 1.365-1.717 2.709-2.674 4.027-20.975 28.87-57.709 27.392-70.084 18.401s-25.132-43.469-4.157-72.339z" fill="#deddf5"/><path d="m316.585 133.435c-1.549.503-3.102.936-4.656 1.299-3.827.895-7.854-.536-10.242-3.658-7.703-10.069-21.327-20.628-43.241-15.931-1.881-2.942-3.414-6.146-4.533-9.591s-1.763-6.939-1.97-10.424c20.489-9.081 25.305-25.631 25.618-38.305.097-3.929 2.514-7.454 6.136-8.979 1.47-.619 2.981-1.182 4.53-1.686 33.939-11.027 62.788 11.759 67.515 26.307 4.728 14.549-5.218 49.941-39.157 60.968z" fill="#c7c4ea"/><circle cx="256" cy="106.187" fill="#fcf5af" r="31.03"/><path d="m429.627 469.139-7.789 31.157c-1.721 6.882-7.902 11.704-14.991 11.704h-301.694c-7.088 0-13.27-4.821-14.991-11.704l-7.789-31.157c-2.432-9.747 4.946-19.194 15.001-19.194h15.115l42.232 7.706 41.542-7.706h218.362c10.056 0 17.433 9.448 15.002 19.194z" fill="#deddf5"/><path d="m227.533 512h-122.38c-7.088 0-13.27-4.821-14.991-11.704l-7.789-31.157c-2.432-9.747 4.946-19.194 15.001-19.194h98.889c6.068 19.318 16.021 40.099 31.27 62.055z" fill="#c7c4ea"/><g><g fill="#ffa1ac"><path d="m203.97 402.145c-.029 13.381-13.674 24.198-30.476 24.161s-30.4-10.914-30.371-24.294 13.674-24.198 30.477-24.161c16.802.037 30.4 10.913 30.37 24.294z"/><ellipse cx="338.453" cy="402.439" rx="24.228" ry="30.424" transform="matrix(.002 -1 1 .002 -64.726 740.01)"/></g><g><path d="m191.57 391.76c-4.268 0-7.727-3.459-7.727-7.727v-12.364c0-4.268 3.46-7.727 7.727-7.727s7.727 3.459 7.727 7.727v12.364c0 4.268-3.46 7.727-7.727 7.727z" fill="#495560"/></g><g><path d="m320.252 391.76c-4.268 0-7.727-3.459-7.727-7.727v-12.364c0-4.268 3.46-7.727 7.727-7.727s7.727 3.459 7.727 7.727v12.364c0 4.268-3.459 7.727-7.727 7.727z" fill="#495560"/></g><path d="m285.886 383.677c-4.268 0-7.727 3.459-7.727 7.727 0 3.952-3.215 7.167-7.166 7.167-3.952 0-7.166-3.215-7.166-7.167 0-4.268-3.46-7.727-7.727-7.727s-7.727 3.459-7.727 7.727c0 3.952-3.215 7.167-7.166 7.167s-7.166-3.215-7.166-7.167c0-4.268-3.46-7.727-7.727-7.727s-7.727 3.459-7.727 7.727c0 12.473 10.148 22.621 22.621 22.621 5.701 0 10.911-2.124 14.894-5.616 3.982 3.492 9.193 5.616 14.894 5.616 12.473 0 22.621-10.148 22.621-22.621-.004-4.268-3.464-7.727-7.731-7.727z" fill="#495560"/></g></g></svg>