<svg id="Capa_1" enable-background="new 0 0 512 512" height="512" viewBox="0 0 512 512" width="512" xmlns="http://www.w3.org/2000/svg"><g><path d="m364.605 387.879v93.212c0 17.072-13.837 30.909-30.909 30.909h-155.392c-17.072 0-30.909-13.837-30.909-30.909v-93.212z" fill="#fcf5af"/><path d="m236.723 512h-58.418c-17.072 0-30.909-13.837-30.909-30.909v-93.212h76.552c-16.908 27.684-29.365 72.42 12.775 124.121z" fill="#f8ea69"/><path d="m351.87 121.534c-13.322 5.605-27.983 1.741-37.462-8.057-3.421-3.524-6.161-7.82-7.933-12.714-6.161-17.021-4.286-38.266-.999-53.092 2.473-11.2 15.249-16.629 25.098-10.757 11.065 6.604 24.758 17.031 33.65 29.951 2.195 3.194 4.101 6.532 5.605 10.005 7.469 17.278-.577 37.349-17.959 44.664z" fill="#36d49b"/><path d="m364.224 66.865c-18.453 10.695-35.917 25.686-49.815 46.611-3.421-3.524-6.161-7.82-7.933-12.714-6.161-17.021-4.286-38.266-.999-53.092 2.473-11.2 15.249-16.629 25.098-10.757 11.064 6.606 24.757 17.033 33.649 29.952z" fill="#00c780"/><path d="m320.848 202.135c-10.55 8.51-24.532 9.345-35.989 3.812-5.152-2.473-9.798-6.254-13.384-11.189-10.622-14.661-14.703-35.597-15.661-50.743-.721-11.447 10.046-20.204 21.142-17.289 7.562 1.999 16.444 5.069 24.964 9.396 8.984 4.575 17.587 10.551 23.821 18.123 11.952 14.539 9.789 36.041-4.893 47.89z" fill="#36d49b"/><path d="m276.957 126.726c7.562 1.999 16.444 5.069 24.964 9.396-8.665 19.205-14.744 42.233-17.062 69.824-5.152-2.473-9.798-6.254-13.384-11.189-10.622-14.661-14.703-35.597-15.661-50.743-.721-11.446 10.046-20.203 21.143-17.288z" fill="#00c780"/><path d="m309.576 300.364c-5.1 5.213-11.447 8.335-18.103 9.448-11.272 1.916-23.419-1.906-31.795-11.004-12.261-13.322-18.762-33.64-21.472-48.569-2.061-11.292 7.614-21.245 18.978-19.637 7.964 1.123 17.453 3.235 26.675 6.718 9.18 3.472 18.103 8.314 24.985 14.919 13.57 13.043 13.93 34.659.732 48.125z" fill="#36d49b"/><path d="m283.86 237.32c.35 21.698 2.751 45.777 7.614 72.492-11.272 1.916-23.419-1.906-31.795-11.004-12.261-13.322-18.762-33.64-21.472-48.569-2.061-11.292 7.614-21.245 18.978-19.637 7.964 1.123 17.453 3.235 26.675 6.718z" fill="#00c780"/><path d="m422.931 67.164c-26.376 32.001-89.472 122.03-89.472 250.901h.113v62.055h-31.023v-62.055h-.124c0-154.711 81.652-245.265 103.361-266.603 3.112-3.06 7.686-4.111 11.828-2.73 5.038 1.679 7.975 6.316 7.975 11.086 0 2.555-.845 5.152-2.658 7.346z" fill="#80e0b7"/><g fill="#36d49b"><path d="m381.247 269.029c-17.705 6.369-37.231-2.913-43.444-20.718-6.478-18.565 4.69-38.497 23.564-44.011 17.375-5.076 38.467-1.873 53.05 2.326 11.025 3.174 15.646 16.26 9.163 25.726-9.075 13.252-24.349 30.208-42.333 36.677z"/><path d="m420.035 175.937c-17.705 6.369-37.231-2.913-43.444-20.718-6.478-18.565 4.69-38.497 23.564-44.011 17.375-5.076 38.467-1.873 53.05 2.326 11.025 3.174 15.646 16.26 9.163 25.726-9.075 13.252-24.349 30.208-42.333 36.677z"/><path d="m465.41 18.122c-.495 6.821-1.618 14.774-3.689 22.79-2.802 10.839-7.336 21.801-14.383 30.219-12.086 14.424-33.629 16.258-47.971 4.008-6.213-5.306-9.912-12.343-11.148-19.792-1.731-10.478 1.412-21.75 9.314-30.095 12.456-13.136 32.28-21.008 46.992-24.727 11.128-2.824 21.709 6.15 20.885 17.597z"/></g><path d="m465.41 18.122c-.495 6.821-1.618 14.774-3.689 22.79-19.174.649-46.251 3.802-73.502 14.435-1.731-10.478 1.412-21.75 9.314-30.095 12.456-13.136 32.28-21.008 46.992-24.727 11.128-2.824 21.709 6.15 20.885 17.597z" fill="#00c780"/><path d="m142.171 138.934c-7.465 17.271.576 37.34 17.957 44.656 18.123 7.628 38.715-2.27 45.4-20.762 6.154-17.023 4.278-38.274 1.001-53.092-2.478-11.202-15.249-16.634-25.102-10.756-13.795 8.228-31.674 22.411-39.256 39.954z" fill="#00c140"/><path d="m186.259 229.785c-11.955 14.529-9.786 36.04 4.89 47.882 15.303 12.348 37.83 8.538 49.374-7.379 10.627-14.653 14.709-35.593 15.662-50.739.721-11.45-10.047-20.206-21.142-17.286-15.533 4.086-36.64 12.764-48.784 27.522z" fill="#00c140"/><path d="m209.573 380.121c0-154.705-81.649-245.257-103.358-266.599-3.115-3.062-7.683-4.106-11.826-2.725-7.741 2.58-10.511 12.128-5.322 18.425 26.375 32.003 89.476 122.035 89.476 250.899z" fill="#29ce69"/><path d="m174.193 310.369c-2.256 6.45-6.254 11.787-11.282 15.661-8.84 6.821-20.874 9.118-32.156 5.059-17.989-6.47-33.258-23.419-42.335-36.679-6.481-9.458-1.865-22.553 9.159-25.727 4.698-1.35 10.076-2.596 15.784-3.503 12.003-1.896 25.49-2.256 37.266 1.185 18.877 5.511 30.045 25.437 23.564 44.004z" fill="#00c140"/><path d="m162.912 326.029c-8.84 6.821-20.874 9.118-32.156 5.059-17.989-6.47-33.258-23.419-42.335-36.679-6.481-9.458-1.865-22.553 9.159-25.727 4.698-1.35 10.076-2.596 15.784-3.503 11.591 19.999 27.705 40.429 49.548 60.85z" fill="#00a62c"/><path d="m135.413 217.28c-5.172 14.826-19.586 23.749-34.495 22.626-2.988-.216-5.996-.845-8.953-1.906-17.979-6.47-33.258-23.429-42.335-36.679-6.481-9.468-1.865-22.553 9.17-25.727 8.119-2.329 18.236-4.358 28.622-4.822 8.273-.371 16.722.247 24.429 2.493 18.863 5.513 30.032 25.449 23.562 44.015z" fill="#00c140"/><path d="m91.965 238c-17.979-6.47-33.258-23.429-42.335-36.679-6.481-9.468-1.865-22.553 9.17-25.727 8.119-2.329 18.236-4.358 28.622-4.822-.144 21.502 3.575 44.829 13.497 69.134-2.989-.217-5.997-.845-8.954-1.906z" fill="#00a62c"/><path d="m112.633 137.205c-6.738 5.749-15.073 8.397-23.264 8.088-9.242-.34-18.309-4.451-24.707-12.096-12.272-14.651-16.918-36.999-18.072-53.02-.824-11.437 9.757-20.41 20.884-17.598 12.827 3.256 29.539 9.644 41.861 19.937 1.813 1.514 3.534 3.122 5.131 4.801 13.518 14.27 13.116 37.112-1.833 49.888z" fill="#00c140"/><path d="m64.661 133.197c-12.271-14.651-16.917-36.999-18.071-53.02-.824-11.437 9.757-20.41 20.884-17.598 12.827 3.256 29.539 9.644 41.861 19.937-8.139 16.382-16.33 37.874-19.967 62.777-9.242-.341-18.308-4.451-24.707-12.096z" fill="#00a62c"/><path d="m387.88 387.879c0 6.429-2.607 12.251-6.821 16.464-4.204 4.204-10.025 6.81-16.454 6.81h-217.21c-12.858 0-23.275-10.416-23.275-23.275 0-6.429 2.607-12.25 6.821-16.464 4.204-4.204 10.025-6.81 16.454-6.81h30.837l16.887 4.142 14.177-4.142h155.309c12.858 0 23.275 10.417 23.275 23.275z" fill="#f8ea69"/><path d="m242.07 364.604c-8.201 8.407-21.791 24.707-29.003 46.549h-65.672c-12.858 0-23.275-10.416-23.275-23.275 0-6.429 2.607-12.25 6.821-16.464 4.204-4.204 10.025-6.81 16.454-6.81z" fill="#eedb00"/><g><g><path d="m206.795 464.091c-4.268 0-7.727-3.46-7.727-7.727 0-3.559-2.896-6.455-6.455-6.455s-6.455 2.895-6.455 6.455c0 4.268-3.46 7.727-7.727 7.727-4.268 0-7.727-3.46-7.727-7.727 0-12.081 9.829-21.909 21.91-21.909s21.91 9.828 21.91 21.909c-.001 4.268-3.461 7.727-7.729 7.727z" fill="#495560"/></g><g><path d="m333.569 464.091c-4.268 0-7.727-3.46-7.727-7.727 0-3.559-2.896-6.455-6.455-6.455s-6.455 2.895-6.455 6.455c0 4.268-3.46 7.727-7.727 7.727-4.268 0-7.727-3.46-7.727-7.727 0-12.081 9.829-21.909 21.91-21.909s21.91 9.828 21.91 21.909c-.001 4.268-3.461 7.727-7.729 7.727z" fill="#495560"/></g><g><path d="m256 487.521c-7.999 0-15.606-3.464-20.869-9.504-2.804-3.217-2.469-8.099.749-10.903 3.218-2.803 8.098-2.469 10.903.749 2.328 2.671 5.688 4.203 9.218 4.203s6.89-1.532 9.218-4.203c2.804-3.218 7.685-3.552 10.903-.749 3.217 2.804 3.552 7.686.749 10.903-5.265 6.04-12.872 9.504-20.871 9.504z" fill="#495560"/></g></g></g></svg>